<svg width="24" height="24" viewBox="0 0 24 24" fill="none" xmlns="http://www.w3.org/2000/svg">
<path d="M17.3747 10.7075L20.1066 8.13687L20.1225 8.12093C20.6852 7.55826 21.0013 6.79511 21.0013 5.99937C21.0013 5.20363 20.6852 4.44048 20.1225 3.8778C19.5598 3.31513 18.7967 2.99902 18.0009 2.99902C17.2052 2.99902 16.4421 3.31513 15.8794 3.8778C15.8794 3.88343 15.8691 3.88812 15.8634 3.89374L13.2928 6.62562L5.51157 3.79437C5.37746 3.74559 5.23221 3.73608 5.09289 3.76697C4.95356 3.79786 4.82594 3.86785 4.72501 3.96874L2.47501 6.21874C2.3966 6.29721 2.33658 6.39209 2.29926 6.49655C2.26195 6.60101 2.24826 6.71244 2.2592 6.82283C2.27014 6.93321 2.30543 7.03979 2.36253 7.1349C2.41962 7.23 2.4971 7.31125 2.58938 7.3728L8.57907 11.3656L7.18969 12.7503H5.25001C5.05136 12.7504 4.86086 12.8293 4.72032 12.9697L2.47032 15.2197C2.38257 15.3072 2.31788 15.4151 2.28204 15.5338C2.2462 15.6524 2.24032 15.7781 2.26493 15.8996C2.28955 16.0211 2.34388 16.1345 2.42307 16.2299C2.50227 16.3252 2.60386 16.3995 2.71876 16.4459L6.17063 17.8269L7.54876 21.2722L7.55438 21.2872C7.60206 21.4026 7.67779 21.5043 7.77471 21.583C7.87164 21.6617 7.98668 21.715 8.10941 21.738C8.23214 21.761 8.35867 21.753 8.47752 21.7147C8.59637 21.6764 8.70378 21.6091 8.79001 21.5187L11.0278 19.28C11.0978 19.2106 11.1535 19.1281 11.1916 19.0373C11.2298 18.9464 11.2496 18.8489 11.25 18.7503V16.8106L12.6338 15.4269L16.6266 21.4166C16.6881 21.5088 16.7694 21.5863 16.8645 21.6434C16.9596 21.7005 17.0662 21.7358 17.1765 21.7467C17.2869 21.7577 17.3984 21.744 17.5028 21.7067C17.6073 21.6694 17.7022 21.6093 17.7806 21.5309L20.0306 19.2809C20.1315 19.18 20.2015 19.0524 20.2324 18.913C20.2633 18.7737 20.2538 18.6285 20.205 18.4944L17.3747 10.7075ZM17.3681 19.8228L13.3753 13.8341C13.3141 13.7411 13.233 13.6629 13.1378 13.6051C13.0426 13.5474 12.9358 13.5116 12.825 13.5003C12.7997 13.5003 12.7753 13.5003 12.7509 13.5003C12.6524 13.5003 12.5547 13.5198 12.4637 13.5576C12.3726 13.5954 12.2899 13.6508 12.2203 13.7206L9.97032 15.9706C9.82959 16.111 9.75035 16.3015 9.75001 16.5003V18.44L8.52469 19.6653L7.44657 16.9691C7.40885 16.8754 7.35262 16.7904 7.28126 16.7191C7.2099 16.6477 7.12486 16.5915 7.03126 16.5537L4.33688 15.4756L5.56126 14.2503H7.50001C7.59853 14.2504 7.6961 14.231 7.78714 14.1934C7.87819 14.1558 7.96093 14.1006 8.03063 14.0309L10.2806 11.7809C10.3592 11.7025 10.4194 11.6075 10.4568 11.503C10.4942 11.3984 10.5079 11.2868 10.497 11.1763C10.4861 11.0658 10.4507 10.9591 10.3935 10.8639C10.3363 10.7688 10.2587 10.6875 10.1663 10.6259L4.17751 6.63218L5.44313 5.36749L13.245 8.20437C13.3825 8.25488 13.5317 8.26404 13.6743 8.23072C13.8169 8.1974 13.9467 8.12306 14.0475 8.01687L16.9481 4.93155C17.2309 4.6571 17.6102 4.50491 18.0042 4.50787C18.3982 4.51084 18.7753 4.66872 19.0538 4.94741C19.3324 5.22609 19.4901 5.60318 19.4929 5.9972C19.4957 6.39122 19.3433 6.77051 19.0688 7.05312L15.9872 9.9528C15.881 10.0537 15.8067 10.1834 15.7733 10.326C15.74 10.4686 15.7492 10.6178 15.7997 10.7553L18.6366 18.5572L17.3681 19.8228Z" fill="#A0A0A0"/>
</svg>
