<svg width="31" height="29" viewBox="0 0 31 29" fill="none" xmlns="http://www.w3.org/2000/svg">
<path d="M3.27051 28.95C2.44551 28.95 1.73926 28.6562 1.15176 28.0687C0.564258 27.4812 0.270508 26.775 0.270508 25.95V9.44995C0.270508 8.62495 0.564258 7.9187 1.15176 7.3312C1.73926 6.7437 2.44551 6.44995 3.27051 6.44995H9.27051V3.44995C9.27051 2.62495 9.56426 1.9187 10.1518 1.3312C10.7393 0.743701 11.4455 0.449951 12.2705 0.449951H18.2705C19.0955 0.449951 19.8018 0.743701 20.3893 1.3312C20.9768 1.9187 21.2705 2.62495 21.2705 3.44995V6.44995H27.2705C28.0955 6.44995 28.8018 6.7437 29.3893 7.3312C29.9768 7.9187 30.2705 8.62495 30.2705 9.44995V25.95C30.2705 26.775 29.9768 27.4812 29.3893 28.0687C28.8018 28.6562 28.0955 28.95 27.2705 28.95H3.27051ZM3.27051 25.95H27.2705V9.44995H3.27051V25.95ZM12.2705 6.44995H18.2705V3.44995H12.2705V6.44995Z" fill="white"/>
</svg>
