<svg width="64" height="64" viewBox="0 0 64 64" fill="none" xmlns="http://www.w3.org/2000/svg">
<path d="M31.6667 43.8142L43.8142 31.6667L31.6667 19.5192L28.1858 23L34.3525 29.1667H19.1667V34.1667H34.3525L28.1858 40.3333L31.6667 43.8142ZM31.6725 63.3333C27.2925 63.3333 23.1756 62.5022 19.3217 60.84C15.4678 59.1778 12.1156 56.9219 9.265 54.0725C6.41444 51.2231 4.1575 47.8722 2.49417 44.02C0.831388 40.1678 0 36.0519 0 31.6725C0 27.2925 0.831111 23.1756 2.49333 19.3217C4.15556 15.4678 6.41139 12.1156 9.26083 9.265C12.1103 6.41444 15.4611 4.1575 19.3133 2.49417C23.1656 0.831388 27.2814 0 31.6608 0C36.0408 0 40.1578 0.83111 44.0117 2.49333C47.8656 4.15555 51.2178 6.41139 54.0683 9.26083C56.9189 12.1103 59.1758 15.4611 60.8392 19.3133C62.5019 23.1656 63.3333 27.2814 63.3333 31.6608C63.3333 36.0408 62.5022 40.1578 60.84 44.0117C59.1778 47.8656 56.9219 51.2178 54.0725 54.0683C51.2231 56.9189 47.8722 59.1758 44.02 60.8392C40.1678 62.5019 36.0519 63.3333 31.6725 63.3333ZM31.6667 58.3333C39.1111 58.3333 45.4167 55.75 50.5833 50.5833C55.75 45.4167 58.3333 39.1111 58.3333 31.6667C58.3333 24.2222 55.75 17.9167 50.5833 12.75C45.4167 7.58333 39.1111 5 31.6667 5C24.2222 5 17.9167 7.58333 12.75 12.75C7.58333 17.9167 5 24.2222 5 31.6667C5 39.1111 7.58333 45.4167 12.75 50.5833C17.9167 55.75 24.2222 58.3333 31.6667 58.3333Z" fill="#697865"/>
</svg>
