<svg width="25" height="25" viewBox="0 0 25 25" fill="none" xmlns="http://www.w3.org/2000/svg">
<g clip-path="url(#clip0_3_695)">
<path d="M24.2212 12.1196C24.2212 5.70777 19.0235 0.509979 12.6116 0.509979C6.19974 0.509979 1.00204 5.70782 1.00204 12.1196C1.00204 18.5313 6.19984 23.7292 12.6116 23.7292C19.0235 23.7292 24.2212 18.5314 24.2212 12.1196Z" fill="#697865"/>
<path d="M18.781 7.71228L16.5903 11.9348C16.5302 12.0507 16.5302 12.1885 16.5903 12.3044L18.781 16.5269C18.9519 16.8562 18.6226 17.221 18.2775 17.0848L6.64961 12.4927C6.31117 12.3591 6.31117 11.8801 6.64961 11.7465L18.2776 7.15442C18.6226 7.01815 18.9518 7.38303 18.781 7.71228Z" fill="white"/>
<path opacity="0.1" d="M4.12538 12.1196C4.12538 6.23746 8.50009 1.37778 14.1733 0.614886C13.6624 0.546167 13.1413 0.509979 12.6116 0.509979C6.19984 0.510026 1.00204 5.70782 1.00204 12.1196C1.00204 18.5313 6.19984 23.7292 12.6117 23.7292C13.1414 23.7292 13.6625 23.693 14.1734 23.6243C8.50014 22.8615 4.12538 18.0018 4.12538 12.1196Z" fill="black"/>
<path d="M6.79297 12.1096L12.6137 9.81088C12.8143 9.7317 12.9126 9.50488 12.8335 9.30439C12.7543 9.10376 12.5273 9.00547 12.327 9.08464L6.50618 11.3833C6.20192 11.5035 6.00537 11.7925 6.00537 12.1196C6.00537 12.4468 6.20197 12.7357 6.50618 12.8558L18.1342 17.4479C18.2303 17.4859 18.3297 17.5043 18.4279 17.5043C18.6465 17.5043 18.8584 17.4128 19.0127 17.2419C19.2361 16.9943 19.2812 16.6431 19.1276 16.3471L16.9369 12.1245C16.9353 12.1214 16.9353 12.1177 16.9369 12.1146L19.1276 7.89209C19.2812 7.59603 19.2361 7.24484 19.0126 6.99725C18.7893 6.7496 18.4443 6.6687 18.1342 6.79132L13.9103 8.45942C13.7097 8.53859 13.6114 8.76542 13.6905 8.9659C13.7697 9.16648 13.9966 9.26483 14.197 9.18566L18.4209 7.51756C18.4244 7.51615 18.4266 7.51573 18.4268 7.51554C18.4306 7.51709 18.4364 7.52356 18.4371 7.52586C18.4371 7.52586 18.4367 7.52806 18.4344 7.53251L16.2435 11.7551C16.1252 11.9834 16.1252 12.2559 16.2436 12.4842L18.4343 16.7068C18.4361 16.7101 18.4367 16.7122 18.437 16.7124C18.4358 16.7164 18.43 16.7227 18.4277 16.7237C18.4277 16.7237 18.4255 16.7236 18.4208 16.7217L6.79283 12.1296C6.78936 12.1282 6.78753 12.1272 6.78753 12.1272C6.78556 12.1237 6.78561 12.1151 6.78664 12.1128C6.78687 12.1127 6.78847 12.1114 6.79297 12.1096Z" fill="white"/>
</g>
<defs>
<clipPath id="clip0_3_695">
<rect width="24" height="24" fill="white" transform="translate(0.611633 0.119598)"/>
</clipPath>
</defs>
</svg>
