<svg width="51" height="57" viewBox="0 0 51 57" fill="none" xmlns="http://www.w3.org/2000/svg">
<path d="M5.65006 56.5007C4.0963 56.5007 2.76618 55.9474 1.65971 54.841C0.553236 53.7345 0 52.4044 0 50.8506V11.3001C0 9.74636 0.553236 8.41624 1.65971 7.30977C2.76618 6.2033 4.0963 5.65007 5.65006 5.65007H17.5152C18.1273 3.95505 19.1514 2.58961 20.5874 1.55377C22.0235 0.517923 23.6361 0 25.4253 0C27.2145 0 28.8271 0.517923 30.2632 1.55377C31.6992 2.58961 32.7233 3.95505 33.3354 5.65007H45.2005C46.7543 5.65007 48.0844 6.2033 49.1909 7.30977C50.2974 8.41624 50.8506 9.74636 50.8506 11.3001V50.8506C50.8506 52.4044 50.2974 53.7345 49.1909 54.841C48.0844 55.9474 46.7543 56.5007 45.2005 56.5007H5.65006ZM11.3001 45.2005H31.0754V39.5505H11.3001V45.2005ZM11.3001 33.9004H39.5505V28.2503H11.3001V33.9004ZM11.3001 22.6003H39.5505V16.9502H11.3001V22.6003ZM25.4253 9.18136C26.0374 9.18136 26.5435 8.98125 26.9437 8.58104C27.344 8.18082 27.5441 7.67467 27.5441 7.06258C27.5441 6.45049 27.344 5.94434 26.9437 5.54413C26.5435 5.14391 26.0374 4.94381 25.4253 4.94381C24.8132 4.94381 24.3071 5.14391 23.9068 5.54413C23.5066 5.94434 23.3065 6.45049 23.3065 7.06258C23.3065 7.67467 23.5066 8.18082 23.9068 8.58104C24.3071 8.98125 24.8132 9.18136 25.4253 9.18136Z" fill="#1C1B1F" fill-opacity="0.2"/>
</svg>
