<svg width="20" height="21" viewBox="0 0 20 21" fill="none" xmlns="http://www.w3.org/2000/svg">
<path d="M16.875 5.5H13.75C13.75 4.50544 13.3549 3.55161 12.6517 2.84835C11.9484 2.14509 10.9946 1.75 10 1.75C9.00544 1.75 8.05161 2.14509 7.34835 2.84835C6.64509 3.55161 6.25 4.50544 6.25 5.5H3.125C2.79348 5.5 2.47554 5.6317 2.24112 5.86612C2.0067 6.10054 1.875 6.41848 1.875 6.75V16.125C1.875 16.4565 2.0067 16.7745 2.24112 17.0089C2.47554 17.2433 2.79348 17.375 3.125 17.375H16.875C17.2065 17.375 17.5245 17.2433 17.7589 17.0089C17.9933 16.7745 18.125 16.4565 18.125 16.125V6.75C18.125 6.41848 17.9933 6.10054 17.7589 5.86612C17.5245 5.6317 17.2065 5.5 16.875 5.5ZM10 3C10.663 3 11.2989 3.26339 11.7678 3.73223C12.2366 4.20107 12.5 4.83696 12.5 5.5H7.5C7.5 4.83696 7.76339 4.20107 8.23223 3.73223C8.70107 3.26339 9.33696 3 10 3ZM16.875 16.125H3.125V6.75H6.25V8C6.25 8.16576 6.31585 8.32473 6.43306 8.44194C6.55027 8.55915 6.70924 8.625 6.875 8.625C7.04076 8.625 7.19973 8.55915 7.31694 8.44194C7.43415 8.32473 7.5 8.16576 7.5 8V6.75H12.5V8C12.5 8.16576 12.5658 8.32473 12.6831 8.44194C12.8003 8.55915 12.9592 8.625 13.125 8.625C13.2908 8.625 13.4497 8.55915 13.5669 8.44194C13.6842 8.32473 13.75 8.16576 13.75 8V6.75H16.875V16.125Z" fill="#697865"/>
</svg>
