<svg width="19" height="19" viewBox="0 0 19 19" fill="none" xmlns="http://www.w3.org/2000/svg">
<g clip-path="url(#clip0_1852_11314)">
<path d="M10.877 4.66148V3.1076H7.76925V4.66148H10.877ZM3.1076 6.99231V13.9848C3.1076 14.4121 3.45722 14.7617 3.88454 14.7617H14.7617C15.189 14.7617 15.5387 14.4121 15.5387 13.9848V6.99231C15.5387 6.56499 15.189 6.21537 14.7617 6.21537H3.88454C3.45722 6.21537 3.1076 6.56499 3.1076 6.99231ZM15.5387 4.66148C16.4011 4.66148 17.0926 5.35296 17.0926 6.21537V14.7617C17.0926 15.6241 16.4011 16.3156 15.5387 16.3156H3.1076C2.24519 16.3156 1.55371 15.6241 1.55371 14.7617L1.56148 6.21537C1.56148 5.35296 2.24519 4.66148 3.1076 4.66148H6.21537V3.1076C6.21537 2.24519 6.90684 1.55371 7.76925 1.55371H10.877C11.7394 1.55371 12.4309 2.24519 12.4309 3.1076V4.66148H15.5387Z" fill="#575757"/>
</g>
<defs>
<clipPath id="clip0_1852_11314">
<rect width="18.6466" height="18.6466" fill="white"/>
</clipPath>
</defs>
</svg>
