<svg width="21" height="21" viewBox="0 0 21 21" fill="none" xmlns="http://www.w3.org/2000/svg">
<path d="M15.0615 3H6.31152C5.98 3 5.66206 3.1317 5.42764 3.36612C5.19322 3.60054 5.06152 3.91848 5.06152 4.25V18C5.06158 18.1115 5.09148 18.221 5.14813 18.3171C5.20478 18.4132 5.28611 18.4924 5.38368 18.5464C5.48125 18.6005 5.59151 18.6274 5.70301 18.6245C5.81451 18.6215 5.92319 18.5888 6.01777 18.5297L10.6865 15.6117L15.3561 18.5297C15.4506 18.5886 15.5592 18.6212 15.6706 18.624C15.782 18.6268 15.8921 18.5998 15.9896 18.5458C16.087 18.4918 16.1682 18.4127 16.2248 18.3167C16.2815 18.2208 16.3114 18.1114 16.3115 18V4.25C16.3115 3.91848 16.1798 3.60054 15.9454 3.36612C15.711 3.1317 15.393 3 15.0615 3ZM15.0615 16.8727L11.017 14.3453C10.9177 14.2832 10.8029 14.2503 10.6857 14.2503C10.5686 14.2503 10.4538 14.2832 10.3545 14.3453L6.31152 16.8727V4.25H15.0615V16.8727Z" fill="#697865"/>
</svg>
