<svg width="21" height="20" viewBox="0 0 21 20" fill="none" xmlns="http://www.w3.org/2000/svg">
<g clip-path="url(#clip0_638_4452)">
<mask id="mask0_638_4452" style="mask-type:alpha" maskUnits="userSpaceOnUse" x="-2" y="-2" width="25" height="25">
<rect x="-1.0542" y="-1.58691" width="24" height="24" fill="#D9D9D9"/>
</mask>
<g mask="url(#mask0_638_4452)">
<path d="M10.1958 11.1631H5.1958C4.9833 11.1631 4.80522 11.0912 4.66155 10.9473C4.51772 10.8035 4.4458 10.6253 4.4458 10.4128C4.4458 10.2002 4.51772 10.0221 4.66155 9.87859C4.80522 9.73492 4.9833 9.66309 5.1958 9.66309H10.1958V4.66309C10.1958 4.45059 10.2677 4.2725 10.4116 4.12884C10.5554 3.985 10.7336 3.91309 10.9461 3.91309C11.1587 3.91309 11.3368 3.985 11.4803 4.12884C11.624 4.2725 11.6958 4.45059 11.6958 4.66309V9.66309H16.6958C16.9083 9.66309 17.0864 9.735 17.2301 9.87884C17.3739 10.0227 17.4458 10.2008 17.4458 10.4133C17.4458 10.626 17.3739 10.8041 17.2301 10.9476C17.0864 11.0913 16.9083 11.1631 16.6958 11.1631H11.6958V16.1631C11.6958 16.3756 11.6239 16.5537 11.4801 16.6973C11.3362 16.8412 11.1581 16.9131 10.9456 16.9131C10.7329 16.9131 10.5548 16.8412 10.4113 16.6973C10.2676 16.5537 10.1958 16.3756 10.1958 16.1631V11.1631Z" fill="white"/>
</g>
</g>
<defs>
<clipPath id="clip0_638_4452">
<rect width="20" height="20" fill="white" transform="translate(0.5)"/>
</clipPath>
</defs>
</svg>
