<svg width="19" height="19" viewBox="0 0 19 19" fill="none" xmlns="http://www.w3.org/2000/svg">
<g clip-path="url(#clip0_1852_11306)">
<path opacity="0.3" d="M9.32324 8.54607H10.8771V10.1H9.32324V11.6538H10.8771V13.2077H9.32324V14.7616H15.5388V6.99219H9.32324V8.54607ZM12.431 8.54607H13.9849V10.1H12.431V8.54607ZM12.431 11.6538H13.9849V13.2077H12.431V11.6538Z" fill="#575757"/>
<path d="M9.32313 5.43882V2.33105H1.55371V16.316H17.0926V5.43882H9.32313ZM4.66148 14.7621H3.1076V13.2082H4.66148V14.7621ZM4.66148 11.6544H3.1076V10.1005H4.66148V11.6544ZM4.66148 8.54659H3.1076V6.99271H4.66148V8.54659ZM4.66148 5.43882H3.1076V3.88494H4.66148V5.43882ZM7.76925 14.7621H6.21537V13.2082H7.76925V14.7621ZM7.76925 11.6544H6.21537V10.1005H7.76925V11.6544ZM7.76925 8.54659H6.21537V6.99271H7.76925V8.54659ZM7.76925 5.43882H6.21537V3.88494H7.76925V5.43882ZM15.5387 14.7621H9.32313V13.2082H10.877V11.6544H9.32313V10.1005H10.877V8.54659H9.32313V6.99271H15.5387V14.7621ZM12.4309 8.54659H13.9848V10.1005H12.4309V8.54659ZM12.4309 11.6544H13.9848V13.2082H12.4309V11.6544Z" fill="#575757"/>
</g>
<defs>
<clipPath id="clip0_1852_11306">
<rect width="18.6466" height="18.6466" fill="white"/>
</clipPath>
</defs>
</svg>
