<svg width="25" height="24" viewBox="0 0 25 24" fill="none" xmlns="http://www.w3.org/2000/svg">
<path d="M19.834 3H17.584V2.25C17.584 2.05109 17.505 1.86032 17.3643 1.71967C17.2237 1.57902 17.0329 1.5 16.834 1.5C16.6351 1.5 16.4443 1.57902 16.3037 1.71967C16.163 1.86032 16.084 2.05109 16.084 2.25V3H8.58398V2.25C8.58398 2.05109 8.50497 1.86032 8.36431 1.71967C8.22366 1.57902 8.0329 1.5 7.83398 1.5C7.63507 1.5 7.44431 1.57902 7.30365 1.71967C7.163 1.86032 7.08398 2.05109 7.08398 2.25V3H4.83398C4.43616 3 4.05463 3.15804 3.77332 3.43934C3.49202 3.72064 3.33398 4.10218 3.33398 4.5V19.5C3.33398 19.8978 3.49202 20.2794 3.77332 20.5607C4.05463 20.842 4.43616 21 4.83398 21H19.834C20.2318 21 20.6133 20.842 20.8946 20.5607C21.1759 20.2794 21.334 19.8978 21.334 19.5V4.5C21.334 4.10218 21.1759 3.72064 20.8946 3.43934C20.6133 3.15804 20.2318 3 19.834 3ZM7.08398 4.5V5.25C7.08398 5.44891 7.163 5.63968 7.30365 5.78033C7.44431 5.92098 7.63507 6 7.83398 6C8.0329 6 8.22366 5.92098 8.36431 5.78033C8.50497 5.63968 8.58398 5.44891 8.58398 5.25V4.5H16.084V5.25C16.084 5.44891 16.163 5.63968 16.3037 5.78033C16.4443 5.92098 16.6351 6 16.834 6C17.0329 6 17.2237 5.92098 17.3643 5.78033C17.505 5.63968 17.584 5.44891 17.584 5.25V4.5H19.834V7.5H4.83398V4.5H7.08398ZM19.834 19.5H4.83398V9H19.834V19.5ZM10.834 11.25V17.25C10.834 17.4489 10.755 17.6397 10.6143 17.7803C10.4737 17.921 10.2829 18 10.084 18C9.88507 18 9.69431 17.921 9.55365 17.7803C9.413 17.6397 9.33398 17.4489 9.33398 17.25V12.4631L8.91961 12.6713C8.74158 12.7603 8.53549 12.7749 8.34666 12.712C8.15784 12.649 8.00175 12.5137 7.91273 12.3356C7.82372 12.1576 7.80907 11.9515 7.87202 11.7627C7.93496 11.5739 8.07033 11.4178 8.24836 11.3287L9.74836 10.5787C9.86275 10.5215 9.98987 10.4945 10.1177 10.5002C10.2454 10.506 10.3696 10.5443 10.4784 10.6116C10.5872 10.6788 10.677 10.7728 10.7392 10.8845C10.8015 10.9963 10.8341 11.1221 10.834 11.25ZM16.3802 14.1047L14.584 16.5H16.084C16.2829 16.5 16.4737 16.579 16.6143 16.7197C16.755 16.8603 16.834 17.0511 16.834 17.25C16.834 17.4489 16.755 17.6397 16.6143 17.7803C16.4737 17.921 16.2829 18 16.084 18H13.084C12.9447 18 12.8082 17.9612 12.6897 17.888C12.5712 17.8148 12.4755 17.71 12.4132 17.5854C12.3509 17.4608 12.3245 17.3214 12.337 17.1826C12.3495 17.0439 12.4004 16.9114 12.484 16.8L15.1821 13.2028C15.2435 13.1211 15.2875 13.0277 15.3115 12.9284C15.3355 12.8291 15.3389 12.7259 15.3216 12.6252C15.3043 12.5245 15.2665 12.4284 15.2107 12.3428C15.1549 12.2572 15.0822 12.1839 14.9971 12.1274C14.9119 12.0709 14.8161 12.0324 14.7155 12.0143C14.615 11.9961 14.5118 11.9987 14.4123 12.0219C14.3127 12.0451 14.219 12.0884 14.1368 12.1491C14.0546 12.2098 13.9857 12.2867 13.9343 12.375C13.8865 12.463 13.8216 12.5406 13.7433 12.6031C13.6651 12.6656 13.5751 12.7118 13.4787 12.739C13.3823 12.7661 13.2814 12.7737 13.1821 12.7613C13.0827 12.7489 12.9868 12.7166 12.9001 12.6665C12.8133 12.6165 12.7375 12.5495 12.6771 12.4696C12.6167 12.3898 12.5729 12.2986 12.5482 12.2015C12.5236 12.1044 12.5187 12.0034 12.5337 11.9044C12.5488 11.8054 12.5835 11.7104 12.6359 11.625C12.8836 11.1963 13.2659 10.8612 13.7234 10.6718C14.1809 10.4824 14.6881 10.4493 15.1664 10.5774C15.6447 10.7056 16.0673 10.988 16.3688 11.3808C16.6703 11.7736 16.8338 12.2548 16.834 12.75C16.8356 13.2391 16.6761 13.7152 16.3802 14.1047Z" fill="#A0A0A0"/>
</svg>
