<svg width="154" height="157" viewBox="0 0 154 157" fill="none" xmlns="http://www.w3.org/2000/svg">
<path d="M84.5186 5.26855C84.6333 5.40143 84.7364 5.54432 84.8266 5.69559C85.097 6.12975 85.287 6.61081 85.3871 7.11487C85.557 7.91339 85.5274 8.74261 85.3009 9.52639C85.0065 10.5783 84.3303 11.4764 83.4098 12.0384C82.8539 12.3766 82.237 12.5975 81.5958 12.6882C80.9546 12.7788 80.302 12.7372 79.6768 12.5659C78.9703 12.3827 78.3327 11.9905 77.8442 11.4387C77.5902 11.1435 77.3983 10.7983 77.2806 10.4244C77.1599 10.0277 77.1773 9.60067 77.3299 9.21553C77.5154 8.83299 77.8132 8.51887 78.182 8.31685C78.5507 8.11482 78.972 8.03493 79.3873 8.08827C80.2357 8.2041 81.0155 8.62503 81.5864 9.27519C82.1965 9.93429 82.6245 10.7464 82.8269 11.6288C83.0292 12.5113 82.9987 13.4327 82.7383 14.2992C82.4424 15.1526 81.9274 15.9095 81.247 16.491C80.5667 17.0726 79.7458 17.4575 78.8699 17.6056C78.0386 17.7608 77.1809 17.6603 76.4059 17.3167C76.0245 17.144 75.6888 16.8814 75.4264 16.5506C75.1699 16.2162 75.0204 15.8095 74.9983 15.3856C74.9631 14.9696 75.0818 14.5552 75.3309 14.2238C75.5845 13.9132 75.9363 13.7023 76.3258 13.6272C76.6879 13.5589 77.0603 13.5709 77.4174 13.6624C77.7746 13.754 78.1082 13.923 78.3955 14.1579C78.9331 14.5863 79.3323 15.1693 79.5413 15.8315C79.726 16.4427 79.7472 17.0931 79.6029 17.7155C79.3414 18.7739 78.7529 19.7184 77.9243 20.4096C77.3087 20.9239 76.6161 21.3342 75.873 21.6248C75.2476 21.8839 74.5972 22.0755 73.9326 22.1963C73.9733 22.1776 74.0155 22.1629 74.0589 22.1523L74.4316 22.0424C74.9094 21.9011 75.3792 21.7334 75.8391 21.54C76.5655 21.239 77.2411 20.8237 77.8411 20.3092C78.6339 19.6274 79.1928 18.7056 79.4366 17.6778C79.5696 17.0865 79.5451 16.4696 79.3657 15.8912C79.1636 15.2689 78.784 14.7222 78.2754 14.3212C78.0098 14.1056 77.7018 13.9508 77.3723 13.8674C77.0428 13.7839 76.6995 13.7738 76.3658 13.8376C76.0227 13.9038 75.7132 14.0905 75.4911 14.3651C75.2771 14.656 75.1761 15.0172 75.2077 15.3794C75.2325 15.7541 75.3666 16.1128 75.5927 16.4093C75.8352 16.7107 76.1431 16.9504 76.4921 17.1095C77.2306 17.4317 78.0463 17.5235 78.836 17.3733C79.6708 17.2337 80.4539 16.869 81.1038 16.3168C81.7537 15.7647 82.2468 15.0453 82.532 14.2333C82.777 13.4082 82.8047 12.5318 82.6122 11.6924C82.4197 10.8529 82.0139 10.0799 81.4355 9.45103C80.903 8.84216 80.1764 8.44505 79.3842 8.33005C79.0135 8.27805 78.6361 8.34543 78.3048 8.52276C77.9735 8.7001 77.7048 8.97853 77.5362 9.31915C77.4013 9.65707 77.3861 10.0323 77.4931 10.3805C77.5981 10.7277 77.7733 11.0486 78.0075 11.3225C78.4677 11.8475 79.0699 12.2222 79.7384 12.3995C80.3389 12.5676 80.9663 12.6115 81.5836 12.5284C82.2009 12.4454 82.7957 12.2371 83.3328 11.9159C84.2257 11.3777 84.8858 10.5151 85.1808 9.50127C85.4103 8.73724 85.4516 7.9273 85.3009 7.14313C85.2103 6.64697 85.0374 6.17019 84.7896 5.73327C84.6202 5.42241 84.5063 5.27797 84.5186 5.26855Z" fill="#E0E0E0"/>
<path d="M56.5273 135.808C56.6421 135.94 56.7451 136.083 56.8353 136.235C57.1058 136.668 57.2959 137.148 57.3959 137.651C57.5658 138.45 57.5361 139.281 57.3096 140.065C57.0166 141.118 56.3401 142.017 55.4185 142.577C54.8632 142.917 54.2464 143.139 53.605 143.23C52.9637 143.321 52.3109 143.28 51.6856 143.108C50.9725 142.928 50.3288 142.535 49.8376 141.978C49.5819 141.685 49.3898 141.34 49.2739 140.967C49.1517 140.57 49.1691 140.143 49.3232 139.758C49.5086 139.375 49.8063 139.06 50.175 138.858C50.5437 138.655 50.965 138.575 51.3806 138.627C52.2282 138.746 53.0072 139.166 53.5798 139.814C54.1893 140.474 54.617 141.286 54.8193 142.168C55.0216 143.05 54.9914 143.972 54.7317 144.838C54.4358 145.692 53.9208 146.449 53.2404 147.03C52.56 147.612 51.7391 147.997 50.8632 148.145C50.032 148.3 49.1742 148.199 48.3992 147.856C48.018 147.683 47.6824 147.42 47.4198 147.09C47.1665 146.757 47.0174 146.354 46.9916 145.934C46.9592 145.518 47.0787 145.104 47.3274 144.772C47.5804 144.461 47.9324 144.25 48.3222 144.176C48.6843 144.107 49.0568 144.119 49.414 144.21C49.7712 144.302 50.1048 144.471 50.392 144.706C50.9278 145.135 51.3266 145.717 51.5377 146.377C51.7223 146.988 51.7425 147.639 51.5962 148.261C51.3378 149.319 50.7512 150.264 49.9238 150.955C49.3082 151.469 48.6156 151.879 47.8725 152.17C47.2469 152.429 46.5966 152.62 45.9321 152.742C45.9725 152.722 46.0149 152.708 46.0584 152.698L46.4311 152.588C46.9089 152.446 47.3788 152.279 47.8386 152.085C48.5645 151.783 49.2398 151.368 49.8406 150.854C50.6335 150.173 51.1923 149.251 51.4361 148.223C51.5691 147.632 51.5446 147.015 51.3652 146.437C51.1628 145.814 50.7832 145.268 50.2749 144.867C50.0092 144.651 49.701 144.497 49.3715 144.414C49.042 144.331 48.6988 144.322 48.3653 144.386C48.0229 144.452 47.7137 144.638 47.4906 144.91C47.2764 145.202 47.1755 145.565 47.2072 145.928C47.2307 146.303 47.3649 146.662 47.5922 146.958C47.8339 147.259 48.1421 147.498 48.4916 147.655C49.2298 147.978 50.0455 148.071 50.8355 147.922C51.6704 147.782 52.4534 147.417 53.1033 146.865C53.7532 146.313 54.2463 145.594 54.5315 144.782C54.7766 143.957 54.8043 143.081 54.6118 142.242C54.4193 141.403 54.0134 140.631 53.435 140.003C52.903 139.393 52.1763 138.994 51.3837 138.879C51.0131 138.828 50.6363 138.896 50.3053 139.073C49.9742 139.25 49.7053 139.528 49.5357 139.868C49.4008 140.206 49.3856 140.581 49.4926 140.929C49.598 141.276 49.7731 141.597 50.007 141.871C50.4681 142.395 51.07 142.769 51.7379 142.948C52.3385 143.115 52.9657 143.159 53.5829 143.076C54.2001 142.993 54.7949 142.785 55.3323 142.464C56.2264 141.928 56.887 141.064 57.1803 140.05C57.4121 139.286 57.4545 138.476 57.3035 137.692C57.2137 137.195 57.0408 136.718 56.7922 136.282C56.629 135.961 56.515 135.817 56.5273 135.808Z" fill="#E0E0E0"/>
<path d="M10.6322 32.9981C10.8008 32.9539 10.973 32.9255 11.1466 32.9133C11.6492 32.8668 12.1559 32.9169 12.6404 33.0609C13.4143 33.2767 14.1228 33.6869 14.7009 34.2541C15.4834 35.0052 15.954 36.0334 16.0161 37.1272C16.0538 37.7856 15.9615 38.4451 15.7446 39.0664C15.5276 39.6878 15.1905 40.2584 14.7533 40.7445C14.2702 41.2971 13.6382 41.6925 12.9361 41.8812C12.5622 41.9766 12.1729 41.9905 11.7934 41.922C11.3931 41.851 11.03 41.6387 10.7678 41.3223C10.5201 40.9778 10.3837 40.5632 10.3777 40.1361C10.3716 39.7091 10.4961 39.2907 10.7339 38.939C11.2272 38.2266 11.9534 37.7168 12.7821 37.5009C13.634 37.2518 14.5355 37.2367 15.395 37.4573C16.2545 37.6779 17.0415 38.1262 17.6762 38.7569C18.2821 39.4183 18.7031 40.2332 18.8954 41.1168C19.0877 42.0003 19.0443 42.9203 18.7696 43.7809C18.5193 44.6076 18.0337 45.3399 17.3744 45.8847C17.0479 46.1489 16.6648 46.3307 16.2563 46.4153C15.8505 46.4904 15.4319 46.439 15.0551 46.2678C14.6778 46.106 14.3727 45.8072 14.1989 45.4294C14.0455 45.057 14.0237 44.6419 14.1373 44.255C14.2447 43.8956 14.4269 43.564 14.6714 43.2827C14.9159 43.0015 15.217 42.7773 15.5541 42.6254C16.1759 42.3385 16.8675 42.2467 17.5407 42.3616C18.1558 42.4799 18.7295 42.7615 19.2039 43.178C20.0043 43.9012 20.555 44.8678 20.7747 45.9349C20.9383 46.7296 20.9758 47.5459 20.8856 48.3527C20.8219 49.0379 20.6887 49.7145 20.4882 50.3717C20.488 50.3261 20.4943 50.2806 20.5067 50.2367C20.5252 50.1362 20.5529 50.0075 20.5837 49.8474C20.6798 49.3501 20.7508 48.8481 20.7962 48.3433C20.8707 47.547 20.8208 46.7436 20.6484 45.9632C20.4165 44.941 19.8731 44.0198 19.0961 43.3319C18.6413 42.9395 18.0931 42.6763 17.5068 42.5688C16.8711 42.4635 16.2189 42.5542 15.6342 42.8295C15.324 42.9705 15.0472 43.1777 14.8225 43.4372C14.5977 43.6967 14.4302 44.0024 14.3313 44.3335C14.2305 44.6739 14.2501 45.0395 14.3868 45.3666C14.5413 45.6943 14.8088 45.9526 15.1383 46.0919C15.476 46.2432 15.8503 46.2881 16.2132 46.2207C16.5876 46.1414 16.9381 45.9724 17.2358 45.7277C17.8593 45.2122 18.3164 44.5175 18.5478 43.7338C18.8109 42.9117 18.8525 42.0328 18.6683 41.1887C18.484 40.3447 18.0808 39.5666 17.5006 38.9359C16.8973 38.3323 16.1484 37.9019 15.3296 37.6879C14.5109 37.474 13.6512 37.4842 12.8375 37.7175C12.0609 37.9174 11.3789 38.3913 10.9125 39.0552C10.6982 39.3654 10.5831 39.7355 10.5831 40.1149C10.5831 40.4944 10.6982 40.8645 10.9125 41.1747C11.1445 41.4537 11.4648 41.6414 11.818 41.7053C12.1675 41.7688 12.5261 41.7582 12.8714 41.6739C13.541 41.5007 14.1447 41.1279 14.6054 40.6032C15.0282 40.1378 15.3551 39.5906 15.5667 38.9941C15.7783 38.3976 15.8704 37.7638 15.8374 37.1304C15.791 36.0747 15.3502 35.077 14.6054 34.342C14.0521 33.7852 13.3731 33.3755 12.6281 33.1488C12.1537 33.0001 11.6577 32.9363 11.162 32.9604C10.8109 32.9699 10.6322 33.0138 10.6322 32.9981Z" fill="#E0E0E0"/>
<path d="M127.395 66.2536C127.257 66.1506 127.128 66.035 127.01 65.9082C126.667 65.543 126.392 65.1174 126.197 64.6522C125.88 63.9206 125.746 63.1197 125.809 62.3223C125.884 61.2514 126.358 60.2504 127.134 59.5245C127.6 59.0879 128.148 58.7516 128.745 58.5358C129.342 58.32 129.976 58.2291 130.608 58.2685C131.322 58.3008 132.01 58.5489 132.585 58.9813C132.886 59.2116 133.137 59.5036 133.321 59.8385C133.517 60.193 133.584 60.6069 133.509 61.0066C133.406 61.411 133.182 61.7726 132.868 62.0411C132.554 62.3095 132.165 62.4715 131.757 62.5044C130.922 62.5612 130.094 62.3154 129.419 61.8105C128.708 61.3023 128.141 60.6115 127.776 59.8081C127.411 59.0047 127.26 58.1172 127.34 57.2355C127.457 56.3572 127.803 55.5271 128.342 54.8317C128.881 54.1364 129.593 53.6012 130.404 53.2822C131.174 52.9641 132.019 52.8865 132.832 53.0593C133.23 53.1486 133.603 53.3326 133.919 53.5962C134.227 53.8641 134.448 54.2211 134.553 54.6199C134.666 55.0119 134.632 55.4325 134.458 55.8005C134.276 56.1492 133.981 56.4224 133.623 56.5729C133.289 56.7114 132.93 56.7749 132.569 56.7592C132.209 56.7435 131.856 56.6489 131.535 56.4819C130.936 56.1804 130.44 55.7023 130.112 55.1097C129.815 54.5629 129.668 53.9446 129.687 53.3199C129.729 52.2531 130.108 51.2288 130.768 50.3997C131.259 49.7852 131.843 49.2551 132.499 48.8297C133.047 48.455 133.633 48.1393 134.245 47.8877C134.211 47.9151 134.174 47.9383 134.134 47.9568L133.799 48.1358C133.368 48.3672 132.951 48.623 132.548 48.9019C131.909 49.3371 131.342 49.8723 130.866 50.4876C130.24 51.3021 129.883 52.2981 129.847 53.3325C129.836 53.9262 129.979 54.5124 130.263 55.0312C130.579 55.5869 131.05 56.0349 131.615 56.3186C131.912 56.471 132.237 56.5567 132.569 56.5697C132.902 56.5827 133.233 56.5228 133.54 56.394C133.856 56.2631 134.116 56.023 134.276 55.7157C134.424 55.3921 134.45 55.0246 134.35 54.6827C134.254 54.3278 134.055 54.0106 133.78 53.7721C133.489 53.533 133.147 53.3664 132.782 53.2854C132.012 53.1249 131.212 53.2014 130.485 53.5052C129.712 53.809 129.033 54.319 128.52 54.9819C128.007 55.6448 127.678 56.4362 127.568 57.2732C127.493 58.1132 127.636 58.9585 127.983 59.7242C128.33 60.4899 128.869 61.1488 129.545 61.6346C130.175 62.1115 130.949 62.3451 131.732 62.294C132.096 62.2677 132.442 62.1266 132.724 61.8903C133.005 61.654 133.208 61.3341 133.303 60.9752C133.369 60.624 133.311 60.2605 133.14 59.9484C132.97 59.6389 132.739 59.3685 132.462 59.154C131.919 58.7451 131.27 58.5081 130.595 58.4726C129.987 58.4321 129.378 58.5163 128.802 58.7201C128.226 58.924 127.697 59.2434 127.244 59.6596C126.49 60.3541 126.023 61.315 125.938 62.3474C125.866 63.1262 125.982 63.9112 126.277 64.6333C126.459 65.0946 126.718 65.5197 127.044 65.8893C127.266 66.1405 127.405 66.2536 127.395 66.2536Z" fill="#E0E0E0"/>
<path d="M132.062 36.9667C132.062 36.9667 131.415 34.1815 129.059 34.5803L129.564 32.7842C129.564 32.7842 133.485 33.4373 133.029 36.2978L132.062 36.9667Z" fill="#EBEBEB"/>
<path d="M122.584 149.686C122.584 149.686 121.937 146.901 119.581 147.303L120.086 145.507C120.086 145.507 124.004 146.16 123.551 149.02L122.584 149.686Z" fill="#EBEBEB"/>
<path d="M23.2606 143.033C23.2606 143.033 20.7566 144.324 21.6867 146.569L19.8572 146.487C19.8572 146.487 19.5646 142.449 22.3982 142.232L23.2606 143.033Z" fill="#EBEBEB"/>
<path d="M69.1864 146.352C69.1864 146.352 71.3424 148.198 72.9902 146.446L73.6339 148.195C73.6339 148.195 70.1043 150.05 68.7983 147.476L69.1864 146.352Z" fill="#EBEBEB"/>
<path d="M144.206 97.4715C144.206 97.4715 143.559 94.6864 141.203 95.0851L141.705 93.2891C141.705 93.2891 145.626 93.9422 145.173 96.8027L144.206 97.4715Z" fill="#F5F5F5"/>
<path d="M48.9908 14.3844C48.9908 14.3844 49.1756 11.5301 46.8071 11.2067L47.8051 9.63672C47.8051 9.63672 51.3655 11.4328 50.1089 14.0327L48.9908 14.3844Z" fill="#EBEBEB"/>
<path d="M30.8188 6.71C30.817 6.85491 30.7732 6.99603 30.6929 7.11561C30.6126 7.2352 30.4994 7.32791 30.3676 7.38208C30.2357 7.43625 30.0911 7.44946 29.9519 7.42006C29.8127 7.39065 29.6852 7.31994 29.5853 7.21681C29.4854 7.11369 29.4177 6.98276 29.3906 6.8405C29.3636 6.69823 29.3784 6.55098 29.4332 6.41727C29.488 6.28356 29.5804 6.16935 29.6987 6.08903C29.817 6.0087 29.956 5.96583 30.0981 5.96582C30.1935 5.96581 30.288 5.98513 30.3761 6.02264C30.4641 6.06015 30.544 6.11512 30.611 6.18435C30.6781 6.25358 30.731 6.33569 30.7666 6.42593C30.8023 6.51616 30.82 6.61272 30.8188 6.71Z" fill="#EBEBEB"/>
<path d="M97.125 12.9994C97.125 13.1447 97.0828 13.2868 97.0036 13.4076C96.9244 13.5284 96.8118 13.6226 96.6801 13.6782C96.5484 13.7339 96.4035 13.7484 96.2637 13.72C96.1239 13.6917 95.9955 13.6217 95.8947 13.519C95.7939 13.4162 95.7253 13.2853 95.6974 13.1428C95.6696 13.0002 95.6839 12.8525 95.7385 12.7182C95.793 12.584 95.8854 12.4692 96.0039 12.3885C96.1224 12.3077 96.2618 12.2646 96.4043 12.2646C96.5952 12.2655 96.7781 12.3432 96.913 12.4808C97.048 12.6184 97.1242 12.8048 97.125 12.9994Z" fill="#EBEBEB"/>
<path d="M143.836 30.5765C143.834 30.7208 143.79 30.8611 143.71 30.9799C143.63 31.0988 143.517 31.191 143.386 31.2451C143.255 31.2991 143.111 31.3126 142.972 31.2839C142.833 31.2551 142.706 31.1854 142.606 31.0834C142.506 30.9814 142.438 30.8517 142.409 30.7103C142.381 30.569 142.395 30.4223 142.448 30.2885C142.501 30.1548 142.591 30.0399 142.708 29.9583C142.824 29.8766 142.962 29.8317 143.103 29.8292C143.2 29.8275 143.296 29.8457 143.386 29.8826C143.475 29.9196 143.557 29.9746 143.625 30.0443C143.694 30.114 143.748 30.1971 143.784 30.2885C143.82 30.38 143.838 30.4779 143.836 30.5765Z" fill="#EBEBEB"/>
<path d="M140.772 140.615C140.772 140.761 140.73 140.904 140.651 141.025C140.572 141.147 140.459 141.242 140.327 141.299C140.195 141.355 140.049 141.37 139.909 141.342C139.768 141.314 139.639 141.244 139.537 141.141C139.436 141.038 139.367 140.906 139.338 140.763C139.31 140.62 139.324 140.471 139.379 140.336C139.434 140.201 139.526 140.086 139.646 140.004C139.765 139.923 139.905 139.88 140.048 139.88C140.239 139.88 140.423 139.957 140.559 140.095C140.694 140.233 140.771 140.419 140.772 140.615Z" fill="#EBEBEB"/>
<path d="M104.166 148.835C104.166 148.981 104.125 149.124 104.045 149.246C103.966 149.368 103.853 149.463 103.721 149.519C103.589 149.576 103.443 149.591 103.303 149.563C103.162 149.534 103.033 149.464 102.931 149.361C102.83 149.258 102.761 149.127 102.732 148.984C102.704 148.84 102.718 148.692 102.773 148.557C102.828 148.422 102.921 148.306 103.04 148.225C103.159 148.144 103.299 148.101 103.442 148.101C103.633 148.101 103.817 148.178 103.953 148.316C104.088 148.453 104.165 148.64 104.166 148.835Z" fill="#EBEBEB"/>
<path d="M127.734 80.1859C127.734 80.3313 127.692 80.4733 127.612 80.5941C127.533 80.715 127.421 80.8092 127.289 80.8648C127.157 80.9204 127.012 80.9349 126.873 80.9066C126.733 80.8782 126.604 80.8082 126.504 80.7055C126.403 80.6027 126.334 80.4718 126.306 80.3293C126.279 80.1867 126.293 80.039 126.347 79.9048C126.402 79.7705 126.494 79.6557 126.613 79.575C126.731 79.4943 126.871 79.4512 127.013 79.4512C127.204 79.4512 127.388 79.5286 127.523 79.6664C127.658 79.8042 127.734 79.9911 127.734 80.1859Z" fill="#EBEBEB"/>
<path d="M25.8104 35.3871C25.811 35.5333 25.769 35.6764 25.6897 35.7982C25.6104 35.9201 25.4974 36.0151 25.365 36.0714C25.2326 36.1276 25.0868 36.1425 24.9461 36.1141C24.8054 36.0857 24.6762 36.0154 24.5748 35.912C24.4734 35.8086 24.4044 35.6769 24.3766 35.5334C24.3487 35.39 24.3633 35.2414 24.4185 35.1064C24.4736 34.9715 24.5669 34.8562 24.6864 34.7754C24.8059 34.6946 24.9463 34.6517 25.0897 34.6524C25.2808 34.6524 25.4641 34.7298 25.5993 34.8676C25.7345 35.0054 25.8104 35.1922 25.8104 35.3871Z" fill="#EBEBEB"/>
<path d="M9.39731 90.0074C9.39731 90.1535 9.35478 90.2963 9.27511 90.4177C9.19544 90.5391 9.08221 90.6337 8.94978 90.6895C8.81734 90.7452 8.67165 90.7597 8.53116 90.7309C8.39068 90.7022 8.26172 90.6316 8.16061 90.5281C8.05951 90.4246 7.99082 90.2928 7.96324 90.1495C7.93566 90.0061 7.95044 89.8577 8.00569 89.7229C8.06095 89.5881 8.1542 89.4731 8.27363 89.3924C8.39306 89.3117 8.5333 89.2689 8.67659 89.2695C8.77149 89.2695 8.86547 89.2886 8.95311 89.3258C9.04075 89.3629 9.12034 89.4173 9.18731 89.4859C9.25427 89.5544 9.30729 89.6358 9.34333 89.7253C9.37937 89.8148 9.39771 89.9107 9.39731 90.0074Z" fill="#EBEBEB"/>
<path d="M127.485 127.877C128.042 129.677 128.03 131.611 127.448 133.403C126.117 132.26 124.611 130.345 124.149 128.633C123.674 126.942 123.719 125.142 124.278 123.478C125.777 124.561 126.9 126.101 127.485 127.877Z" fill="#455A64"/>
<path d="M126.73 130.724C126.727 130.619 126.716 130.514 126.696 130.41C126.668 130.219 126.619 129.939 126.548 129.6C126.367 128.709 126.129 127.831 125.837 126.972C125.546 126.114 125.202 125.275 124.808 124.46C124.657 124.146 124.528 123.898 124.432 123.728C124.387 123.638 124.336 123.551 124.278 123.468C124.309 123.565 124.35 123.658 124.398 123.747C124.482 123.92 124.602 124.174 124.746 124.491C125.033 125.119 125.403 126.005 125.744 127.003C126.033 127.86 126.279 128.731 126.481 129.613C126.561 129.949 126.619 130.225 126.659 130.417C126.674 130.521 126.698 130.624 126.73 130.724Z" fill="#263238"/>
<path d="M135.348 129.435C135.904 131.236 135.891 133.17 135.311 134.964C133.977 133.818 132.471 131.906 132.009 130.191C131.548 128.464 131.608 126.636 132.181 124.944C133.672 126.066 134.779 127.637 135.348 129.435Z" fill="#455A64"/>
<path d="M134.596 132.286C134.594 132.18 134.583 132.075 134.562 131.972C134.535 131.777 134.485 131.501 134.415 131.158C134.231 130.269 133.993 129.393 133.703 128.533C133.412 127.675 133.068 126.836 132.674 126.021C132.52 125.707 132.391 125.459 132.299 125.29C132.254 125.199 132.201 125.113 132.142 125.032C132.174 125.128 132.214 125.22 132.262 125.309C132.348 125.484 132.468 125.739 132.61 126.053C132.896 126.681 133.269 127.569 133.608 128.565C133.946 129.56 134.19 130.496 134.347 131.174C134.424 131.513 134.482 131.802 134.522 131.978C134.538 132.083 134.562 132.186 134.596 132.286Z" fill="#263238"/>
<path d="M139.922 124.012C141.35 122.809 142.37 121.177 142.835 119.349C141.107 119.572 138.831 120.347 137.525 121.547C136.217 122.74 135.293 124.308 134.874 126.046C136.724 125.925 138.49 125.213 139.922 124.012Z" fill="#455A64"/>
<path d="M140.808 121.204C140.751 121.287 140.687 121.366 140.617 121.44C140.491 121.584 140.309 121.791 140.063 122.039C139.434 122.685 138.767 123.29 138.064 123.851C137.363 124.412 136.627 124.927 135.862 125.393C135.554 125.572 135.326 125.707 135.157 125.801C135.071 125.853 134.982 125.897 134.889 125.933C134.965 125.869 135.048 125.814 135.135 125.767C135.301 125.666 135.535 125.518 135.825 125.333C136.401 124.963 137.183 124.426 138.003 123.763C138.822 123.101 139.521 122.463 140.014 121.98L140.59 121.402C140.657 121.33 140.73 121.264 140.808 121.204Z" fill="#263238"/>
<path d="M132.335 121.908C133.763 120.704 134.783 119.073 135.249 117.245C133.521 117.468 131.245 118.244 129.936 119.427C128.63 120.622 127.706 122.19 127.284 123.927C129.134 123.812 130.902 123.106 132.335 121.908Z" fill="#455A64"/>
<path d="M133.22 119.098C133.165 119.182 133.102 119.261 133.032 119.333C132.905 119.478 132.724 119.685 132.474 119.933C131.847 120.579 131.18 121.184 130.478 121.745C129.775 122.305 129.038 122.82 128.273 123.29C127.965 123.465 127.737 123.604 127.568 123.695C127.482 123.747 127.393 123.791 127.3 123.826C127.378 123.764 127.461 123.708 127.549 123.66C127.713 123.56 127.95 123.412 128.236 123.227C129.748 122.265 131.158 121.144 132.44 119.883C132.687 119.641 132.884 119.443 133.019 119.305C133.081 119.231 133.148 119.161 133.22 119.098Z" fill="#263238"/>
<path d="M118.799 123.813C118.872 123.794 118.946 123.781 119.021 123.773L119.658 123.685L120.12 123.622C120.29 123.603 120.474 123.59 120.675 123.575C121.072 123.543 121.522 123.496 122.024 123.49L122.812 123.465C123.083 123.465 123.37 123.465 123.665 123.465C124.254 123.465 124.882 123.515 125.544 123.556C126.978 123.683 128.402 123.906 129.807 124.225C131.207 124.559 132.585 124.986 133.931 125.503C134.547 125.757 135.135 125.989 135.665 126.25C135.933 126.379 136.195 126.492 136.438 126.621L137.137 126.988C137.587 127.214 137.975 127.459 138.32 127.66C138.489 127.763 138.653 127.855 138.797 127.949L139.188 128.206L139.724 128.57C139.79 128.609 139.852 128.655 139.909 128.706C139.841 128.673 139.775 128.636 139.712 128.592L139.161 128.253L138.763 128.002C138.619 127.914 138.455 127.826 138.283 127.726C137.935 127.531 137.547 127.293 137.094 127.073L136.395 126.715C136.148 126.589 135.887 126.479 135.622 126.354C135.089 126.096 134.501 125.87 133.888 125.622C131.205 124.585 128.394 123.932 125.535 123.682C124.876 123.638 124.25 123.581 123.662 123.578C123.354 123.578 123.083 123.556 122.812 123.578H122.027C121.528 123.578 121.078 123.622 120.681 123.644L120.126 123.678L119.664 123.729L119.024 123.795C118.949 123.806 118.874 123.812 118.799 123.813Z" fill="#263238"/>
<path d="M142.955 128.716C144.502 129.753 145.687 131.262 146.343 133.027C144.6 132.995 142.247 132.48 140.827 131.457C139.401 130.414 138.315 128.959 137.71 127.281C139.563 127.183 141.399 127.685 142.955 128.716Z" fill="#455A64"/>
<path d="M144.144 131.409C144.078 131.333 144.006 131.262 143.928 131.198C143.79 131.067 143.577 130.884 143.312 130.662C142.619 130.093 141.892 129.569 141.135 129.092C140.376 128.614 139.589 128.184 138.779 127.804C138.471 127.66 138.212 127.55 138.033 127.49C137.942 127.449 137.849 127.416 137.753 127.39C137.837 127.444 137.926 127.49 138.018 127.528L138.748 127.879C139.364 128.193 140.195 128.633 141.082 129.192C141.837 129.669 142.567 130.186 143.269 130.74C143.54 130.954 143.756 131.126 143.904 131.249C143.979 131.31 144.059 131.363 144.144 131.409Z" fill="#263238"/>
<path d="M132.548 103.152C134.554 102.627 136.672 102.76 138.6 103.532C137.266 104.977 135.08 106.572 133.179 106.986C131.263 107.406 129.268 107.226 127.454 106.471C128.769 104.848 130.551 103.687 132.548 103.152Z" fill="#455A64"/>
<path d="M135.616 104.186C135.505 104.182 135.395 104.188 135.286 104.205C135.074 104.224 134.766 104.264 134.387 104.321C132.417 104.631 130.492 105.19 128.658 105.985C128.307 106.139 128.027 106.271 127.836 106.368C127.734 106.414 127.636 106.467 127.543 106.528C127.648 106.496 127.751 106.456 127.851 106.409C128.045 106.324 128.331 106.202 128.686 106.06C130.53 105.309 132.444 104.753 134.399 104.399L135.289 104.249C135.399 104.236 135.509 104.215 135.616 104.186Z" fill="#263238"/>
<path d="M129.333 110.946C131.14 110.978 132.892 111.589 134.341 112.692C132.887 113.593 130.685 114.422 128.988 114.328C127.278 114.229 125.637 113.607 124.278 112.544C125.757 111.485 127.525 110.925 129.333 110.946Z" fill="#455A64"/>
<path d="M131.686 112.541C131.594 112.51 131.499 112.489 131.402 112.478C131.218 112.443 130.95 112.406 130.62 112.365C129.755 112.262 128.885 112.215 128.014 112.224C127.145 112.234 126.277 112.299 125.415 112.418C125.082 112.462 124.817 112.509 124.632 112.544C124.536 112.557 124.441 112.58 124.349 112.613C124.446 112.61 124.543 112.601 124.639 112.585C124.823 112.556 125.091 112.525 125.421 112.487C126.282 112.387 127.148 112.333 128.014 112.324C129.031 112.324 129.949 112.371 130.611 112.434C130.943 112.465 131.211 112.494 131.396 112.516C131.492 112.532 131.589 112.54 131.686 112.541Z" fill="#263238"/>
<path d="M125.815 105.432C125.419 103.634 124.478 102.009 123.126 100.785C122.553 102.418 122.202 104.786 122.637 106.459C123.075 108.147 124.003 109.66 125.298 110.802C126.018 109.111 126.199 107.233 125.815 105.432Z" fill="#455A64"/>
<path d="M123.816 103.403C123.861 103.491 123.899 103.582 123.93 103.676C124.001 103.852 124.09 104.11 124.198 104.433C124.468 105.276 124.688 106.135 124.857 107.005C125.025 107.876 125.139 108.757 125.199 109.642C125.22 109.982 125.23 110.27 125.233 110.446C125.243 110.546 125.243 110.645 125.233 110.745C125.216 110.647 125.206 110.548 125.202 110.449C125.202 110.261 125.168 109.985 125.137 109.649C124.977 107.887 124.637 106.146 124.124 104.455C124.028 104.141 123.945 103.868 123.887 103.689C123.853 103.597 123.83 103.501 123.816 103.403Z" fill="#263238"/>
<path d="M128.19 98.1194C127.37 96.5221 126.077 95.2297 124.494 94.4268C124.358 96.1161 124.614 98.4397 125.439 99.9092C126.282 101.386 127.541 102.57 129.052 103.307C129.305 101.528 129.004 99.7136 128.19 98.1194Z" fill="#455A64"/>
<path d="M125.793 96.7119C125.859 96.7825 125.918 96.8581 125.972 96.938C126.08 97.0887 126.231 97.3085 126.413 97.5848C127.346 99.0358 128.099 100.6 128.652 102.241C128.756 102.555 128.833 102.816 128.883 102.995C128.913 103.086 128.936 103.18 128.95 103.275C128.908 103.188 128.873 103.097 128.846 103.004C128.787 102.829 128.701 102.577 128.587 102.267C128.294 101.456 127.961 100.662 127.589 99.8864C127.216 99.1113 126.805 98.3557 126.357 97.6225L125.944 96.96C125.888 96.8815 125.837 96.7985 125.793 96.7119Z" fill="#263238"/>
<path d="M114.44 124.379C114.457 124.357 114.476 124.337 114.496 124.319L114.668 124.146L115.34 123.496L115.826 123.029L116.387 122.457C116.787 122.043 117.256 121.581 117.736 121.038L118.503 120.199C118.768 119.904 119.03 119.571 119.307 119.257C119.87 118.629 120.428 117.895 121.025 117.144C122.292 115.491 123.476 113.774 124.571 111.998C125.649 110.212 126.631 108.367 127.512 106.471C127.897 105.589 128.282 104.757 128.581 103.959C128.735 103.561 128.889 103.178 129.027 102.804C129.166 102.43 129.283 102.066 129.4 101.721C129.653 101.033 129.825 100.395 129.994 99.8366L130.225 99.061C130.287 98.8223 130.342 98.6025 130.392 98.4016C130.493 98.0122 130.57 97.7076 130.626 97.491C130.653 97.3947 130.674 97.3162 130.691 97.2555C130.696 97.2272 130.706 97.1998 130.718 97.1738C130.721 97.202 130.721 97.2304 130.718 97.2586C130.703 97.3183 130.687 97.3968 130.666 97.4972L130.453 98.4173C130.407 98.6151 130.355 98.838 130.299 99.0798L130.078 99.8585C129.917 100.417 129.748 101.058 129.502 101.743C129.388 102.088 129.264 102.452 129.138 102.829C129.012 103.206 128.849 103.592 128.695 103.994C128.387 104.801 128.02 105.636 127.638 106.525C126.76 108.429 125.778 110.281 124.697 112.073C123.601 113.854 122.412 115.574 121.136 117.226C120.536 117.976 119.975 118.699 119.405 119.336C119.125 119.65 118.86 119.964 118.595 120.278L117.819 121.116C117.333 121.653 116.861 122.112 116.455 122.52L115.87 123.088L115.374 123.547L114.687 124.175L114.505 124.338C114.485 124.354 114.463 124.368 114.44 124.379Z" fill="#263238"/>
<path d="M129.918 86.3687C130.183 85.8381 130.58 85.2823 131.15 85.2289C131.42 85.2311 131.682 85.3174 131.903 85.4763C132.123 85.6351 132.29 85.8589 132.382 86.1175C132.552 86.6422 132.614 87.197 132.564 87.7472C132.812 86.5255 133.503 85.4438 134.498 84.7171C134.827 84.4785 135.292 84.2869 135.616 84.5318C135.717 84.6342 135.797 84.7567 135.85 84.8917C135.903 85.0268 135.928 85.1715 135.924 85.3168C136.033 86.4692 135.986 87.6314 135.785 88.7708C136.211 88.4061 136.716 88.149 137.257 88.0204C137.803 87.9356 138.446 88.1994 138.607 88.7394C138.671 89.0434 138.652 89.3597 138.551 89.6532C138.043 91.5788 137.08 93.3487 135.748 94.8091C135.043 95.5784 134.208 96.2786 133.183 96.4921C132.157 96.7056 130.87 96.7056 130.411 95.7511L130.577 95.9928C129.631 94.5962 129.071 92.966 128.955 91.2728C128.839 89.5797 129.171 87.8859 129.918 86.3687Z" fill="#9B9A78"/>
<path d="M131.064 96.3545C131.077 96.3251 131.087 96.2947 131.094 96.2634C131.116 96.1975 131.141 96.1127 131.174 96.0059C131.208 95.8992 131.245 95.7579 131.298 95.6009C131.35 95.4439 131.405 95.2617 131.479 95.0671C131.553 94.8724 131.627 94.6557 131.723 94.4391C131.818 94.2224 131.923 93.9743 132.031 93.7231C132.532 92.6379 133.166 91.6218 133.919 90.6993C134.094 90.4889 134.261 90.288 134.427 90.1121C134.593 89.9363 134.735 89.7699 134.895 89.6223C135.055 89.4747 135.182 89.3491 135.299 89.2361C135.416 89.123 135.526 89.032 135.607 88.9566L135.81 88.7808C135.853 88.74 135.878 88.718 135.875 88.7148C135.847 88.7295 135.821 88.7474 135.798 88.7682L135.588 88.9315C135.496 89.0037 135.388 89.0916 135.265 89.2015C135.141 89.3114 134.997 89.4339 134.852 89.5815C134.707 89.7291 134.544 89.8955 134.375 90.065C134.205 90.2346 134.036 90.4418 133.857 90.6522C133.479 91.1161 133.128 91.6026 132.807 92.1092C132.493 92.6146 132.209 93.1389 131.957 93.6792C131.846 93.9304 131.738 94.1722 131.649 94.4014C131.559 94.6306 131.479 94.8473 131.412 95.0451C131.344 95.2429 131.288 95.425 131.242 95.5852C131.196 95.7453 131.156 95.8803 131.128 95.9965C131.1 96.1127 131.082 96.188 131.064 96.2571C131.06 96.2894 131.06 96.3221 131.064 96.3545Z" fill="#263238"/>
<path d="M132.674 92.4863C132.691 92.4227 132.699 92.3573 132.699 92.2916C132.699 92.166 132.72 91.9776 132.733 91.7578C132.754 91.3087 132.77 90.687 132.754 89.9994C132.739 89.3117 132.705 88.69 132.665 88.241C132.647 88.0149 132.628 87.8328 132.61 87.7103C132.606 87.6445 132.596 87.5792 132.579 87.5156C132.573 87.5804 132.573 87.6456 132.579 87.7103C132.579 87.8547 132.597 88.0243 132.61 88.2441C132.634 88.6931 132.662 89.3148 132.677 89.9994C132.693 90.6839 132.677 91.3087 132.677 91.7578C132.677 91.9681 132.677 92.1471 132.677 92.2916C132.67 92.3562 132.669 92.4214 132.674 92.4863Z" fill="#263238"/>
<g opacity="0.3">
<path d="M135.806 88.7617C135.806 88.7617 133.213 89.7948 132.77 92.2597C132.77 92.2597 134.125 89.9738 135.806 88.7617Z" fill="black"/>
</g>
<path d="M140.935 106.632C141.354 106.44 141.859 106.293 142.25 106.55C142.416 106.685 142.538 106.869 142.598 107.077C142.658 107.285 142.654 107.506 142.586 107.712C142.439 108.119 142.211 108.491 141.917 108.805C142.656 108.176 143.599 107.853 144.56 107.9C144.868 107.916 145.256 108.029 145.336 108.34C145.349 108.452 145.339 108.565 145.308 108.673C145.276 108.78 145.224 108.881 145.154 108.968C144.673 109.731 144.091 110.423 143.423 111.024C143.86 111.011 144.294 111.102 144.689 111.291C144.883 111.392 145.038 111.557 145.127 111.759C145.216 111.961 145.234 112.189 145.179 112.403C145.075 112.625 144.91 112.811 144.705 112.94C143.471 113.875 142.032 114.489 140.513 114.727C139.713 114.9 138.88 114.817 138.129 114.488C137.402 114.117 136.589 113.471 136.783 112.664L136.768 112.896C136.85 111.567 137.28 110.286 138.013 109.184C138.746 108.083 139.755 107.201 140.935 106.632Z" fill="#9B9A78"/>
<path d="M136.869 113.354L136.931 113.317L137.103 113.194L137.374 113.006C137.482 112.937 137.602 112.852 137.741 112.767C137.879 112.682 138.027 112.588 138.197 112.497C138.366 112.406 138.542 112.309 138.729 112.211C139.145 112.004 139.572 111.822 140.008 111.665C140.445 111.513 140.89 111.386 141.341 111.285C141.551 111.244 141.748 111.2 141.936 111.175C142.124 111.15 142.299 111.125 142.459 111.106C142.619 111.087 142.767 111.081 142.891 111.068C143.014 111.056 143.131 111.068 143.22 111.053C143.128 111.053 143.017 111.053 142.891 111.053C142.764 111.053 142.616 111.053 142.453 111.081C142.29 111.109 142.117 111.112 141.93 111.144C141.742 111.175 141.538 111.207 141.329 111.247C140.874 111.346 140.426 111.472 139.986 111.624C139.548 111.782 139.12 111.966 138.705 112.177C138.514 112.277 138.335 112.372 138.169 112.469C138.003 112.566 137.861 112.66 137.716 112.748C137.571 112.836 137.46 112.924 137.356 112.996C137.251 113.069 137.159 113.138 137.088 113.194L136.925 113.326L136.869 113.354Z" fill="#263238"/>
<path d="M139.712 111.785C139.751 111.753 139.788 111.717 139.82 111.678C139.887 111.606 139.98 111.499 140.094 111.364C140.325 111.097 140.63 110.72 140.95 110.29C141.27 109.86 141.545 109.458 141.735 109.163L141.957 108.808C142.007 108.723 142.034 108.676 142.028 108.673C141.993 108.709 141.962 108.749 141.936 108.792L141.699 109.134C141.498 109.426 141.221 109.822 140.901 110.252C140.58 110.682 140.285 111.062 140.06 111.336C139.958 111.464 139.872 111.574 139.801 111.65C139.766 111.691 139.736 111.736 139.712 111.785Z" fill="#263238"/>
<g opacity="0.3">
<path d="M143.424 111.037C143.424 111.037 141.329 110.383 139.878 111.68C139.878 111.68 141.807 110.945 143.424 111.037Z" fill="black"/>
</g>
<path d="M25.6996 127.142C25.1418 128.943 25.1547 130.878 25.7366 132.672C27.0672 131.526 28.5733 129.613 29.0353 127.899C29.5107 126.208 29.4655 124.41 28.9059 122.746C27.4073 123.828 26.2846 125.367 25.6996 127.142Z" fill="#455A64"/>
<path d="M26.4541 129.997C26.4566 129.891 26.468 129.786 26.488 129.683C26.5157 129.488 26.565 129.212 26.6358 128.87C26.817 127.979 27.0547 127.101 27.3473 126.241C27.639 125.383 27.9826 124.544 28.376 123.729C28.5269 123.415 28.6563 123.167 28.7518 122.998C28.7964 122.908 28.8479 122.822 28.9058 122.74C28.8736 122.836 28.8334 122.928 28.7857 123.017C28.7025 123.192 28.5824 123.447 28.4376 123.761C28.1512 124.389 27.7816 125.277 27.4397 126.273C27.1508 127.129 26.9051 128 26.7036 128.882C26.6235 129.221 26.565 129.494 26.5249 129.686C26.5096 129.791 26.4859 129.895 26.4541 129.997Z" fill="#263238"/>
<path d="M17.8362 128.703C17.2771 130.504 17.2867 132.438 17.8639 134.233C19.1976 133.087 20.7037 131.171 21.1657 129.46C21.6271 127.733 21.567 125.904 20.9932 124.213C19.5054 125.335 18.4011 126.906 17.8362 128.703Z" fill="#455A64"/>
<path d="M18.5908 131.566C18.5937 131.461 18.605 131.356 18.6247 131.252C18.6524 131.061 18.7017 130.781 18.7725 130.442C18.956 129.547 19.1936 128.664 19.484 127.798C19.7752 126.94 20.1188 126.101 20.5127 125.286C20.6667 124.972 20.7961 124.724 20.8885 124.555C20.9338 124.464 20.9864 124.376 21.0456 124.294C21.0145 124.391 20.9743 124.484 20.9255 124.573C20.8392 124.746 20.7191 125 20.5774 125.318C20.2036 126.137 19.8706 126.976 19.5795 127.83C19.2407 128.831 18.9974 129.761 18.8403 130.439C18.7633 130.775 18.7048 131.067 18.6647 131.243C18.6511 131.353 18.6263 131.461 18.5908 131.566Z" fill="#263238"/>
<path d="M13.2628 123.28C11.8354 122.076 10.816 120.445 10.3491 118.617C12.077 118.84 14.3531 119.613 15.659 120.796C16.9653 121.988 17.8893 123.552 18.3109 125.287C16.4635 125.174 14.6977 124.472 13.2628 123.28Z" fill="#455A64"/>
<path d="M12.3755 120.47C12.434 120.551 12.4978 120.629 12.5664 120.702C12.6927 120.85 12.8744 121.054 13.1208 121.302C13.7489 121.948 14.4165 122.553 15.1198 123.114C15.8206 123.676 16.5562 124.192 17.322 124.658C17.63 124.837 17.8579 124.972 18.0273 125.064C18.1126 125.116 18.2022 125.16 18.2952 125.195C18.2186 125.132 18.1361 125.076 18.0488 125.029C17.8825 124.929 17.6484 124.784 17.3589 124.596C16.783 124.225 16.0006 123.688 15.1814 123.026C14.3621 122.363 13.6629 121.726 13.1701 121.242L12.5942 120.664C12.5275 120.593 12.4542 120.527 12.3755 120.47Z" fill="#263238"/>
<path d="M20.8487 121.176C19.421 119.972 18.4015 118.341 17.9351 116.513C19.6629 116.736 21.9391 117.511 23.2481 118.692C24.5538 119.887 25.4776 121.455 25.8999 123.191C24.0504 123.076 22.2833 122.371 20.8487 121.176Z" fill="#455A64"/>
<path d="M19.9648 118.378C20.0203 118.461 20.0832 118.539 20.1527 118.61C20.279 118.758 20.4607 118.962 20.7102 119.213C21.338 119.858 22.0046 120.462 22.706 121.022C23.4084 121.584 24.1449 122.1 24.9113 122.567C25.2193 122.746 25.4472 122.881 25.6166 122.972C25.6985 123.018 25.784 123.057 25.8723 123.088C25.7932 123.026 25.7098 122.971 25.6228 122.922C25.4596 122.824 25.2224 122.677 24.936 122.491C24.1837 122.006 23.4559 121.482 22.7553 120.921C22.0562 120.363 21.3859 119.767 20.7472 119.138C20.5008 118.899 20.3036 118.701 20.1681 118.56C20.1054 118.494 20.0374 118.433 19.9648 118.378Z" fill="#263238"/>
<path d="M34.3852 123.089C34.312 123.072 34.238 123.059 34.1635 123.051L33.5259 122.96L33.0639 122.897C32.8945 122.878 32.7066 122.869 32.5095 122.85C32.1122 122.822 31.6625 122.771 31.1605 122.765L30.372 122.743C30.1009 122.743 29.8145 122.743 29.5188 122.743C28.9305 122.743 28.2868 122.79 27.64 122.834C26.2064 122.962 24.7825 123.184 23.3773 123.5C21.9767 123.835 20.599 124.263 19.2532 124.781C18.6372 125.035 18.0489 125.265 17.5191 125.528C17.2512 125.654 16.9894 125.77 16.7461 125.896L16.0469 126.263C15.5972 126.492 15.2091 126.734 14.8642 126.938C14.6948 127.039 14.5315 127.133 14.3868 127.224L13.9956 127.485L13.4597 127.846C13.3949 127.886 13.3332 127.931 13.2749 127.981C13.3431 127.949 13.409 127.912 13.472 127.871L14.0233 127.529L14.4207 127.28C14.5654 127.193 14.7287 127.101 14.9011 127.004C15.2492 126.809 15.6373 126.571 16.09 126.351L16.7892 125.99C17.0356 125.867 17.2974 125.754 17.5623 125.632C18.0951 125.374 18.6834 125.148 19.2963 124.897C20.6391 124.389 22.0125 123.97 23.4081 123.641C24.8065 123.325 26.223 123.1 27.6493 122.966C28.3084 122.919 28.9336 122.862 29.5219 122.859C29.8299 122.859 30.1009 122.841 30.372 122.844L31.1574 122.859C31.6563 122.859 32.106 122.9 32.5033 122.922C32.7035 122.938 32.8883 122.944 33.0577 122.96L33.5197 123.01L34.1604 123.073C34.2347 123.085 34.31 123.09 34.3852 123.089Z" fill="#263238"/>
<path d="M10.2288 127.98C8.68379 129.019 7.49851 130.528 6.84082 132.292C8.5841 132.26 10.9372 131.745 12.3571 130.722C13.7794 129.676 14.8619 128.221 15.4648 126.542C13.6146 126.449 11.7826 126.952 10.2288 127.98Z" fill="#455A64"/>
<path d="M9.0459 130.674C9.11371 130.6 9.1857 130.53 9.2615 130.464C9.4001 130.332 9.61262 130.15 9.8775 129.927C11.2661 128.783 12.7891 127.82 14.4113 127.06C14.7193 126.916 14.978 126.806 15.1566 126.746C15.2471 126.704 15.3408 126.669 15.4369 126.643C15.3538 126.698 15.265 126.745 15.172 126.781C14.9995 126.862 14.7501 126.982 14.4421 127.136C13.8261 127.45 12.9945 127.886 12.1074 128.445C11.3536 128.923 10.6238 129.44 9.92062 129.993C9.64958 130.206 9.43398 130.382 9.28614 130.505C9.21122 130.569 9.13082 130.625 9.0459 130.674Z" fill="#263238"/>
<path d="M20.6362 102.421C18.6327 101.898 16.5186 102.031 14.5933 102.801C15.9269 104.246 18.1137 105.838 20.0141 106.255C21.9302 106.672 23.9248 106.492 25.7398 105.74C24.4222 104.116 22.6368 102.954 20.6362 102.421Z" fill="#455A64"/>
<path d="M17.5562 103.45C17.6664 103.449 17.7766 103.456 17.8857 103.472C18.0982 103.491 18.4062 103.529 18.782 103.589C19.771 103.745 20.7494 103.965 21.7111 104.248C22.6693 104.526 23.6095 104.865 24.5262 105.262C24.8773 105.416 25.1576 105.548 25.3486 105.645C25.4553 105.69 25.5583 105.744 25.6566 105.805C25.55 105.777 25.4468 105.737 25.3486 105.686C25.1545 105.601 24.8681 105.482 24.5139 105.338C23.5921 104.963 22.6526 104.636 21.6988 104.358C20.5807 104.044 19.5428 103.815 18.8005 103.68C18.4278 103.611 18.1229 103.56 17.9104 103.529C17.7901 103.514 17.6715 103.488 17.5562 103.45Z" fill="#263238"/>
<path d="M23.8518 110.215C22.0446 110.246 20.2927 110.856 18.8438 111.957C20.2975 112.862 22.4997 113.691 24.1968 113.593C25.9066 113.494 27.5476 112.873 28.9061 111.81C27.4277 110.749 25.6592 110.191 23.8518 110.215Z" fill="#455A64"/>
<path d="M21.4985 111.806C21.5911 111.778 21.6859 111.758 21.7819 111.747C21.9667 111.712 22.2347 111.671 22.5642 111.633C24.2945 111.428 26.0432 111.445 27.7694 111.684C28.1021 111.731 28.3669 111.775 28.5517 111.812C28.6479 111.826 28.7428 111.848 28.8351 111.878C28.738 111.878 28.6411 111.868 28.5456 111.85C28.3608 111.825 28.0928 111.79 27.7633 111.753C27.1011 111.677 26.1832 111.602 25.1699 111.59C24.3031 111.583 23.4365 111.621 22.5735 111.703C22.2408 111.734 21.9575 111.762 21.7881 111.784C21.6922 111.799 21.5954 111.806 21.4985 111.806Z" fill="#263238"/>
<path d="M27.369 104.701C27.7636 102.902 28.7044 101.276 30.0578 100.054C30.6307 101.683 30.9818 104.051 30.5475 105.728C30.109 107.415 29.1816 108.929 27.8864 110.07C27.1662 108.38 26.9852 106.502 27.369 104.701Z" fill="#455A64"/>
<path d="M29.3743 102.679C29.3287 102.765 29.2906 102.856 29.2603 102.949C29.1895 103.125 29.1002 103.385 28.9924 103.709C28.7227 104.549 28.5036 105.406 28.3363 106.274C28.1679 107.145 28.0537 108.026 27.9945 108.912C27.9729 109.251 27.9637 109.524 27.9606 109.715C27.9506 109.814 27.9506 109.912 27.9606 110.011C27.9778 109.913 27.9881 109.814 27.9914 109.715C27.9914 109.527 28.0253 109.254 28.0561 108.915C28.2112 107.154 28.5456 105.414 29.054 103.724C29.1495 103.41 29.2326 103.137 29.2911 102.955C29.3281 102.866 29.356 102.773 29.3743 102.679Z" fill="#263238"/>
<path d="M24.9946 97.387C25.814 95.7897 27.1076 94.4973 28.6906 93.6943C28.8261 95.3805 28.5705 97.7073 27.745 99.1768C26.9087 100.656 25.6538 101.844 24.1445 102.584C23.8849 100.803 24.1824 98.985 24.9946 97.387Z" fill="#455A64"/>
<path d="M27.3904 95.9902C27.3243 96.06 27.2645 96.1356 27.2118 96.2163C27.104 96.3639 26.953 96.5868 26.7713 96.8632C26.3055 97.5887 25.8837 98.3426 25.5085 99.1208C25.1342 99.8989 24.8081 100.7 24.5322 101.52C24.4274 101.834 24.3504 102.091 24.3012 102.27C24.2712 102.361 24.2485 102.455 24.2334 102.55C24.2758 102.464 24.3109 102.375 24.3381 102.283C24.3966 102.107 24.4829 101.853 24.5968 101.542C24.8897 100.732 25.2227 99.9372 25.5948 99.1616C25.9681 98.3875 26.3792 97.6329 26.8268 96.9008C26.9992 96.6182 27.1348 96.3921 27.2395 96.2383C27.2945 96.1587 27.3449 96.0758 27.3904 95.9902Z" fill="#263238"/>
<path d="M38.7432 123.647C38.7432 123.647 38.7248 123.622 38.6878 123.585L38.5153 123.412L37.8439 122.774L37.3572 122.307L36.7967 121.732C36.3963 121.318 35.9281 120.859 35.4476 120.316L34.6807 119.474C34.4158 119.179 34.154 118.862 33.8768 118.532C33.3132 117.904 32.7557 117.17 32.1582 116.419C30.8921 114.765 29.7089 113.046 28.6131 111.27C27.5361 109.483 26.5553 107.638 25.6748 105.743C25.2898 104.858 24.9048 104.026 24.606 103.231C24.452 102.829 24.298 102.446 24.1594 102.072C24.0208 101.699 23.9038 101.335 23.7868 100.989C23.5342 100.305 23.3617 99.6672 23.1923 99.1052L22.9613 98.3296L22.7919 97.6545C22.6903 97.2651 22.6133 96.9606 22.5578 96.7408C22.5291 96.6424 22.5075 96.5639 22.4932 96.5053C22.4878 96.4778 22.4784 96.4514 22.4654 96.4268C22.4627 96.4539 22.4627 96.4813 22.4654 96.5084C22.4808 96.5712 22.4962 96.6497 22.5178 96.747C22.5671 96.9668 22.6379 97.2746 22.7303 97.6671C22.7765 97.868 22.8289 98.0878 22.8843 98.3296L23.1061 99.1115C23.2662 99.6672 23.4356 100.308 23.682 100.995C23.796 101.341 23.9192 101.705 24.0455 102.085C24.1718 102.465 24.335 102.845 24.489 103.247C24.797 104.057 25.1635 104.892 25.5454 105.778C26.4236 107.682 27.4056 109.534 28.4868 111.326C29.5868 113.113 30.7805 114.838 32.0627 116.494C32.6787 117.245 33.2239 117.967 33.7937 118.605C34.074 118.919 34.3388 119.233 34.6037 119.547L35.3799 120.382C35.8665 120.922 36.3378 121.377 36.7443 121.785L37.3141 122.354L37.81 122.812L38.4968 123.44L38.6786 123.6C38.6988 123.618 38.7205 123.634 38.7432 123.647Z" fill="#263238"/>
<path d="M23.2663 85.6344C23.0014 85.1069 22.6041 84.548 22.0343 84.4946C21.7642 84.4974 21.5015 84.5844 21.2813 84.7438C21.0611 84.9032 20.8939 85.1274 20.8023 85.3863C20.6322 85.9099 20.5703 86.4637 20.6205 87.0129C20.3709 85.7915 19.6806 84.7101 18.6863 83.9828C18.3567 83.7441 17.8917 83.5526 17.5683 83.8006C17.4666 83.9028 17.3868 84.0252 17.3338 84.1603C17.2808 84.2954 17.2557 84.4402 17.2603 84.5856C17.1515 85.738 17.1981 86.9002 17.3989 88.0396C16.973 87.674 16.4686 87.4158 15.9266 87.286C15.3815 87.2044 14.7377 87.465 14.5776 88.0051C14.5129 88.309 14.5321 88.6253 14.633 88.9188C15.1403 90.845 16.1026 92.6152 17.4358 94.0747C18.1411 94.8472 18.9758 95.5474 20.0015 95.7578C21.0271 95.9681 22.3145 95.9713 22.7581 95.0199L22.5917 95.2616C23.5401 93.8658 24.1031 92.2358 24.2218 90.5422C24.3405 88.8485 24.0104 87.1535 23.2663 85.6344Z" fill="#9B9A78"/>
<path d="M22.1208 95.6193C22.1073 95.5913 22.097 95.5618 22.09 95.5314C22.0684 95.4623 22.0438 95.3775 22.0099 95.2739C21.976 95.1703 21.9391 95.0227 21.8867 94.8657C21.8343 94.7087 21.7789 94.5297 21.705 94.3319C21.6311 94.1341 21.5571 93.9237 21.4617 93.7039C21.3662 93.4841 21.2615 93.2361 21.1537 92.9849C20.8999 92.4454 20.6161 91.9213 20.3036 91.4149C19.9846 90.9118 19.638 90.4275 19.2656 89.9642C19.0901 89.7538 18.9237 89.5528 18.7574 89.3739C18.5911 89.1949 18.434 89.0316 18.2893 88.8872C18.1445 88.7427 18.0028 88.614 17.8858 88.5009C17.7687 88.3879 17.6579 88.2937 17.5778 88.2183L17.3745 88.0425C17.3314 88.0017 17.3067 87.9797 17.3098 87.9766C17.3365 87.9927 17.3623 88.0106 17.3868 88.0299L17.5963 88.1932C17.6887 88.2644 17.7913 88.3555 17.9043 88.4664C18.0275 88.5763 18.1722 88.6956 18.317 88.8432C18.4617 88.9908 18.625 89.1572 18.7944 89.3299C18.9638 89.5026 19.1332 89.7067 19.3118 89.9139C19.6913 90.3787 20.043 90.8663 20.3652 91.374C20.6779 91.8803 20.9618 92.4045 21.2153 92.944C21.3261 93.1984 21.4339 93.437 21.5233 93.6694C21.6126 93.9017 21.6927 94.1121 21.7604 94.2974C21.8282 94.4826 21.8836 94.6773 21.9298 94.8375C21.976 94.9976 22.0161 95.1358 22.0438 95.2488C22.0715 95.3618 22.09 95.4435 22.1085 95.5126C22.1172 95.5474 22.1214 95.5833 22.1208 95.6193Z" fill="#263238"/>
<path d="M20.5097 91.7509C20.4929 91.6874 20.4846 91.6219 20.485 91.5562C20.485 91.4306 20.4635 91.2422 20.4511 91.0256C20.4296 90.5765 20.4142 89.9517 20.4296 89.264C20.445 88.5764 20.4789 87.9546 20.5189 87.5056C20.5374 87.2827 20.5559 87.1006 20.5743 86.975C20.5779 86.9091 20.5882 86.8439 20.6051 86.7803C20.611 86.8461 20.611 86.9123 20.6051 86.9781C20.6051 87.1194 20.5867 87.2921 20.5743 87.5088C20.5497 87.9578 20.522 88.5795 20.5066 89.2672C20.4912 89.9548 20.5066 90.5734 20.5066 91.0224C20.5066 91.2359 20.5066 91.4149 20.5066 91.5562C20.5142 91.6208 20.5152 91.6861 20.5097 91.7509Z" fill="#263238"/>
<g opacity="0.3">
<path d="M17.3774 88.0303C17.3774 88.0303 19.9708 89.0633 20.4143 91.5251C20.4143 91.5251 19.0591 89.2392 17.3774 88.0303Z" fill="black"/>
</g>
<path d="M12.2495 105.9C11.8306 105.705 11.3255 105.561 10.9343 105.815C10.7684 105.95 10.6473 106.134 10.5873 106.342C10.5272 106.55 10.5312 106.771 10.5986 106.977C10.7445 107.385 10.9721 107.759 11.2669 108.073C10.5296 107.442 9.58584 107.118 8.6243 107.165C8.3163 107.165 7.92822 107.294 7.84814 107.608C7.83556 107.72 7.84516 107.833 7.87638 107.941C7.9076 108.049 7.95979 108.149 8.02986 108.236C8.5113 108.999 9.09378 109.692 9.76082 110.293C9.32423 110.28 8.89077 110.371 8.49494 110.56C8.29903 110.661 8.14353 110.828 8.05483 111.033C7.96614 111.238 7.94969 111.468 8.0083 111.684C8.11443 111.904 8.27867 112.09 8.48262 112.221C9.71621 113.155 11.1554 113.767 12.6745 114.004C13.474 114.177 14.3064 114.095 15.0584 113.769C15.7853 113.395 16.5984 112.748 16.4044 111.941V112.174C16.3253 110.845 15.8982 109.562 15.1674 108.458C14.4366 107.355 13.429 106.471 12.2495 105.9Z" fill="#9B9A78"/>
<path d="M16.3241 112.626L16.2625 112.585L16.09 112.466C16.0161 112.412 15.9268 112.346 15.819 112.277C15.7112 112.208 15.5911 112.12 15.4525 112.038C15.3139 111.957 15.163 111.86 14.9966 111.765C14.8303 111.671 14.6517 111.577 14.4638 111.48C14.0479 111.274 13.6212 111.091 13.1856 110.933C12.7488 110.781 12.3035 110.655 11.852 110.556C11.6425 110.512 11.4454 110.472 11.2575 110.447C11.0696 110.421 10.8941 110.393 10.7339 110.377C10.5738 110.362 10.4259 110.349 10.3027 110.34C10.1795 110.33 10.0625 110.34 9.97315 110.321H9.76679H9.69287H9.97315C10.0829 110.315 10.1929 110.315 10.3027 110.321C10.4321 110.321 10.5768 110.321 10.7401 110.349C10.9033 110.377 11.0758 110.381 11.2637 110.409C11.4516 110.437 11.6548 110.475 11.8797 110.512C12.3342 110.611 12.7827 110.737 13.2226 110.889C13.65 111.044 14.0686 111.223 14.4761 111.426C14.6671 111.527 14.8457 111.621 15.012 111.721C15.1784 111.822 15.32 111.913 15.4648 112.001C15.6096 112.089 15.7204 112.174 15.8252 112.249C15.9179 112.31 16.0073 112.376 16.0931 112.447L16.2564 112.575L16.3241 112.626Z" fill="#263238"/>
<path d="M13.4719 111.04C13.4324 111.008 13.3963 110.972 13.3641 110.933C13.2963 110.861 13.2039 110.754 13.09 110.619C12.859 110.352 12.554 109.975 12.2337 109.545C11.9134 109.115 11.6393 108.71 11.4483 108.415C11.3528 108.267 11.2789 108.145 11.2266 108.06C11.1742 107.975 11.1496 107.928 11.1557 107.925C11.1912 107.962 11.2222 108.003 11.2481 108.047L11.4853 108.39C11.6855 108.678 11.9627 109.077 12.283 109.504C12.6033 109.931 12.899 110.314 13.1238 110.588C13.2255 110.719 13.3117 110.826 13.3826 110.902C13.4182 110.943 13.4482 110.99 13.4719 111.04Z" fill="#263238"/>
<g opacity="0.3">
<path d="M9.76074 110.302C9.76074 110.302 11.8551 109.649 13.3058 110.946C13.3058 110.946 11.3777 110.214 9.76074 110.302Z" fill="black"/>
</g>
<path d="M121.09 18.623H33.2119V139.959H121.09V18.623Z" fill="#455A64"/>
<path d="M121.093 139.959C121.093 139.306 121.063 90.46 121.019 18.6231L121.093 18.6984H33.224L33.3041 18.6168C33.3041 63.8925 33.3041 105.833 33.3041 139.953L33.2363 139.887L121.118 139.953L33.2363 140.019H33.1716V139.953C33.1716 105.833 33.1717 63.8925 33.1562 18.6168V18.5352H33.2486H121.118H121.189V18.6105C121.121 90.46 121.093 139.306 121.093 139.959Z" fill="#263238"/>
<path d="M108.567 32.0469H44.7925V126.093H108.567V32.0469Z" fill="white"/>
<path d="M108.57 126.093C108.57 125.431 108.539 87.5338 108.496 32.0469L108.57 32.1223H44.814L44.894 32.0406C44.894 67.3719 44.894 100.009 44.8786 126.087L44.814 126.021L108.592 126.087L44.814 126.153H44.7493V126.087C44.7493 100.009 44.7493 67.3688 44.7339 32.0406V31.959H44.8232H108.579H108.65V32.0343C108.598 87.5338 108.57 125.431 108.57 126.093Z" fill="#263238"/>
<path d="M45.5595 125.879C45.5933 125.91 42.8552 129.085 39.4457 132.972C36.0361 136.86 33.2456 139.99 33.2117 139.959C33.1779 139.927 35.916 136.753 39.3255 132.866C42.7351 128.978 45.5256 125.851 45.5595 125.879Z" fill="#263238"/>
<path d="M121.093 19.2043C121.124 19.2357 118.386 22.2815 114.976 26.0087C111.567 29.7359 108.779 32.7346 108.745 32.7032C108.712 32.6718 111.45 29.626 114.859 25.8988C118.269 22.1716 121.059 19.1729 121.093 19.2043Z" fill="#263238"/>
<path d="M33.2239 18.6233C33.2578 18.5919 36.0452 21.7193 39.4517 25.6066C42.8582 29.494 45.5932 32.6716 45.5593 32.703C45.5255 32.7344 42.7381 29.607 39.3316 25.7165C35.9251 21.8261 33.1901 18.6547 33.2239 18.6233Z" fill="#263238"/>
<path d="M108.746 125.879C108.78 125.851 111.57 128.978 114.98 132.866C118.389 136.753 121.124 139.927 121.093 139.959C121.063 139.99 118.269 136.863 114.86 132.972C111.45 129.082 108.724 125.914 108.746 125.879Z" fill="#263238"/>
<path d="M105.555 34.876H47.8047V123.707H105.555V34.876Z" fill="#E0E0E0"/>
<path d="M96.4039 86.8489C96.3912 86.658 96.334 86.4729 96.237 86.3091C96.1401 86.1452 96.0062 86.0073 95.8464 85.9069C90.9184 82.5785 87.1947 75.1995 86.822 68.9509C86.822 68.596 86.8005 68.2349 86.7882 67.8707C86.5017 58.9374 85.2112 48.0887 84.0531 45.2187C81.9156 39.8807 74.6714 39.3846 74.6714 39.3846C65.0526 38.6813 63.334 46.2173 62.3514 53.0782C61.7354 57.3454 59.4224 72.5901 59.4224 72.5901L61.1903 73.2903C62.2061 76.4052 63.8872 79.2514 66.1125 81.6237C68.3377 83.996 71.0517 85.8353 74.0585 87.009C75.8295 87.6904 77.3326 87.951 78.0348 87.3764C80.8454 90.293 84.3234 92.4511 88.1557 93.6564C89.6987 94.1883 91.3286 94.409 92.9543 94.3064C94.0046 94.2059 95.1103 93.8542 95.7263 92.9876C95.998 92.6125 96.1595 92.1663 96.1919 91.7012C96.2243 91.2361 96.1263 90.7712 95.9093 90.3607C95.6923 89.9502 95.3653 89.6111 94.9664 89.3829C94.5676 89.1547 94.1133 89.0469 93.6566 89.072C94.0446 87.8505 96.444 88.2053 96.4039 86.8489Z" fill="#263238"/>
<path d="M75.9496 42.1573L75.3336 41.5732L68.8318 44.2454C68.3779 44.2703 67.9497 44.4681 67.632 44.7996C67.3143 45.131 67.1302 45.572 67.1162 46.0352L67.1747 67.6352C67.1747 69.0985 67.4519 70.367 68.3205 71.5351L69.2445 72.766C71.3266 75.5669 75.6078 75.3377 77.2525 72.2479C77.3516 72.0734 77.4282 71.8866 77.4804 71.6921C77.522 71.5329 77.5549 71.3715 77.579 71.2086C77.7699 69.469 77.7822 67.9618 77.7822 67.9618C77.8993 66.0558 77.9362 65.2708 77.9362 65.2897C77.9362 65.3085 81.9187 64.8218 82.9967 59.6125C83.5326 57.0189 83.431 53.455 83.2801 49.9445C83.0829 45.0869 79.7719 42.1541 75.9496 42.1573Z" fill="#FFBE9D"/>
<path d="M74.6162 52.8555C74.609 53.0307 74.5353 53.1962 74.4105 53.3169C74.2858 53.4376 74.1199 53.5041 73.9479 53.5024C73.8646 53.5049 73.7816 53.4906 73.7036 53.4604C73.6257 53.4302 73.5544 53.3846 73.4937 53.3263C73.4331 53.268 73.3843 53.198 73.3502 53.1205C73.3161 53.043 73.2973 52.9593 73.2949 52.8744C73.3021 52.6986 73.3763 52.5327 73.5017 52.4119C73.6271 52.291 73.7938 52.2249 73.9664 52.2275C74.0501 52.2228 74.1338 52.2356 74.2125 52.265C74.2912 52.2945 74.3632 52.34 74.424 52.3988C74.4849 52.4576 74.5333 52.5284 74.5663 52.6069C74.5994 52.6855 74.6164 52.7701 74.6162 52.8555Z" fill="#263238"/>
<path d="M81.3395 53.0376C81.3331 53.2136 81.2591 53.38 81.1336 53.501C81.008 53.6219 80.8408 53.6878 80.6681 53.6844C80.5848 53.6869 80.5018 53.6727 80.4238 53.6424C80.3459 53.6122 80.2746 53.5667 80.214 53.5084C80.1533 53.45 80.1045 53.3801 80.0704 53.3025C80.0363 53.225 80.0175 53.1414 80.0151 53.0564C80.0223 52.8807 80.0965 52.7147 80.2219 52.5939C80.3473 52.4731 80.5141 52.407 80.6866 52.4096C80.77 52.4066 80.8532 52.4206 80.9313 52.4507C81.0094 52.4807 81.0809 52.5263 81.1416 52.5847C81.2023 52.6431 81.2511 52.7132 81.2851 52.7909C81.319 52.8686 81.3375 52.9525 81.3395 53.0376Z" fill="#263238"/>
<path d="M82.612 51.3322C82.5258 51.417 82.0453 51.0182 81.3338 50.9774C80.6224 50.9366 80.0834 51.2914 80.0094 51.1878C79.9355 51.0842 80.0649 50.99 80.3174 50.833C80.6354 50.6317 81.0064 50.5352 81.38 50.5566C81.7499 50.5754 82.1046 50.7128 82.3934 50.9491C82.5874 51.1313 82.6552 51.2945 82.612 51.3322Z" fill="#263238"/>
<path d="M75.3952 51.4077C75.2998 51.4799 74.8624 51.0309 74.1632 50.921C73.4641 50.8111 72.8912 51.0906 72.8265 50.9901C72.7957 50.9461 72.9004 50.8017 73.153 50.6761C73.4893 50.5092 73.8679 50.4522 74.2372 50.5128C74.6038 50.5696 74.9435 50.7432 75.2074 51.0089C75.3922 51.2068 75.4414 51.3732 75.3952 51.4077Z" fill="#263238"/>
<path d="M77.8807 56.6862C78.2609 56.5854 78.6521 56.5337 79.0449 56.5324C79.2267 56.5324 79.4022 56.4947 79.4392 56.3691C79.4638 56.1783 79.4305 55.9843 79.3437 55.8133L78.8755 54.3783C78.2287 52.3311 77.7698 50.6543 77.8499 50.6292C77.93 50.6041 78.5213 52.24 79.1712 54.2842C79.3252 54.7907 79.4731 55.2722 79.6147 55.7285C79.7172 55.958 79.7379 56.2168 79.6733 56.4602C79.644 56.5235 79.6011 56.5792 79.5478 56.6233C79.4945 56.6673 79.4321 56.6985 79.3653 56.7145C79.2643 56.7379 79.1607 56.7474 79.0573 56.7428C78.6643 56.7745 78.269 56.7555 77.8807 56.6862Z" fill="#263238"/>
<path d="M77.9486 65.2899C75.52 65.2033 73.1627 64.4315 71.1387 63.0605C71.1387 63.0605 72.6879 66.7877 77.8777 66.5679L77.9486 65.2899Z" fill="#EB996E"/>
<path d="M77.4931 58.4033C77.3664 58.2229 77.1967 58.0783 77 57.9833C76.8033 57.8883 76.5861 57.8459 76.3689 57.8601C76.2108 57.8665 76.0557 57.9054 75.9128 57.9745C75.7699 58.0436 75.6422 58.1414 75.5373 58.262C75.4372 58.3784 75.3742 58.5229 75.3566 58.6766C75.339 58.8302 75.3676 58.9857 75.4387 59.1224C75.5471 59.2588 75.6929 59.3591 75.8575 59.4106C76.0221 59.462 76.198 59.4623 76.3627 59.4113C76.7004 59.305 77.0143 59.1322 77.2867 58.9026C77.3712 58.8498 77.4444 58.7805 77.5023 58.6985C77.5287 58.6586 77.5427 58.6116 77.5427 58.5635C77.5427 58.5154 77.5287 58.4684 77.5023 58.4285" fill="#EB996E"/>
<path d="M75.7682 57.0783C75.8853 57.0783 75.8483 57.8664 76.4797 58.4567C77.1111 59.0471 77.9396 59.0062 77.9396 59.1161C77.9396 59.1664 77.7487 59.2606 77.4006 59.2512C76.9441 59.2372 76.5073 59.058 76.1686 58.7456C75.8473 58.4477 75.6509 58.035 75.6204 57.5932C75.6142 57.2635 75.7097 57.072 75.7682 57.0783Z" fill="#263238"/>
<path d="M76.0762 48.5814C75.9776 48.7635 75.2877 48.5626 74.4469 48.5343C73.606 48.5061 72.9068 48.6317 72.8206 48.4401C72.7836 48.3491 72.9284 48.1826 73.2272 48.0382C73.6212 47.8626 74.0493 47.7809 74.479 47.7994C74.9086 47.8179 75.3285 47.9361 75.7066 48.145C75.9899 48.3145 76.1193 48.4935 76.0762 48.5814Z" fill="#263238"/>
<path d="M82.5102 48.218C82.3777 48.375 81.8942 48.1803 81.3059 48.1426C80.7176 48.1049 80.2125 48.196 80.1078 48.017C80.0616 47.9322 80.1478 47.7721 80.3726 47.6276C80.6749 47.456 81.0203 47.3797 81.3651 47.4082C81.71 47.4367 82.0388 47.5688 82.31 47.7878C82.5102 47.9668 82.5687 48.1395 82.5102 48.218Z" fill="#263238"/>
<path d="M67.2609 55.2633C67.2609 55.2633 70.9045 56.4189 72.965 47.2532C73.6704 44.1132 76.5194 41.5824 76.5194 41.5824L75.3644 41.2275C75.3644 41.2275 68.1818 43.2905 68.0617 43.3816C67.9416 43.4726 66.2476 47.1716 66.2476 47.1716L67.2609 55.2633Z" fill="#263238"/>
<path d="M68.1604 54.9125C68.1789 54.5231 67.7785 53.578 67.4027 53.4964C66.3987 53.286 64.5722 53.2734 64.4244 55.8922C64.2273 59.4749 67.7939 58.9411 67.8124 58.8375C67.8309 58.7339 68.0957 56.2627 68.1604 54.9125Z" fill="#FFBE9D"/>
<path d="M66.8084 57.4173C66.8084 57.4173 66.7437 57.4581 66.639 57.4989C66.5652 57.5273 66.4867 57.5405 66.408 57.5378C66.3292 57.5351 66.2517 57.5166 66.18 57.4832C65.8166 57.3231 65.5363 56.7045 65.564 56.0577C65.5722 55.7507 65.6469 55.4494 65.7827 55.1753C65.8216 55.0653 65.8863 54.9666 65.9711 54.8878C66.0559 54.809 66.1583 54.7525 66.2694 54.7232C66.3411 54.7067 66.4163 54.717 66.4812 54.7522C66.5462 54.7873 66.5967 54.8449 66.6236 54.9147C66.6636 55.0183 66.639 55.0874 66.6544 55.0937C66.6698 55.1 66.7344 55.0403 66.716 54.8896C66.7 54.8001 66.6556 54.7185 66.5897 54.6572C66.4963 54.5771 66.3757 54.5376 66.254 54.5473C66.1082 54.5676 65.97 54.626 65.8529 54.7168C65.7358 54.8076 65.6437 54.9277 65.5856 55.0654C65.4184 55.3668 65.3264 55.7053 65.3176 56.0514C65.2992 56.7736 65.6256 57.4707 66.1246 57.6497C66.2172 57.6826 66.3159 57.6941 66.4134 57.6832C66.5109 57.6723 66.6048 57.6394 66.6882 57.5869C66.796 57.5052 66.8361 57.4236 66.8084 57.4173Z" fill="#EB996E"/>
<path d="M69.7314 53.502C69.9088 53.4749 70.0846 53.4382 70.2581 53.3921C70.7251 53.2476 71.1531 52.995 71.5086 52.6542C71.7555 52.4205 71.9746 52.1581 72.1616 51.8723C72.3729 51.5432 72.5504 51.1928 72.6913 50.8267C72.9949 49.9753 73.2479 49.106 73.449 48.2236C73.6751 47.3438 73.9444 46.476 74.256 45.6237C74.5148 44.9264 74.8236 44.2495 75.18 43.5984C75.4181 43.1607 75.6867 42.7409 75.9838 42.3424C76.0855 42.198 76.1779 42.0975 76.2364 42.0284C76.2639 41.991 76.2949 41.9563 76.3288 41.9248C76.306 41.9662 76.2792 42.0051 76.2487 42.041C76.1964 42.1195 76.1101 42.2231 76.0116 42.355C75.729 42.7578 75.4698 43.1772 75.2354 43.611C74.8924 44.2629 74.595 44.9386 74.3453 45.6331C74.0558 46.415 73.7909 47.2942 73.5445 48.2268C73.3448 49.1137 73.0886 49.9864 72.7776 50.8393C72.6315 51.2089 72.4488 51.5624 72.2324 51.8943C72.0399 52.1822 71.8145 52.4457 71.561 52.6793C71.1947 53.023 70.7534 53.2727 70.2735 53.4078C70.098 53.4647 69.9156 53.4964 69.7314 53.502Z" fill="#263238"/>
<path d="M64.9325 68.7815C64.9123 68.7247 64.8989 68.6657 64.8924 68.6057L64.8062 68.097C64.7292 67.6385 64.6245 66.9854 64.4982 66.1533H64.5844C64.5998 66.2852 64.6214 66.4296 64.6399 66.5772C64.6614 66.6243 64.6891 66.6808 64.7138 66.7374L64.6245 66.7688C63.7526 63.6824 63.3018 60.4883 63.2847 57.2765C63.2847 55.9672 63.2847 54.5761 63.6327 53.1945C63.7718 52.6264 63.9863 52.0802 64.2703 51.5712C64.5495 51.08 64.8744 50.6174 65.2405 50.1896C65.955 49.348 66.725 48.6196 67.4273 47.9068L71.2003 44.1388L73.7505 41.5985L74.4497 40.914L74.6345 40.7382L74.7022 40.6816C74.7022 40.6816 74.6868 40.7068 74.6468 40.7507L74.4743 40.936L73.7967 41.6425C73.1807 42.2705 72.3337 43.1371 71.2803 44.2204L67.532 48.0261C66.8328 48.7483 66.0628 49.4768 65.3606 50.3089C64.6116 51.1452 64.0717 52.1534 63.7867 53.2479C63.451 54.6075 63.4541 55.9923 63.4387 57.2954C63.4521 60.4948 63.8819 63.6783 64.7169 66.7625L64.6275 66.797L64.5567 66.6337C64.5382 66.483 64.5197 66.3386 64.5043 66.2098H64.5875C64.7076 67.0419 64.8 67.6982 64.8647 68.1598C64.8924 68.3764 64.914 68.546 64.9325 68.6716C64.9338 68.7082 64.9338 68.7449 64.9325 68.7815Z" fill="#455A64"/>
<path d="M62.167 52.2245C62.1802 52.1715 62.201 52.1207 62.2286 52.0738C62.284 51.9608 62.3518 51.8226 62.4319 51.653C62.6105 51.2888 62.8908 50.7738 63.2604 50.149C63.63 49.5241 64.0951 48.7956 64.6495 48.0138C65.2039 47.2319 65.8599 46.4061 66.5868 45.574C67.3137 44.7419 68.0621 44.004 68.7582 43.354C69.4543 42.704 70.1196 42.1545 70.6924 41.7181C71.2653 41.2816 71.7366 40.9394 72.0754 40.7196L72.4634 40.4652C72.5075 40.4353 72.5538 40.409 72.602 40.3867C72.602 40.3867 72.5651 40.4275 72.4788 40.4935L72.1092 40.7698C71.7828 41.0053 71.3208 41.3601 70.7633 41.8091C70.2058 42.2582 69.5528 42.8171 68.8598 43.4639C68.1668 44.1108 67.4338 44.8612 66.7038 45.6839C65.9739 46.5066 65.3302 47.3355 64.7665 48.1017C64.2029 48.8679 63.7316 49.5932 63.3528 50.2086C62.974 50.8241 62.6783 51.3296 62.4842 51.6844L62.2532 52.0895C62.229 52.1374 62.2002 52.1826 62.167 52.2245Z" fill="#455A64"/>
<path d="M66.1895 67.4248C66.3127 67.2427 67.1319 65.6318 67.1319 65.6318L71.7643 69.7076C71.7643 69.7076 76.3165 73.5917 76.3165 73.3405L77.0434 69.6039L77.9366 66.2002L79.6059 68.775C79.6059 68.775 84.8419 79.2626 84.8419 79.3882C84.8419 79.5138 88.0913 90.3782 88.0913 90.3782L87.3922 94.7742L87.309 110.364L77.5239 109.947L75.5927 106.807L72.2879 86.8111L66.1895 67.4248Z" fill="white"/>
<path d="M77.1543 107.011H87.9497L91.1313 123.731H69.5005L77.1543 107.011Z" fill="#263238"/>
<path d="M64.4184 70.0216L58.1167 72.4331L63.9379 98.8625C63.9379 98.8625 63.596 106.003 62.3579 109.642C61.1197 113.281 58.2122 123.731 58.2122 123.731H77.5731C77.5731 123.731 78.3954 109.388 78.0689 104.263C77.7425 99.1388 77.878 89.4802 75.953 84.4405C74.028 79.4008 66.3126 67.0166 66.3126 67.0166L64.4184 70.0216Z" fill="#9B9A78"/>
<path d="M78.2319 66.502L81.0871 68.9072L88.9288 70.0973C88.9288 70.0973 92.6402 83.8034 91.9533 89.1916C91.2665 94.5798 92.2244 103.909 92.2244 103.909L95.6617 123.732H88.1157C88.1157 123.732 85.9597 100.549 85.8334 100.828C85.7071 101.108 85.2913 89.4899 84.4689 85.7219C83.6466 81.9539 79.4947 70.1098 79.4947 70.1098L78.2319 66.502Z" fill="#9B9A78"/>
<path d="M98.8187 100.618C98.8187 100.618 101.979 99.1484 101.979 96.2785C101.979 93.4085 100.054 89.3485 99.6442 87.8005C99.2345 86.2525 89.8929 69.8805 88.9319 70.0909L87.971 70.3013L92.9144 92.4226L86.1846 94.1025L89.0551 102.524L98.8187 100.618Z" fill="#9B9A78"/>
<path d="M89.1846 93.4677L90.5706 88.8959L90.8077 85.781L94.0695 83.583C94.0695 83.583 94.9442 83.6866 94.6855 84.3774C94.4267 85.0682 93.0931 86.3117 93.0931 86.3117L92.3139 88.5317L93.5797 86.2771L95.4277 85.3351L97.2603 85.4733C97.2603 85.4733 97.5991 86.3022 96.7521 86.3368H95.8281L94.436 87.4797L93.5674 89.6212L94.8764 87.5488L96.8107 86.8486L98.0427 87.1626C98.0427 87.1626 98.3815 87.7152 97.7716 87.7906C97.1618 87.866 96.7552 87.8597 96.7552 87.8597L95.6372 88.5222L94.6516 90.626L96.3825 89.1722L98.6186 88.899C98.6186 88.899 98.9944 89.4485 98.4153 89.6558C97.8257 89.9026 97.249 90.1803 96.6875 90.4879L95.4308 92.0422L89.1846 93.4677Z" fill="#FFBE9D"/>
<path d="M78.1459 107.01C78.1305 106.977 78.1191 106.943 78.1121 106.907C78.0936 106.831 78.0659 106.728 78.0351 106.593C77.9642 106.313 77.8687 105.918 77.7271 105.412C77.4776 104.373 77.1111 102.9 76.6737 101.054C76.2363 99.2076 75.6912 97.0284 75.0813 94.6043C74.7733 93.3923 74.4469 92.1206 74.0896 90.8049C73.914 90.1487 73.7292 89.483 73.529 88.811C73.4305 88.4751 73.3196 88.1391 73.221 87.8C73.1053 87.4647 72.9706 87.1365 72.8175 86.8171C71.6625 84.4527 70.4829 82.2265 69.4295 80.1729C68.3762 78.1193 67.3721 76.2542 66.522 74.6402L66.5005 74.5963L66.5343 74.5649C66.7499 74.367 66.9625 74.1818 67.175 74.0059C67.2796 73.9163 67.3897 73.8334 67.5045 73.7579L67.5538 73.7296H67.5846C67.5846 73.7296 67.5846 73.7296 67.5661 73.7516C67.5611 73.7654 67.5614 73.7806 67.5672 73.7941C67.5729 73.8076 67.5836 73.8182 67.5969 73.8238H67.5107H67.3197C66.8085 73.8238 66.328 73.8238 65.8845 73.8238H65.8506V73.7924C65.4009 72.6086 65.0467 71.6698 64.8003 71.0167L64.5262 70.2819L64.4584 70.0904L64.4399 70.0244C64.4399 70.0244 64.4399 70.0433 64.4707 70.0841L64.5508 70.2725L64.8588 70.9978C65.1145 71.6478 65.4748 72.5678 65.9522 73.7579L65.906 73.7265C66.3526 73.7265 66.83 73.7014 67.3444 73.7014H67.5384C67.5753 73.6986 67.6124 73.6986 67.6493 73.7014H67.6678C67.6757 73.7094 67.6813 73.7195 67.684 73.7306C67.6867 73.7416 67.6864 73.7532 67.6832 73.7642C67.6647 73.7987 67.6678 73.7861 67.6616 73.7924H67.6339H67.6185C67.6055 73.7986 67.5932 73.8059 67.5815 73.8144C67.4734 73.8874 67.3705 73.9682 67.2735 74.0562C67.0672 74.232 66.8547 74.4173 66.6575 74.6151V74.5397C67.5107 76.1506 68.5055 78.0157 69.5897 80.0599C70.6739 82.104 71.8443 84.3334 73.0023 86.7041C73.1586 87.0293 73.2954 87.3638 73.412 87.7058C73.5198 88.048 73.6307 88.384 73.72 88.7231C73.9253 89.3993 74.1122 90.066 74.2805 90.7233C74.6347 92.039 74.9551 93.3107 75.26 94.5258C75.876 96.9531 76.3873 99.1448 76.8215 100.988L77.8256 105.356C77.9365 105.864 78.0258 106.263 78.0874 106.546C78.1121 106.674 78.1336 106.778 78.149 106.86C78.1562 106.91 78.1552 106.961 78.1459 107.01Z" fill="#263238"/>
<path d="M88.116 91.4645C88.1079 91.3831 88.1079 91.301 88.116 91.2196C88.116 91.0406 88.1375 90.8082 88.156 90.5162C88.156 90.3623 88.1745 90.2022 88.1868 90.0075V89.4047C88.1868 88.9682 88.1868 88.4627 88.156 87.932C87.9957 85.0897 87.4484 82.2839 86.5298 79.5953C86.1555 78.4714 85.7153 77.3715 85.2115 76.3014C84.7624 75.2636 84.2533 74.2539 83.6869 73.2776C83.1849 72.3858 82.7229 71.6103 82.3348 70.9697L81.4108 69.4719C81.3092 69.3086 81.2291 69.1579 81.1644 69.0731C81.1353 69.027 81.1095 68.9787 81.0874 68.9287C81.1254 68.9681 81.1594 69.0112 81.189 69.0574L81.4539 69.4437C81.6818 69.7828 82.0083 70.2821 82.4087 70.9163C82.8091 71.5506 83.2834 72.3231 83.7947 73.2117C84.3697 74.1879 84.884 75.1999 85.3347 76.2418C85.8484 77.3211 86.2939 78.4329 86.6684 79.5702C87.5939 82.2715 88.1293 85.0956 88.2576 87.954C88.2915 88.5035 88.273 88.9996 88.2576 89.4329C88.2576 89.6496 88.2576 89.8537 88.2422 90.0389C88.2268 90.2242 88.2114 90.3937 88.1991 90.5476C88.1714 90.8396 88.1468 91.0751 88.1314 91.251C88.1298 91.3224 88.1246 91.3936 88.116 91.4645Z" fill="#263238"/>
<path d="M99.0529 100.496C98.99 100.52 98.925 100.538 98.8588 100.549L98.2952 100.681L96.1669 101.155L88.7256 102.766L88.6609 102.782L88.6394 102.716C88.0234 100.832 87.3273 98.772 86.6097 96.6086L85.8643 94.3572L85.8335 94.2724L85.9197 94.2504L91.5161 92.9097L93.9277 92.335L95.015 92.0776C95.349 91.9835 95.6917 91.9246 96.0375 91.9017C96.6321 91.8807 97.2231 92.0034 97.7623 92.2597C98.1668 92.4464 98.5407 92.6953 98.8711 92.9976C99.0779 93.1865 99.2648 93.397 99.4286 93.6256C99.4748 93.7009 99.5149 93.7606 99.5457 93.8077C99.5765 93.8548 99.5857 93.8736 99.5826 93.8736C99.3627 93.5691 99.1107 93.2901 98.8311 93.0415C98.5 92.7515 98.1284 92.5134 97.7285 92.335C97.1965 92.1011 96.6193 91.9937 96.0406 92.021C95.7035 92.0468 95.37 92.1089 95.0458 92.2063L93.9585 92.4732L91.55 93.0635C89.8467 93.4749 87.9587 93.9333 85.9567 94.4231L86.0121 94.3164L86.7606 96.5678C87.4751 98.7344 88.1589 100.797 88.7811 102.681L88.6948 102.631L96.1484 101.08L98.2859 100.647L98.8527 100.537C98.9184 100.518 98.9853 100.505 99.0529 100.496Z" fill="#263238"/>
<path d="M62.6783 111.476L72.987 112.443L71.213 115.658L60.356 114.575L62.6783 111.476Z" fill="#9B9A78"/>
<path d="M62.6779 111.47C62.6779 111.47 62.6779 111.495 62.6409 111.533L62.5269 111.696L62.0773 112.324L60.3956 114.61L60.3586 114.522L70.8399 115.552L71.2218 115.59L71.1448 115.631L72.9189 112.412L72.9774 112.528L65.6039 111.784L63.4479 111.561L62.8688 111.495C62.8003 111.491 62.7322 111.481 62.6655 111.464H62.8596L63.4294 111.505L65.5854 111.684L72.9959 112.365H73.1129L73.0544 112.472L71.2865 115.69L71.2587 115.734H71.2064L70.8245 115.697L60.3525 114.626H60.2539L60.3124 114.547L62.0495 112.28L62.5177 111.677C62.5671 111.605 62.6206 111.536 62.6779 111.47Z" fill="#263238"/>
<path d="M90.4287 112.556L92.0395 115.659L95.5015 114.937L93.6658 112.079L90.4287 112.556Z" fill="#9B9A78"/>
<path d="M90.4287 112.556C90.4982 112.535 90.5693 112.521 90.6412 112.512L91.288 112.399C91.8486 112.302 92.6648 112.164 93.6565 112.01H93.6997L93.7243 112.047C94.2602 112.876 94.8947 113.853 95.5723 114.899L95.637 114.999L95.52 115.024L95.3475 115.059L92.055 115.734H92.0057L91.981 115.687C91.4944 114.745 91.1032 113.944 90.8353 113.398C90.7121 113.143 90.6104 112.933 90.5273 112.77C90.4902 112.701 90.4583 112.63 90.4318 112.556C90.4318 112.556 90.4841 112.641 90.5673 112.788L90.9153 113.416C91.2233 113.957 91.6238 114.71 92.1042 115.614L92.0272 115.58L95.3167 114.883L95.4891 114.848L95.4399 114.971C94.7684 113.922 94.1432 112.942 93.6134 112.107L93.6781 112.139C92.7202 112.274 91.9225 112.371 91.3496 112.453L90.6813 112.531C90.5211 112.55 90.4349 112.559 90.4287 112.556Z" fill="#263238"/>
<g opacity="0.3">
<path d="M61.6122 114.704L61.1841 115.658L71.8932 116.66L72.691 112.977L71.2126 115.658L61.6122 114.704Z" fill="black"/>
</g>
<g opacity="0.3">
<path d="M63.8208 100.536C63.8208 100.536 65.5025 104.128 67.6862 105.18C70.6646 106.612 78.1243 105.676 78.1243 105.676L78.1459 103.494L69.5003 103.996L63.8208 100.536Z" fill="black"/>
</g>
<path d="M58.5202 72.2666C58.5202 72.2666 55.4987 72.4769 55.4402 80.5279C55.3817 88.5788 64.6402 102.087 66.2202 103.418C67.8003 104.75 69.6082 105.642 74.3637 104.923C80.3328 104.021 84.4846 103.208 84.4846 103.208L83.6592 95.8574L72.9962 95.3675L64.3507 77.2435C64.3507 77.2435 61.4678 71.9055 58.5202 72.2666Z" fill="#9B9A78"/>
<g opacity="0.3">
<path d="M86.24 98.9447C85.0696 98.4486 83.776 98.4391 82.4978 98.436L77.4589 98.4203C76.3719 98.3707 75.283 98.4625 74.2188 98.6935C73.145 98.9315 72.2009 99.5784 71.5792 100.502L68.9458 102.722C72.3176 103.555 75.8562 103.344 79.1098 102.116C79.9022 101.759 80.7276 101.483 81.5738 101.293C83.8499 100.929 86.1538 102.276 88.4176 101.846C88.4206 100.552 87.4073 99.4439 86.24 98.9447Z" fill="black"/>
</g>
<path d="M69.1706 91.4648C70.1537 91.869 71.1633 92.2026 72.1921 92.4634C73.4782 92.7358 74.7333 93.143 75.9373 93.6785C76.7905 94.0216 77.6244 94.4127 78.4352 94.8498L80.0245 100.502C80.0245 100.502 77.3849 102.194 74.4066 102.106C71.4282 102.018 68.7887 103.001 68.4067 102.734C68.0248 102.467 67.9817 101.984 68.4067 101.767C68.8318 101.551 70.6367 101.29 70.6367 101.29L72.1767 100.64C72.1767 100.64 66.8575 101.117 66.4325 100.901C66.0074 100.684 65.5824 100.379 65.7518 99.902C65.7916 99.7703 65.8698 99.6541 65.976 99.5688C66.0822 99.4836 66.2113 99.4333 66.3462 99.4247C66.3462 99.4247 65.1974 99.4687 65.2405 98.9914C65.2739 98.7893 65.3478 98.5964 65.4575 98.4246C65.5672 98.2528 65.7103 98.1059 65.8781 97.9929C66.0505 97.905 68.2805 96.9818 68.2805 96.9818L71.151 96.3978L68.3944 96.2847L65.9859 96.9693C65.9859 96.9693 65.0249 97.0823 65.2405 96.2565C65.4561 95.4307 68.4067 94.5138 68.4067 94.5138L72.152 94.2532C72.152 94.2532 69.2568 93.8198 68.9581 92.9092C68.8611 92.6716 68.8296 92.4114 68.8671 92.1569C68.9045 91.9023 69.0095 91.663 69.1706 91.4648Z" fill="#FFBE9D"/>
<path d="M78.4355 94.8492H78.6203L85.9292 94.5195L88.116 101.026L80.0248 100.489L78.4355 94.8492Z" fill="#FFBE9D"/>
<path d="M72.0718 98.5491C71.7762 98.5953 71.4777 98.6194 71.1786 98.6213C70.6273 98.6527 69.8665 98.7186 69.0226 98.8474C68.1787 98.9761 67.4487 99.1425 66.9128 99.2776C66.6261 99.3656 66.3338 99.4338 66.0381 99.4817C66.3069 99.3448 66.59 99.2395 66.882 99.1677C68.2734 98.7521 69.7135 98.5303 71.1632 98.5083C71.4666 98.4877 71.7713 98.5014 72.0718 98.5491Z" fill="#EB996E"/>
<path d="M66.5867 81.3416C66.4932 81.2316 66.4117 81.1115 66.3434 80.9837C66.1955 80.7513 65.9861 80.409 65.7274 79.9946C65.0274 78.9152 64.2717 77.8744 63.4636 76.8765C62.6656 75.8713 61.7619 74.9584 60.7686 74.1542C60.3437 73.8394 59.9027 73.548 59.4473 73.2812C59.5836 73.3223 59.7157 73.377 59.8415 73.4445C59.9933 73.5164 60.1404 73.5983 60.2819 73.6894C60.4737 73.8017 60.6589 73.9254 60.8363 74.06C61.859 74.8444 62.7828 75.7546 63.5868 76.7698C64.4008 77.7726 65.1478 78.8301 65.8229 79.9349C66.0816 80.3557 66.2787 80.7073 66.4111 80.9523C66.4816 81.0761 66.5404 81.2065 66.5867 81.3416Z" fill="#263238"/>
<path d="M71.3174 92.0646C71.2506 91.9504 71.1959 91.8293 71.1541 91.7034L70.7537 90.7018C70.4211 89.854 69.9498 88.6859 69.4047 87.4079C68.8595 86.1299 68.3421 84.9839 67.9602 84.1549C67.7815 83.7655 67.6306 83.4358 67.5136 83.1752C67.4496 83.0584 67.3999 82.9339 67.3657 82.8047C67.4439 82.912 67.5119 83.0266 67.569 83.1469C67.6891 83.3699 67.8585 83.6965 68.0618 84.1047C68.4684 84.9211 69.0043 86.0609 69.5525 87.342C70.1008 88.6231 70.5535 89.8006 70.8615 90.6578C71.0155 91.088 71.1356 91.4397 71.2126 91.6815C71.2615 91.8048 71.2966 91.9333 71.3174 92.0646Z" fill="#263238"/>
<path d="M76.2425 73.4038C76.2425 73.4038 76.1748 73.3819 76.0577 73.3222L75.5557 73.0522L73.7878 72.0568L73.8925 72.0034C73.8062 72.8135 73.6615 73.7587 73.5136 74.7666C73.4551 75.1779 73.3997 75.5767 73.3535 75.9598L73.335 76.1074L73.2272 76.0132C72.2786 75.1936 71.4593 74.4714 70.8741 73.9502L70.1965 73.3222C70.1106 73.2511 70.0322 73.1711 69.9624 73.0836C70.0599 73.1359 70.15 73.2014 70.2304 73.2782L70.9418 73.8591C71.5424 74.3584 72.3771 75.0649 73.3258 75.8782L73.1995 75.9284C73.2426 75.5453 73.295 75.1434 73.3566 74.7321C73.5013 73.721 73.6646 72.7758 73.7539 71.972V71.8652L73.8432 71.9186L75.5834 72.9674L76.0639 73.2814C76.1289 73.3132 76.1891 73.3544 76.2425 73.4038Z" fill="#263238"/>
<path d="M78.9438 68.7812C78.9634 68.9227 78.9686 69.0658 78.9592 69.2083C78.9592 69.5223 78.9592 69.9022 78.9376 70.367C78.913 71.3498 78.8698 72.7031 78.8113 74.1978C78.8113 74.2354 78.8113 74.27 78.8113 74.3076V74.5683L78.6727 74.3485L76.9171 71.5225H77.0249C76.8309 72.0657 76.6707 72.521 76.5444 72.8695C76.4939 73.0392 76.4268 73.2033 76.3442 73.3594C76.374 73.1849 76.4193 73.0136 76.4798 72.8475L76.9079 71.4816L76.9479 71.356L77.0188 71.466L78.8082 74.27L78.6604 74.3108C78.6604 74.2763 78.6604 74.2386 78.6604 74.204C78.7189 72.7094 78.7805 71.3561 78.8329 70.3764C78.8637 69.9117 78.8852 69.5223 78.9068 69.2177C78.9048 69.0713 78.9172 68.9251 78.9438 68.7812Z" fill="#263238"/>
<path d="M88.6087 73.1269C88.5216 73.0934 88.4389 73.0491 88.3623 72.9951L88.3993 72.9699C88.5933 73.6733 89.1415 75.9686 89.7637 78.6942C90.1456 80.3552 90.4783 81.8593 90.7123 82.952C90.8232 83.4764 90.9125 83.9128 90.9834 84.2457C91.0229 84.4032 91.0487 84.564 91.0604 84.7261C91.0023 84.5751 90.956 84.4198 90.9218 84.2614C90.8386 83.9286 90.7339 83.4984 90.6138 82.9771C90.3489 81.8938 89.9978 80.3929 89.6189 78.7319C89.0029 76.0063 88.4917 73.7078 88.3623 72.9794V72.9229L88.4054 72.9542C88.4793 73.0038 88.5475 73.0618 88.6087 73.1269Z" fill="#263238"/>
<path d="M78.9433 104.156C78.8822 104.182 78.8194 104.203 78.7554 104.219L78.2041 104.37C77.7236 104.499 77.0214 104.665 76.1497 104.828C75.1256 105.02 74.0908 105.147 73.0513 105.208C71.7747 105.296 70.4923 105.209 69.2382 104.951C68.5876 104.81 67.9573 104.585 67.3625 104.282C67.0805 104.135 66.8088 103.968 66.5494 103.783C66.3101 103.591 66.0856 103.381 65.8779 103.155C65.1836 102.36 64.5396 101.521 63.9499 100.643C63.4386 99.9017 63.0474 99.2894 62.7795 98.8624L62.4715 98.3694C62.4343 98.3128 62.4024 98.2529 62.376 98.1904C62.4225 98.2392 62.4637 98.2929 62.4992 98.3506C62.5823 98.473 62.6901 98.6332 62.8257 98.8278C63.109 99.2423 63.5156 99.8452 64.0361 100.574C64.6356 101.434 65.2845 102.257 65.9796 103.039C66.1808 103.259 66.3991 103.463 66.6325 103.648C66.8851 103.829 67.1508 103.991 67.4272 104.131C68.0129 104.43 68.6341 104.649 69.2752 104.784C70.515 105.041 71.7823 105.132 73.0451 105.054C74.0772 104.998 75.1055 104.882 76.1251 104.709C76.9967 104.558 77.699 104.411 78.1825 104.304L78.74 104.182C78.8063 104.164 78.8747 104.155 78.9433 104.156Z" fill="#263238"/>
<g opacity="0.3">
<path d="M64.708 70.7725L65.5242 74.7257L66.1895 74.3018L65.8076 75.2438L74.1513 90.6706L73.0671 87.1476L66.5714 74.6158L67.6001 73.7774H65.8722L64.708 70.7725Z" fill="black"/>
</g>
<path d="M82.2359 86.4473C82.1404 86.5697 80.1631 92.1432 80.1631 92.1432L82.1127 90.8872C82.1127 90.8872 82.9258 93.3113 82.9074 93.2265C82.8889 93.1417 84.432 87.1789 84.432 87.1789L82.2359 86.4473Z" fill="#263238"/>
<path d="M85.855 87.2354C85.855 87.2354 87.318 92.8686 87.358 92.8058C87.3981 92.743 88.1527 90.9626 88.1527 90.9626L90.0407 92.184L88.051 86.4473L85.855 87.2354Z" fill="#263238"/>
<path d="M85.1033 87.8754C87.7314 87.8754 89.8619 85.7035 89.8619 83.0242C89.8619 80.3449 87.7314 78.1729 85.1033 78.1729C82.4752 78.1729 80.3447 80.3449 80.3447 83.0242C80.3447 85.7035 82.4752 87.8754 85.1033 87.8754Z" fill="#455A64"/>
<path d="M88.8272 82.8708C88.7991 82.5612 88.7507 82.2538 88.6824 81.9508C88.467 81.131 87.9889 80.4082 87.3242 79.8972C86.836 79.5219 86.2633 79.2775 85.6584 79.1865C85.0536 79.0954 84.436 79.1606 83.8623 79.376C83.5304 79.4946 83.2186 79.6652 82.9383 79.8815C82.6422 80.1022 82.3823 80.3693 82.1683 80.6728C81.7075 81.3094 81.4589 82.0797 81.4589 82.8708C81.4589 83.6619 81.7075 84.4322 82.1683 85.0688C82.3807 85.3738 82.6408 85.6411 82.9383 85.8601C83.2186 86.0773 83.5303 86.2489 83.8623 86.3688C84.4363 86.5832 85.0539 86.6475 85.6587 86.5559C86.2634 86.4643 86.836 86.2197 87.3242 85.8444C87.9904 85.3363 88.469 84.6138 88.6824 83.794C88.7505 83.4909 88.7988 83.1835 88.8272 82.874C88.836 82.9543 88.836 83.0354 88.8272 83.1157C88.828 83.2146 88.8208 83.3133 88.8056 83.4109C88.7928 83.5456 88.7692 83.679 88.7348 83.8097C88.5383 84.6562 88.062 85.408 87.3858 85.9386C86.8843 86.3339 86.293 86.5936 85.6668 86.6935C85.0405 86.7934 84.3997 86.7303 83.8037 86.5101C83.4587 86.385 83.1338 86.2082 82.8397 85.9857C82.5311 85.7574 82.2597 85.4808 82.0358 85.1662C81.5537 84.503 81.2935 83.6994 81.2935 82.874C81.2935 82.0485 81.5537 81.2449 82.0358 80.5818C82.2621 80.2632 82.5378 79.9842 82.852 79.7559C83.1446 79.531 83.4699 79.3541 83.8161 79.2316C84.4542 78.997 85.1425 78.9417 85.8088 79.0714C86.5166 79.2095 87.1703 79.5528 87.6915 80.0602C88.2127 80.5676 88.5792 81.2175 88.7471 81.932C88.7815 82.0627 88.8052 82.1961 88.818 82.3307C88.833 82.4273 88.8402 82.525 88.8395 82.6228C88.8444 82.7057 88.8402 82.7889 88.8272 82.8708Z" fill="#263238"/>
<g opacity="0.2">
<path d="M86.2214 78.3086L80.3447 83.6906L80.7174 84.9089L87.4349 78.7922C87.0756 78.5315 86.6588 78.3654 86.2214 78.3086Z" fill="white"/>
</g>
<g opacity="0.2">
<path d="M87.968 79.1465C87.9434 79.1277 81.0996 85.6463 81.0996 85.6463L81.5062 86.199C81.5216 86.2147 88.39 79.5139 88.39 79.5139L87.968 79.1465Z" fill="white"/>
</g>
<path d="M85.6673 81.2412V85.0343H84.8049V81.954H84.0596V81.2506L85.6673 81.2412Z" fill="white"/>
<g opacity="0.3">
<path d="M81.9714 82.8706C81.9714 80.883 83.3512 79.2533 85.1037 79.0869C85.0082 79.0869 84.9097 79.0869 84.7957 79.0869C82.9015 79.0869 81.3677 80.7857 81.3677 82.8832C81.3677 84.9807 82.9077 86.6794 84.7957 86.6794C84.8974 86.6794 84.9959 86.6794 85.1037 86.6637C83.3512 86.4848 81.9714 84.8551 81.9714 82.8706Z" fill="black"/>
</g>
<g opacity="0.3">
<path d="M87.9492 34.876L88.827 66.5021L105.558 71.5418V34.876H87.9492Z" fill="white"/>
</g>
<path d="M63.8205 95.2795C63.8544 95.3077 61.2518 98.5419 58.0055 102.501C54.7591 106.461 52.1011 109.645 52.0672 109.617C52.0333 109.588 54.6359 106.354 57.8823 102.395C61.1286 98.4352 63.7866 95.2512 63.8205 95.2795Z" fill="white"/>
<path d="M65.2253 89.1194C65.2561 89.1476 62.4163 92.454 58.8805 96.5015C55.3446 100.549 52.4494 103.808 52.4125 103.777C52.3755 103.745 55.2183 100.442 58.7542 96.3947C62.29 92.3473 65.1914 89.088 65.2253 89.1194Z" fill="white"/>
<path d="M101.609 57.5969C101.643 57.6251 98.4983 61.2738 94.5837 65.7389C90.669 70.204 87.4719 73.8056 87.4411 73.7899C87.4103 73.7742 90.5519 70.0972 94.4666 65.6259C98.3813 61.1545 101.575 57.5655 101.609 57.5969Z" fill="white"/>
<path d="M54.6453 34.7373L55.0672 40.4709C55.1174 41.2222 55.4273 41.931 55.942 42.4711C56.0707 42.6051 56.2064 42.7319 56.3485 42.8511C56.8959 43.3094 57.5675 43.5866 58.2735 43.6455L62.3822 44.0003L57.9039 44.4525C57.5793 44.4866 57.2697 44.6091 57.0076 44.8073C56.906 44.8858 56.8074 44.9643 56.6996 45.0491C55.8476 45.8063 55.3176 46.8714 55.2212 48.0195L54.9132 51.4138L54.5744 48.2738C54.5079 47.5935 54.2882 46.9381 53.9324 46.3586C53.5766 45.7791 53.0943 45.2912 52.5232 44.9329L52.4954 44.914C52.2667 44.7787 52.0108 44.6981 51.747 44.6785L46.8159 44.2955L51.1033 43.8904C51.9488 43.8179 52.7384 43.4299 53.3209 42.8008C53.4379 42.6721 53.5519 42.5339 53.6597 42.3926C54.0284 41.8908 54.2428 41.2886 54.2757 40.6625L54.6453 34.7373Z" fill="white"/>
<path d="M41.8078 49.1592L42.0788 52.8644C42.1122 53.3493 42.313 53.8065 42.6455 54.1549C42.7283 54.2424 42.8157 54.3252 42.9073 54.403C43.2586 54.6952 43.6877 54.8735 44.1393 54.9148L46.7943 55.144L43.9083 55.436C43.6986 55.4577 43.4985 55.5369 43.3293 55.6653C43.2615 55.7155 43.1999 55.7657 43.1383 55.8191C42.5884 56.3084 42.2461 56.9962 42.1835 57.7377L41.9803 59.9357L41.7647 57.9135C41.7209 57.4741 41.5784 57.0509 41.3481 56.6768C41.1179 56.3027 40.8062 55.9877 40.4372 55.7563H40.4187C40.2712 55.6684 40.1056 55.6167 39.9351 55.6056L36.7319 55.3481L39.5039 55.0875C40.05 55.0407 40.5599 54.7902 40.9361 54.3841C41.0131 54.2994 41.0871 54.2114 41.1548 54.1204C41.396 53.7973 41.5366 53.4079 41.5583 53.0025L41.8078 49.1592Z" fill="white"/>
<path d="M38.3337 133.418L116.292 134.078L116.224 134.147C116.224 103.506 116.224 65.6946 116.208 24.8306V24.4538L116.292 24.5355H38.3337L38.4045 24.4601C38.3614 88.9526 38.3337 132.771 38.3337 133.418C38.3337 132.765 38.3029 88.9463 38.2598 24.4601V24.3848H38.3337H116.292H116.372V24.8369C116.372 65.6883 116.372 103.513 116.356 134.153V134.219H116.288L38.3337 133.418Z" fill="#263238"/>
<path d="M97.014 128.476H58.4186C57.5 128.476 56.7554 129.235 56.7554 130.171V136.759C56.7554 137.695 57.5 138.455 58.4186 138.455H97.014C97.9326 138.455 98.6772 137.695 98.6772 136.759V130.171C98.6772 129.235 97.9326 128.476 97.014 128.476Z" fill="#9B9A78"/>
<g opacity="0.3">
<path d="M76.1995 128.476L67.8096 138.455H70.7202L79.1809 128.476H76.1995Z" fill="white"/>
</g>
<g opacity="0.3">
<path d="M97.4052 129.854C97.4058 129.969 97.3728 130.082 97.3105 130.178C97.2481 130.274 97.1591 130.349 97.0549 130.393C96.9507 130.438 96.8358 130.449 96.725 130.427C96.6142 130.405 96.5124 130.349 96.4325 130.268C96.3526 130.187 96.2983 130.083 96.2764 129.97C96.2545 129.857 96.2661 129.74 96.3096 129.634C96.3531 129.527 96.4266 129.437 96.5208 129.373C96.615 129.309 96.7255 129.276 96.8385 129.276C96.9888 129.276 97.133 129.337 97.2392 129.446C97.3455 129.554 97.4052 129.701 97.4052 129.854Z" fill="black"/>
</g>
<g opacity="0.3">
<path d="M97.4052 136.832C97.4058 136.947 97.3728 137.06 97.3105 137.156C97.2481 137.252 97.1591 137.327 97.0549 137.371C96.9507 137.415 96.8358 137.427 96.725 137.405C96.6142 137.382 96.5124 137.327 96.4325 137.246C96.3526 137.164 96.2983 137.06 96.2764 136.947C96.2545 136.834 96.2661 136.717 96.3096 136.611C96.3531 136.505 96.4266 136.414 96.5208 136.351C96.615 136.287 96.7255 136.253 96.8385 136.254C96.9888 136.254 97.133 136.315 97.2392 136.423C97.3455 136.531 97.4052 136.678 97.4052 136.832Z" fill="black"/>
</g>
<g opacity="0.3">
<path d="M58.6647 129.996C58.6647 130.11 58.6315 130.222 58.5692 130.317C58.5069 130.412 58.4184 130.486 58.3148 130.53C58.2113 130.573 58.0973 130.585 57.9874 130.562C57.8775 130.54 57.7765 130.485 57.6972 130.404C57.618 130.323 57.564 130.221 57.5421 130.108C57.5203 129.996 57.5315 129.88 57.5744 129.775C57.6173 129.669 57.6899 129.579 57.7831 129.515C57.8763 129.452 57.9859 129.418 58.098 129.418C58.2483 129.418 58.3924 129.479 58.4987 129.587C58.605 129.696 58.6647 129.842 58.6647 129.996Z" fill="black"/>
</g>
<g opacity="0.3">
<path d="M58.862 136.832C58.862 136.946 58.8287 137.058 58.7664 137.153C58.7042 137.248 58.6157 137.322 58.5121 137.365C58.4086 137.409 58.2946 137.421 58.1847 137.398C58.0747 137.376 57.9738 137.321 57.8945 137.24C57.8152 137.159 57.7613 137.056 57.7394 136.944C57.7175 136.832 57.7288 136.716 57.7717 136.611C57.8145 136.505 57.8872 136.415 57.9804 136.351C58.0736 136.288 58.1831 136.254 58.2952 136.254C58.4455 136.254 58.5897 136.315 58.696 136.423C58.8022 136.531 58.862 136.678 58.862 136.832Z" fill="black"/>
</g>
<g opacity="0.3">
<path d="M73.304 128.476L64.7139 138.455H63.5127L71.9858 128.476H73.304Z" fill="white"/>
</g>
<path d="M92.2338 127.383L92.3601 129.085C92.3753 129.306 92.467 129.516 92.6188 129.675C92.7997 129.873 93.0449 129.996 93.3088 130.024L94.5408 130.13L93.2163 130.265C93.1203 130.274 93.0287 130.31 92.9515 130.369L92.8622 130.441C92.6101 130.665 92.4533 130.981 92.4248 131.32L92.3324 132.328L92.2308 131.386C92.21 131.184 92.1436 130.99 92.0367 130.818C91.9298 130.646 91.7854 130.502 91.6148 130.397C91.5469 130.357 91.4711 130.334 91.393 130.328L89.9238 130.209L91.1928 130.089C91.4425 130.07 91.6767 129.958 91.8519 129.775L91.9505 129.653C92.0614 129.505 92.1258 129.327 92.1353 129.141L92.2338 127.383Z" fill="white"/>
<path d="M109.466 7.38506C109.466 7.38506 107.153 9.00844 108.376 11.1028L106.549 11.2755C106.549 11.2755 105.724 7.31598 108.505 6.70996L109.466 7.38506Z" fill="#9B9A78"/>
<path d="M87.435 148.107C87.435 148.107 84.6322 148.242 84.5829 150.676L82.9443 149.841C82.9443 149.841 84.2934 146.032 86.9699 147.015L87.435 148.107Z" fill="#9B9A78"/>
<path d="M141.957 58.7936C141.957 58.7936 139.151 58.9286 139.105 61.3653L137.466 60.53C137.466 60.53 138.815 56.7212 141.492 57.704L141.957 58.7936Z" fill="#9B9A78"/>
<path d="M17.0447 18.0489C17.0447 18.0489 19.5733 19.3049 20.7407 17.1729L21.7909 18.702C21.7909 18.702 18.8372 21.3962 16.9399 19.2358L17.0447 18.0489Z" fill="#9B9A78"/>
<path d="M18.3628 73.827C18.3628 73.827 21.1348 73.4188 20.9592 71.001L22.6686 71.6698C22.6686 71.6698 21.683 75.5948 18.9295 74.8789L18.3628 73.827Z" fill="#9B9A78"/>
<path d="M64.7046 11.2758C64.7046 11.4211 64.6624 11.5632 64.5832 11.684C64.504 11.8048 64.3914 11.899 64.2597 11.9546C64.128 12.0102 63.9831 12.0248 63.8433 11.9964C63.7035 11.9681 63.5751 11.8981 63.4743 11.7953C63.3735 11.6926 63.3048 11.5617 63.277 11.4191C63.2492 11.2766 63.2635 11.1289 63.318 10.9946C63.3726 10.8603 63.465 10.7456 63.5835 10.6648C63.702 10.5841 63.8414 10.541 63.9839 10.541C64.1748 10.5418 64.3576 10.6195 64.4926 10.7571C64.6276 10.8948 64.7038 11.0812 64.7046 11.2758Z" fill="#9B9A78"/>
<path d="M37.7266 146.088C37.7266 146.234 37.6843 146.376 37.6051 146.496C37.5259 146.617 37.4134 146.711 37.2817 146.767C37.15 146.823 37.0051 146.837 36.8653 146.809C36.7255 146.781 36.597 146.711 36.4962 146.608C36.3955 146.505 36.3268 146.374 36.299 146.232C36.2712 146.089 36.2855 145.941 36.34 145.807C36.3946 145.673 36.4869 145.558 36.6055 145.477C36.724 145.397 36.8633 145.354 37.0059 145.354C37.1968 145.354 37.3796 145.432 37.5146 145.57C37.6496 145.707 37.7258 145.894 37.7266 146.088Z" fill="#9B9A78"/>
<path d="M14.1924 60.0209C14.1924 60.1662 14.1501 60.3083 14.071 60.4291C13.9918 60.5499 13.8792 60.6441 13.7475 60.6997C13.6158 60.7553 13.4709 60.7699 13.3311 60.7415C13.1913 60.7132 13.0629 60.6432 12.9621 60.5404C12.8613 60.4377 12.7926 60.3068 12.7648 60.1642C12.737 60.0217 12.7513 59.874 12.8058 59.7397C12.8604 59.6055 12.9528 59.4907 13.0713 59.41C13.1898 59.3292 13.3292 59.2861 13.4717 59.2861C13.6626 59.287 13.8454 59.3646 13.9804 59.5023C14.1154 59.6399 14.1916 59.8263 14.1924 60.0209Z" fill="#9B9A78"/>
<path d="M130.056 141.429C130.454 141.429 130.776 141.1 130.776 140.694C130.776 140.288 130.454 139.959 130.056 139.959C129.658 139.959 129.335 140.288 129.335 140.694C129.335 141.1 129.658 141.429 130.056 141.429Z" fill="#9B9A78"/>
<path d="M135.061 17.1723C135.061 17.3185 135.019 17.4616 134.94 17.5834C134.861 17.7052 134.748 17.8003 134.615 17.8565C134.483 17.9128 134.337 17.9276 134.197 17.8993C134.056 17.8709 133.927 17.8006 133.825 17.6972C133.724 17.5938 133.655 17.462 133.627 17.3186C133.599 17.1752 133.614 17.0265 133.669 16.8916C133.724 16.7566 133.817 16.6414 133.937 16.5606C134.056 16.4797 134.197 16.4369 134.34 16.4375C134.531 16.4375 134.715 16.5149 134.85 16.6527C134.985 16.7905 135.061 16.9774 135.061 17.1723Z" fill="#9B9A78"/>
<path d="M139.311 77.3131C139.31 77.4583 139.268 77.6 139.188 77.7205C139.109 77.8409 138.996 77.9346 138.864 77.9897C138.732 78.0448 138.587 78.0589 138.448 78.0302C138.308 78.0015 138.18 77.9313 138.08 77.8284C137.979 77.7255 137.911 77.5946 137.883 77.4521C137.856 77.3097 137.87 77.1621 137.925 77.0281C137.979 76.894 138.072 76.7794 138.19 76.6988C138.309 76.6182 138.448 76.5752 138.59 76.5752C138.685 76.5752 138.779 76.5943 138.867 76.6314C138.955 76.6685 139.034 76.7229 139.101 76.7915C139.168 76.8601 139.221 76.9414 139.257 77.031C139.293 77.1205 139.311 77.2163 139.311 77.3131Z" fill="#9B9A78"/>
</svg>
