<svg width="24" height="24" viewBox="0 0 24 24" fill="none" xmlns="http://www.w3.org/2000/svg">
<path d="M13.3125 6.18726C13.9103 6.63231 14.2104 7.18575 14.4639 7.87769C14.8711 8.98324 15.528 9.73251 16.5938 10.2654C17.3261 10.5931 18.0389 10.6916 18.8438 10.781C18.8438 11.4616 18.8438 12.1423 18.8438 12.8435C16.6415 12.7276 15.0056 12.033 13.4531 10.4529C13.3485 10.8856 13.2624 11.3194 13.186 11.7579C13.1746 11.8225 13.1633 11.8872 13.1519 11.9519C13.1283 12.0861 13.1049 12.2203 13.0816 12.3545C13.0518 12.526 13.0216 12.6974 12.9913 12.8687C12.9678 13.0017 12.9446 13.1347 12.9214 13.2677C12.9104 13.3309 12.8993 13.3942 12.8881 13.4574C12.8725 13.5455 12.8572 13.6338 12.842 13.722C12.8332 13.772 12.8245 13.822 12.8155 13.8735C12.7699 14.1461 12.7699 14.1461 12.8661 14.388C12.8993 14.4149 12.9326 14.4418 12.9668 14.4695C13.0056 14.5014 13.0444 14.5334 13.0844 14.5663C13.1287 14.6011 13.1731 14.6358 13.2188 14.6716C13.267 14.7098 13.3152 14.7479 13.3649 14.7872C13.4451 14.8504 13.5254 14.9134 13.6059 14.9761C13.841 15.1593 14.0725 15.3467 14.3027 15.5359C14.3366 15.5636 14.3705 15.5913 14.4054 15.6199C14.4374 15.6462 14.4694 15.6726 14.5023 15.6998C14.5305 15.723 14.5588 15.7462 14.5879 15.7702C14.6156 15.7944 14.6433 15.8186 14.6719 15.8435C14.7187 15.882 14.7187 15.882 14.7664 15.9213C14.8974 16.0759 14.9501 16.2408 15.0157 16.4307C15.0304 16.4716 15.045 16.5125 15.0601 16.5546C15.1089 16.6914 15.157 16.8285 15.2051 16.9656C15.2395 17.0625 15.274 17.1594 15.3086 17.2562C15.3838 17.4672 15.4588 17.6783 15.5337 17.8894C15.7201 18.4147 15.9098 18.9389 16.0991 19.4631C16.1662 19.6489 16.2332 19.8346 16.3001 20.0204C16.332 20.1091 16.364 20.1977 16.3959 20.2864C16.4367 20.3996 16.4774 20.5128 16.518 20.626C16.6074 20.8744 16.6979 21.1223 16.7924 21.3688C16.8081 21.4102 16.8239 21.4517 16.8401 21.4943C16.8689 21.5696 16.8981 21.6447 16.9279 21.7197C17.0375 22.007 17.0375 22.007 16.9688 22.1716C16.8383 22.2361 16.7159 22.2869 16.5795 22.3351C16.5403 22.3496 16.5012 22.364 16.4609 22.3788C16.378 22.4091 16.295 22.4391 16.2119 22.4687C16.0845 22.5142 15.9576 22.5609 15.8307 22.6079C15.7503 22.6372 15.6698 22.6664 15.5892 22.6955C15.5511 22.7095 15.5131 22.7235 15.4738 22.7379C15.2038 22.8333 15.2038 22.8333 15.0469 22.781C15.0025 22.6987 15.0025 22.6987 14.964 22.5893C14.9492 22.5479 14.9344 22.5066 14.9191 22.464C14.8954 22.3953 14.8954 22.3953 14.8713 22.3253C14.8542 22.2773 14.8372 22.2293 14.8196 22.1798C14.763 22.02 14.7072 21.86 14.6514 21.7C14.6121 21.5888 14.5728 21.4776 14.5334 21.3665C14.4504 21.1317 14.3676 20.8969 14.285 20.662C14.0935 20.1176 13.8993 19.5743 13.7052 19.0309C13.6445 18.8608 13.5839 18.6906 13.5234 18.5204C13.4859 18.415 13.4484 18.3097 13.4108 18.2043C13.3941 18.1572 13.3774 18.11 13.3602 18.0615C13.2828 17.8446 13.2039 17.6282 13.1214 17.4131C13.1073 17.376 13.0932 17.339 13.0787 17.3009C13.0009 17.1401 12.885 17.0446 12.7441 16.9392C12.717 16.9176 12.6898 16.896 12.6619 16.8737C12.5825 16.8107 12.5023 16.749 12.4219 16.6873C12.3475 16.6278 12.2733 16.5683 12.1992 16.5085C12.1618 16.4789 12.1244 16.4492 12.0859 16.4186C11.8085 16.1963 11.5353 15.9689 11.2611 15.7426C11.1264 15.6314 10.9915 15.5203 10.8566 15.4092C10.7908 15.3551 10.7251 15.3009 10.6594 15.2466C10.4877 15.1049 10.3153 14.964 10.142 14.8242C10.1063 14.7952 10.0706 14.7662 10.0338 14.7364C9.96608 14.6814 9.89816 14.6267 9.83002 14.5723C9.3892 14.2137 9.02088 13.7563 8.95312 13.1716C8.93189 12.7002 8.97187 12.2596 9.05566 11.7949C9.06607 11.7345 9.07647 11.6741 9.08719 11.6119C9.11442 11.4539 9.14234 11.296 9.17042 11.1382C9.19913 10.9761 9.22716 10.8139 9.25525 10.6516C9.31014 10.3353 9.36576 10.019 9.42188 9.70288C9.33907 9.76112 9.25653 9.81974 9.1741 9.87852C9.12811 9.91112 9.08211 9.94372 9.03472 9.97731C8.85449 10.1184 8.73542 10.278 8.61035 10.4675C8.55902 10.5419 8.50763 10.6161 8.45618 10.6904C8.43018 10.7284 8.40418 10.7664 8.3774 10.8056C8.24263 10.9998 8.10106 11.189 7.95996 11.3787C7.57995 11.8927 7.20886 12.4126 6.84375 12.9373C6.7059 12.8726 6.58685 12.7978 6.46454 12.7073C6.42803 12.6803 6.39152 12.6534 6.35391 12.6256C6.31543 12.597 6.27695 12.5683 6.2373 12.5388C6.17818 12.495 6.17818 12.495 6.11786 12.4504C5.79439 12.2102 5.47406 11.9661 5.15625 11.7185C5.36016 11.3796 5.58506 11.0639 5.824 10.7493C5.99566 10.5227 6.16204 10.2931 6.3252 10.0603C6.5247 9.77588 6.72559 9.49255 6.92871 9.2107C6.95285 9.17708 6.97698 9.14346 7.00185 9.10882C7.04934 9.04303 7.09715 8.97748 7.14528 8.91215C7.19586 8.84338 7.24565 8.77403 7.29478 8.70421C7.48949 8.43715 7.69682 8.26491 7.97461 8.08863C8.05442 8.03609 8.13413 7.98342 8.21375 7.9306C8.25225 7.90517 8.29076 7.87974 8.33043 7.85354C8.47294 7.757 8.60713 7.65339 8.74219 7.54663C9.02187 7.32688 9.31348 7.1281 9.60829 6.92927C9.83283 6.77702 10.0501 6.61942 10.2627 6.45093C11.2097 5.71374 12.2552 5.50776 13.3125 6.18726Z" fill="#697865"/>
<path d="M9.375 15.2812C9.56926 15.361 9.71455 15.4988 9.87012 15.6357C9.92898 15.6869 9.98788 15.738 10.0468 15.789C10.0759 15.8142 10.105 15.8395 10.135 15.8655C10.4829 16.1647 10.8442 16.4486 11.2031 16.7344C11.1756 16.956 11.1108 17.1445 11.0193 17.3465C11.0054 17.3775 10.9915 17.4085 10.9772 17.4405C10.932 17.5404 10.8861 17.6399 10.8398 17.7393C10.8242 17.7731 10.8085 17.807 10.7923 17.8418C10.558 18.3427 10.3084 18.7632 9.90974 19.1524C9.80802 19.2547 9.71964 19.3667 9.62988 19.4795C9.47009 19.6768 9.30638 19.8702 9.14062 20.0625C8.974 20.2558 8.80932 20.4503 8.64844 20.6484C8.4432 20.9011 8.23152 21.1478 8.01929 21.3946C7.87495 21.5624 7.73118 21.7307 7.58789 21.8994C7.56627 21.9248 7.54464 21.9501 7.52236 21.9762C7.42975 22.0854 7.34519 22.1932 7.26562 22.3125C7.07286 22.2875 6.97844 22.186 6.84082 22.0547C6.62412 21.8512 6.39984 21.6611 6.16846 21.4742C5.99914 21.336 5.83503 21.1923 5.67188 21.0469C5.75078 20.8566 5.88335 20.7135 6.01758 20.5605C6.06873 20.5016 6.11988 20.4426 6.17102 20.3837C6.19717 20.3537 6.22332 20.3236 6.25026 20.2927C6.37072 20.1541 6.49002 20.0145 6.60938 19.875C6.65624 19.8203 6.70312 19.7656 6.75 19.7109C6.7848 19.6703 6.7848 19.6703 6.82031 19.6289C7.59375 18.7266 7.59375 18.7266 7.66417 18.6444C7.71073 18.5901 7.75727 18.5357 7.80376 18.4813C7.92533 18.3391 8.04761 18.1977 8.17108 18.0571C8.19655 18.0279 8.22202 17.9988 8.24826 17.9687C8.29673 17.9132 8.34542 17.8579 8.39438 17.8028C8.4164 17.7775 8.43843 17.7522 8.46112 17.7261C8.48037 17.7042 8.49962 17.6824 8.51945 17.6599C8.69478 17.4156 8.77644 17.136 8.86414 16.8523C8.88396 16.7892 8.88396 16.7892 8.90418 16.7249C8.94611 16.5914 8.98772 16.4578 9.0293 16.3242C9.07126 16.19 9.1133 16.0557 9.15542 15.9215C9.18155 15.8382 9.20758 15.7548 9.23351 15.6714C9.24526 15.6339 9.257 15.5963 9.2691 15.5576C9.28454 15.508 9.28454 15.508 9.3003 15.4573C9.32812 15.375 9.32812 15.375 9.375 15.2812Z" fill="#697865"/>
<path d="M14.719 1.73452C15.1363 2.1097 15.3866 2.57207 15.4333 3.13491C15.4488 3.7879 15.2633 4.30132 14.82 4.78121C14.4469 5.13681 13.9652 5.31923 13.4533 5.34389C12.7642 5.31512 12.2803 5.10187 11.8127 4.59389C11.7013 4.44453 11.6127 4.29264 11.5315 4.12514C11.5156 4.09366 11.4997 4.06218 11.4833 4.02974C11.2857 3.55705 11.3369 2.93295 11.5192 2.46474C11.6109 2.27738 11.7207 2.12388 11.8596 1.96889C11.8831 1.94055 11.9066 1.91221 11.9308 1.88302C12.6583 1.07057 13.9028 1.08599 14.719 1.73452Z" fill="#697865"/>
</svg>
