<svg width="88" height="89" viewBox="0 0 88 89" fill="none" xmlns="http://www.w3.org/2000/svg">
<path d="M79.6768 64.8946C81.6163 60.9522 82.5829 56.6024 82.4956 52.2096C82.4084 47.8168 81.2699 43.5088 79.1755 39.6465C77.0811 35.7841 74.0917 32.4799 70.4577 30.0104C66.8237 27.5409 62.6508 25.978 58.2887 25.4528C56.842 22.0803 54.7349 19.0315 52.0917 16.486C49.4485 13.9405 46.3225 11.9498 42.898 10.6311C39.4734 9.31241 35.8196 8.69246 32.1518 8.80777C28.4839 8.92308 24.8763 9.77132 21.5413 11.3025C18.2064 12.8337 15.2116 15.0169 12.7335 17.7234C10.2554 20.4299 8.34402 23.605 7.11201 27.0617C5.88001 30.5184 5.3523 34.1866 5.55996 37.8504C5.76763 41.5142 6.70647 45.0993 8.32118 48.3946L5.68805 57.614C5.45309 58.4388 5.44279 59.3114 5.65824 60.1415C5.87368 60.9716 6.30703 61.7291 6.91346 62.3355C7.51988 62.9419 8.27733 63.3753 9.10743 63.5907C9.93754 63.8062 10.8101 63.7959 11.6349 63.5609L20.8543 60.9278C23.6363 62.2937 26.6288 63.1804 29.7059 63.5506C31.1726 66.987 33.3243 70.0885 36.0295 72.6658C38.7348 75.2431 41.9369 77.242 45.4403 78.5407C48.9438 79.8393 52.6751 80.4104 56.4066 80.219C60.1381 80.0277 63.7914 79.0779 67.1437 77.4278L76.3631 80.0609C77.1878 80.2959 78.0604 80.3062 78.8905 80.0907C79.7207 79.8753 80.4781 79.4419 81.0845 78.8355C81.6909 78.2291 82.1243 77.4716 82.3397 76.6415C82.5552 75.8114 82.5449 74.9388 82.3099 74.114L79.6768 64.8946ZM21.1499 55.2353C20.8943 55.2353 20.6399 55.27 20.3937 55.3384L11.3152 57.9337L13.9106 48.8553C14.1051 48.1636 14.0212 47.4233 13.6768 46.7928C11.1482 42.1505 10.3771 36.7526 11.5048 31.5881C12.6325 26.4235 15.5835 21.8383 19.817 18.6726C24.0505 15.5069 29.2829 13.9728 34.5556 14.3512C39.8282 14.7297 44.7879 16.9955 48.5258 20.7334C52.2637 24.4714 54.5295 29.431 54.908 34.7037C55.2865 39.9763 53.7523 45.2088 50.5866 49.4423C47.4209 53.6758 42.8357 56.6267 37.6712 57.7544C32.5067 58.8821 27.1087 58.111 22.4665 55.5825C22.064 55.3574 21.6111 55.2379 21.1499 55.2353ZM74.0874 65.3553L76.6827 74.4337L67.6043 71.8384C66.9127 71.6439 66.1724 71.7278 65.5418 72.0721C60.4725 74.8301 54.5231 75.4878 48.9739 73.9037C43.4246 72.3197 38.7189 68.6205 35.8693 63.6021C39.6349 63.21 43.2789 62.0438 46.5725 60.1768C49.8661 58.3098 52.7384 55.7823 55.009 52.7528C57.2797 49.7233 58.8998 46.2573 59.7676 42.5721C60.6354 38.8869 60.7323 35.0621 60.0521 31.3378C63.3474 32.1144 66.4189 33.641 69.0277 35.7988C71.6364 37.9566 73.712 40.6874 75.0928 43.7786C76.4735 46.8698 77.1222 50.2379 76.9884 53.6208C76.8546 57.0037 75.9418 60.31 74.3212 63.2825C73.9741 63.9159 73.8901 64.6604 74.0874 65.3553Z" fill="#EBEBEB"/>
</svg>
