<svg width="24" height="24" viewBox="0 0 24 24" fill="none" xmlns="http://www.w3.org/2000/svg">
<path d="M21.7483 12.8115C21.589 14.664 20.9039 16.4324 19.7736 17.9087C18.6433 19.3851 17.1149 20.5079 15.3682 21.1451C13.6215 21.7823 11.7291 21.9074 9.91373 21.5056C8.09834 21.1038 6.43546 20.1919 5.12072 18.8772C3.80599 17.5625 2.8941 15.8996 2.49233 14.0842C2.09056 12.2688 2.21564 10.3764 2.85284 8.62971C3.49004 6.88299 4.61286 5.35459 6.08919 4.22433C7.56552 3.09407 9.33396 2.40896 11.1864 2.24962C11.2849 2.24149 11.3841 2.25285 11.4782 2.28303C11.5723 2.31321 11.6595 2.36164 11.7349 2.42554C11.8103 2.48943 11.8723 2.56756 11.9175 2.65544C11.9627 2.74333 11.9902 2.83925 11.9983 2.93774C12.0064 3.03623 11.9951 3.13536 11.9649 3.22947C11.9347 3.32357 11.8863 3.41081 11.8224 3.4862C11.7585 3.56159 11.6804 3.62365 11.5925 3.66885C11.5046 3.71405 11.4087 3.74149 11.3102 3.74962C9.7423 3.88433 8.2455 4.46406 6.99591 5.42058C5.74632 6.37711 4.79593 7.67064 4.25655 9.14899C3.71718 10.6273 3.61126 12.229 3.95126 13.7655C4.29127 15.302 5.06305 16.7094 6.1758 17.8221C7.28855 18.9349 8.69597 19.7067 10.2325 20.0467C11.769 20.3867 13.3706 20.2808 14.8489 19.7414C16.3273 19.202 17.6208 18.2516 18.5773 17.002C19.5339 15.7524 20.1136 14.2556 20.2483 12.6877C20.2647 12.4888 20.3595 12.3046 20.5117 12.1755C20.664 12.0465 20.8613 11.9832 21.0602 11.9996C21.2591 12.016 21.4433 12.1108 21.5724 12.263C21.7014 12.4153 21.7647 12.6126 21.7483 12.8115ZM11.2483 6.74962V11.9996C11.2483 12.1985 11.3273 12.3893 11.468 12.5299C11.6086 12.6706 11.7994 12.7496 11.9983 12.7496H17.2483C17.4472 12.7496 17.638 12.6706 17.7786 12.5299C17.9193 12.3893 17.9983 12.1985 17.9983 11.9996C17.9983 11.8007 17.9193 11.6099 17.7786 11.4693C17.638 11.3286 17.4472 11.2496 17.2483 11.2496H12.7483V6.74962C12.7483 6.55071 12.6693 6.35994 12.5286 6.21929C12.388 6.07864 12.1972 5.99962 11.9983 5.99962C11.7994 5.99962 11.6086 6.07864 11.468 6.21929C11.3273 6.35994 11.2483 6.55071 11.2483 6.74962ZM14.9983 4.49962C15.2208 4.49962 15.4383 4.43364 15.6233 4.31002C15.8083 4.18641 15.9525 4.0107 16.0377 3.80514C16.1228 3.59957 16.1451 3.37337 16.1017 3.15514C16.0583 2.93691 15.9511 2.73646 15.7938 2.57912C15.6365 2.42179 15.436 2.31464 15.2178 2.27124C14.9996 2.22783 14.7734 2.25011 14.5678 2.33525C14.3622 2.4204 14.1865 2.5646 14.0629 2.7496C13.9393 2.93461 13.8733 3.15211 13.8733 3.37462C13.8733 3.67299 13.9918 3.95914 14.2028 4.17011C14.4138 4.38109 14.6999 4.49962 14.9983 4.49962ZM18.3733 6.74962C18.5958 6.74962 18.8133 6.68364 18.9983 6.56002C19.1833 6.43641 19.3275 6.2607 19.4127 6.05514C19.4978 5.84957 19.5201 5.62337 19.4767 5.40514C19.4333 5.18691 19.3261 4.98646 19.1688 4.82912C19.0115 4.67179 18.811 4.56464 18.5928 4.52123C18.3746 4.47783 18.1484 4.50011 17.9428 4.58525C17.7372 4.6704 17.5615 4.8146 17.4379 4.9996C17.3143 5.18461 17.2483 5.40211 17.2483 5.62462C17.2483 5.92299 17.3668 6.20914 17.5778 6.42011C17.7888 6.63109 18.0749 6.74962 18.3733 6.74962ZM20.6233 10.1246C20.8458 10.1246 21.0633 10.0586 21.2483 9.93502C21.4333 9.81141 21.5775 9.6357 21.6627 9.43014C21.7478 9.22457 21.7701 8.99837 21.7267 8.78014C21.6833 8.56191 21.5761 8.36146 21.4188 8.20412C21.2615 8.04679 21.061 7.93964 20.8428 7.89623C20.6246 7.85283 20.3984 7.87511 20.1928 7.96025C19.9872 8.0454 19.8115 8.1896 19.6879 8.3746C19.5643 8.55961 19.4983 8.77711 19.4983 8.99962C19.4983 9.29799 19.6168 9.58414 19.8278 9.79511C20.0388 10.0061 20.3249 10.1246 20.6233 10.1246Z" fill="#A0A0A0"/>
</svg>
