<svg width="24" height="24" viewBox="0 0 24 24" fill="none" xmlns="http://www.w3.org/2000/svg">
<g clip-path="url(#clip0_109_28)">
<path d="M2.6547 0.344882C2.71387 0.344484 2.77304 0.344085 2.834 0.343674C2.99749 0.342608 3.16096 0.342996 3.32445 0.343634C3.50106 0.344068 3.67766 0.343153 3.85427 0.342416C4.19996 0.341194 4.54564 0.341244 4.89134 0.341762C5.17236 0.342163 5.45338 0.342124 5.73441 0.341771C5.77443 0.341722 5.81446 0.341672 5.8557 0.341621C5.93702 0.34152 6.01834 0.341417 6.09966 0.341314C6.86189 0.340403 7.62412 0.340965 8.38635 0.342007C9.04001 0.342862 9.69366 0.342351 10.3473 0.340868C11.1068 0.339144 11.8662 0.338347 12.6257 0.338965C12.7067 0.339028 12.7878 0.339089 12.8688 0.339149C12.9087 0.339179 12.9485 0.339208 12.9896 0.339239C13.2702 0.33938 13.5508 0.338853 13.8313 0.338059C14.1734 0.337106 14.5155 0.337148 14.8576 0.338464C15.0321 0.339109 15.2065 0.339307 15.381 0.338279C15.5703 0.337177 15.7595 0.338264 15.9488 0.339561C16.0311 0.338572 16.0311 0.338572 16.1151 0.337563C16.6165 0.34448 16.8986 0.568747 17.2418 0.910989C17.2778 0.946608 17.2778 0.946608 17.3145 0.982945C17.3923 1.06015 17.4696 1.13785 17.5469 1.2156C17.6015 1.27013 17.6561 1.32464 17.7108 1.37913C17.8247 1.49281 17.9383 1.60673 18.0518 1.72084C18.1967 1.86653 18.3422 2.01157 18.4879 2.15644C18.6006 2.26867 18.713 2.38123 18.8253 2.49389C18.8788 2.5475 18.9324 2.601 18.9862 2.65439C19.0613 2.72917 19.136 2.80439 19.2105 2.87974C19.2742 2.94358 19.2742 2.94358 19.3392 3.0087C19.5769 3.28362 19.669 3.49031 19.6632 3.8534C19.6634 3.89082 19.6635 3.92823 19.6637 3.96678C19.664 4.09145 19.663 4.21607 19.662 4.34074C19.6619 4.43038 19.6619 4.52002 19.662 4.60966C19.6621 4.85254 19.661 5.0954 19.6597 5.33827C19.6585 5.59227 19.6584 5.84626 19.6582 6.10026C19.6576 6.58102 19.6561 7.06178 19.6542 7.54254C19.6521 8.08996 19.6511 8.63738 19.6501 9.1848C19.6482 10.3107 19.6449 11.4366 19.6407 12.5625C19.6689 12.5716 19.697 12.5806 19.7261 12.59C19.7635 12.6022 19.8009 12.6145 19.8394 12.6271C19.8763 12.6391 19.9132 12.6511 19.9512 12.6634C20.1264 12.7258 20.2885 12.8086 20.4522 12.8964C20.4867 12.9149 20.5212 12.9334 20.5567 12.9524C20.869 13.1237 21.1481 13.318 21.4219 13.5468C21.4686 13.5858 21.5152 13.6248 21.5633 13.6649C22.6077 14.5661 23.2391 15.8465 23.4376 17.2031C23.5271 18.8274 23.2355 20.3554 22.1479 21.6214C22.1095 21.6638 22.071 21.7063 22.0313 21.75C21.9987 21.786 21.9987 21.786 21.9655 21.8228C21.2733 22.5782 20.4288 23.0574 19.4836 23.4325C19.3562 23.4829 19.3562 23.4829 19.2298 23.5568C19.065 23.6309 18.9585 23.6427 18.7789 23.6429C18.6895 23.6436 18.6895 23.6436 18.5983 23.6442C18.5325 23.644 18.4667 23.6437 18.4009 23.6434C18.3307 23.6437 18.2606 23.644 18.1904 23.6443C17.9978 23.6451 17.8051 23.645 17.6125 23.6447C17.4047 23.6446 17.1968 23.6453 16.989 23.6458C16.5819 23.6468 16.1748 23.647 15.7677 23.647C15.4368 23.6469 15.1059 23.6471 14.7751 23.6474C14.6798 23.6475 14.5845 23.6476 14.4892 23.6477C14.4181 23.6478 14.4181 23.6478 14.3455 23.6479C13.4484 23.6488 12.5514 23.6487 11.6543 23.6484C10.8336 23.6481 10.0128 23.6491 9.19211 23.6507C8.34946 23.6522 7.50681 23.6529 6.66417 23.6527C6.19105 23.6526 5.71795 23.6529 5.24483 23.654C4.84206 23.655 4.4393 23.6552 4.03652 23.6543C3.83103 23.6539 3.62556 23.6538 3.42006 23.6548C3.23188 23.6557 3.04373 23.6555 2.85554 23.6544C2.78754 23.6542 2.71953 23.6544 2.65152 23.655C2.01382 23.6606 2.01382 23.6606 1.75918 23.4642C1.45835 23.155 1.47316 22.8019 1.47573 22.3904C1.47545 22.327 1.4751 22.2636 1.47466 22.2003C1.47372 22.0269 1.47393 21.8535 1.47433 21.6801C1.47456 21.4929 1.47372 21.3057 1.473 21.1184C1.47191 20.7942 1.4715 20.4701 1.47155 20.1459C1.47163 19.6772 1.47068 19.2085 1.46947 18.7398C1.46755 17.9794 1.46645 17.2189 1.46588 16.4584C1.46533 15.7198 1.46438 14.9812 1.46291 14.2426C1.46282 14.197 1.46273 14.1515 1.46263 14.1046C1.46218 13.8761 1.46171 13.6476 1.46124 13.4191C1.45736 11.5242 1.45483 9.62925 1.45318 7.73433C1.40798 7.71337 1.36279 7.6924 1.31622 7.6708C1.25639 7.6422 1.19658 7.61358 1.13678 7.58492C1.10705 7.57123 1.07732 7.55755 1.04669 7.54345C0.851993 7.44914 0.731179 7.35711 0.609432 7.17183C0.41878 6.59988 0.688409 6.11802 0.928768 5.61031C0.963809 5.5344 0.998752 5.45844 1.0336 5.38244C1.11056 5.21484 1.18842 5.04771 1.26717 4.88095C1.28215 4.84803 1.29713 4.81512 1.31256 4.78121C1.34945 4.70515 1.34945 4.70515 1.38709 4.62755C1.45831 4.43956 1.47063 4.30362 1.47047 4.10336C1.47065 4.07009 1.47083 4.03681 1.47101 4.00252C1.47131 3.93083 1.4713 3.85914 1.471 3.78746C1.47057 3.6737 1.47106 3.55998 1.47178 3.44623C1.47365 3.12302 1.47372 2.79982 1.47361 2.47661C1.47361 2.27836 1.47451 2.08013 1.47592 1.88189C1.47643 1.77034 1.47586 1.65882 1.47527 1.54727C1.4765 0.862958 1.4765 0.862958 1.68756 0.609334C1.98059 0.345982 2.27575 0.341499 2.6547 0.344882ZM2.29693 1.17183C2.29282 1.27241 2.29192 1.37312 2.29235 1.47378C2.29251 1.53496 2.29266 1.59614 2.29281 1.65917C2.2932 1.72426 2.2936 1.78936 2.294 1.85445C2.29424 1.91973 2.29445 1.98501 2.29464 2.05028C2.2952 2.21059 2.29597 2.3709 2.29693 2.53121C2.42478 2.36794 2.50155 2.20768 2.58111 2.01558C2.79164 1.5099 2.79164 1.5099 2.92974 1.4443C2.96842 1.43173 3.00709 1.41916 3.04693 1.40621C3.07787 1.39074 3.10881 1.37527 3.14068 1.35933C3.56082 1.31421 3.88061 1.39898 4.25982 1.5732C4.30635 1.59281 4.35288 1.61242 4.40081 1.63262C4.68329 1.75818 4.8964 1.88993 5.06256 2.15621C5.16663 2.46843 5.12194 2.78822 5.01568 3.09371C5.59701 3.44565 6.0301 3.41873 6.67498 3.26931C7.25967 3.14819 7.8482 3.15 8.39068 3.42183C8.62103 3.41087 8.81997 3.32027 9.02972 3.2314C9.73586 2.95174 10.5293 3.19054 11.1973 3.45406C11.5824 3.61519 11.5824 3.61519 11.9847 3.56264C12.2179 3.46414 12.2179 3.46414 12.3751 3.28121C12.3606 3.25027 12.3461 3.21933 12.3311 3.18746C12.2379 2.92415 12.2402 2.64129 12.3399 2.37887C12.4902 2.11897 12.7649 2.03048 13.0313 1.92183C13.0621 1.90887 13.0929 1.89591 13.1247 1.88256C13.2221 1.84186 13.3199 1.80249 13.418 1.76363C13.4484 1.7513 13.4788 1.73896 13.5102 1.72625C13.7642 1.63042 14.0014 1.59528 14.2684 1.67336C14.2971 1.68865 14.3259 1.70394 14.3555 1.71969C14.3848 1.73437 14.414 1.74905 14.4441 1.76418C14.701 1.95247 14.7929 2.22027 14.9006 2.50704C14.9177 2.5515 14.9348 2.59597 14.9525 2.64178C15.0088 2.78837 15.0645 2.93518 15.1202 3.08199C15.1593 3.1841 15.1984 3.2862 15.2376 3.38828C15.3197 3.6021 15.4015 3.81599 15.4833 4.02993C15.669 4.51549 15.8573 5.00004 16.0455 5.48464C16.1038 5.63483 16.1621 5.78505 16.2203 5.93528C16.2384 5.98201 16.2565 6.02874 16.2752 6.07689C16.3089 6.16397 16.3427 6.25105 16.3764 6.33813C16.3914 6.37676 16.4064 6.4154 16.4218 6.45521C16.4423 6.50824 16.4423 6.50824 16.4633 6.56236C16.4936 6.63971 16.525 6.71663 16.5567 6.79342C16.6409 7.01396 16.6337 7.2826 16.5616 7.506C16.3751 7.86578 16.0004 7.98441 15.6446 8.12105C15.6028 8.13809 15.5611 8.15513 15.5181 8.17269C15.1809 8.30285 14.8657 8.36265 14.5167 8.2441C14.3185 8.10582 14.1966 7.93537 14.0626 7.73433C13.8878 7.79073 13.739 7.85499 13.5938 7.96871C13.5379 8.10885 13.5147 8.24141 13.4889 8.38985C13.4321 8.61454 13.299 8.75819 13.1251 8.90621C13.0806 8.92651 13.0361 8.94682 12.9903 8.96773C12.8797 9.03742 12.8797 9.03742 12.8726 9.15633C12.867 9.24706 12.8619 9.33782 12.8574 9.42861C12.83 9.69861 12.7149 9.87615 12.5303 10.0693C12.3446 10.192 12.1657 10.2525 11.9532 10.3125C11.9068 10.3279 11.8604 10.3434 11.8126 10.3593C11.7712 10.4483 11.7712 10.4483 11.7452 10.5556C11.6525 10.855 11.5382 11.0598 11.2532 11.2137C11.1393 11.2563 11.0338 11.2661 10.9131 11.2793C10.7918 11.2946 10.7918 11.2946 10.6876 11.3437C10.6208 11.4561 10.5875 11.5651 10.5495 11.69C10.4444 11.9504 10.1899 12.1248 9.93756 12.2343C9.61363 12.3002 9.32354 12.2799 9.02478 12.1289C8.90559 12.0794 8.90559 12.0794 8.79571 12.1444C8.75873 12.1712 8.72175 12.198 8.68365 12.2255C8.38751 12.4173 8.14749 12.4517 7.80182 12.3955C7.57135 12.336 7.38635 12.2148 7.21881 12.0468C7.1615 11.9439 7.1615 11.9439 7.12506 11.8593C7.0888 11.861 7.05255 11.8626 7.01519 11.8643C6.58959 11.8753 6.27615 11.8352 5.95318 11.5312C5.92224 11.4848 5.89131 11.4384 5.85943 11.3906C5.73721 11.3851 5.62357 11.3867 5.50201 11.3935C5.20845 11.4008 4.96801 11.4037 4.73443 11.2031C4.53392 11.0072 4.4467 10.8294 4.39166 10.5556C4.36535 10.4237 4.36535 10.4237 4.31256 10.3125C4.20932 10.2507 4.11801 10.2285 4.00091 10.2026C3.75815 10.1348 3.60253 9.95587 3.47467 9.74703C3.32444 9.35477 3.35294 9.00736 3.51568 8.62496C3.55629 8.56985 3.55629 8.56985 3.59771 8.51363C3.71665 8.26387 3.64321 7.94421 3.55963 7.68746C3.43191 7.4897 3.31732 7.4685 3.09381 7.40621C3.07622 7.43165 3.05864 7.45709 3.04052 7.4833C2.82484 7.78482 2.64967 7.90027 2.29693 8.01558C2.29586 9.90181 2.29503 11.788 2.29454 13.6743C2.29448 13.8967 2.29442 14.1191 2.29436 14.3416C2.29434 14.3859 2.29433 14.4302 2.29432 14.4758C2.29412 15.1938 2.29375 15.9119 2.29332 16.63C2.29288 17.3662 2.29262 18.1024 2.29252 18.8386C2.29246 19.2933 2.29225 19.748 2.29187 20.2026C2.29163 20.514 2.29155 20.8253 2.29161 21.1367C2.29164 21.3166 2.29159 21.4965 2.29134 21.6764C2.29108 21.871 2.29117 22.0655 2.29129 22.2601C2.29116 22.3176 2.29102 22.3751 2.29088 22.4343C2.29097 22.486 2.29107 22.5377 2.29116 22.591C2.29115 22.636 2.29113 22.6809 2.29111 22.7273C2.28567 22.8272 2.28567 22.8272 2.34381 22.875C2.41076 22.8795 2.47793 22.8808 2.54504 22.8807C2.61057 22.8809 2.61057 22.8809 2.67743 22.881C2.72599 22.8809 2.77455 22.8807 2.82459 22.8806C2.90131 22.8807 2.90131 22.8807 2.97958 22.8807C3.1524 22.8808 3.32521 22.8805 3.49802 22.8803C3.62134 22.8803 3.74465 22.8803 3.86796 22.8803C4.13418 22.8803 4.40039 22.8802 4.66661 22.8799C5.05151 22.8795 5.43642 22.8794 5.82133 22.8794C6.44575 22.8793 7.07017 22.8789 7.6946 22.8785C8.30132 22.8781 8.90804 22.8777 9.51476 22.8775C9.57081 22.8775 9.57081 22.8775 9.628 22.8775C9.81548 22.8774 10.003 22.8774 10.1904 22.8773C11.7468 22.8768 13.3031 22.876 14.8594 22.875C14.7045 22.7501 14.5477 22.6318 14.3848 22.5175C13.2235 21.6707 12.5141 20.4648 12.1876 19.0781C12.1712 19.0121 12.1548 18.9462 12.1383 18.8803C12.1236 18.8218 12.1089 18.7633 12.0938 18.7031C12.0526 18.703 12.0114 18.7029 11.969 18.7027C10.9679 18.7 9.96685 18.6964 8.96577 18.692C8.48166 18.6899 7.99755 18.6881 7.51344 18.6868C7.09158 18.6858 6.66973 18.6842 6.24788 18.6821C6.02442 18.6809 5.80097 18.6801 5.57751 18.6798C5.36732 18.6795 5.15715 18.6785 4.94696 18.6771C4.86969 18.6767 4.79243 18.6765 4.71516 18.6766C4.60989 18.6767 4.50466 18.6759 4.3994 18.6749C4.34042 18.6747 4.28144 18.6745 4.22067 18.6742C4.07818 18.6562 4.07818 18.6562 3.99072 18.5946C3.89936 18.4588 3.89068 18.3492 3.89068 18.1875C4.01071 18.031 4.08195 17.9614 4.27762 17.9235C4.33582 17.9234 4.39402 17.9233 4.45399 17.9231C4.50281 17.9225 4.50281 17.9225 4.55262 17.9219C4.66139 17.9209 4.77009 17.9215 4.87887 17.9222C4.95695 17.9218 5.03503 17.9213 5.11311 17.9207C5.32491 17.9194 5.53668 17.9195 5.74848 17.9199C5.96988 17.92 6.19128 17.9188 6.41268 17.9178C6.83186 17.916 7.25102 17.9155 7.6702 17.9153C8.14745 17.9151 8.6247 17.9136 9.10195 17.9119C10.0836 17.9085 11.0653 17.9068 12.0469 17.9062C12.0522 17.8624 12.0522 17.8624 12.0576 17.8177C12.0743 17.6811 12.0914 17.5446 12.1085 17.4082C12.114 17.3622 12.1195 17.3163 12.1252 17.269C12.1722 16.8983 12.2454 16.5361 12.3282 16.1718C12.2858 16.1717 12.2434 16.1715 12.1997 16.1714C11.1693 16.1676 10.1389 16.1632 9.10847 16.1584C8.61017 16.156 8.11187 16.1538 7.61357 16.1521C7.17936 16.1505 6.74515 16.1487 6.31093 16.1464C6.08093 16.1452 5.85092 16.1442 5.62092 16.1436C5.40457 16.143 5.18824 16.1419 4.9719 16.1406C4.89236 16.1401 4.81283 16.1399 4.73329 16.1398C4.62495 16.1396 4.51663 16.1389 4.40829 16.138C4.31723 16.1376 4.31723 16.1376 4.22433 16.1372C4.07818 16.125 4.07818 16.125 3.93756 16.0312C3.86444 15.7074 3.86444 15.7074 3.94928 15.542C4.11701 15.3922 4.29351 15.4172 4.50747 15.4198C4.55908 15.4203 4.55908 15.4203 4.61172 15.4208C4.68723 15.4215 4.76273 15.4224 4.83824 15.4233C5.00413 15.4254 5.17003 15.427 5.33593 15.4286C5.4253 15.4294 5.51466 15.4303 5.60402 15.4312C6.17757 15.4369 6.75113 15.4386 7.3247 15.4404C7.88324 15.4423 8.44171 15.4454 9.00022 15.4525C9.44381 15.4582 9.88731 15.4611 10.3309 15.4606C10.5656 15.4605 10.8002 15.4618 11.0348 15.4665C11.2559 15.4708 11.4767 15.4714 11.6978 15.4692C11.7786 15.4691 11.8595 15.4703 11.9403 15.4729C12.3096 15.4857 12.3096 15.4857 12.6563 15.375C12.8633 15.1776 12.9908 14.9264 13.1193 14.6743C13.3113 14.3233 13.6148 14.0299 13.9016 13.7559C13.9743 13.6979 13.9743 13.6979 13.9688 13.6406C13.8925 13.6404 13.8925 13.6404 13.8147 13.6401C12.5789 13.6363 11.3432 13.632 10.1074 13.6271C9.50975 13.6248 8.91214 13.6226 8.31452 13.6208C7.79379 13.6193 7.27305 13.6174 6.75232 13.6151C6.47646 13.614 6.20061 13.6129 5.92475 13.6123C5.66532 13.6117 5.40589 13.6107 5.14646 13.6093C5.05106 13.6089 4.95565 13.6086 4.86024 13.6085C4.73034 13.6084 4.60047 13.6076 4.47058 13.6068C4.4325 13.6069 4.39443 13.6069 4.3552 13.607C4.17561 13.6052 4.09059 13.602 3.93756 13.5C3.86485 13.178 3.86485 13.178 3.94635 13.0107C4.08592 12.8904 4.23268 12.8847 4.41195 12.8849C4.46942 12.8847 4.46942 12.8847 4.52804 12.8846C4.56988 12.8848 4.61172 12.8849 4.65482 12.8851C4.72179 12.885 4.72179 12.885 4.79011 12.885C4.94012 12.8849 5.09013 12.8852 5.24013 12.8854C5.34755 12.8854 5.45496 12.8854 5.56238 12.8854C5.79398 12.8853 6.02558 12.8854 6.25719 12.8855C6.62384 12.8857 6.99048 12.8853 7.35713 12.8847C7.41964 12.8846 7.48216 12.8845 7.54468 12.8844C7.67126 12.8842 7.79784 12.884 7.92443 12.8838C8.24985 12.8833 8.57528 12.8829 8.90071 12.8825C8.94969 12.8824 8.94969 12.8824 8.99966 12.8823C9.52766 12.8817 10.0557 12.882 10.5837 12.8825C11.1266 12.883 11.6694 12.8824 12.2123 12.8809C12.5168 12.8801 12.8213 12.8798 13.1258 12.8807C13.4126 12.8816 13.6994 12.8811 13.9863 12.8797C14.0911 12.8794 14.196 12.8795 14.3008 12.8802C14.8411 12.8836 15.2949 12.8686 15.7877 12.633C16.7342 12.1874 17.8318 12.2558 18.8438 12.3281C18.8438 9.55918 18.8438 6.79027 18.8438 3.93746C18.0394 3.92199 17.2351 3.90652 16.4063 3.89058C16.1292 3.66887 16.1292 3.66887 16.0782 3.42183C16.0637 3.2452 16.0607 3.06909 16.0588 2.89193C16.0574 2.81605 16.0574 2.81605 16.056 2.73864C16.0532 2.57771 16.051 2.41677 16.0489 2.25582C16.0471 2.14644 16.0453 2.03707 16.0434 1.92769C16.0389 1.66012 16.0349 1.39255 16.0313 1.12496C14.2884 1.12389 12.5455 1.12306 10.8026 1.12257C10.597 1.12251 10.3915 1.12245 10.186 1.12238C10.1246 1.12237 10.1246 1.12237 10.0619 1.12235C9.39845 1.12214 8.73496 1.12177 8.07146 1.12134C7.39118 1.12091 6.71089 1.12064 6.03061 1.12055C5.61049 1.12048 5.19037 1.12028 4.77025 1.1199C4.48256 1.11965 4.19487 1.11958 3.90718 1.11964C3.74094 1.11967 3.57471 1.11962 3.40847 1.11937C3.22867 1.1191 3.04887 1.11919 2.86907 1.11932C2.81595 1.11919 2.76283 1.11905 2.7081 1.11891C2.66033 1.119 2.61256 1.1191 2.56334 1.11919C2.52178 1.11917 2.48021 1.11916 2.43739 1.11914C2.34383 1.11459 2.34383 1.11459 2.29693 1.17183ZM16.8282 1.73433C16.8282 2.21387 16.8282 2.6934 16.8282 3.18746C17.3077 3.18746 17.7872 3.18746 18.2813 3.18746C18.1011 2.97717 17.9235 2.77577 17.7281 2.5812C17.7037 2.55669 17.6792 2.53218 17.654 2.50694C17.603 2.45588 17.5519 2.40487 17.5008 2.35393C17.4221 2.27553 17.3437 2.19689 17.2653 2.11822C17.2155 2.06843 17.1657 2.01865 17.1158 1.96889C17.0924 1.94531 17.0689 1.92174 17.0447 1.89744C16.9523 1.78399 16.9523 1.78399 16.8282 1.73433ZM3.37506 2.10933C2.92128 3.11933 2.47105 4.13079 2.02706 5.14512C2.0105 5.18291 1.99395 5.22071 1.97689 5.25965C1.94438 5.33394 1.91195 5.40825 1.87959 5.48261C1.79669 5.67263 1.71209 5.86164 1.62477 6.04967C1.60709 6.08816 1.58941 6.12664 1.57119 6.16629C1.53742 6.23963 1.50321 6.31277 1.46851 6.38567C1.38178 6.56404 1.38178 6.56404 1.37346 6.75718C1.39943 6.8515 1.39943 6.8515 1.49339 6.89942C1.53045 6.91415 1.56752 6.92888 1.60571 6.94405C1.64574 6.96037 1.68577 6.97668 1.72702 6.99349C1.7691 7.0098 1.81119 7.02612 1.85455 7.04293C1.89682 7.05997 1.93908 7.07701 1.98263 7.09456C2.08716 7.1366 2.19191 7.17794 2.29693 7.21871C2.52658 6.73107 2.74956 6.24083 2.96783 5.74801C2.98346 5.71276 2.99908 5.67752 3.01518 5.64121C3.1171 5.41133 3.21884 5.18137 3.32051 4.95139C3.37685 4.82404 3.43326 4.69673 3.48968 4.56942C3.58628 4.35144 3.68265 4.13336 3.77888 3.91521C3.81599 3.83114 3.85317 3.74709 3.89041 3.66308C3.94275 3.54496 3.99484 3.42674 4.04687 3.30849C4.06222 3.27399 4.07757 3.23948 4.09339 3.20393C4.19665 2.96829 4.28185 2.72959 4.35943 2.48433C4.2219 2.42147 4.08417 2.35907 3.94635 2.29683C3.90728 2.27895 3.86822 2.26106 3.82797 2.24264C3.79035 2.22572 3.75274 2.2088 3.71399 2.19137C3.67937 2.17566 3.64476 2.15994 3.6091 2.14376C3.51028 2.10123 3.51028 2.10123 3.37506 2.10933ZM13.4971 2.54586C13.4577 2.56033 13.4183 2.5748 13.3777 2.58971C13.3402 2.60406 13.3027 2.61841 13.264 2.6332C13.2123 2.65271 13.2123 2.65271 13.1595 2.67262C13.0616 2.71612 13.0616 2.71612 13.0313 2.85933C13.059 2.96945 13.059 2.96945 13.1087 3.09007C13.1361 3.16109 13.1361 3.16109 13.1641 3.23354C13.1845 3.28516 13.2049 3.33678 13.2259 3.38997C13.2574 3.47093 13.2574 3.47093 13.2894 3.55351C13.3464 3.70012 13.4038 3.84657 13.4614 3.99296C13.5208 4.14436 13.5798 4.29594 13.6388 4.44751C13.734 4.69199 13.8295 4.93635 13.9253 5.18063C14.0496 5.49779 14.1732 5.8152 14.2966 6.13271C14.4242 6.46104 14.5519 6.78935 14.6802 7.11745C14.6931 7.15053 14.706 7.1836 14.7192 7.21768C14.7844 7.38443 14.7844 7.38443 14.8594 7.54683C15.0792 7.51259 15.277 7.43591 15.4835 7.35641C15.5182 7.3432 15.5529 7.33 15.5886 7.3164C15.6738 7.284 15.7588 7.25138 15.8438 7.21871C15.8147 6.98817 15.7455 6.78472 15.6596 6.57033C15.6454 6.53428 15.6313 6.49823 15.6167 6.46108C15.5696 6.34146 15.5221 6.22198 15.4747 6.1025C15.4243 5.9747 15.374 5.84686 15.3237 5.71902C15.2881 5.62853 15.2524 5.53805 15.2167 5.44758C15.0779 5.09526 14.9406 4.74236 14.8039 4.38918C14.7839 4.33726 14.7638 4.28534 14.7431 4.23185C14.6636 4.02644 14.5842 3.821 14.5048 3.61555C14.4494 3.47222 14.394 3.32892 14.3385 3.18563C14.3221 3.14318 14.3057 3.10073 14.2889 3.05699C14.202 2.83283 14.1119 2.61087 14.0157 2.39058C13.835 2.39058 13.6642 2.48194 13.4971 2.54586ZM4.64068 3.84371C4.12254 5.00568 4.12254 5.00568 3.60943 6.16988C3.5803 6.23592 3.5803 6.23592 3.55059 6.30329C3.53327 6.34301 3.51595 6.38274 3.4981 6.42367C3.48324 6.4576 3.46837 6.49154 3.45306 6.5265C3.41644 6.60921 3.41644 6.60921 3.42193 6.70308C3.48973 6.73209 3.48973 6.73209 3.55889 6.76168C4.10021 7.00498 4.10021 7.00498 4.21295 7.23922C4.23035 7.29432 4.24775 7.34943 4.26568 7.40621C4.31073 7.39606 4.31073 7.39606 4.35669 7.3857C4.76688 7.29767 5.09571 7.27756 5.48443 7.45308C5.68264 7.58268 5.7741 7.69725 5.87115 7.90719C5.95234 8.06733 5.95234 8.06733 6.10571 8.14907C6.18648 8.16177 6.26751 8.17297 6.34869 8.18276C6.54488 8.21596 6.69517 8.30714 6.84381 8.43746C6.87966 8.49405 6.91387 8.55171 6.94635 8.61031C7.02707 8.73783 7.063 8.762 7.21313 8.79745C7.31965 8.80954 7.42622 8.82119 7.53283 8.83242C7.76771 8.87328 7.93686 8.97834 8.10943 9.14058C8.1365 9.19086 8.16357 9.24113 8.19146 9.29293C8.34772 9.48391 8.51696 9.46342 8.75396 9.49013C8.93277 9.52001 9.04274 9.57496 9.18709 9.68093C9.50433 9.91336 9.83819 10.1169 10.1807 10.3095C10.2212 10.3332 10.2616 10.357 10.3033 10.3814C10.5391 10.5145 10.5391 10.5145 10.804 10.5446C10.9295 10.5069 10.9295 10.5069 11.0186 10.3974C11.0783 10.2641 11.0783 10.2641 11.0119 10.1273C10.9073 9.96107 10.8235 9.90622 10.6511 9.8146C10.57 9.77059 10.57 9.77059 10.4871 9.7257C10.4299 9.69567 10.3727 9.66567 10.3155 9.6357C10.2322 9.59115 10.149 9.54638 10.0658 9.50159C9.98357 9.4574 9.90116 9.41354 9.81874 9.36967C9.61004 9.25601 9.40633 9.13518 9.20284 9.0124C9.10077 8.94562 9.10077 8.94562 9.00006 8.95308C8.94116 8.77639 8.93317 8.62221 8.95318 8.43746C9.00006 8.34371 9.00006 8.34371 9.09381 8.29683C9.45661 8.25216 9.68375 8.38823 9.99322 8.56637C10.042 8.59361 10.0909 8.62085 10.1411 8.64891C10.2926 8.73374 10.4433 8.81974 10.5938 8.90621C10.6412 8.93345 10.6887 8.9607 10.7375 8.98877C10.7833 9.01512 10.8291 9.04147 10.8763 9.06862C10.9427 9.10676 10.9427 9.10676 11.0104 9.14567C11.094 9.19388 11.1774 9.24242 11.2605 9.29133C11.4552 9.40465 11.6384 9.50881 11.8594 9.56246C11.9682 9.53355 11.9682 9.53355 12.0469 9.46871C12.1143 9.33396 12.1117 9.24282 12.0938 9.09371C11.9359 8.94795 11.7627 8.84621 11.5745 8.74398C11.5478 8.7293 11.521 8.71463 11.4934 8.69951C11.4085 8.65296 11.3234 8.6067 11.2383 8.56051C10.1956 7.99397 10.1956 7.99397 10.1163 7.75191C10.1245 7.60372 10.1321 7.52482 10.2188 7.40621C10.3744 7.3284 10.52 7.33081 10.6876 7.35933C10.873 7.43804 11.0426 7.53962 11.2149 7.64351C11.2625 7.67132 11.3102 7.69914 11.3592 7.72779C11.4952 7.80733 11.6305 7.88784 11.7657 7.96871C11.8779 8.03531 11.9902 8.10166 12.1026 8.16793C12.1429 8.19234 12.1832 8.21675 12.2247 8.2419C12.3244 8.29484 12.404 8.32829 12.5157 8.34371C12.6454 8.29633 12.6454 8.29633 12.7501 8.20308C12.7993 8.07493 12.8101 8.00601 12.7644 7.87613C12.6852 7.75337 12.6056 7.71158 12.4772 7.64242C12.4304 7.61676 12.3836 7.5911 12.3353 7.56466C12.2593 7.52393 12.2593 7.52393 12.1817 7.48238C12.075 7.42414 11.9684 7.36578 11.8618 7.30733C11.8345 7.29242 11.8072 7.2775 11.7791 7.26214C11.4439 7.07834 11.1157 6.88239 10.7882 6.68525C10.6621 6.61053 10.5351 6.53861 10.4063 6.46871C10.3678 6.44776 10.3293 6.42681 10.2896 6.40522C9.91136 6.22492 9.60551 6.29997 9.21862 6.42586C9.05568 6.48423 8.89451 6.54596 8.73346 6.60933C8.01039 6.891 7.31264 7.10441 6.54937 6.81203C6.2095 6.64649 5.89194 6.38919 5.71881 6.04683C5.68412 5.90163 5.69368 5.82509 5.71881 5.67183C5.8472 5.47879 5.98476 5.3785 6.18463 5.26461C7.0748 4.74054 7.0748 4.74054 7.73443 3.98433C7.39848 3.93184 7.12626 3.95117 6.79693 4.02828C6.17468 4.15828 5.57748 4.24331 4.99133 3.94643C4.87305 3.88962 4.7691 3.86701 4.64068 3.84371ZM8.39068 4.49996C8.35213 4.53398 8.31358 4.568 8.27386 4.60305C8.11941 4.7409 7.96614 4.8797 7.81628 5.02254C7.45878 5.35766 7.05987 5.63021 6.65631 5.90621C6.81814 6.08602 6.95548 6.16736 7.19445 6.2065C7.75897 6.22605 8.26725 5.99049 8.78463 5.79052C9.34366 5.57552 9.89271 5.41326 10.4753 5.64199C11.0178 5.89445 11.5286 6.22097 12.0432 6.52453C12.2751 6.66074 12.508 6.79495 12.7413 6.92867C12.7827 6.95255 12.8241 6.97644 12.8667 7.00104C12.9049 7.0229 12.9431 7.04476 12.9824 7.06728C13.0158 7.08642 13.0491 7.10557 13.0835 7.12529C13.178 7.17807 13.178 7.17807 13.3126 7.21871C13.4321 7.18339 13.4321 7.18339 13.5557 7.12789C13.598 7.11006 13.6402 7.09224 13.6837 7.07387C13.732 7.05275 13.732 7.05275 13.7813 7.03121C13.7507 6.85284 13.6999 6.69355 13.6344 6.52496C13.6138 6.47148 13.5932 6.41801 13.5719 6.36291C13.5496 6.30568 13.5273 6.24844 13.5043 6.18947C13.4812 6.12991 13.4581 6.07034 13.4351 6.01077C13.3746 5.8545 13.3139 5.69832 13.2532 5.54216C13.1911 5.38259 13.1293 5.22293 13.0675 5.06328C12.9463 4.75043 12.8248 4.43766 12.7032 4.12496C12.5612 4.1499 12.4586 4.17693 12.3282 4.24215C11.8556 4.47844 11.3962 4.32874 10.9219 4.17183C10.7606 4.11248 10.6006 4.05094 10.4411 3.98671C9.66599 3.6897 8.97823 3.9757 8.39068 4.49996ZM4.59381 8.24996C4.49903 8.39206 4.42025 8.54072 4.34185 8.69234C4.32016 8.73201 4.29847 8.77168 4.27612 8.81255C4.25588 8.85113 4.23563 8.88971 4.21478 8.92946C4.19639 8.96436 4.17799 8.99925 4.15905 9.0352C4.11671 9.16646 4.13298 9.24404 4.17193 9.37496C4.25134 9.49616 4.30328 9.51311 4.44439 9.55074C4.61905 9.50965 4.6344 9.48312 4.7315 9.3398C4.7801 9.25821 4.82788 9.17613 4.87506 9.09371C4.90497 9.0464 4.93488 8.99908 4.96569 8.95034C5.17684 8.62604 5.17684 8.62604 5.20318 8.24996C5.09983 8.13445 5.09983 8.13445 4.96881 8.06246C4.77564 8.06246 4.73193 8.11489 4.59381 8.24996ZM5.83168 8.9816C5.81081 9.01642 5.78993 9.05124 5.76843 9.08712C5.73307 9.14499 5.73307 9.14499 5.69699 9.20403C5.67326 9.24497 5.64952 9.28591 5.62506 9.32808C5.58972 9.38695 5.58972 9.38695 5.55367 9.44701C5.48288 9.56658 5.41458 9.68729 5.34674 9.80855C5.32302 9.8494 5.2993 9.89025 5.27487 9.93233C5.25272 9.97197 5.23058 10.0116 5.20776 10.0524C5.1877 10.0878 5.16764 10.1232 5.14698 10.1596C5.10006 10.292 5.11603 10.367 5.15631 10.5C5.20709 10.5898 5.20709 10.5898 5.29693 10.6406C5.43556 10.6679 5.43556 10.6679 5.57818 10.6406C5.82141 10.4359 5.94083 10.1473 6.08502 9.87008C6.11363 9.81699 6.14224 9.76391 6.17172 9.70922C6.19852 9.65795 6.22532 9.60668 6.25293 9.55385C6.27751 9.50718 6.30209 9.4605 6.32742 9.41242C6.38121 9.26427 6.37886 9.19449 6.32818 9.04683C6.22807 8.94315 6.16868 8.9098 6.02552 8.89142C5.90285 8.89416 5.90285 8.89416 5.83168 8.9816ZM6.98443 9.74996C6.88138 9.91493 6.79649 10.089 6.70904 10.2627C6.68451 10.309 6.65998 10.3554 6.6347 10.4032C6.61198 10.4481 6.58926 10.493 6.56585 10.5393C6.54495 10.5801 6.52405 10.6209 6.50252 10.6629C6.45782 10.7822 6.45782 10.7822 6.50083 10.9077C6.5593 11.0285 6.5593 11.0285 6.70318 11.1093C6.84423 11.1181 6.84423 11.1181 6.98443 11.0625C7.06351 10.9596 7.11767 10.8746 7.17486 10.7607C7.19057 10.7311 7.20628 10.7016 7.22246 10.6711C7.25403 10.6113 7.28516 10.5513 7.31585 10.491C7.3547 10.4154 7.39574 10.341 7.43707 10.2667C7.56312 10.0525 7.56312 10.0525 7.57971 9.81258C7.54219 9.68726 7.51455 9.63591 7.40631 9.56246C7.19087 9.52379 7.12339 9.59257 6.98443 9.74996ZM8.25006 10.3593C8.16093 10.5014 8.08496 10.6505 8.00689 10.7988C7.98517 10.8387 7.96345 10.8785 7.94107 10.9196C7.92055 10.9584 7.90004 10.9972 7.8789 11.0372C7.86016 11.0724 7.84142 11.1076 7.82211 11.1438C7.77528 11.2656 7.76971 11.3549 7.78131 11.4843C7.84895 11.579 7.9049 11.617 8.00982 11.666C8.16347 11.675 8.22108 11.6248 8.34381 11.5312C8.43942 11.4002 8.51589 11.2607 8.59283 11.1181C8.62478 11.0622 8.62478 11.0622 8.65738 11.0052C8.76971 10.801 8.84963 10.6457 8.81256 10.4062C8.71824 10.2735 8.66627 10.2257 8.50494 10.1982C8.36759 10.2229 8.33982 10.2554 8.25006 10.3593ZM9.56256 10.875C9.48521 11.0451 9.40787 11.2153 9.32818 11.3906C9.53667 11.5526 9.53667 11.5526 9.68853 11.5019C9.80948 11.4406 9.80948 11.4406 9.89068 11.2968C9.88371 11.1295 9.87503 11.0458 9.75299 10.9277C9.66094 10.8675 9.66094 10.8675 9.56256 10.875ZM14.0507 14.694C13.1926 15.7267 12.7654 16.9887 12.8438 18.3281C12.9746 19.7029 13.6108 20.8341 14.6251 21.75C14.7753 21.8707 14.9303 21.9763 15.0938 22.0781C15.1354 22.1054 15.1771 22.1327 15.22 22.1608C16.2801 22.8243 17.6061 23.0173 18.8214 22.7558C19.6001 22.5674 20.306 22.2387 20.9063 21.7031C20.944 21.672 20.9817 21.641 21.0206 21.609C21.9152 20.8513 22.4745 19.7659 22.6407 18.6093C22.7294 17.1233 22.4297 15.8094 21.4219 14.6718C20.5738 13.7374 19.4056 13.1297 18.1407 13.0312C16.5849 12.9587 15.1058 13.5364 14.0507 14.694Z" fill="#697865"/>
<path d="M20.8154 14.5838C21.6428 15.3542 22.1911 16.3825 22.2753 17.5216C22.2798 17.6538 22.2811 17.7855 22.2803 17.9178C22.2799 17.9882 22.2799 17.9882 22.2796 18.0601C22.2629 19.1228 21.878 20.1007 21.1875 20.9061C21.1667 20.9337 21.1458 20.9613 21.1243 20.9897C20.4788 21.8248 19.3482 22.3161 18.3281 22.4529C18.1443 22.466 17.9616 22.4686 17.7773 22.4676C17.7035 22.4672 17.7035 22.4672 17.6281 22.4668C16.4018 22.4477 15.3718 21.9436 14.4844 21.1111C13.7244 20.3236 13.2447 19.2398 13.2188 18.1404C13.2169 18.108 13.2151 18.0755 13.2133 18.0421C13.1758 16.928 13.5936 15.7762 14.3438 14.9529C14.3852 14.9071 14.4267 14.8613 14.4694 14.8141C16.1463 13.0217 19.0094 12.9725 20.8154 14.5838ZM15.0778 15.3408C14.3368 16.1236 14.01 17.0778 14.0156 18.1404C14.0807 19.1424 14.5358 20.0773 15.2796 20.7506C16.1031 21.4377 17.0524 21.7298 18.1168 21.6669C18.4177 21.6391 18.6984 21.5635 18.9844 21.4686C19.0577 21.4447 19.0577 21.4447 19.1325 21.4204C20.0532 21.0796 20.7514 20.3301 21.171 19.4604C21.5448 18.5865 21.6043 17.5878 21.2813 16.6873C21.109 16.2591 20.8911 15.8571 20.5781 15.5154C20.5395 15.4731 20.5009 15.4307 20.4611 15.3871C19.7401 14.6313 18.8156 14.2366 17.7766 14.2031C16.7464 14.1903 15.8087 14.6306 15.0778 15.3408Z" fill="#697865"/>
<path d="M8.14683 20.503C8.65523 20.8033 8.65523 20.8033 9.23438 20.8591C9.47023 20.7742 9.67546 20.6586 9.89062 20.531C10.5731 20.1648 11.1689 20.1222 11.9172 20.3335C12.1444 20.4067 12.3631 20.4918 12.5625 20.6248C12.6377 20.7752 12.6316 20.9304 12.6094 21.0935C12.5391 21.2107 12.5391 21.2107 12.4219 21.281C12.1333 21.3215 11.9211 21.2471 11.6537 21.1391C11.3082 21.0105 10.9398 20.969 10.5974 21.1221C10.3592 21.2382 10.1281 21.3671 9.89722 21.4971C9.38146 21.7763 8.89752 21.7234 8.34375 21.5623C8.03855 21.4378 7.75641 21.2748 7.48224 21.0926C7.16506 20.9008 6.71805 20.9697 6.37299 21.0505C6.10547 21.1188 5.84007 21.1937 5.57812 21.281C5.2482 21.313 5.2482 21.313 5.0625 21.1814C4.96875 21.0466 4.96875 21.0466 4.94238 20.906C4.97556 20.7291 5.03147 20.6603 5.15625 20.531C6.10987 20.0832 7.22787 19.9581 8.14683 20.503Z" fill="#697865"/>
<path d="M17.9065 15.0938C18.0316 15.178 18.0316 15.178 18.1408 15.3282C18.1735 15.5103 18.1681 15.6895 18.1637 15.874C18.1634 15.9268 18.1631 15.9795 18.1627 16.0338C18.1614 16.202 18.1585 16.37 18.1555 16.5382C18.1543 16.6523 18.1532 16.7664 18.1523 16.8805C18.1497 17.1599 18.1458 17.4394 18.1408 17.7188C18.1766 17.7327 18.2123 17.7466 18.2491 17.761C18.4909 17.8599 18.7141 17.998 18.9408 18.1272C19.031 18.1785 19.1215 18.2292 19.212 18.2799C19.27 18.3129 19.328 18.3459 19.386 18.3789C19.4382 18.4085 19.4905 18.4381 19.5443 18.4686C19.6924 18.5657 19.8064 18.663 19.9221 18.7969C19.9514 18.961 19.9514 18.961 19.9221 19.1251C19.8254 19.2628 19.8254 19.2628 19.6877 19.3594C19.4307 19.3853 19.2824 19.3382 19.0619 19.2086C19.0346 19.1928 19.0074 19.177 18.9794 19.1608C18.8928 19.1105 18.8069 19.0592 18.7209 19.0079C18.6644 18.9749 18.6078 18.9419 18.5512 18.909C18.4106 18.827 18.2708 18.7437 18.1314 18.6598C18.0454 18.6084 17.959 18.5579 17.8724 18.5075C17.817 18.4746 17.7616 18.4417 17.7061 18.4088C17.6568 18.3797 17.6074 18.3507 17.5565 18.3208C17.4304 18.2291 17.3986 18.189 17.344 18.0469C17.3314 17.9245 17.3314 17.9245 17.3303 17.7841C17.3297 17.7314 17.3291 17.6787 17.3285 17.6243C17.3284 17.5676 17.3283 17.5109 17.3282 17.4524C17.3279 17.3939 17.3276 17.3354 17.3273 17.2752C17.3268 17.1515 17.3265 17.0278 17.3266 16.9041C17.3266 16.746 17.3253 16.5879 17.3237 16.4297C17.3224 16.2784 17.3225 16.1271 17.3224 15.9758C17.3217 15.9192 17.321 15.8625 17.3203 15.8042C17.3206 15.7513 17.3209 15.6984 17.3212 15.644C17.3211 15.5976 17.3209 15.5512 17.3208 15.5034C17.3504 15.3393 17.4177 15.2603 17.5315 15.1407C17.6669 15.073 17.7563 15.0762 17.9065 15.0938Z" fill="#697865"/>
<path d="M14.1479 10.3396C14.1796 10.3392 14.2113 10.3388 14.244 10.3384C14.3486 10.3373 14.4532 10.3372 14.5578 10.3373C14.6307 10.337 14.7035 10.3366 14.7764 10.3362C14.929 10.3356 15.0815 10.3355 15.2341 10.3358C15.4296 10.3361 15.625 10.3346 15.8204 10.3327C15.9708 10.3315 16.1212 10.3314 16.2716 10.3316C16.3437 10.3315 16.4158 10.331 16.4878 10.3302C16.5886 10.3292 16.6893 10.3296 16.7901 10.3304C16.8474 10.3303 16.9047 10.3302 16.9637 10.3301C17.1096 10.3593 17.1096 10.3593 17.2218 10.4678C17.3205 10.6328 17.3246 10.7326 17.2971 10.9218C17.1867 11.0716 17.1015 11.1236 16.9221 11.1561C16.826 11.1607 16.7297 11.1626 16.6334 11.163C16.5751 11.1633 16.5167 11.1636 16.4566 11.1639C16.3931 11.1639 16.3296 11.164 16.266 11.164C16.2006 11.1642 16.1353 11.1643 16.0699 11.1645C15.933 11.1648 15.796 11.1649 15.6591 11.1648C15.4839 11.1648 15.3088 11.1655 15.1336 11.1663C14.9986 11.1668 14.8636 11.1669 14.7286 11.1669C14.6641 11.1669 14.5995 11.1671 14.5349 11.1675C14.4445 11.168 14.3541 11.1678 14.2637 11.1675C14.2123 11.1676 14.1609 11.1677 14.108 11.1677C13.9082 11.1511 13.7784 11.1135 13.6467 10.9599C13.5766 10.7847 13.5907 10.6805 13.6408 10.4999C13.7957 10.3401 13.9318 10.3411 14.1479 10.3396Z" fill="#697865"/>
<path d="M13.7402 2.71875C13.943 2.78929 13.943 2.78929 14.0156 2.90625C14.0353 3.06058 14.0295 3.15654 13.9658 3.29883C13.875 3.375 13.875 3.375 13.7109 3.39551C13.5469 3.375 13.5469 3.375 13.459 3.32227C13.3813 3.19283 13.3594 3.10473 13.3594 2.95312C13.4764 2.78643 13.5324 2.71875 13.7402 2.71875Z" fill="black"/>
<path d="M3.89062 2.48444C3.98438 2.57819 3.98438 2.57819 4.00195 2.76276C3.9978 2.8972 3.99426 2.94015 3.91113 3.04987C3.74901 3.11223 3.63544 3.08707 3.46875 3.04694C3.375 2.95319 3.375 2.95319 3.35742 2.76862C3.36158 2.63419 3.36512 2.59124 3.44824 2.48151C3.61037 2.41916 3.72394 2.44432 3.89062 2.48444Z" fill="black"/>
</g>
<defs>
<clipPath id="clip0_109_28">
<rect width="24" height="24" fill="white"/>
</clipPath>
</defs>
</svg>
