<svg width="20" height="22" viewBox="0 0 20 22" fill="none" xmlns="http://www.w3.org/2000/svg">
<path d="M18.9983 9C18.9862 6.82497 18.8897 5.64706 18.1213 4.87868C17.2426 4 15.8284 4 13 4H10C7.17157 4 5.75736 4 4.87868 4.87868C4 5.75736 4 7.17157 4 10V15C4 17.8284 4 19.2426 4.87868 20.1213C5.75736 21 7.17157 21 10 21H13C15.8284 21 17.2426 21 18.1213 20.1213C19 19.2426 19 17.8284 19 15V14" stroke="#A0A0A0" stroke-linecap="round"/>
<path d="M1 9V15C1 16.6569 2.34315 18 4 18M16 4C16 2.34315 14.6569 1 13 1H9C5.22876 1 3.34315 1 2.17157 2.17157C1.51839 2.82475 1.22937 3.69989 1.10149 5" stroke="#A0A0A0" stroke-linecap="round"/>
</svg>
