<svg width="21" height="21" viewBox="0 0 21 21" fill="none" xmlns="http://www.w3.org/2000/svg">
<path d="M11.624 10.5C11.624 10.6854 11.569 10.8667 11.466 11.0208C11.363 11.175 11.2166 11.2952 11.0453 11.3661C10.874 11.4371 10.6855 11.4557 10.5036 11.4195C10.3218 11.3833 10.1547 11.294 10.0236 11.1629C9.8925 11.0318 9.80321 10.8648 9.76704 10.6829C9.73086 10.501 9.74943 10.3125 9.82039 10.1412C9.89134 9.96993 10.0115 9.82351 10.1657 9.7205C10.3198 9.61748 10.5011 9.5625 10.6865 9.5625C10.9352 9.5625 11.1736 9.66127 11.3494 9.83709C11.5253 10.0129 11.624 10.2514 11.624 10.5ZM15.999 9.5625C15.8136 9.5625 15.6323 9.61748 15.4782 9.7205C15.324 9.82351 15.2038 9.96993 15.1329 10.1412C15.0619 10.3125 15.0434 10.501 15.0795 10.6829C15.1157 10.8648 15.205 11.0318 15.3361 11.1629C15.4672 11.294 15.6343 11.3833 15.8161 11.4195C15.998 11.4557 16.1865 11.4371 16.3578 11.3661C16.5291 11.2952 16.6755 11.175 16.7785 11.0208C16.8815 10.8667 16.9365 10.6854 16.9365 10.5C16.9365 10.2514 16.8378 10.0129 16.6619 9.83709C16.4861 9.66127 16.2477 9.5625 15.999 9.5625ZM5.37402 9.5625C5.1886 9.5625 5.00735 9.61748 4.85318 9.7205C4.69901 9.82351 4.57884 9.96993 4.50789 10.1412C4.43693 10.3125 4.41836 10.501 4.45454 10.6829C4.49071 10.8648 4.58 11.0318 4.71111 11.1629C4.84222 11.294 5.00927 11.3833 5.19113 11.4195C5.37298 11.4557 5.56148 11.4371 5.73279 11.3661C5.9041 11.2952 6.05051 11.175 6.15353 11.0208C6.25654 10.8667 6.31152 10.6854 6.31152 10.5C6.31152 10.2514 6.21275 10.0129 6.03694 9.83709C5.86112 9.66127 5.62266 9.5625 5.37402 9.5625Z" fill="#697865"/>
</svg>
