<svg width="16" height="16" viewBox="0 0 16 16" fill="none" xmlns="http://www.w3.org/2000/svg">
<path d="M3.55409 12.5281C3.16268 12.5281 2.79693 12.3934 2.53384 12.1431C2.20018 11.8287 2.03976 11.3539 2.09751 10.8406L2.33493 8.76156C2.37984 8.37015 2.61726 7.8504 2.89318 7.56806L8.16126 1.99198C9.47668 0.59956 10.8498 0.561061 12.2423 1.87648C13.6347 3.19189 13.6732 4.56506 12.3578 5.95748L7.08968 11.5336C6.82018 11.8223 6.31967 12.0918 5.92826 12.156L3.86209 12.5089C3.75301 12.5153 3.65676 12.5281 3.55409 12.5281ZM10.221 1.87006C9.72692 1.87006 9.29701 2.17806 8.86068 2.64006L3.59259 8.22256C3.46426 8.35731 3.31668 8.67815 3.29101 8.86423L3.05359 10.9432C3.02793 11.155 3.07926 11.3282 3.19476 11.4373C3.31026 11.5464 3.48351 11.5849 3.69526 11.5528L5.76143 11.1999C5.94751 11.1678 6.25551 11.001 6.38384 10.8662L11.6519 5.29014C12.4476 4.44314 12.7363 3.66031 11.5749 2.56948C11.0616 2.07539 10.6188 1.87006 10.221 1.87006Z" fill="#697865"/>
<path d="M11.1289 7.02367C11.1161 7.02367 11.0968 7.02367 11.084 7.02367C9.08198 6.82476 7.4714 5.30401 7.1634 3.31484C7.1249 3.05175 7.30456 2.80792 7.56765 2.763C7.83073 2.7245 8.07456 2.90417 8.11948 3.16725C8.36331 4.72009 9.62098 5.91359 11.1866 6.06759C11.4497 6.09326 11.6422 6.33067 11.6166 6.59376C11.5845 6.83759 11.3727 7.02367 11.1289 7.02367Z" fill="#697865"/>
<path d="M13.4766 14.5992H1.92656C1.66348 14.5992 1.44531 14.3811 1.44531 14.118C1.44531 13.8549 1.66348 13.6367 1.92656 13.6367H13.4766C13.7396 13.6367 13.9578 13.8549 13.9578 14.118C13.9578 14.3811 13.7396 14.5992 13.4766 14.5992Z" fill="#697865"/>
</svg>
