<svg width="16" height="16" viewBox="0 0 16 16" fill="none" xmlns="http://www.w3.org/2000/svg">
<path d="M3.55312 12.5281C3.1617 12.5281 2.79595 12.3934 2.53287 12.1431C2.1992 11.8287 2.03878 11.3539 2.09653 10.8406L2.33395 8.76156C2.37887 8.37015 2.61628 7.8504 2.8922 7.56806L8.16028 1.99198C9.4757 0.59956 10.8489 0.561061 12.2413 1.87648C13.6337 3.19189 13.6722 4.56506 12.3568 5.95748L7.0887 11.5336C6.8192 11.8223 6.3187 12.0918 5.92728 12.156L3.86112 12.5089C3.75203 12.5153 3.65578 12.5281 3.55312 12.5281ZM10.22 1.87006C9.72595 1.87006 9.29603 2.17806 8.8597 2.64006L3.59162 8.22256C3.46328 8.35731 3.3157 8.67815 3.29003 8.86423L3.05262 10.9432C3.02695 11.155 3.07828 11.3282 3.19378 11.4373C3.30928 11.5464 3.48253 11.5849 3.69428 11.5528L5.76045 11.1999C5.94653 11.1678 6.25453 11.001 6.38287 10.8662L11.6509 5.29014C12.4466 4.44314 12.7354 3.66031 11.5739 2.56948C11.0606 2.07539 10.6179 1.87006 10.22 1.87006Z" fill="#697865"/>
<path d="M11.1289 7.02367C11.1161 7.02367 11.0968 7.02367 11.084 7.02367C9.08198 6.82476 7.4714 5.30401 7.1634 3.31484C7.1249 3.05175 7.30456 2.80792 7.56765 2.763C7.83073 2.7245 8.07456 2.90417 8.11948 3.16725C8.36331 4.72009 9.62098 5.91359 11.1866 6.06759C11.4497 6.09326 11.6422 6.33067 11.6166 6.59375C11.5845 6.83759 11.3727 7.02367 11.1289 7.02367Z" fill="#697865"/>
<path d="M13.4775 14.5992H1.92754C1.66446 14.5992 1.44629 14.3811 1.44629 14.118C1.44629 13.8549 1.66446 13.6367 1.92754 13.6367H13.4775C13.7406 13.6367 13.9588 13.8549 13.9588 14.118C13.9588 14.3811 13.7406 14.5992 13.4775 14.5992Z" fill="#697865"/>
</svg>
