<svg width="42" height="42" viewBox="0 0 42 42" fill="none" xmlns="http://www.w3.org/2000/svg">
<path d="M5.6718 10.6454C6.76865 9.87882 8.4221 10.0258 9.40693 10.8391L8.2774 9.19737C7.36842 7.90099 7.69397 6.49842 8.99152 5.58827C10.2891 4.68162 13.9659 7.11919 13.9659 7.11919C13.0487 5.80997 13.2202 4.15069 14.5294 3.23237C15.8387 2.31755 17.645 2.63377 18.5621 3.94533L30.7208 21.1215L29.1712 36.1449L16.2389 31.4284L4.95885 14.7038C4.03353 13.3864 4.35325 11.5696 5.6718 10.6454Z" fill="#EF9645"/>
<path d="M3.14485 20.2009C3.14485 20.2009 1.82397 18.2756 3.75045 16.9559C5.67461 15.6361 6.99433 17.5603 6.99433 17.5603L13.1215 26.4961C13.3327 26.1437 13.5638 25.796 13.8216 25.453L5.31755 13.0527C5.31755 13.0527 3.99783 11.1286 5.92315 9.80884C7.8473 8.48912 9.16702 10.4133 9.16702 10.4133L17.1659 22.0784C17.4634 21.8357 17.768 21.5918 18.0818 21.3526L8.8088 7.82751C8.8088 7.82751 7.48908 5.90336 9.4144 4.58364C11.3386 3.26392 12.6583 5.18807 12.6583 5.18807L21.9313 18.7108C22.272 18.502 22.6093 18.3211 22.9477 18.1297L14.2802 5.49029C14.2802 5.49029 12.9605 3.56614 14.8846 2.24642C16.8088 0.926696 18.1285 2.85085 18.1285 2.85085L27.293 16.2161L28.6863 18.2488C22.9127 22.2091 22.3631 29.6595 25.6618 34.4705C26.3211 35.4331 27.2837 34.7738 27.2837 34.7738C23.3246 28.999 24.5334 22.5101 30.3082 18.551L28.6058 10.0305C28.6058 10.0305 27.9698 7.78551 30.2137 7.1484C32.4587 6.51246 33.0958 8.7575 33.0958 8.7575L35.062 14.5965C35.8415 16.9115 36.6711 19.2184 37.7691 21.4004C40.8695 27.5615 39.0177 35.2184 33.1717 39.2289C26.7948 43.6012 18.0772 41.9757 13.7038 35.6L3.14485 20.2009Z" fill="#FFDC5D"/>
<path d="M14.0023 37.3606C9.33484 37.3606 4.61839 32.6441 4.61839 27.9767C4.61839 27.3314 4.14581 26.8098 3.50054 26.8098C2.85526 26.8098 2.28467 27.3314 2.28467 27.9767C2.28467 34.9778 7.00112 39.6943 14.0023 39.6943C14.6476 39.6943 15.1692 39.1237 15.1692 38.4784C15.1692 37.8332 14.6476 37.3606 14.0023 37.3606Z" fill="#5DADEC"/>
<path d="M8.16803 39.6452C4.66745 39.6452 2.33372 37.3115 2.33372 33.8109C2.33372 33.1656 1.81214 32.6441 1.16686 32.6441C0.521587 32.6441 0 33.1656 0 33.8109C0 38.4784 3.50058 41.9789 8.16803 41.9789C8.8133 41.9789 9.33489 41.4574 9.33489 40.8121C9.33489 40.1668 8.8133 39.6452 8.16803 39.6452ZM28.0047 2.30566C27.3606 2.30566 26.8378 2.82842 26.8378 3.47253C26.8378 4.11663 27.3606 4.63939 28.0047 4.63939C32.6721 4.63939 37.3396 8.82725 37.3396 13.9743C37.3396 14.6184 37.8623 15.1411 38.5064 15.1411C39.1505 15.1411 39.6733 14.6184 39.6733 13.9743C39.6733 7.5402 35.0058 2.30566 28.0047 2.30566Z" fill="#5DADEC"/>
<path d="M33.8392 0.0209961C33.1951 0.0209961 32.6724 0.494742 32.6724 1.13885C32.6724 1.78296 33.1951 2.35472 33.8392 2.35472C37.3398 2.35472 39.6245 4.95099 39.6245 8.14002C39.6245 8.78413 40.1951 9.30688 40.8404 9.30688C41.4857 9.30688 41.9582 8.78413 41.9582 8.14002C41.9582 3.66277 38.5067 0.0209961 33.8392 0.0209961Z" fill="#5DADEC"/>
</svg>
