<svg width="154" height="157" viewBox="0 0 154 157" fill="none" xmlns="http://www.w3.org/2000/svg">
<path d="M84.5186 5.2688C84.6333 5.40167 84.7364 5.54457 84.8266 5.69584C85.097 6.13 85.287 6.61105 85.3871 7.11512C85.557 7.91363 85.5274 8.74286 85.3009 9.52664C85.0065 10.5785 84.3303 11.4767 83.4098 12.0386C82.8539 12.3768 82.237 12.5978 81.5958 12.6884C80.9546 12.779 80.302 12.7374 79.6768 12.5662C78.9703 12.3829 78.3327 11.9907 77.8442 11.4389C77.5902 11.1437 77.3983 10.7985 77.2806 10.4247C77.1599 10.028 77.1773 9.60092 77.3299 9.21578C77.5154 8.83323 77.8132 8.51911 78.182 8.31709C78.5507 8.11507 78.972 8.03518 79.3873 8.08852C80.2357 8.20435 81.0155 8.62527 81.5864 9.27544C82.1965 9.93453 82.6245 10.7466 82.8269 11.6291C83.0292 12.5116 82.9987 13.4329 82.7383 14.2994C82.4424 15.1529 81.9274 15.9098 81.247 16.4913C80.5667 17.0728 79.7458 17.4577 78.8699 17.6059C78.0386 17.7611 77.1809 17.6605 76.4059 17.317C76.0245 17.1442 75.6888 16.8816 75.4264 16.5508C75.1699 16.2165 75.0204 15.8098 74.9983 15.3859C74.9631 14.9699 75.0818 14.5555 75.3309 14.2241C75.5845 13.9134 75.9363 13.7025 76.3258 13.6275C76.6879 13.5591 77.0603 13.5711 77.4174 13.6627C77.7746 13.7543 78.1082 13.9233 78.3955 14.1581C78.9331 14.5866 79.3323 15.1696 79.5413 15.8318C79.726 16.443 79.7472 17.0934 79.6029 17.7158C79.3414 18.7741 78.7529 19.7187 77.9243 20.4099C77.3087 20.9241 76.6161 21.3344 75.873 21.6251C75.2476 21.8842 74.5972 22.0757 73.9326 22.1965C73.9733 22.1779 74.0155 22.1631 74.0589 22.1526L74.4316 22.0427C74.9094 21.9014 75.3792 21.7337 75.8391 21.5403C76.5655 21.2393 77.2411 20.8239 77.8411 20.3094C78.6339 19.6276 79.1928 18.7059 79.4366 17.6781C79.5696 17.0867 79.5451 16.4699 79.3657 15.8914C79.1636 15.2691 78.784 14.7225 78.2754 14.3214C78.0098 14.1058 77.7018 13.951 77.3723 13.8676C77.0428 13.7842 76.6995 13.774 76.3658 13.8379C76.0227 13.9041 75.7132 14.0907 75.4911 14.3654C75.2771 14.6562 75.1761 15.0175 75.2077 15.3796C75.2325 15.7544 75.3666 16.113 75.5927 16.4095C75.8352 16.7109 76.1431 16.9506 76.4921 17.1097C77.2306 17.432 78.0463 17.5238 78.836 17.3735C79.6708 17.234 80.4539 16.8692 81.1038 16.3171C81.7537 15.7649 82.2468 15.0455 82.532 14.2335C82.777 13.4084 82.8047 12.5321 82.6122 11.6926C82.4197 10.8532 82.0139 10.0801 81.4355 9.45128C80.903 8.8424 80.1764 8.44529 79.3842 8.3303C79.0135 8.2783 78.6361 8.34567 78.3048 8.523C77.9735 8.70034 77.7048 8.97878 77.5362 9.3194C77.4013 9.65732 77.3861 10.0326 77.4931 10.3807C77.5981 10.7279 77.7733 11.0488 78.0075 11.3227C78.4677 11.8478 79.0699 12.2225 79.7384 12.3997C80.3389 12.5679 80.9663 12.6117 81.5836 12.5287C82.2009 12.4456 82.7957 12.2374 83.3328 11.9162C84.2257 11.378 84.8858 10.5154 85.1808 9.50152C85.4103 8.73749 85.4516 7.92754 85.3009 7.14338C85.2103 6.64722 85.0374 6.17043 84.7896 5.73352C84.6202 5.42266 84.5063 5.27822 84.5186 5.2688Z" fill="#E0E0E0"/>
<path d="M56.5273 135.808C56.6421 135.941 56.7451 136.084 56.8353 136.235C57.1058 136.668 57.2959 137.148 57.3959 137.651C57.5658 138.451 57.5361 139.281 57.3096 140.066C57.0166 141.119 56.3401 142.017 55.4185 142.578C54.8632 142.917 54.2464 143.139 53.605 143.231C52.9637 143.322 52.3109 143.28 51.6856 143.109C50.9725 142.929 50.3288 142.535 49.8376 141.978C49.5819 141.685 49.3898 141.341 49.2739 140.967C49.1517 140.571 49.1691 140.143 49.3232 139.758C49.5086 139.375 49.8063 139.061 50.175 138.858C50.5437 138.656 50.965 138.575 51.3806 138.628C52.2282 138.746 53.0072 139.167 53.5798 139.815C54.1893 140.474 54.617 141.286 54.8193 142.169C55.0216 143.051 54.9914 143.972 54.7317 144.839C54.4358 145.692 53.9208 146.449 53.2404 147.031C52.56 147.612 51.7391 147.997 50.8632 148.145C50.032 148.3 49.1742 148.2 48.3992 147.856C48.018 147.683 47.6824 147.421 47.4198 147.09C47.1665 146.757 47.0174 146.355 46.9916 145.935C46.9592 145.518 47.0787 145.105 47.3274 144.773C47.5804 144.462 47.9324 144.25 48.3222 144.176C48.6843 144.107 49.0568 144.119 49.414 144.211C49.7712 144.302 50.1048 144.472 50.392 144.707C50.9278 145.136 51.3266 145.717 51.5377 146.377C51.7223 146.989 51.7425 147.639 51.5962 148.261C51.3378 149.32 50.7512 150.264 49.9238 150.955C49.3082 151.47 48.6156 151.88 47.8725 152.171C47.2469 152.429 46.5966 152.621 45.9321 152.742C45.9725 152.723 46.0149 152.708 46.0584 152.698L46.4311 152.588C46.9089 152.447 47.3788 152.279 47.8386 152.086C48.5645 151.784 49.2398 151.368 49.8406 150.855C50.6335 150.173 51.1923 149.251 51.4361 148.224C51.5691 147.632 51.5446 147.015 51.3652 146.437C51.1628 145.815 50.7832 145.268 50.2749 144.867C50.0092 144.652 49.701 144.497 49.3715 144.415C49.042 144.332 48.6988 144.322 48.3653 144.387C48.0229 144.453 47.7137 144.638 47.4906 144.911C47.2764 145.203 47.1755 145.565 47.2072 145.928C47.2307 146.303 47.3649 146.662 47.5922 146.958C47.8339 147.26 48.1421 147.499 48.4916 147.655C49.2298 147.979 50.0455 148.072 50.8355 147.922C51.6704 147.783 52.4534 147.418 53.1033 146.866C53.7532 146.314 54.2463 145.594 54.5315 144.782C54.7766 143.958 54.8043 143.082 54.6118 142.243C54.4193 141.404 54.0134 140.631 53.435 140.003C52.903 139.393 52.1763 138.995 51.3837 138.879C51.0131 138.828 50.6363 138.896 50.3053 139.074C49.9742 139.251 49.7053 139.528 49.5357 139.868C49.4008 140.206 49.3856 140.581 49.4926 140.929C49.598 141.276 49.7731 141.597 50.007 141.871C50.4681 142.395 51.07 142.77 51.7379 142.948C52.3385 143.116 52.9657 143.159 53.5829 143.076C54.2001 142.993 54.7949 142.785 55.3323 142.465C56.2264 141.928 56.887 141.065 57.1803 140.05C57.4121 139.287 57.4545 138.476 57.3035 137.692C57.2137 137.196 57.0408 136.719 56.7922 136.282C56.629 135.962 56.515 135.818 56.5273 135.808Z" fill="#E0E0E0"/>
<path d="M10.6322 32.9981C10.8008 32.9539 10.973 32.9255 11.1466 32.9133C11.6492 32.8668 12.1559 32.9169 12.6404 33.0609C13.4143 33.2767 14.1228 33.6869 14.7009 34.2541C15.4834 35.0052 15.954 36.0334 16.0161 37.1272C16.0538 37.7856 15.9615 38.4451 15.7446 39.0664C15.5276 39.6878 15.1905 40.2584 14.7533 40.7445C14.2702 41.2971 13.6382 41.6925 12.9361 41.8812C12.5622 41.9766 12.1729 41.9905 11.7934 41.922C11.3931 41.851 11.03 41.6387 10.7678 41.3223C10.5201 40.9778 10.3837 40.5632 10.3777 40.1361C10.3716 39.7091 10.4961 39.2907 10.7339 38.939C11.2272 38.2266 11.9534 37.7168 12.7821 37.5009C13.634 37.2518 14.5355 37.2367 15.395 37.4573C16.2545 37.6779 17.0415 38.1262 17.6762 38.7569C18.2821 39.4183 18.7031 40.2332 18.8954 41.1168C19.0877 42.0003 19.0443 42.9203 18.7696 43.7809C18.5193 44.6076 18.0337 45.3399 17.3744 45.8847C17.0479 46.1489 16.6648 46.3307 16.2563 46.4153C15.8505 46.4904 15.4319 46.439 15.0551 46.2678C14.6778 46.106 14.3727 45.8072 14.1989 45.4294C14.0455 45.057 14.0237 44.6419 14.1373 44.255C14.2447 43.8956 14.4269 43.564 14.6714 43.2827C14.9159 43.0015 15.217 42.7773 15.5541 42.6254C16.1759 42.3385 16.8675 42.2467 17.5407 42.3616C18.1558 42.4799 18.7295 42.7615 19.2039 43.178C20.0043 43.9012 20.555 44.8678 20.7747 45.9349C20.9383 46.7296 20.9758 47.5459 20.8856 48.3527C20.8219 49.0379 20.6887 49.7145 20.4882 50.3717C20.488 50.3261 20.4943 50.2806 20.5067 50.2367C20.5252 50.1362 20.5529 50.0075 20.5837 49.8474C20.6798 49.3501 20.7508 48.8481 20.7962 48.3433C20.8707 47.547 20.8208 46.7436 20.6484 45.9632C20.4165 44.941 19.8731 44.0198 19.0961 43.3319C18.6413 42.9395 18.0931 42.6763 17.5068 42.5688C16.8711 42.4635 16.2189 42.5542 15.6342 42.8295C15.324 42.9705 15.0472 43.1777 14.8225 43.4372C14.5977 43.6967 14.4302 44.0024 14.3313 44.3335C14.2305 44.6739 14.2501 45.0395 14.3868 45.3666C14.5413 45.6943 14.8088 45.9526 15.1383 46.0919C15.476 46.2432 15.8503 46.2881 16.2132 46.2207C16.5876 46.1414 16.9381 45.9724 17.2358 45.7277C17.8593 45.2122 18.3164 44.5175 18.5478 43.7338C18.8109 42.9117 18.8525 42.0328 18.6683 41.1887C18.484 40.3447 18.0808 39.5666 17.5006 38.9359C16.8973 38.3323 16.1484 37.9019 15.3296 37.6879C14.5109 37.474 13.6512 37.4842 12.8375 37.7175C12.0609 37.9174 11.3789 38.3913 10.9125 39.0552C10.6982 39.3654 10.5831 39.7355 10.5831 40.1149C10.5831 40.4944 10.6982 40.8645 10.9125 41.1747C11.1445 41.4537 11.4648 41.6414 11.818 41.7053C12.1675 41.7688 12.5261 41.7582 12.8714 41.6739C13.541 41.5007 14.1447 41.1279 14.6054 40.6032C15.0282 40.1378 15.3551 39.5906 15.5667 38.9941C15.7783 38.3976 15.8704 37.7638 15.8374 37.1304C15.791 36.0747 15.3502 35.077 14.6054 34.342C14.0521 33.7852 13.3731 33.3755 12.6281 33.1488C12.1537 33.0001 11.6577 32.9363 11.162 32.9604C10.8109 32.9699 10.6322 33.0138 10.6322 32.9981Z" fill="#E0E0E0"/>
<path d="M127.395 66.2538C127.257 66.1509 127.128 66.0352 127.01 65.9084C126.667 65.5432 126.392 65.1177 126.197 64.6524C125.88 63.9208 125.746 63.12 125.809 62.3225C125.884 61.2517 126.358 60.2506 127.134 59.5248C127.6 59.0882 128.148 58.7519 128.745 58.5361C129.342 58.3203 129.976 58.2294 130.608 58.2688C131.322 58.3011 132.01 58.5492 132.585 58.9816C132.886 59.2118 133.137 59.5038 133.321 59.8388C133.517 60.1932 133.584 60.6071 133.509 61.0069C133.406 61.4113 133.182 61.7729 132.868 62.0413C132.554 62.3098 132.165 62.4717 131.757 62.5046C130.922 62.5614 130.094 62.3156 129.419 61.8107C128.708 61.3025 128.141 60.6118 127.776 59.8084C127.411 59.0049 127.26 58.1174 127.34 57.2357C127.457 56.3575 127.803 55.5274 128.342 54.832C128.881 54.1366 129.593 53.6015 130.404 53.2825C131.174 52.9644 132.019 52.8868 132.832 53.0595C133.23 53.1489 133.603 53.3328 133.919 53.5965C134.227 53.8644 134.448 54.2213 134.553 54.6201C134.666 55.0121 134.632 55.4328 134.458 55.8007C134.276 56.1494 133.981 56.4226 133.623 56.5732C133.289 56.7116 132.93 56.7752 132.569 56.7595C132.209 56.7437 131.856 56.6492 131.535 56.4821C130.936 56.1807 130.44 55.7026 130.112 55.1099C129.815 54.5631 129.668 53.9448 129.687 53.3201C129.729 52.2534 130.108 51.2291 130.768 50.3999C131.259 49.7854 131.843 49.2553 132.499 48.8299C133.047 48.4552 133.633 48.1395 134.245 47.8879C134.211 47.9154 134.174 47.9386 134.134 47.957L133.799 48.136C133.368 48.3674 132.951 48.6232 132.548 48.9022C131.909 49.3374 131.342 49.8725 130.866 50.4879C130.24 51.3023 129.883 52.2984 129.847 53.3327C129.836 53.9265 129.979 54.5126 130.263 55.0314C130.579 55.5872 131.05 56.0351 131.615 56.3188C131.912 56.4713 132.237 56.5569 132.569 56.5699C132.902 56.5829 133.233 56.523 133.54 56.3942C133.856 56.2634 134.116 56.0232 134.276 55.716C134.424 55.3924 134.45 55.0249 134.35 54.6829C134.254 54.3281 134.055 54.0109 133.78 53.7723C133.489 53.5332 133.147 53.3666 132.782 53.2856C132.012 53.1251 131.212 53.2016 130.485 53.5054C129.712 53.8092 129.033 54.3193 128.52 54.9822C128.007 55.6451 127.678 56.4364 127.568 57.2734C127.493 58.1134 127.636 58.9588 127.983 59.7245C128.33 60.4901 128.869 61.149 129.545 61.6349C130.175 62.1117 130.949 62.3454 131.732 62.2943C132.096 62.268 132.442 62.1269 132.724 61.8905C133.005 61.6542 133.208 61.3344 133.303 60.9755C133.369 60.6243 133.311 60.2607 133.14 59.9487C132.97 59.6392 132.739 59.3687 132.462 59.1543C131.919 58.7453 131.27 58.5084 130.595 58.4729C129.987 58.4324 129.378 58.5165 128.802 58.7204C128.226 58.9242 127.697 59.2437 127.244 59.6598C126.49 60.3543 126.023 61.3152 125.938 62.3476C125.866 63.1264 125.982 63.9114 126.277 64.6336C126.459 65.0948 126.718 65.52 127.044 65.8896C127.266 66.1408 127.405 66.2538 127.395 66.2538Z" fill="#E0E0E0"/>
<path d="M132.062 36.9671C132.062 36.9671 131.415 34.182 129.059 34.5807L129.564 32.7847C129.564 32.7847 133.485 33.4378 133.029 36.2983L132.062 36.9671Z" fill="#EBEBEB"/>
<path d="M122.584 149.687C122.584 149.687 121.937 146.902 119.581 147.304L120.086 145.508C120.086 145.508 124.004 146.161 123.551 149.021L122.584 149.687Z" fill="#EBEBEB"/>
<path d="M23.2606 143.033C23.2606 143.033 20.7566 144.324 21.6867 146.569L19.8572 146.487C19.8572 146.487 19.5646 142.449 22.3982 142.232L23.2606 143.033Z" fill="#EBEBEB"/>
<path d="M69.1864 146.352C69.1864 146.352 71.3424 148.198 72.9902 146.446L73.6339 148.195C73.6339 148.195 70.1043 150.051 68.7983 147.476L69.1864 146.352Z" fill="#EBEBEB"/>
<path d="M144.206 97.4718C144.206 97.4718 143.559 94.6866 141.203 95.0854L141.705 93.2893C141.705 93.2893 145.626 93.9424 145.173 96.803L144.206 97.4718Z" fill="#F5F5F5"/>
<path d="M48.9908 14.3842C48.9908 14.3842 49.1756 11.5299 46.8071 11.2065L47.8051 9.63647C47.8051 9.63647 51.3655 11.4326 50.1089 14.0325L48.9908 14.3842Z" fill="#EBEBEB"/>
<path d="M30.8188 6.71C30.817 6.85491 30.7732 6.99603 30.6929 7.11561C30.6126 7.2352 30.4994 7.32791 30.3676 7.38208C30.2357 7.43625 30.0911 7.44946 29.9519 7.42006C29.8127 7.39065 29.6852 7.31994 29.5853 7.21681C29.4854 7.11369 29.4177 6.98276 29.3906 6.8405C29.3636 6.69823 29.3784 6.55098 29.4332 6.41727C29.488 6.28356 29.5804 6.16935 29.6987 6.08903C29.817 6.0087 29.956 5.96583 30.0981 5.96582C30.1935 5.96581 30.288 5.98513 30.3761 6.02264C30.4641 6.06015 30.544 6.11512 30.611 6.18435C30.6781 6.25358 30.731 6.33569 30.7666 6.42593C30.8023 6.51616 30.82 6.61272 30.8188 6.71Z" fill="#EBEBEB"/>
<path d="M97.125 12.9994C97.125 13.1447 97.0828 13.2868 97.0036 13.4076C96.9244 13.5284 96.8118 13.6226 96.6801 13.6782C96.5484 13.7339 96.4035 13.7484 96.2637 13.72C96.1239 13.6917 95.9955 13.6217 95.8947 13.519C95.7939 13.4162 95.7253 13.2853 95.6974 13.1428C95.6696 13.0002 95.6839 12.8525 95.7385 12.7182C95.793 12.584 95.8854 12.4692 96.0039 12.3885C96.1224 12.3077 96.2618 12.2646 96.4043 12.2646C96.5952 12.2655 96.7781 12.3432 96.913 12.4808C97.048 12.6184 97.1242 12.8048 97.125 12.9994Z" fill="#EBEBEB"/>
<path d="M143.836 30.5773C143.834 30.7215 143.79 30.8618 143.71 30.9807C143.63 31.0996 143.517 31.1918 143.386 31.2458C143.255 31.2999 143.111 31.3134 142.972 31.2846C142.833 31.2559 142.706 31.1861 142.606 31.0841C142.506 30.9822 142.438 30.8524 142.409 30.711C142.381 30.5697 142.395 30.423 142.448 30.2893C142.501 30.1555 142.591 30.0407 142.708 29.959C142.824 29.8773 142.962 29.8324 143.103 29.8299C143.2 29.8282 143.296 29.8464 143.386 29.8834C143.475 29.9203 143.557 29.9753 143.625 30.045C143.694 30.1148 143.748 30.1978 143.784 30.2893C143.82 30.3807 143.838 30.4787 143.836 30.5773Z" fill="#EBEBEB"/>
<path d="M140.772 140.615C140.772 140.761 140.73 140.904 140.651 141.026C140.572 141.148 140.459 141.243 140.327 141.299C140.195 141.356 140.049 141.371 139.909 141.343C139.768 141.314 139.639 141.244 139.537 141.141C139.436 141.038 139.367 140.907 139.338 140.764C139.31 140.62 139.324 140.472 139.379 140.337C139.434 140.202 139.526 140.086 139.646 140.005C139.765 139.924 139.905 139.881 140.048 139.881C140.239 139.881 140.423 139.958 140.559 140.096C140.694 140.233 140.771 140.42 140.772 140.615Z" fill="#EBEBEB"/>
<path d="M104.166 148.836C104.166 148.982 104.125 149.125 104.045 149.247C103.966 149.368 103.853 149.463 103.721 149.52C103.589 149.576 103.443 149.591 103.303 149.563C103.162 149.535 103.033 149.465 102.931 149.362C102.83 149.259 102.761 149.127 102.732 148.984C102.704 148.841 102.718 148.692 102.773 148.557C102.828 148.422 102.921 148.307 103.04 148.226C103.159 148.144 103.299 148.101 103.442 148.101C103.633 148.101 103.817 148.178 103.953 148.316C104.088 148.454 104.165 148.641 104.166 148.836Z" fill="#EBEBEB"/>
<path d="M127.734 80.1859C127.734 80.3313 127.692 80.4733 127.612 80.5941C127.533 80.715 127.421 80.8092 127.289 80.8648C127.157 80.9204 127.012 80.9349 126.873 80.9066C126.733 80.8782 126.604 80.8082 126.504 80.7055C126.403 80.6027 126.334 80.4718 126.306 80.3293C126.279 80.1867 126.293 80.039 126.347 79.9048C126.402 79.7705 126.494 79.6557 126.613 79.575C126.731 79.4943 126.871 79.4512 127.013 79.4512C127.204 79.4512 127.388 79.5286 127.523 79.6664C127.658 79.8042 127.734 79.9911 127.734 80.1859Z" fill="#EBEBEB"/>
<path d="M25.8104 35.3876C25.811 35.5338 25.769 35.6769 25.6897 35.7987C25.6104 35.9206 25.4974 36.0156 25.365 36.0719C25.2326 36.1281 25.0868 36.143 24.9461 36.1146C24.8054 36.0862 24.6762 36.0159 24.5748 35.9125C24.4734 35.8091 24.4044 35.6774 24.3766 35.5339C24.3487 35.3905 24.3633 35.2419 24.4185 35.1069C24.4736 34.9719 24.5669 34.8567 24.6864 34.7759C24.8059 34.695 24.9463 34.6522 25.0897 34.6528C25.2808 34.6528 25.4641 34.7303 25.5993 34.868C25.7345 35.0058 25.8104 35.1927 25.8104 35.3876Z" fill="#EBEBEB"/>
<path d="M9.39731 90.0079C9.39731 90.154 9.35478 90.2968 9.27511 90.4182C9.19544 90.5396 9.08221 90.6342 8.94978 90.69C8.81734 90.7457 8.67165 90.7601 8.53116 90.7314C8.39068 90.7027 8.26172 90.6321 8.16061 90.5286C8.05951 90.4251 7.99082 90.2933 7.96324 90.15C7.93566 90.0066 7.95044 89.8581 8.00569 89.7234C8.06095 89.5886 8.1542 89.4736 8.27363 89.3929C8.39306 89.3122 8.5333 89.2694 8.67659 89.27C8.77149 89.27 8.86547 89.2891 8.95311 89.3263C9.04075 89.3634 9.12034 89.4178 9.18731 89.4863C9.25427 89.5549 9.30729 89.6363 9.34333 89.7258C9.37937 89.8153 9.39771 89.9112 9.39731 90.0079Z" fill="#EBEBEB"/>
<path d="M127.485 127.877C128.042 129.677 128.03 131.611 127.448 133.403C126.117 132.26 124.611 130.345 124.149 128.633C123.674 126.942 123.719 125.142 124.278 123.478C125.777 124.561 126.9 126.101 127.485 127.877Z" fill="#455A64"/>
<path d="M126.73 130.725C126.727 130.619 126.716 130.514 126.696 130.411C126.668 130.219 126.619 129.94 126.548 129.6C126.367 128.71 126.129 127.832 125.837 126.972C125.546 126.114 125.202 125.275 124.808 124.46C124.657 124.146 124.528 123.898 124.432 123.729C124.387 123.638 124.336 123.551 124.278 123.468C124.309 123.565 124.35 123.659 124.398 123.747C124.482 123.92 124.602 124.175 124.746 124.492C125.033 125.12 125.403 126.005 125.744 127.004C126.033 127.86 126.279 128.731 126.481 129.613C126.561 129.949 126.619 130.225 126.659 130.417C126.674 130.521 126.698 130.624 126.73 130.725Z" fill="#263238"/>
<path d="M135.348 129.434C135.904 131.236 135.891 133.17 135.311 134.964C133.977 133.817 132.471 131.905 132.009 130.191C131.548 128.464 131.608 126.635 132.181 124.944C133.672 126.066 134.779 127.636 135.348 129.434Z" fill="#455A64"/>
<path d="M134.596 132.285C134.594 132.18 134.583 132.075 134.562 131.971C134.535 131.776 134.485 131.5 134.415 131.158C134.231 130.269 133.993 129.392 133.703 128.533C133.412 127.675 133.068 126.836 132.674 126.021C132.52 125.707 132.391 125.459 132.299 125.289C132.254 125.199 132.201 125.113 132.142 125.032C132.174 125.127 132.214 125.22 132.262 125.308C132.348 125.484 132.468 125.738 132.61 126.052C132.896 126.68 133.269 127.569 133.608 128.564C133.946 129.56 134.19 130.495 134.347 131.174C134.424 131.513 134.482 131.802 134.522 131.977C134.538 132.082 134.562 132.185 134.596 132.285Z" fill="#263238"/>
<path d="M139.922 124.011C141.35 122.809 142.37 121.177 142.835 119.348C141.107 119.571 138.831 120.347 137.525 121.546C136.217 122.74 135.293 124.308 134.874 126.046C136.724 125.925 138.49 125.213 139.922 124.011Z" fill="#455A64"/>
<path d="M140.808 121.204C140.751 121.287 140.687 121.366 140.617 121.44C140.491 121.584 140.309 121.791 140.063 122.039C139.434 122.685 138.767 123.29 138.064 123.851C137.363 124.412 136.627 124.927 135.862 125.393C135.554 125.572 135.326 125.707 135.157 125.801C135.071 125.853 134.982 125.897 134.889 125.933C134.965 125.869 135.048 125.814 135.135 125.767C135.301 125.666 135.535 125.518 135.825 125.333C136.401 124.963 137.183 124.426 138.003 123.763C138.822 123.101 139.521 122.463 140.014 121.98L140.59 121.402C140.657 121.33 140.73 121.264 140.808 121.204Z" fill="#263238"/>
<path d="M132.335 121.908C133.763 120.704 134.783 119.072 135.249 117.245C133.521 117.468 131.245 118.243 129.936 119.427C128.63 120.622 127.706 122.19 127.284 123.927C129.134 123.812 130.902 123.105 132.335 121.908Z" fill="#455A64"/>
<path d="M133.22 119.097C133.165 119.182 133.102 119.261 133.032 119.333C132.905 119.477 132.724 119.684 132.474 119.932C131.847 120.578 131.18 121.183 130.478 121.744C129.775 122.304 129.038 122.82 128.273 123.289C127.965 123.465 127.737 123.603 127.568 123.694C127.482 123.746 127.393 123.79 127.3 123.826C127.378 123.763 127.461 123.707 127.549 123.66C127.713 123.559 127.95 123.412 128.236 123.226C129.748 122.265 131.158 121.144 132.44 119.882C132.687 119.64 132.884 119.443 133.019 119.304C133.081 119.23 133.148 119.161 133.22 119.097Z" fill="#263238"/>
<path d="M118.799 123.813C118.872 123.794 118.946 123.781 119.021 123.773L119.658 123.685L120.12 123.622C120.29 123.603 120.474 123.59 120.675 123.575C121.072 123.543 121.522 123.496 122.024 123.49L122.812 123.465C123.083 123.465 123.37 123.465 123.665 123.465C124.254 123.465 124.882 123.515 125.544 123.556C126.978 123.683 128.402 123.906 129.807 124.225C131.207 124.559 132.585 124.986 133.931 125.503C134.547 125.757 135.135 125.989 135.665 126.25C135.933 126.379 136.195 126.492 136.438 126.621L137.137 126.988C137.587 127.214 137.975 127.459 138.32 127.66C138.489 127.763 138.653 127.855 138.797 127.949L139.188 128.206L139.724 128.57C139.79 128.609 139.852 128.655 139.909 128.706C139.841 128.673 139.775 128.636 139.712 128.592L139.161 128.253L138.763 128.002C138.619 127.914 138.455 127.826 138.283 127.726C137.935 127.531 137.547 127.293 137.094 127.073L136.395 126.715C136.148 126.589 135.887 126.479 135.622 126.354C135.089 126.096 134.501 125.87 133.888 125.622C131.205 124.585 128.394 123.932 125.535 123.682C124.876 123.638 124.25 123.581 123.662 123.578C123.354 123.578 123.083 123.556 122.812 123.578H122.027C121.528 123.578 121.078 123.622 120.681 123.644L120.126 123.678L119.664 123.729L119.024 123.795C118.949 123.806 118.874 123.812 118.799 123.813Z" fill="#263238"/>
<path d="M142.955 128.715C144.502 129.753 145.687 131.261 146.343 133.026C144.6 132.995 142.247 132.48 140.827 131.456C139.401 130.414 138.315 128.959 137.71 127.28C139.563 127.182 141.399 127.684 142.955 128.715Z" fill="#455A64"/>
<path d="M144.144 131.409C144.078 131.333 144.006 131.262 143.928 131.199C143.79 131.067 143.577 130.885 143.312 130.662C142.619 130.093 141.892 129.569 141.135 129.092C140.376 128.615 139.589 128.185 138.779 127.804C138.471 127.66 138.212 127.55 138.033 127.49C137.942 127.45 137.849 127.416 137.753 127.39C137.837 127.444 137.926 127.49 138.018 127.528L138.748 127.88C139.364 128.194 140.195 128.633 141.082 129.192C141.837 129.67 142.567 130.186 143.269 130.74C143.54 130.954 143.756 131.126 143.904 131.249C143.979 131.31 144.059 131.363 144.144 131.409Z" fill="#263238"/>
<path d="M132.548 103.152C134.554 102.627 136.672 102.76 138.6 103.532C137.266 104.977 135.08 106.572 133.179 106.986C131.263 107.406 129.268 107.226 127.454 106.471C128.769 104.848 130.551 103.687 132.548 103.152Z" fill="#455A64"/>
<path d="M135.616 104.185C135.505 104.181 135.395 104.187 135.286 104.204C135.074 104.223 134.766 104.264 134.387 104.32C132.417 104.631 130.492 105.19 128.658 105.985C128.307 106.138 128.027 106.27 127.836 106.368C127.734 106.413 127.636 106.467 127.543 106.528C127.648 106.496 127.751 106.456 127.851 106.408C128.045 106.324 128.331 106.201 128.686 106.06C130.53 105.309 132.444 104.752 134.399 104.399L135.289 104.248C135.399 104.236 135.509 104.215 135.616 104.185Z" fill="#263238"/>
<path d="M129.333 110.946C131.14 110.978 132.892 111.589 134.341 112.691C132.887 113.593 130.685 114.422 128.988 114.327C127.278 114.228 125.637 113.607 124.278 112.544C125.757 111.484 127.525 110.925 129.333 110.946Z" fill="#455A64"/>
<path d="M131.686 112.541C131.594 112.51 131.499 112.489 131.402 112.478C131.218 112.443 130.95 112.406 130.62 112.365C129.755 112.262 128.885 112.215 128.014 112.224C127.145 112.234 126.277 112.299 125.415 112.418C125.082 112.462 124.817 112.509 124.632 112.544C124.536 112.557 124.441 112.58 124.349 112.613C124.446 112.61 124.543 112.601 124.639 112.585C124.823 112.556 125.091 112.525 125.421 112.487C126.282 112.387 127.148 112.333 128.014 112.324C129.031 112.324 129.949 112.371 130.611 112.434C130.943 112.465 131.211 112.494 131.396 112.516C131.492 112.532 131.589 112.54 131.686 112.541Z" fill="#263238"/>
<path d="M125.815 105.432C125.419 103.634 124.478 102.008 123.126 100.785C122.553 102.417 122.202 104.785 122.637 106.459C123.075 108.146 124.003 109.66 125.298 110.801C126.018 109.111 126.199 107.233 125.815 105.432Z" fill="#455A64"/>
<path d="M123.816 103.403C123.861 103.491 123.899 103.582 123.93 103.676C124.001 103.852 124.09 104.11 124.198 104.433C124.468 105.276 124.688 106.135 124.857 107.005C125.025 107.876 125.139 108.757 125.199 109.642C125.22 109.982 125.23 110.27 125.233 110.446C125.243 110.546 125.243 110.645 125.233 110.745C125.216 110.647 125.206 110.548 125.202 110.449C125.202 110.261 125.168 109.985 125.137 109.649C124.977 107.887 124.637 106.146 124.124 104.455C124.028 104.141 123.945 103.868 123.887 103.689C123.853 103.597 123.83 103.501 123.816 103.403Z" fill="#263238"/>
<path d="M128.19 98.1189C127.37 96.5216 126.077 95.2292 124.494 94.4263C124.358 96.1156 124.614 98.4392 125.439 99.9087C126.282 101.385 127.541 102.569 129.052 103.306C129.305 101.528 129.004 99.7131 128.19 98.1189Z" fill="#455A64"/>
<path d="M125.793 96.7122C125.859 96.7828 125.918 96.8584 125.972 96.9382C126.08 97.089 126.231 97.3088 126.413 97.5851C127.346 99.036 128.099 100.6 128.652 102.242C128.756 102.556 128.833 102.816 128.883 102.995C128.913 103.086 128.936 103.18 128.95 103.275C128.908 103.188 128.873 103.098 128.846 103.005C128.787 102.829 128.701 102.578 128.587 102.267C128.294 101.457 127.961 100.662 127.589 99.8867C127.216 99.1116 126.805 98.356 126.357 97.6228L125.944 96.9602C125.888 96.8817 125.837 96.7988 125.793 96.7122Z" fill="#263238"/>
<path d="M114.44 124.379C114.457 124.357 114.476 124.337 114.496 124.319L114.668 124.146L115.34 123.496L115.826 123.028L116.387 122.457C116.787 122.042 117.256 121.581 117.736 121.038L118.503 120.199C118.768 119.904 119.03 119.571 119.307 119.257C119.87 118.629 120.428 117.894 121.025 117.144C122.292 115.491 123.476 113.773 124.571 111.998C125.649 110.211 126.631 108.367 127.512 106.471C127.897 105.589 128.282 104.757 128.581 103.959C128.735 103.56 128.889 103.177 129.027 102.804C129.166 102.43 129.283 102.066 129.4 101.72C129.653 101.033 129.825 100.395 129.994 99.8363L130.225 99.0607C130.287 98.8221 130.342 98.6023 130.392 98.4013C130.493 98.012 130.57 97.7074 130.626 97.4907C130.653 97.3944 130.674 97.3159 130.691 97.2552C130.696 97.2269 130.706 97.1995 130.718 97.1736C130.721 97.2018 130.721 97.2302 130.718 97.2584C130.703 97.318 130.687 97.3965 130.666 97.497L130.453 98.417C130.407 98.6148 130.355 98.8378 130.299 99.0796L130.078 99.8583C129.917 100.417 129.748 101.058 129.502 101.742C129.388 102.088 129.264 102.452 129.138 102.829C129.012 103.206 128.849 103.592 128.695 103.994C128.387 104.801 128.02 105.636 127.638 106.525C126.76 108.428 125.778 110.281 124.697 112.073C123.601 113.854 122.412 115.574 121.136 117.226C120.536 117.976 119.975 118.698 119.405 119.336C119.125 119.65 118.86 119.964 118.595 120.278L117.819 121.116C117.333 121.653 116.861 122.111 116.455 122.52L115.87 123.088L115.374 123.546L114.687 124.174L114.505 124.338C114.485 124.354 114.463 124.368 114.44 124.379Z" fill="#263238"/>
<path d="M129.918 86.369C130.183 85.8383 130.58 85.2825 131.15 85.2292C131.42 85.2313 131.682 85.3177 131.903 85.4765C132.123 85.6354 132.29 85.8592 132.382 86.1178C132.552 86.6424 132.614 87.1973 132.564 87.7475C132.812 86.5257 133.503 85.4441 134.498 84.7173C134.827 84.4787 135.292 84.2872 135.616 84.5321C135.717 84.6344 135.797 84.7569 135.85 84.892C135.903 85.027 135.928 85.1717 135.924 85.3171C136.033 86.4695 135.986 87.6316 135.785 88.7711C136.211 88.4063 136.716 88.1492 137.257 88.0206C137.803 87.9359 138.446 88.1996 138.607 88.7397C138.671 89.0436 138.652 89.3599 138.551 89.6534C138.043 91.5791 137.08 93.349 135.748 94.8093C135.043 95.5786 134.208 96.2788 133.183 96.4923C132.157 96.7059 130.87 96.7059 130.411 95.7513L130.577 95.9931C129.631 94.5964 129.071 92.9662 128.955 91.2731C128.839 89.5799 129.171 87.8861 129.918 86.369Z" fill="#697865"/>
<path d="M131.064 96.3542C131.077 96.3249 131.087 96.2944 131.094 96.2632C131.116 96.1972 131.141 96.1124 131.174 96.0057C131.208 95.8989 131.245 95.7576 131.298 95.6006C131.35 95.4436 131.405 95.2615 131.479 95.0668C131.553 94.8721 131.627 94.6555 131.723 94.4388C131.818 94.2222 131.923 93.9741 132.031 93.7229C132.532 92.6376 133.166 91.6216 133.919 90.6991C134.094 90.4887 134.261 90.2877 134.427 90.1119C134.593 89.9361 134.735 89.7696 134.895 89.6221C135.055 89.4745 135.182 89.3489 135.299 89.2358C135.416 89.1228 135.526 89.0317 135.607 88.9564L135.81 88.7805C135.853 88.7397 135.878 88.7177 135.875 88.7146C135.847 88.7293 135.821 88.7472 135.798 88.768L135.588 88.9313C135.496 89.0035 135.388 89.0914 135.265 89.2013C135.141 89.3112 134.997 89.4337 134.852 89.5812C134.707 89.7288 134.544 89.8952 134.375 90.0648C134.205 90.2344 134.036 90.4416 133.857 90.652C133.479 91.1159 133.128 91.6024 132.807 92.1089C132.493 92.6144 132.209 93.1387 131.957 93.6789C131.846 93.9301 131.738 94.1719 131.649 94.4011C131.559 94.6304 131.479 94.847 131.412 95.0448C131.344 95.2427 131.288 95.4248 131.242 95.5849C131.196 95.7451 131.156 95.8801 131.128 95.9963C131.1 96.1124 131.082 96.1878 131.064 96.2569C131.06 96.2892 131.06 96.3219 131.064 96.3542Z" fill="#263238"/>
<path d="M132.674 92.4855C132.691 92.422 132.699 92.3565 132.699 92.2908C132.699 92.1652 132.72 91.9768 132.733 91.757C132.754 91.308 132.77 90.6863 132.754 89.9986C132.739 89.311 132.705 88.6893 132.665 88.2402C132.647 88.0142 132.628 87.832 132.61 87.7096C132.606 87.6438 132.596 87.5785 132.579 87.5149C132.573 87.5796 132.573 87.6448 132.579 87.7096C132.579 87.854 132.597 88.0236 132.61 88.2434C132.634 88.6924 132.662 89.3141 132.677 89.9986C132.693 90.6832 132.677 91.308 132.677 91.757C132.677 91.9674 132.677 92.1464 132.677 92.2908C132.67 92.3555 132.669 92.4207 132.674 92.4855Z" fill="#263238"/>
<g opacity="0.3">
<path d="M135.806 88.7615C135.806 88.7615 133.213 89.7945 132.77 92.2594C132.77 92.2594 134.125 89.9735 135.806 88.7615Z" fill="black"/>
</g>
<path d="M140.935 106.631C141.354 106.44 141.859 106.292 142.25 106.55C142.416 106.685 142.538 106.869 142.598 107.077C142.658 107.285 142.654 107.506 142.586 107.712C142.439 108.119 142.211 108.491 141.917 108.804C142.656 108.176 143.599 107.853 144.56 107.9C144.868 107.916 145.256 108.029 145.336 108.34C145.349 108.451 145.339 108.564 145.308 108.672C145.276 108.78 145.224 108.881 145.154 108.968C144.673 109.731 144.091 110.423 143.423 111.024C143.86 111.01 144.294 111.102 144.689 111.291C144.883 111.391 145.038 111.557 145.127 111.759C145.216 111.961 145.234 112.188 145.179 112.403C145.075 112.624 144.91 112.811 144.705 112.94C143.471 113.875 142.032 114.488 140.513 114.726C139.713 114.9 138.88 114.816 138.129 114.488C137.402 114.117 136.589 113.47 136.783 112.663L136.768 112.896C136.85 111.567 137.28 110.286 138.013 109.184C138.746 108.082 139.755 107.201 140.935 106.631Z" fill="#697865"/>
<path d="M136.869 113.354L136.931 113.316L137.103 113.194L137.374 113.006C137.482 112.936 137.602 112.852 137.741 112.767C137.879 112.682 138.027 112.588 138.197 112.497C138.366 112.406 138.542 112.308 138.729 112.211C139.145 112.004 139.572 111.821 140.008 111.665C140.445 111.513 140.89 111.386 141.341 111.285C141.551 111.244 141.748 111.2 141.936 111.175C142.124 111.15 142.299 111.125 142.459 111.106C142.619 111.087 142.767 111.081 142.891 111.068C143.014 111.056 143.131 111.068 143.22 111.052C143.128 111.052 143.017 111.052 142.891 111.052C142.764 111.052 142.616 111.052 142.453 111.081C142.29 111.109 142.117 111.112 141.93 111.144C141.742 111.175 141.538 111.206 141.329 111.247C140.874 111.345 140.426 111.471 139.986 111.624C139.548 111.781 139.12 111.966 138.705 112.177C138.514 112.277 138.335 112.371 138.169 112.469C138.003 112.566 137.861 112.66 137.716 112.748C137.571 112.836 137.46 112.924 137.356 112.996C137.251 113.068 137.159 113.137 137.088 113.194L136.925 113.326L136.869 113.354Z" fill="#263238"/>
<path d="M139.712 111.784C139.751 111.752 139.788 111.717 139.82 111.677C139.887 111.605 139.98 111.498 140.094 111.363C140.325 111.096 140.63 110.72 140.95 110.289C141.27 109.859 141.545 109.457 141.735 109.162L141.957 108.807C142.007 108.723 142.034 108.676 142.028 108.672C141.993 108.709 141.962 108.749 141.936 108.792L141.699 109.134C141.498 109.426 141.221 109.822 140.901 110.252C140.58 110.682 140.285 111.062 140.06 111.335C139.958 111.464 139.872 111.574 139.801 111.649C139.766 111.69 139.736 111.736 139.712 111.784Z" fill="#263238"/>
<g opacity="0.3">
<path d="M143.424 111.037C143.424 111.037 141.329 110.384 139.878 111.68C139.878 111.68 141.807 110.946 143.424 111.037Z" fill="black"/>
</g>
<path d="M25.6996 127.142C25.1418 128.943 25.1547 130.878 25.7366 132.671C27.0672 131.525 28.5733 129.613 29.0353 127.899C29.5107 126.208 29.4655 124.409 28.9059 122.746C27.4073 123.828 26.2846 125.367 25.6996 127.142Z" fill="#455A64"/>
<path d="M26.4541 129.996C26.4566 129.891 26.468 129.786 26.488 129.682C26.5157 129.487 26.565 129.211 26.6358 128.869C26.817 127.978 27.0547 127.1 27.3473 126.241C27.639 125.382 27.9826 124.543 28.376 123.729C28.5269 123.415 28.6563 123.167 28.7518 122.997C28.7964 122.907 28.8479 122.821 28.9058 122.74C28.8736 122.835 28.8334 122.927 28.7857 123.016C28.7025 123.192 28.5824 123.446 28.4376 123.76C28.1512 124.388 27.7816 125.277 27.4397 126.272C27.1508 127.128 26.9051 127.999 26.7036 128.881C26.6235 129.22 26.565 129.494 26.5249 129.685C26.5096 129.791 26.4859 129.895 26.4541 129.996Z" fill="#263238"/>
<path d="M17.8362 128.702C17.2771 130.503 17.2867 132.437 17.8639 134.232C19.1976 133.086 20.7037 131.17 21.1657 129.459C21.6271 127.732 21.567 125.904 20.9932 124.212C19.5054 125.335 18.4011 126.905 17.8362 128.702Z" fill="#455A64"/>
<path d="M18.5908 131.566C18.5937 131.461 18.605 131.356 18.6247 131.252C18.6524 131.061 18.7017 130.781 18.7725 130.442C18.956 129.547 19.1936 128.664 19.484 127.798C19.7752 126.94 20.1188 126.101 20.5127 125.286C20.6667 124.972 20.7961 124.724 20.8885 124.555C20.9338 124.464 20.9864 124.376 21.0456 124.294C21.0145 124.391 20.9743 124.484 20.9255 124.573C20.8392 124.746 20.7191 125 20.5774 125.318C20.2036 126.137 19.8706 126.976 19.5795 127.83C19.2407 128.831 18.9974 129.761 18.8403 130.439C18.7633 130.775 18.7048 131.067 18.6647 131.243C18.6511 131.353 18.6263 131.461 18.5908 131.566Z" fill="#263238"/>
<path d="M13.2628 123.28C11.8354 122.076 10.816 120.444 10.3491 118.617C12.077 118.84 14.3531 119.612 15.659 120.796C16.9653 121.987 17.8893 123.552 18.3109 125.286C16.4635 125.173 14.6977 124.471 13.2628 123.28Z" fill="#455A64"/>
<path d="M12.3755 120.469C12.434 120.551 12.4978 120.629 12.5664 120.702C12.6927 120.849 12.8744 121.053 13.1208 121.301C13.7489 121.948 14.4165 122.553 15.1198 123.113C15.8206 123.676 16.5562 124.192 17.322 124.658C17.63 124.837 17.8579 124.972 18.0273 125.063C18.1126 125.115 18.2022 125.159 18.2952 125.195C18.2186 125.131 18.1361 125.076 18.0488 125.029C17.8825 124.928 17.6484 124.784 17.3589 124.595C16.783 124.225 16.0006 123.688 15.1814 123.025C14.3621 122.363 13.6629 121.725 13.1701 121.242L12.5942 120.664C12.5275 120.592 12.4542 120.527 12.3755 120.469Z" fill="#263238"/>
<path d="M20.8487 121.176C19.421 119.972 18.4015 118.341 17.9351 116.513C19.6629 116.736 21.9391 117.511 23.2481 118.692C24.5538 119.888 25.4776 121.455 25.8999 123.192C24.0504 123.077 22.2833 122.371 20.8487 121.176Z" fill="#455A64"/>
<path d="M19.9648 118.378C20.0203 118.461 20.0832 118.539 20.1527 118.611C20.279 118.758 20.4607 118.962 20.7102 119.213C21.338 119.858 22.0046 120.462 22.706 121.022C23.4084 121.584 24.1449 122.1 24.9113 122.567C25.2193 122.746 25.4472 122.881 25.6166 122.972C25.6985 123.018 25.784 123.057 25.8723 123.088C25.7932 123.027 25.7098 122.971 25.6228 122.922C25.4596 122.824 25.2224 122.677 24.936 122.492C24.1837 122.006 23.4559 121.482 22.7553 120.922C22.0562 120.363 21.3859 119.768 20.7472 119.138C20.5008 118.899 20.3036 118.702 20.1681 118.56C20.1054 118.494 20.0374 118.433 19.9648 118.378Z" fill="#263238"/>
<path d="M34.3852 123.088C34.312 123.071 34.238 123.059 34.1635 123.05L33.5259 122.959L33.0639 122.897C32.8945 122.878 32.7066 122.868 32.5095 122.849C32.1122 122.821 31.6625 122.771 31.1605 122.765L30.372 122.743C30.1009 122.743 29.8145 122.743 29.5188 122.743C28.9305 122.743 28.2868 122.79 27.64 122.834C26.2064 122.961 24.7825 123.183 23.3773 123.499C21.9767 123.834 20.599 124.262 19.2532 124.781C18.6372 125.035 18.0489 125.264 17.5191 125.528C17.2512 125.653 16.9894 125.77 16.7461 125.895L16.0469 126.263C15.5972 126.492 15.2091 126.734 14.8642 126.938C14.6948 127.038 14.5315 127.132 14.3868 127.223L13.9956 127.484L13.4597 127.845C13.3949 127.885 13.3332 127.931 13.2749 127.98C13.3431 127.949 13.409 127.912 13.472 127.87L14.0233 127.528L14.4207 127.28C14.5654 127.192 14.7287 127.101 14.9011 127.004C15.2492 126.809 15.6373 126.57 16.09 126.351L16.7892 125.989C17.0356 125.867 17.2974 125.754 17.5623 125.631C18.0951 125.374 18.6834 125.148 19.2963 124.897C20.6391 124.389 22.0125 123.969 23.4081 123.641C24.8065 123.325 26.223 123.099 27.6493 122.966C28.3084 122.919 28.9336 122.862 29.5219 122.859C29.8299 122.859 30.1009 122.84 30.372 122.843L31.1574 122.859C31.6563 122.859 32.106 122.9 32.5033 122.922C32.7035 122.937 32.8883 122.944 33.0577 122.959L33.5197 123.01L34.1604 123.072C34.2347 123.085 34.31 123.09 34.3852 123.088Z" fill="#263238"/>
<path d="M10.2288 127.98C8.68379 129.019 7.49851 130.527 6.84082 132.291C8.5841 132.26 10.9372 131.745 12.3571 130.721C13.7794 129.676 14.8619 128.22 15.4648 126.542C13.6146 126.449 11.7826 126.952 10.2288 127.98Z" fill="#455A64"/>
<path d="M9.0459 130.674C9.11371 130.6 9.1857 130.53 9.2615 130.464C9.4001 130.332 9.61262 130.15 9.8775 129.927C11.2661 128.783 12.7891 127.82 14.4113 127.06C14.7193 126.916 14.978 126.806 15.1566 126.746C15.2471 126.704 15.3408 126.669 15.4369 126.643C15.3538 126.698 15.265 126.745 15.172 126.781C14.9995 126.862 14.7501 126.982 14.4421 127.136C13.8261 127.45 12.9945 127.886 12.1074 128.445C11.3536 128.923 10.6238 129.44 9.92062 129.993C9.64958 130.206 9.43398 130.382 9.28614 130.505C9.21122 130.569 9.13082 130.625 9.0459 130.674Z" fill="#263238"/>
<path d="M20.6362 102.421C18.6327 101.898 16.5186 102.031 14.5933 102.8C15.9269 104.245 18.1137 105.837 20.0141 106.254C21.9302 106.671 23.9248 106.491 25.7398 105.74C24.4222 104.115 22.6368 102.954 20.6362 102.421Z" fill="#455A64"/>
<path d="M17.5562 103.45C17.6664 103.449 17.7766 103.456 17.8857 103.472C18.0982 103.491 18.4062 103.529 18.782 103.589C19.771 103.745 20.7494 103.965 21.7111 104.248C22.6693 104.526 23.6095 104.865 24.5262 105.262C24.8773 105.416 25.1576 105.548 25.3486 105.645C25.4553 105.69 25.5583 105.744 25.6566 105.805C25.55 105.777 25.4468 105.737 25.3486 105.686C25.1545 105.601 24.8681 105.482 24.5139 105.338C23.5921 104.963 22.6526 104.636 21.6988 104.358C20.5807 104.044 19.5428 103.815 18.8005 103.68C18.4278 103.611 18.1229 103.56 17.9104 103.529C17.7901 103.514 17.6715 103.488 17.5562 103.45Z" fill="#263238"/>
<path d="M23.8518 110.214C22.0446 110.246 20.2927 110.855 18.8438 111.957C20.2975 112.861 22.4997 113.69 24.1968 113.593C25.9066 113.494 27.5476 112.872 28.9061 111.809C27.4277 110.749 25.6592 110.191 23.8518 110.214Z" fill="#455A64"/>
<path d="M21.4985 111.806C21.5911 111.777 21.6859 111.758 21.7819 111.746C21.9667 111.712 22.2347 111.671 22.5642 111.633C24.2945 111.428 26.0432 111.445 27.7694 111.683C28.1021 111.731 28.3669 111.775 28.5517 111.812C28.6479 111.826 28.7428 111.848 28.8351 111.878C28.738 111.877 28.6411 111.868 28.5456 111.85C28.3608 111.825 28.0928 111.79 27.7633 111.753C27.1011 111.677 26.1832 111.602 25.1699 111.589C24.3031 111.583 23.4365 111.62 22.5735 111.702C22.2408 111.734 21.9575 111.762 21.7881 111.784C21.6922 111.798 21.5954 111.806 21.4985 111.806Z" fill="#263238"/>
<path d="M27.369 104.7C27.7636 102.901 28.7044 101.275 30.0578 100.053C30.6307 101.683 30.9818 104.05 30.5475 105.727C30.109 107.414 29.1816 108.928 27.8864 110.07C27.1662 108.379 26.9852 106.501 27.369 104.7Z" fill="#455A64"/>
<path d="M29.3743 102.678C29.3287 102.764 29.2906 102.855 29.2603 102.948C29.1895 103.124 29.1002 103.384 28.9924 103.708C28.7227 104.549 28.5036 105.405 28.3363 106.273C28.1679 107.144 28.0537 108.025 27.9945 108.911C27.9729 109.25 27.9637 109.523 27.9606 109.715C27.9506 109.813 27.9506 109.912 27.9606 110.01C27.9778 109.912 27.9881 109.814 27.9914 109.715C27.9914 109.526 28.0253 109.253 28.0561 108.914C28.2112 107.153 28.5456 105.414 29.054 103.724C29.1495 103.41 29.2326 103.136 29.2911 102.954C29.3281 102.865 29.356 102.773 29.3743 102.678Z" fill="#263238"/>
<path d="M24.9946 97.3872C25.814 95.7899 27.1076 94.4975 28.6906 93.6946C28.8261 95.3808 28.5705 97.7075 27.745 99.177C26.9087 100.656 25.6538 101.844 24.1445 102.584C23.8849 100.804 24.1824 98.9853 24.9946 97.3872Z" fill="#455A64"/>
<path d="M27.3904 95.99C27.3243 96.0597 27.2645 96.1354 27.2118 96.2161C27.104 96.3637 26.953 96.5866 26.7713 96.8629C26.3055 97.5884 25.8837 98.3424 25.5085 99.1206C25.1342 99.8986 24.8081 100.7 24.5322 101.52C24.4274 101.834 24.3504 102.091 24.3012 102.27C24.2712 102.361 24.2485 102.455 24.2334 102.549C24.2758 102.464 24.3109 102.374 24.3381 102.283C24.3966 102.107 24.4829 101.852 24.5968 101.542C24.8897 100.731 25.2227 99.937 25.5948 99.1614C25.9681 98.3872 26.3792 97.6327 26.8268 96.9006C26.9992 96.618 27.1348 96.3919 27.2395 96.238C27.2945 96.1584 27.3449 96.0756 27.3904 95.99Z" fill="#263238"/>
<path d="M38.7432 123.647C38.7432 123.647 38.7248 123.622 38.6878 123.584L38.5153 123.411L37.8439 122.774L37.3572 122.306L36.7967 121.732C36.3963 121.317 35.9281 120.859 35.4476 120.315L34.6807 119.474C34.4158 119.179 34.154 118.862 33.8768 118.532C33.3132 117.904 32.7557 117.169 32.1582 116.419C30.8921 114.764 29.7089 113.045 28.6131 111.269C27.5361 109.483 26.5553 107.638 25.6748 105.743C25.2898 104.857 24.9048 104.025 24.606 103.231C24.452 102.829 24.298 102.446 24.1594 102.072C24.0208 101.698 23.9038 101.334 23.7868 100.989C23.5342 100.304 23.3617 99.6667 23.1923 99.1047L22.9613 98.3291L22.7919 97.654C22.6903 97.2647 22.6133 96.9601 22.5578 96.7403C22.5291 96.6419 22.5075 96.5634 22.4932 96.5048C22.4878 96.4773 22.4784 96.4509 22.4654 96.4263C22.4627 96.4534 22.4627 96.4808 22.4654 96.5079C22.4808 96.5707 22.4962 96.6492 22.5178 96.7465C22.5671 96.9663 22.6379 97.2741 22.7303 97.6666C22.7765 97.8675 22.8289 98.0873 22.8843 98.3291L23.1061 99.111C23.2662 99.6668 23.4356 100.307 23.682 100.995C23.796 101.34 23.9192 101.705 24.0455 102.085C24.1718 102.464 24.335 102.844 24.489 103.246C24.797 104.056 25.1635 104.892 25.5454 105.777C26.4236 107.681 27.4056 109.533 28.4868 111.326C29.5868 113.113 30.7805 114.838 32.0627 116.494C32.6787 117.244 33.2239 117.967 33.7937 118.604C34.074 118.918 34.3388 119.232 34.6037 119.546L35.3799 120.381C35.8665 120.921 36.3378 121.377 36.7443 121.785L37.3141 122.353L37.81 122.812L38.4968 123.44L38.6786 123.6C38.6988 123.617 38.7205 123.633 38.7432 123.647Z" fill="#263238"/>
<path d="M23.2663 85.6342C23.0014 85.1066 22.6041 84.5477 22.0343 84.4943C21.7642 84.4972 21.5015 84.5841 21.2813 84.7435C21.0611 84.9029 20.8939 85.1271 20.8023 85.3861C20.6322 85.9097 20.5703 86.4635 20.6205 87.0126C20.3709 85.7912 19.6806 84.7099 18.6863 83.9825C18.3567 83.7439 17.8917 83.5523 17.5683 83.8004C17.4666 83.9025 17.3868 84.025 17.3338 84.1601C17.2808 84.2952 17.2557 84.44 17.2603 84.5854C17.1515 85.7378 17.1981 86.8999 17.3989 88.0394C16.973 87.6737 16.4686 87.4155 15.9266 87.2858C15.3815 87.2042 14.7377 87.4648 14.5776 88.0049C14.5129 88.3088 14.5321 88.6251 14.633 88.9186C15.1403 90.8448 16.1026 92.615 17.4358 94.0745C18.1411 94.8469 18.9758 95.5471 20.0015 95.7575C21.0271 95.9679 22.3145 95.971 22.7581 95.0196L22.5917 95.2614C23.5401 93.8656 24.1031 92.2356 24.2218 90.5419C24.3405 88.8483 24.0104 87.1532 23.2663 85.6342Z" fill="#697865"/>
<path d="M22.1208 95.6193C22.1073 95.5913 22.097 95.5618 22.09 95.5314C22.0684 95.4623 22.0438 95.3775 22.0099 95.2739C21.976 95.1703 21.9391 95.0227 21.8867 94.8657C21.8343 94.7087 21.7789 94.5297 21.705 94.3319C21.6311 94.1341 21.5571 93.9237 21.4617 93.7039C21.3662 93.4841 21.2615 93.2361 21.1537 92.9849C20.8999 92.4454 20.6161 91.9213 20.3036 91.4149C19.9846 90.9118 19.638 90.4275 19.2656 89.9642C19.0901 89.7538 18.9237 89.5528 18.7574 89.3739C18.5911 89.1949 18.434 89.0316 18.2893 88.8872C18.1445 88.7427 18.0028 88.614 17.8858 88.5009C17.7687 88.3879 17.6579 88.2937 17.5778 88.2183L17.3745 88.0425C17.3314 88.0017 17.3067 87.9797 17.3098 87.9766C17.3365 87.9927 17.3623 88.0106 17.3868 88.0299L17.5963 88.1932C17.6887 88.2644 17.7913 88.3555 17.9043 88.4664C18.0275 88.5763 18.1722 88.6956 18.317 88.8432C18.4617 88.9908 18.625 89.1572 18.7944 89.3299C18.9638 89.5026 19.1332 89.7067 19.3118 89.9139C19.6913 90.3787 20.043 90.8663 20.3652 91.374C20.6779 91.8803 20.9618 92.4045 21.2153 92.944C21.3261 93.1984 21.4339 93.437 21.5233 93.6694C21.6126 93.9017 21.6927 94.1121 21.7604 94.2974C21.8282 94.4826 21.8836 94.6773 21.9298 94.8375C21.976 94.9976 22.0161 95.1358 22.0438 95.2488C22.0715 95.3618 22.09 95.4435 22.1085 95.5126C22.1172 95.5474 22.1214 95.5833 22.1208 95.6193Z" fill="#263238"/>
<path d="M20.5097 91.7509C20.4929 91.6874 20.4846 91.6219 20.485 91.5562C20.485 91.4306 20.4635 91.2422 20.4511 91.0256C20.4296 90.5765 20.4142 89.9517 20.4296 89.264C20.445 88.5764 20.4789 87.9546 20.5189 87.5056C20.5374 87.2827 20.5559 87.1006 20.5743 86.975C20.5779 86.9091 20.5882 86.8439 20.6051 86.7803C20.611 86.8461 20.611 86.9123 20.6051 86.9781C20.6051 87.1194 20.5867 87.2921 20.5743 87.5088C20.5497 87.9578 20.522 88.5795 20.5066 89.2672C20.4912 89.9548 20.5066 90.5734 20.5066 91.0224C20.5066 91.2359 20.5066 91.4149 20.5066 91.5562C20.5142 91.6208 20.5152 91.6861 20.5097 91.7509Z" fill="#263238"/>
<g opacity="0.3">
<path d="M17.3774 88.03C17.3774 88.03 19.9708 89.0631 20.4143 91.5249C20.4143 91.5249 19.0591 89.2389 17.3774 88.03Z" fill="black"/>
</g>
<path d="M12.2495 105.9C11.8306 105.705 11.3255 105.561 10.9343 105.815C10.7684 105.95 10.6473 106.134 10.5873 106.342C10.5272 106.55 10.5312 106.771 10.5986 106.977C10.7445 107.385 10.9721 107.759 11.2669 108.073C10.5296 107.442 9.58584 107.118 8.6243 107.165C8.3163 107.165 7.92822 107.294 7.84814 107.608C7.83556 107.72 7.84516 107.833 7.87638 107.941C7.9076 108.049 7.95979 108.149 8.02986 108.236C8.5113 108.999 9.09378 109.692 9.76082 110.293C9.32423 110.28 8.89077 110.371 8.49494 110.56C8.29903 110.661 8.14353 110.828 8.05483 111.033C7.96614 111.238 7.94969 111.468 8.0083 111.684C8.11443 111.904 8.27867 112.09 8.48262 112.221C9.71621 113.155 11.1554 113.767 12.6745 114.004C13.474 114.177 14.3064 114.095 15.0584 113.769C15.7853 113.395 16.5984 112.748 16.4044 111.941V112.174C16.3253 110.845 15.8982 109.562 15.1674 108.458C14.4366 107.355 13.429 106.471 12.2495 105.9Z" fill="#697865"/>
<path d="M16.3241 112.626L16.2625 112.585L16.09 112.466C16.0161 112.412 15.9268 112.346 15.819 112.277C15.7112 112.208 15.5911 112.12 15.4525 112.038C15.3139 111.957 15.163 111.86 14.9966 111.765C14.8303 111.671 14.6517 111.577 14.4638 111.48C14.0479 111.274 13.6212 111.091 13.1856 110.933C12.7488 110.781 12.3035 110.655 11.852 110.556C11.6425 110.512 11.4454 110.472 11.2575 110.447C11.0696 110.421 10.8941 110.393 10.7339 110.377C10.5738 110.362 10.4259 110.349 10.3027 110.34C10.1795 110.33 10.0625 110.34 9.97315 110.321H9.76679H9.69287H9.97315C10.0829 110.315 10.1929 110.315 10.3027 110.321C10.4321 110.321 10.5768 110.321 10.7401 110.349C10.9033 110.377 11.0758 110.381 11.2637 110.409C11.4516 110.437 11.6548 110.475 11.8797 110.512C12.3342 110.611 12.7827 110.737 13.2226 110.889C13.65 111.044 14.0686 111.223 14.4761 111.426C14.6671 111.527 14.8457 111.621 15.012 111.721C15.1784 111.822 15.32 111.913 15.4648 112.001C15.6096 112.089 15.7204 112.174 15.8252 112.249C15.9179 112.31 16.0073 112.376 16.0931 112.447L16.2564 112.575L16.3241 112.626Z" fill="#263238"/>
<path d="M13.4719 111.04C13.4324 111.008 13.3963 110.972 13.3641 110.933C13.2963 110.861 13.2039 110.754 13.09 110.619C12.859 110.352 12.554 109.975 12.2337 109.545C11.9134 109.115 11.6393 108.71 11.4483 108.415C11.3528 108.267 11.2789 108.145 11.2266 108.06C11.1742 107.975 11.1496 107.928 11.1557 107.925C11.1912 107.962 11.2222 108.003 11.2481 108.048L11.4853 108.39C11.6855 108.679 11.9627 109.077 12.283 109.504C12.6033 109.932 12.899 110.315 13.1238 110.588C13.2255 110.72 13.3117 110.826 13.3826 110.902C13.4182 110.944 13.4482 110.99 13.4719 111.04Z" fill="#263238"/>
<g opacity="0.3">
<path d="M9.76074 110.302C9.76074 110.302 11.8551 109.649 13.3058 110.946C13.3058 110.946 11.3777 110.214 9.76074 110.302Z" fill="black"/>
</g>
<path d="M121.09 18.6233H33.2119V139.959H121.09V18.6233Z" fill="#455A64"/>
<path d="M121.093 139.959C121.093 139.306 121.063 90.4602 121.019 18.6233L121.093 18.6987H33.224L33.3041 18.617C33.3041 63.8927 33.3041 105.834 33.3041 139.953L33.2363 139.887L121.118 139.953L33.2363 140.019H33.1716V139.953C33.1716 105.834 33.1716 63.8927 33.1562 18.617V18.5354H33.2486H121.118H121.189V18.6108C121.121 90.4602 121.093 139.306 121.093 139.959Z" fill="#263238"/>
<path d="M108.567 32.0469H44.7925V126.093H108.567V32.0469Z" fill="white"/>
<path d="M108.57 126.093C108.57 125.431 108.539 87.5338 108.496 32.0469L108.57 32.1223H44.814L44.894 32.0406C44.894 67.3719 44.894 100.009 44.8786 126.087L44.814 126.021L108.592 126.087L44.814 126.153H44.7493V126.087C44.7493 100.009 44.7493 67.3688 44.7339 32.0406V31.959H44.8232H108.579H108.65V32.0343C108.598 87.5338 108.57 125.431 108.57 126.093Z" fill="#263238"/>
<path d="M45.5595 125.879C45.5933 125.911 42.8552 129.085 39.4457 132.973C36.0361 136.86 33.2456 139.991 33.2117 139.959C33.1779 139.928 35.916 136.753 39.3255 132.866C42.7351 128.979 45.5256 125.851 45.5595 125.879Z" fill="#263238"/>
<path d="M121.093 19.2041C121.124 19.2355 118.386 22.2813 114.976 26.0085C111.567 29.7357 108.779 32.7344 108.745 32.703C108.712 32.6716 111.45 29.6258 114.859 25.8986C118.269 22.1714 121.059 19.1727 121.093 19.2041Z" fill="#263238"/>
<path d="M33.2239 18.6233C33.2578 18.5919 36.0452 21.7193 39.4517 25.6066C42.8582 29.494 45.5932 32.6716 45.5593 32.703C45.5255 32.7344 42.7381 29.607 39.3316 25.7165C35.9251 21.8261 33.1901 18.6547 33.2239 18.6233Z" fill="#263238"/>
<path d="M108.746 125.879C108.78 125.851 111.57 128.979 114.98 132.866C118.389 136.753 121.124 139.928 121.093 139.959C121.063 139.991 118.269 136.863 114.86 132.973C111.45 129.082 108.724 125.914 108.746 125.879Z" fill="#263238"/>
<path d="M105.555 34.876H47.8047V123.707H105.555V34.876Z" fill="#E0E0E0"/>
<path d="M96.4039 86.8493C96.3912 86.6584 96.334 86.4734 96.237 86.3095C96.1401 86.1457 96.0062 86.0078 95.8464 85.9073C90.9184 82.5789 87.1947 75.1999 86.822 68.9513C86.822 68.5965 86.8005 68.2354 86.7882 67.8712C86.5017 58.9379 85.2112 48.0892 84.0531 45.2192C81.9156 39.8812 74.6714 39.3851 74.6714 39.3851C65.0526 38.6817 63.334 46.2177 62.3514 53.0786C61.7354 57.3459 59.4224 72.5906 59.4224 72.5906L61.1903 73.2908C62.2061 76.4056 63.8872 79.2518 66.1125 81.6242C68.3377 83.9965 71.0517 85.8358 74.0585 87.0095C75.8295 87.6909 77.3326 87.9515 78.0348 87.3769C80.8454 90.2934 84.3234 92.4516 88.1557 93.6569C89.6987 94.1888 91.3286 94.4095 92.9543 94.3068C94.0046 94.2064 95.1103 93.8547 95.7263 92.9881C95.998 92.6129 96.1595 92.1668 96.1919 91.7017C96.2243 91.2366 96.1263 90.7716 95.9093 90.3612C95.6923 89.9507 95.3653 89.6116 94.9664 89.3834C94.5676 89.1552 94.1133 89.0474 93.6566 89.0725C94.0446 87.851 96.444 88.2058 96.4039 86.8493Z" fill="#263238"/>
<path d="M75.9496 42.1575L75.3336 41.5735L68.8318 44.2456C68.3779 44.2706 67.9497 44.4684 67.632 44.7998C67.3143 45.1313 67.1302 45.5722 67.1162 46.0354L67.1747 67.6355C67.1747 69.0987 67.4519 70.3673 68.3205 71.5354L69.2445 72.7662C71.3266 75.5671 75.6078 75.3379 77.2525 72.2481C77.3516 72.0736 77.4282 71.8868 77.4804 71.6924C77.522 71.5332 77.5549 71.3717 77.579 71.2088C77.7699 69.4692 77.7822 67.962 77.7822 67.962C77.8993 66.0561 77.9362 65.2711 77.9362 65.2899C77.9362 65.3087 81.9187 64.822 82.9967 59.6128C83.5326 57.0191 83.431 53.4552 83.2801 49.9447C83.0829 45.0871 79.7719 42.1544 75.9496 42.1575Z" fill="#FFBE9D"/>
<path d="M74.6162 52.8555C74.609 53.0307 74.5353 53.1962 74.4105 53.3169C74.2858 53.4376 74.1199 53.5041 73.9479 53.5024C73.8646 53.5049 73.7816 53.4906 73.7036 53.4604C73.6257 53.4302 73.5544 53.3846 73.4937 53.3263C73.4331 53.268 73.3843 53.198 73.3502 53.1205C73.3161 53.043 73.2973 52.9593 73.2949 52.8744C73.3021 52.6986 73.3763 52.5327 73.5017 52.4119C73.6271 52.291 73.7938 52.2249 73.9664 52.2275C74.0501 52.2228 74.1338 52.2356 74.2125 52.265C74.2912 52.2945 74.3632 52.34 74.424 52.3988C74.4849 52.4576 74.5333 52.5284 74.5663 52.6069C74.5994 52.6855 74.6164 52.7701 74.6162 52.8555Z" fill="#263238"/>
<path d="M81.3395 53.0378C81.3331 53.2138 81.2591 53.3802 81.1336 53.5012C81.008 53.6222 80.8408 53.6881 80.6681 53.6846C80.5848 53.6872 80.5018 53.6729 80.4238 53.6427C80.3459 53.6125 80.2746 53.5669 80.214 53.5086C80.1533 53.4503 80.1045 53.3803 80.0704 53.3028C80.0363 53.2252 80.0175 53.1416 80.0151 53.0566C80.0223 52.8809 80.0965 52.715 80.2219 52.5941C80.3473 52.4733 80.5141 52.4072 80.6866 52.4098C80.77 52.4069 80.8532 52.4208 80.9313 52.4509C81.0094 52.481 81.0809 52.5265 81.1416 52.5849C81.2023 52.6433 81.2511 52.7134 81.2851 52.7911C81.319 52.8689 81.3375 52.9527 81.3395 53.0378Z" fill="#263238"/>
<path d="M82.612 51.3327C82.5258 51.4175 82.0453 51.0187 81.3338 50.9779C80.6224 50.9371 80.0834 51.2919 80.0094 51.1883C79.9355 51.0847 80.0649 50.9905 80.3174 50.8335C80.6354 50.6322 81.0064 50.5357 81.38 50.5571C81.7499 50.5759 82.1046 50.7133 82.3934 50.9496C82.5874 51.1318 82.6552 51.295 82.612 51.3327Z" fill="#263238"/>
<path d="M75.3952 51.408C75.2998 51.4802 74.8624 51.0312 74.1632 50.9213C73.4641 50.8114 72.8912 51.0908 72.8265 50.9903C72.7957 50.9464 72.9004 50.8019 73.153 50.6763C73.4893 50.5095 73.8679 50.4524 74.2372 50.5131C74.6038 50.5698 74.9435 50.7435 75.2074 51.0092C75.3922 51.207 75.4414 51.3734 75.3952 51.408Z" fill="#263238"/>
<path d="M77.8807 56.6865C78.2609 56.5856 78.6521 56.5339 79.0449 56.5326C79.2267 56.5326 79.4022 56.495 79.4392 56.3694C79.4638 56.1785 79.4305 55.9845 79.3437 55.8136L78.8755 54.3786C78.2287 52.3313 77.7698 50.6546 77.8499 50.6294C77.93 50.6043 78.5213 52.2403 79.1712 54.2844C79.3252 54.791 79.4731 55.2724 79.6147 55.7288C79.7172 55.9583 79.7379 56.217 79.6733 56.4604C79.644 56.5237 79.6011 56.5795 79.5478 56.6235C79.4945 56.6675 79.4321 56.6987 79.3653 56.7148C79.2643 56.7381 79.1607 56.7476 79.0573 56.743C78.6643 56.7747 78.269 56.7558 77.8807 56.6865Z" fill="#263238"/>
<path d="M77.9486 65.2899C75.52 65.2033 73.1627 64.4315 71.1387 63.0605C71.1387 63.0605 72.6879 66.7877 77.8777 66.5679L77.9486 65.2899Z" fill="#EB996E"/>
<path d="M77.4931 58.4041C77.3664 58.2236 77.1967 58.0791 77 57.984C76.8033 57.889 76.5861 57.8466 76.3689 57.8609C76.2108 57.8673 76.0557 57.9062 75.9128 57.9752C75.7699 58.0443 75.6422 58.1421 75.5373 58.2628C75.4372 58.3791 75.3742 58.5237 75.3566 58.6773C75.339 58.831 75.3676 58.9864 75.4387 59.1231C75.5471 59.2595 75.6929 59.3599 75.8575 59.4113C76.0221 59.4628 76.198 59.463 76.3627 59.412C76.7004 59.3057 77.0143 59.1329 77.2867 58.9033C77.3712 58.8506 77.4444 58.7812 77.5023 58.6992C77.5287 58.6593 77.5427 58.6123 77.5427 58.5642C77.5427 58.5161 77.5287 58.4691 77.5023 58.4292" fill="#EB996E"/>
<path d="M75.7682 57.079C75.8853 57.079 75.8483 57.8671 76.4797 58.4575C77.1111 59.0478 77.9396 59.007 77.9396 59.1169C77.9396 59.1671 77.7487 59.2613 77.4006 59.2519C76.9441 59.238 76.5073 59.0588 76.1686 58.7463C75.8473 58.4484 75.6509 58.0357 75.6204 57.594C75.6142 57.2643 75.7097 57.0727 75.7682 57.079Z" fill="#263238"/>
<path d="M76.0762 48.5821C75.9776 48.7643 75.2877 48.5633 74.4469 48.535C73.606 48.5068 72.9068 48.6324 72.8206 48.4408C72.7836 48.3498 72.9284 48.1834 73.2272 48.0389C73.6212 47.8633 74.0493 47.7817 74.479 47.8002C74.9086 47.8187 75.3285 47.9368 75.7066 48.1457C75.9899 48.3152 76.1193 48.4942 76.0762 48.5821Z" fill="#263238"/>
<path d="M82.5102 48.2177C82.3777 48.3747 81.8942 48.18 81.3059 48.1424C80.7176 48.1047 80.2125 48.1957 80.1078 48.0168C80.0616 47.932 80.1478 47.7718 80.3726 47.6274C80.6749 47.4558 81.0203 47.3794 81.3651 47.4079C81.71 47.4364 82.0388 47.5685 82.31 47.7875C82.5102 47.9665 82.5687 48.1392 82.5102 48.2177Z" fill="#263238"/>
<path d="M67.2609 55.2641C67.2609 55.2641 70.9045 56.4196 72.965 47.2539C73.6704 44.1139 76.5194 41.5831 76.5194 41.5831L75.3644 41.2283C75.3644 41.2283 68.1818 43.2913 68.0617 43.3823C67.9416 43.4734 66.2476 47.1723 66.2476 47.1723L67.2609 55.2641Z" fill="#263238"/>
<path d="M68.1604 54.9123C68.1789 54.5229 67.7785 53.5778 67.4027 53.4961C66.3987 53.2857 64.5722 53.2732 64.4244 55.8919C64.2273 59.4747 67.7939 58.9409 67.8124 58.8373C67.8309 58.7336 68.0957 56.2625 68.1604 54.9123Z" fill="#FFBE9D"/>
<path d="M66.8084 57.418C66.8084 57.418 66.7437 57.4589 66.639 57.4997C66.5652 57.528 66.4867 57.5413 66.408 57.5386C66.3292 57.5359 66.2517 57.5173 66.18 57.484C65.8166 57.3238 65.5363 56.7053 65.564 56.0584C65.5722 55.7515 65.6469 55.4501 65.7827 55.1761C65.8216 55.066 65.8863 54.9673 65.9711 54.8886C66.0559 54.8098 66.1583 54.7532 66.2694 54.7239C66.3411 54.7075 66.4163 54.7178 66.4812 54.7529C66.5462 54.788 66.5967 54.8457 66.6236 54.9155C66.6636 55.0191 66.639 55.0882 66.6544 55.0944C66.6698 55.1007 66.7344 55.0411 66.716 54.8903C66.7 54.8009 66.6556 54.7192 66.5897 54.658C66.4963 54.5778 66.3757 54.5384 66.254 54.5481C66.1082 54.5684 65.97 54.6267 65.8529 54.7175C65.7358 54.8083 65.6437 54.9284 65.5856 55.0662C65.4184 55.3675 65.3264 55.7061 65.3176 56.0521C65.2992 56.7743 65.6256 57.4714 66.1246 57.6504C66.2172 57.6833 66.3159 57.6948 66.4134 57.6839C66.5109 57.6731 66.6048 57.6402 66.6882 57.5876C66.796 57.506 66.8361 57.4243 66.8084 57.418Z" fill="#EB996E"/>
<path d="M69.7314 53.5025C69.9088 53.4754 70.0846 53.4387 70.2581 53.3926C70.7251 53.248 71.1531 52.9955 71.5086 52.6547C71.7555 52.421 71.9746 52.1585 72.1616 51.8728C72.3729 51.5437 72.5504 51.1933 72.6913 50.8272C72.9949 49.9758 73.2479 49.1065 73.449 48.2241C73.6751 47.3442 73.9444 46.4765 74.256 45.6242C74.5148 44.9269 74.8236 44.25 75.18 43.5989C75.4181 43.1612 75.6867 42.7414 75.9838 42.3429C76.0855 42.1985 76.1779 42.098 76.2364 42.0289C76.2639 41.9915 76.2949 41.9568 76.3288 41.9253C76.306 41.9667 76.2792 42.0056 76.2487 42.0415C76.1964 42.12 76.1101 42.2236 76.0116 42.3555C75.729 42.7583 75.4698 43.1777 75.2354 43.6115C74.8924 44.2633 74.595 44.9391 74.3453 45.6336C74.0558 46.4155 73.7909 47.2947 73.5445 48.2273C73.3448 49.1142 73.0886 49.9868 72.7776 50.8398C72.6315 51.2094 72.4488 51.5629 72.2324 51.8948C72.0399 52.1827 71.8145 52.4462 71.561 52.6798C71.1947 53.0235 70.7534 53.2732 70.2735 53.4083C70.098 53.4652 69.9156 53.4969 69.7314 53.5025Z" fill="#263238"/>
<path d="M64.9325 68.7817C64.9123 68.725 64.8989 68.6659 64.8924 68.6059L64.8062 68.0972C64.7292 67.6388 64.6245 66.9857 64.4982 66.1536H64.5844C64.5998 66.2854 64.6214 66.4299 64.6399 66.5775C64.6614 66.6246 64.6891 66.6811 64.7138 66.7376L64.6245 66.769C63.7526 63.6826 63.3018 60.4886 63.2847 57.2768C63.2847 55.9674 63.2847 54.5764 63.6327 53.1948C63.7718 52.6266 63.9863 52.0804 64.2703 51.5714C64.5495 51.0803 64.8744 50.6176 65.2405 50.1898C65.955 49.3483 66.725 48.6198 67.4273 47.907L71.2003 44.139L73.7505 41.5988L74.4497 40.9142L74.6345 40.7384L74.7022 40.6819C74.7022 40.6819 74.6868 40.707 74.6468 40.751L74.4743 40.9362L73.7967 41.6427C73.1807 42.2707 72.3337 43.1374 71.2803 44.2207L67.532 48.0263C66.8328 48.7485 66.0628 49.477 65.3606 50.3091C64.6116 51.1454 64.0717 52.1536 63.7867 53.2482C63.451 54.6078 63.4541 55.9925 63.4387 57.2956C63.4521 60.4951 63.8819 63.6786 64.7169 66.7627L64.6275 66.7973L64.5567 66.634C64.5382 66.4833 64.5197 66.3388 64.5043 66.2101H64.5875C64.7076 67.0422 64.8 67.6984 64.8647 68.16C64.8924 68.3767 64.914 68.5462 64.9325 68.6718C64.9338 68.7085 64.9338 68.7451 64.9325 68.7817Z" fill="#455A64"/>
<path d="M62.167 52.2245C62.1802 52.1715 62.201 52.1207 62.2286 52.0738C62.284 51.9608 62.3518 51.8226 62.4319 51.653C62.6105 51.2888 62.8908 50.7738 63.2604 50.149C63.63 49.5241 64.0951 48.7956 64.6495 48.0138C65.2039 47.2319 65.8599 46.4061 66.5868 45.574C67.3137 44.7419 68.0621 44.004 68.7582 43.354C69.4543 42.704 70.1196 42.1545 70.6924 41.7181C71.2653 41.2816 71.7366 40.9394 72.0754 40.7196L72.4634 40.4652C72.5075 40.4353 72.5538 40.409 72.602 40.3867C72.602 40.3867 72.5651 40.4275 72.4788 40.4935L72.1092 40.7698C71.7828 41.0053 71.3208 41.3601 70.7633 41.8091C70.2058 42.2582 69.5528 42.8171 68.8598 43.4639C68.1668 44.1108 67.4338 44.8612 66.7038 45.6839C65.9739 46.5066 65.3302 47.3355 64.7665 48.1017C64.2029 48.8679 63.7316 49.5932 63.3528 50.2086C62.974 50.8241 62.6783 51.3296 62.4842 51.6844L62.2532 52.0895C62.229 52.1374 62.2002 52.1826 62.167 52.2245Z" fill="#455A64"/>
<path d="M66.1895 67.4253C66.3127 67.2431 67.1319 65.6323 67.1319 65.6323L71.7643 69.708C71.7643 69.708 76.3165 73.5922 76.3165 73.341L77.0434 69.6044L77.9366 66.2007L79.6059 68.7755C79.6059 68.7755 84.8419 79.2631 84.8419 79.3887C84.8419 79.5143 88.0913 90.3787 88.0913 90.3787L87.3922 94.7747L87.309 110.365L77.5239 109.947L75.5927 106.807L72.2879 86.8116L66.1895 67.4253Z" fill="white"/>
<path d="M77.1543 107.011H87.9497L91.1313 123.732H69.5005L77.1543 107.011Z" fill="#263238"/>
<path d="M64.4184 70.0221L58.1167 72.4336L63.9379 98.863C63.9379 98.863 63.596 106.003 62.3579 109.643C61.1197 113.282 58.2122 123.732 58.2122 123.732H77.5731C77.5731 123.732 78.3954 109.388 78.0689 104.264C77.7425 99.1393 77.878 89.4807 75.953 84.441C74.028 79.4013 66.3126 67.0171 66.3126 67.0171L64.4184 70.0221Z" fill="#697865"/>
<path d="M78.2319 66.502L81.0871 68.9072L88.9288 70.0973C88.9288 70.0973 92.6402 83.8034 91.9533 89.1916C91.2665 94.5798 92.2244 103.909 92.2244 103.909L95.6617 123.732H88.1157C88.1157 123.732 85.9597 100.549 85.8334 100.828C85.7071 101.108 85.2913 89.4899 84.4689 85.7219C83.6466 81.9539 79.4947 70.1098 79.4947 70.1098L78.2319 66.502Z" fill="#697865"/>
<path d="M98.8187 100.618C98.8187 100.618 101.979 99.1487 101.979 96.2787C101.979 93.4088 100.054 89.3487 99.6442 87.8007C99.2345 86.2527 89.8929 69.8807 88.9319 70.0911L87.971 70.3015L92.9144 92.4228L86.1846 94.1027L89.0551 102.524L98.8187 100.618Z" fill="#697865"/>
<path d="M89.1846 93.4685L90.5706 88.8966L90.8077 85.7817L94.0695 83.5837C94.0695 83.5837 94.9442 83.6874 94.6855 84.3782C94.4267 85.069 93.0931 86.3124 93.0931 86.3124L92.3139 88.5324L93.5797 86.2779L95.4277 85.3359L97.2603 85.474C97.2603 85.474 97.5991 86.303 96.7521 86.3375H95.8281L94.436 87.4805L93.5674 89.622L94.8764 87.5496L96.8107 86.8493L98.0427 87.1633C98.0427 87.1633 98.3815 87.716 97.7716 87.7913C97.1618 87.8667 96.7552 87.8604 96.7552 87.8604L95.6372 88.523L94.6516 90.6268L96.3825 89.1729L98.6186 88.8998C98.6186 88.8998 98.9944 89.4493 98.4153 89.6565C97.8257 89.9033 97.249 90.181 96.6875 90.4886L95.4308 92.0429L89.1846 93.4685Z" fill="#FFBE9D"/>
<path d="M78.1459 107.011C78.1305 106.978 78.1191 106.943 78.1121 106.908C78.0936 106.832 78.0659 106.729 78.0351 106.594C77.9642 106.314 77.8687 105.918 77.7271 105.413C77.4776 104.374 77.1111 102.901 76.6737 101.055C76.2363 99.2083 75.6912 97.0292 75.0813 94.6051C74.7733 93.393 74.4469 92.1213 74.0896 90.8057C73.914 90.1494 73.7292 89.4837 73.529 88.8118C73.4305 88.4758 73.3196 88.1398 73.221 87.8007C73.1053 87.4654 72.9706 87.1372 72.8175 86.8179C71.6625 84.4534 70.4829 82.2272 69.4295 80.1736C68.3762 78.1201 67.3721 76.2549 66.522 74.641L66.5005 74.597L66.5343 74.5656C66.7499 74.3678 66.9625 74.1825 67.175 74.0067C67.2796 73.917 67.3897 73.8341 67.5045 73.7586L67.5538 73.7303H67.5846C67.5846 73.7303 67.5846 73.7303 67.5661 73.7523C67.5611 73.7661 67.5614 73.7813 67.5672 73.7948C67.5729 73.8083 67.5836 73.819 67.5969 73.8245H67.5107H67.3197C66.8085 73.8245 66.328 73.8245 65.8845 73.8245H65.8506V73.7931C65.4009 72.6094 65.0467 71.6705 64.8003 71.0174L64.5262 70.2826L64.4584 70.0911L64.4399 70.0251C64.4399 70.0251 64.4399 70.044 64.4707 70.0848L64.5508 70.2732L64.8588 70.9985C65.1145 71.6485 65.4748 72.5685 65.9522 73.7586L65.906 73.7272C66.3526 73.7272 66.83 73.7021 67.3444 73.7021H67.5384C67.5753 73.6993 67.6124 73.6993 67.6493 73.7021H67.6678C67.6757 73.7101 67.6813 73.7202 67.684 73.7313C67.6867 73.7424 67.6864 73.754 67.6832 73.7649C67.6647 73.7994 67.6678 73.7869 67.6616 73.7931H67.6339H67.6185C67.6055 73.7993 67.5932 73.8067 67.5815 73.8151C67.4734 73.8882 67.3705 73.969 67.2735 74.0569C67.0672 74.2327 66.8547 74.418 66.6575 74.6158V74.5405C67.5107 76.1513 68.5055 78.0164 69.5897 80.0606C70.6739 82.1047 71.8443 84.3341 73.0023 86.7048C73.1586 87.03 73.2954 87.3645 73.412 87.7065C73.5198 88.0487 73.6307 88.3847 73.72 88.7238C73.9253 89.4 74.1122 90.0667 74.2805 90.724C74.6347 92.0397 74.9551 93.3114 75.26 94.5266C75.876 96.9538 76.3873 99.1455 76.8215 100.989L77.8256 105.356C77.9365 105.865 78.0258 106.264 78.0874 106.546C78.1121 106.675 78.1336 106.779 78.149 106.86C78.1562 106.911 78.1552 106.961 78.1459 107.011Z" fill="#263238"/>
<path d="M88.116 91.465C88.1079 91.3836 88.1079 91.3015 88.116 91.2201C88.116 91.0411 88.1375 90.8087 88.156 90.5167C88.156 90.3628 88.1745 90.2027 88.1868 90.008V89.4051C88.1868 88.9687 88.1868 88.4631 88.156 87.9325C87.9957 85.0901 87.4484 82.2844 86.5298 79.5958C86.1555 78.4719 85.7153 77.3719 85.2115 76.3019C84.7624 75.2641 84.2533 74.2544 83.6869 73.2781C83.1849 72.3863 82.7229 71.6108 82.3348 70.9702L81.4108 69.4724C81.3092 69.3091 81.2291 69.1584 81.1644 69.0736C81.1353 69.0275 81.1095 68.9792 81.0874 68.9292C81.1254 68.9686 81.1594 69.0117 81.189 69.0579L81.4539 69.4442C81.6818 69.7833 82.0083 70.2825 82.4087 70.9168C82.8091 71.5511 83.2834 72.3235 83.7947 73.2122C84.3697 74.1884 84.884 75.2004 85.3347 76.2423C85.8484 77.3216 86.2939 78.4333 86.6684 79.5707C87.5939 82.272 88.1293 85.0961 88.2576 87.9545C88.2915 88.504 88.273 89.0001 88.2576 89.4334C88.2576 89.6501 88.2576 89.8542 88.2422 90.0394C88.2268 90.2247 88.2114 90.3942 88.1991 90.5481C88.1714 90.8401 88.1468 91.0756 88.1314 91.2515C88.1298 91.3228 88.1246 91.3941 88.116 91.465Z" fill="#263238"/>
<path d="M99.0529 100.496C98.99 100.52 98.925 100.538 98.8588 100.549L98.2952 100.681L96.1669 101.155L88.7256 102.766L88.6609 102.782L88.6394 102.716C88.0234 100.832 87.3273 98.7718 86.6097 96.6083L85.8643 94.357L85.8335 94.2722L85.9197 94.2502L91.5161 92.9094L93.9277 92.3348L95.015 92.0773C95.349 91.9832 95.6917 91.9243 96.0375 91.9015C96.6321 91.8805 97.2231 92.0032 97.7623 92.2594C98.1668 92.4462 98.5407 92.695 98.8711 92.9973C99.0779 93.1863 99.2648 93.3968 99.4286 93.6253C99.4748 93.7007 99.5149 93.7604 99.5457 93.8075C99.5765 93.8546 99.5857 93.8734 99.5826 93.8734C99.3627 93.5689 99.1107 93.2899 98.8311 93.0413C98.5 92.7513 98.1284 92.5132 97.7285 92.3348C97.1965 92.1009 96.6193 91.9935 96.0406 92.0208C95.7035 92.0466 95.37 92.1087 95.0458 92.2061L93.9585 92.473L91.55 93.0633C89.8467 93.4746 87.9587 93.9331 85.9567 94.4229L86.0121 94.3161L86.7606 96.5675C87.4751 98.7341 88.1589 100.797 88.7811 102.681L88.6948 102.631L96.1484 101.08L98.2859 100.646L98.8527 100.536C98.9184 100.518 98.9853 100.505 99.0529 100.496Z" fill="#263238"/>
<path d="M62.6783 111.476L72.987 112.443L71.213 115.659L60.356 114.576L62.6783 111.476Z" fill="#697865"/>
<path d="M62.6779 111.47C62.6779 111.47 62.6779 111.495 62.6409 111.533L62.5269 111.696L62.0773 112.324L60.3956 114.61L60.3586 114.522L70.8399 115.552L71.2218 115.59L71.1448 115.63L72.9189 112.412L72.9774 112.528L65.6039 111.784L63.4479 111.561L62.8688 111.495C62.8003 111.491 62.7322 111.48 62.6655 111.464H62.8596L63.4294 111.504L65.5854 111.683L72.9959 112.365H73.1129L73.0544 112.472L71.2865 115.69L71.2587 115.734H71.2064L70.8245 115.696L60.3525 114.626H60.2539L60.3124 114.547L62.0495 112.28L62.5177 111.677C62.5671 111.605 62.6206 111.536 62.6779 111.47Z" fill="#263238"/>
<path d="M90.4287 112.556L92.0395 115.659L95.5015 114.937L93.6658 112.079L90.4287 112.556Z" fill="#697865"/>
<path d="M90.4287 112.556C90.4982 112.536 90.5693 112.521 90.6412 112.512L91.288 112.399C91.8486 112.302 92.6648 112.164 93.6565 112.01H93.6997L93.7243 112.048C94.2602 112.877 94.8947 113.853 95.5723 114.899L95.637 114.999L95.52 115.024L95.3475 115.059L92.055 115.734H92.0057L91.981 115.687C91.4944 114.745 91.1032 113.944 90.8353 113.398C90.7121 113.144 90.6104 112.933 90.5273 112.77C90.4902 112.701 90.4583 112.63 90.4318 112.556C90.4318 112.556 90.4841 112.641 90.5673 112.789L90.9153 113.417C91.2233 113.957 91.6238 114.71 92.1042 115.615L92.0272 115.58L95.3167 114.883L95.4891 114.849L95.4399 114.971C94.7684 113.922 94.1432 112.943 93.6134 112.107L93.6781 112.139C92.7202 112.274 91.9225 112.371 91.3496 112.453L90.6813 112.531C90.5211 112.55 90.4349 112.56 90.4287 112.556Z" fill="#263238"/>
<g opacity="0.3">
<path d="M61.6122 114.704L61.1841 115.659L71.8932 116.66L72.691 112.977L71.2126 115.659L61.6122 114.704Z" fill="black"/>
</g>
<g opacity="0.3">
<path d="M63.8208 100.537C63.8208 100.537 65.5025 104.129 67.6862 105.181C70.6646 106.613 78.1243 105.677 78.1243 105.677L78.1459 103.495L69.5003 103.997L63.8208 100.537Z" fill="black"/>
</g>
<path d="M58.5202 72.267C58.5202 72.267 55.4987 72.4774 55.4402 80.5284C55.3817 88.5793 64.6402 102.088 66.2202 103.419C67.8003 104.75 69.6082 105.642 74.3637 104.923C80.3328 104.022 84.4846 103.209 84.4846 103.209L83.6592 95.8579L72.9962 95.368L64.3507 77.2439C64.3507 77.2439 61.4678 71.9059 58.5202 72.267Z" fill="#697865"/>
<g opacity="0.3">
<path d="M86.24 98.9444C85.0696 98.4483 83.776 98.4389 82.4978 98.4358L77.4589 98.4201C76.3719 98.3704 75.283 98.4622 74.2188 98.6932C73.145 98.9312 72.2009 99.5782 71.5792 100.502L68.9458 102.722C72.3176 103.555 75.8562 103.344 79.1098 102.116C79.9022 101.759 80.7276 101.483 81.5738 101.293C83.8499 100.929 86.1538 102.276 88.4176 101.846C88.4206 100.552 87.4073 99.4437 86.24 98.9444Z" fill="black"/>
</g>
<path d="M69.1706 91.4651C70.1537 91.8692 71.1633 92.2029 72.1921 92.4636C73.4782 92.7361 74.7333 93.1433 75.9373 93.6788C76.7905 94.0219 77.6244 94.4129 78.4352 94.85L80.0245 100.502C80.0245 100.502 77.3849 102.194 74.4066 102.107C71.4282 102.019 68.7887 103.001 68.4067 102.735C68.0248 102.468 67.9817 101.984 68.4067 101.767C68.8318 101.551 70.6367 101.29 70.6367 101.29L72.1767 100.64C72.1767 100.64 66.8575 101.117 66.4325 100.901C66.0074 100.684 65.5824 100.38 65.7518 99.9023C65.7916 99.7706 65.8698 99.6543 65.976 99.5691C66.0822 99.4838 66.2113 99.4336 66.3462 99.425C66.3462 99.425 65.1974 99.4689 65.2405 98.9917C65.2739 98.7896 65.3478 98.5966 65.4575 98.4248C65.5672 98.2531 65.7103 98.1061 65.8781 97.9931C66.0505 97.9052 68.2805 96.9821 68.2805 96.9821L71.151 96.398L68.3944 96.285L65.9859 96.9695C65.9859 96.9695 65.0249 97.0825 65.2405 96.2567C65.4561 95.4309 68.4067 94.514 68.4067 94.514L72.152 94.2534C72.152 94.2534 69.2568 93.8201 68.9581 92.9095C68.8611 92.6718 68.8296 92.4117 68.8671 92.1571C68.9045 91.9026 69.0095 91.6633 69.1706 91.4651Z" fill="#FFBE9D"/>
<path d="M78.4355 94.85H78.6203L85.9292 94.5203L88.116 101.026L80.0248 100.489L78.4355 94.85Z" fill="#FFBE9D"/>
<path d="M72.0718 98.5488C71.7762 98.595 71.4777 98.6192 71.1786 98.621C70.6273 98.6524 69.8665 98.7184 69.0226 98.8471C68.1787 98.9759 67.4487 99.1423 66.9128 99.2773C66.6261 99.3654 66.3338 99.4336 66.0381 99.4814C66.3069 99.3446 66.59 99.2393 66.882 99.1674C68.2734 98.7519 69.7135 98.5301 71.1632 98.508C71.4666 98.4875 71.7713 98.5012 72.0718 98.5488Z" fill="#EB996E"/>
<path d="M66.5867 81.3416C66.4932 81.2316 66.4117 81.1115 66.3434 80.9837C66.1955 80.7513 65.9861 80.409 65.7274 79.9946C65.0274 78.9152 64.2717 77.8744 63.4636 76.8765C62.6656 75.8713 61.7619 74.9584 60.7686 74.1542C60.3437 73.8394 59.9027 73.548 59.4473 73.2812C59.5836 73.3223 59.7157 73.377 59.8415 73.4445C59.9933 73.5164 60.1404 73.5983 60.2819 73.6894C60.4737 73.8017 60.6589 73.9254 60.8363 74.06C61.859 74.8444 62.7828 75.7546 63.5868 76.7698C64.4008 77.7726 65.1478 78.8301 65.8229 79.9349C66.0816 80.3557 66.2787 80.7073 66.4111 80.9523C66.4816 81.0761 66.5404 81.2065 66.5867 81.3416Z" fill="#263238"/>
<path d="M71.3174 92.0648C71.2506 91.9506 71.1959 91.8296 71.1541 91.7037L70.7537 90.702C70.4211 89.8542 69.9498 88.6862 69.4047 87.4082C68.8595 86.1302 68.3421 84.9841 67.9602 84.1551C67.7815 83.7658 67.6306 83.4361 67.5136 83.1755C67.4496 83.0586 67.3999 82.9341 67.3657 82.8049C67.4439 82.9123 67.5119 83.0269 67.569 83.1472C67.6891 83.3701 67.8585 83.6967 68.0618 84.1049C68.4684 84.9213 69.0043 86.0611 69.5525 87.3422C70.1008 88.6234 70.5535 89.8009 70.8615 90.6581C71.0155 91.0883 71.1356 91.4399 71.2126 91.6817C71.2615 91.805 71.2966 91.9335 71.3174 92.0648Z" fill="#263238"/>
<path d="M76.2425 73.4038C76.2425 73.4038 76.1748 73.3819 76.0577 73.3222L75.5557 73.0522L73.7878 72.0568L73.8925 72.0034C73.8062 72.8135 73.6615 73.7587 73.5136 74.7666C73.4551 75.1779 73.3997 75.5767 73.3535 75.9598L73.335 76.1074L73.2272 76.0132C72.2786 75.1936 71.4593 74.4714 70.8741 73.9502L70.1965 73.3222C70.1106 73.2511 70.0322 73.1711 69.9624 73.0836C70.0599 73.1359 70.15 73.2014 70.2304 73.2782L70.9418 73.8591C71.5424 74.3584 72.3771 75.0649 73.3258 75.8782L73.1995 75.9284C73.2426 75.5453 73.295 75.1434 73.3566 74.7321C73.5013 73.721 73.6646 72.7758 73.7539 71.972V71.8652L73.8432 71.9186L75.5834 72.9674L76.0639 73.2814C76.1289 73.3132 76.1891 73.3544 76.2425 73.4038Z" fill="#263238"/>
<path d="M78.9438 68.7817C78.9634 68.9232 78.9686 69.0663 78.9592 69.2088C78.9592 69.5228 78.9592 69.9027 78.9376 70.3674C78.913 71.3503 78.8698 72.7036 78.8113 74.1982C78.8113 74.2359 78.8113 74.2705 78.8113 74.3081V74.5688L78.6727 74.349L76.9171 71.523H77.0249C76.8309 72.0662 76.6707 72.5215 76.5444 72.87C76.4939 73.0397 76.4268 73.2038 76.3442 73.3599C76.374 73.1854 76.4193 73.0141 76.4798 72.848L76.9079 71.4821L76.9479 71.3565L77.0188 71.4664L78.8082 74.2705L78.6604 74.3113C78.6604 74.2767 78.6604 74.2391 78.6604 74.2045C78.7189 72.7099 78.7805 71.3565 78.8329 70.3769C78.8637 69.9121 78.8852 69.5228 78.9068 69.2182C78.9048 69.0718 78.9172 68.9256 78.9438 68.7817Z" fill="#263238"/>
<path d="M88.6087 73.1274C88.5216 73.0939 88.4389 73.0496 88.3623 72.9956L88.3993 72.9704C88.5933 73.6738 89.1415 75.9691 89.7637 78.6947C90.1456 80.3557 90.4783 81.8598 90.7123 82.9525C90.8232 83.4769 90.9125 83.9133 90.9834 84.2462C91.0229 84.4037 91.0487 84.5644 91.0604 84.7266C91.0023 84.5756 90.956 84.4202 90.9218 84.2619C90.8386 83.929 90.7339 83.4989 90.6138 82.9776C90.3489 81.8943 89.9978 80.3934 89.6189 78.7323C89.0029 76.0068 88.4917 73.7083 88.3623 72.9799V72.9233L88.4054 72.9547C88.4793 73.0043 88.5475 73.0623 88.6087 73.1274Z" fill="#263238"/>
<path d="M78.9433 104.157C78.8822 104.182 78.8194 104.203 78.7554 104.22L78.2041 104.37C77.7236 104.499 77.0214 104.666 76.1497 104.829C75.1256 105.02 74.0908 105.147 73.0513 105.209C71.7747 105.296 70.4923 105.21 69.2382 104.951C68.5876 104.811 67.9573 104.586 67.3625 104.283C67.0805 104.135 66.8088 103.969 66.5494 103.783C66.3101 103.592 66.0856 103.382 65.8779 103.155C65.1836 102.36 64.5396 101.521 63.9499 100.643C63.4386 99.9022 63.0474 99.2899 62.7795 98.8629L62.4715 98.3699C62.4343 98.3133 62.4024 98.2534 62.376 98.1909C62.4225 98.2397 62.4637 98.2934 62.4992 98.3511C62.5823 98.4735 62.6901 98.6337 62.8257 98.8283C63.109 99.2428 63.5156 99.8457 64.0361 100.574C64.6356 101.434 65.2845 102.257 65.9796 103.039C66.1808 103.26 66.3991 103.463 66.6325 103.648C66.8851 103.83 67.1508 103.991 67.4272 104.132C68.0129 104.43 68.6341 104.65 69.2752 104.785C70.515 105.041 71.7823 105.132 73.0451 105.055C74.0772 104.998 75.1055 104.883 76.1251 104.71C76.9967 104.559 77.699 104.411 78.1825 104.304L78.74 104.182C78.8063 104.164 78.8747 104.156 78.9433 104.157Z" fill="#263238"/>
<g opacity="0.3">
<path d="M64.708 70.7725L65.5242 74.7257L66.1895 74.3018L65.8076 75.2438L74.1513 90.6706L73.0671 87.1476L66.5714 74.6158L67.6001 73.7774H65.8722L64.708 70.7725Z" fill="black"/>
</g>
<path d="M82.2359 86.4473C82.1404 86.5697 80.1631 92.1432 80.1631 92.1432L82.1127 90.8872C82.1127 90.8872 82.9258 93.3113 82.9074 93.2265C82.8889 93.1417 84.432 87.1789 84.432 87.1789L82.2359 86.4473Z" fill="#263238"/>
<path d="M85.855 87.2354C85.855 87.2354 87.318 92.8686 87.358 92.8058C87.3981 92.743 88.1527 90.9626 88.1527 90.9626L90.0407 92.184L88.051 86.4473L85.855 87.2354Z" fill="#263238"/>
<path d="M85.1033 87.8759C87.7314 87.8759 89.8619 85.7039 89.8619 83.0246C89.8619 80.3453 87.7314 78.1733 85.1033 78.1733C82.4752 78.1733 80.3447 80.3453 80.3447 83.0246C80.3447 85.7039 82.4752 87.8759 85.1033 87.8759Z" fill="#455A64"/>
<path d="M88.8272 82.8708C88.7991 82.5612 88.7507 82.2538 88.6824 81.9508C88.467 81.131 87.9889 80.4082 87.3242 79.8972C86.836 79.5219 86.2633 79.2775 85.6584 79.1865C85.0536 79.0954 84.436 79.1606 83.8623 79.376C83.5304 79.4946 83.2186 79.6652 82.9383 79.8815C82.6422 80.1022 82.3823 80.3693 82.1683 80.6728C81.7075 81.3094 81.4589 82.0797 81.4589 82.8708C81.4589 83.6619 81.7075 84.4322 82.1683 85.0688C82.3807 85.3738 82.6408 85.6411 82.9383 85.8601C83.2186 86.0773 83.5303 86.2489 83.8623 86.3688C84.4363 86.5832 85.0539 86.6475 85.6587 86.5559C86.2634 86.4643 86.836 86.2197 87.3242 85.8444C87.9904 85.3363 88.469 84.6138 88.6824 83.794C88.7505 83.4909 88.7988 83.1835 88.8272 82.874C88.836 82.9543 88.836 83.0354 88.8272 83.1157C88.828 83.2146 88.8208 83.3133 88.8056 83.4109C88.7928 83.5456 88.7692 83.679 88.7348 83.8097C88.5383 84.6562 88.062 85.408 87.3858 85.9386C86.8843 86.3339 86.293 86.5936 85.6668 86.6935C85.0405 86.7934 84.3997 86.7303 83.8037 86.5101C83.4587 86.385 83.1338 86.2082 82.8397 85.9857C82.5311 85.7574 82.2597 85.4808 82.0358 85.1662C81.5537 84.503 81.2935 83.6994 81.2935 82.874C81.2935 82.0485 81.5537 81.2449 82.0358 80.5818C82.2621 80.2632 82.5378 79.9842 82.852 79.7559C83.1446 79.531 83.4699 79.3541 83.8161 79.2316C84.4542 78.997 85.1425 78.9417 85.8088 79.0714C86.5166 79.2095 87.1703 79.5528 87.6915 80.0602C88.2127 80.5676 88.5792 81.2175 88.7471 81.932C88.7815 82.0627 88.8052 82.1961 88.818 82.3307C88.833 82.4273 88.8402 82.525 88.8395 82.6228C88.8444 82.7057 88.8402 82.7889 88.8272 82.8708Z" fill="#263238"/>
<g opacity="0.2">
<path d="M86.2214 78.3083L80.3447 83.6903L80.7174 84.9086L87.4349 78.7919C87.0756 78.5313 86.6588 78.3652 86.2214 78.3083Z" fill="white"/>
</g>
<g opacity="0.2">
<path d="M87.968 79.1468C87.9434 79.1279 81.0996 85.6466 81.0996 85.6466L81.5062 86.1992C81.5216 86.2149 88.39 79.5141 88.39 79.5141L87.968 79.1468Z" fill="white"/>
</g>
<path d="M85.6673 81.2412V85.0343H84.8049V81.954H84.0596V81.2506L85.6673 81.2412Z" fill="white"/>
<g opacity="0.3">
<path d="M81.9714 82.8709C81.9714 80.8832 83.3512 79.2536 85.1037 79.0872C85.0082 79.0872 84.9097 79.0872 84.7957 79.0872C82.9015 79.0872 81.3677 80.7859 81.3677 82.8834C81.3677 84.9809 82.9077 86.6797 84.7957 86.6797C84.8974 86.6797 84.9959 86.6797 85.1037 86.664C83.3512 86.485 81.9714 84.8553 81.9714 82.8709Z" fill="black"/>
</g>
<g opacity="0.3">
<path d="M87.9492 34.876L88.827 66.5021L105.558 71.5418V34.876H87.9492Z" fill="white"/>
</g>
<path d="M63.8205 95.2802C63.8544 95.3085 61.2518 98.5427 58.0055 102.502C54.7591 106.462 52.1011 109.646 52.0672 109.617C52.0333 109.589 54.6359 106.355 57.8823 102.395C61.1286 98.4359 63.7866 95.252 63.8205 95.2802Z" fill="white"/>
<path d="M65.2253 89.1194C65.2561 89.1476 62.4163 92.454 58.8805 96.5015C55.3446 100.549 52.4494 103.808 52.4125 103.777C52.3755 103.745 55.2183 100.442 58.7542 96.3947C62.29 92.3473 65.1914 89.088 65.2253 89.1194Z" fill="white"/>
<path d="M101.609 57.5969C101.643 57.6251 98.4983 61.2738 94.5837 65.7389C90.669 70.204 87.4719 73.8056 87.4411 73.7899C87.4103 73.7742 90.5519 70.0972 94.4666 65.6259C98.3813 61.1545 101.575 57.5655 101.609 57.5969Z" fill="white"/>
<path d="M54.6453 34.7378L55.0672 40.4714C55.1174 41.2227 55.4273 41.9315 55.942 42.4716C56.0707 42.6056 56.2064 42.7324 56.3485 42.8516C56.8959 43.3099 57.5675 43.5871 58.2735 43.646L62.3822 44.0008L57.9039 44.453C57.5793 44.487 57.2697 44.6096 57.0076 44.8078C56.906 44.8863 56.8074 44.9648 56.6996 45.0496C55.8476 45.8068 55.3176 46.8719 55.2212 48.02L54.9132 51.4143L54.5744 48.2743C54.5079 47.594 54.2882 46.9386 53.9324 46.3591C53.5766 45.7796 53.0943 45.2917 52.5232 44.9334L52.4954 44.9145C52.2667 44.7792 52.0108 44.6986 51.747 44.679L46.8159 44.296L51.1033 43.8909C51.9488 43.8184 52.7384 43.4304 53.3209 42.8013C53.4379 42.6726 53.5519 42.5344 53.6597 42.3931C54.0284 41.8913 54.2428 41.2891 54.2757 40.663L54.6453 34.7378Z" fill="white"/>
<path d="M41.8078 49.1599L42.0788 52.8651C42.1122 53.3501 42.313 53.8073 42.6455 54.1557C42.7283 54.2432 42.8157 54.326 42.9073 54.4037C43.2586 54.6959 43.6877 54.8742 44.1393 54.9155L46.7943 55.1448L43.9083 55.4368C43.6986 55.4585 43.4985 55.5377 43.3293 55.666C43.2615 55.7162 43.1999 55.7665 43.1383 55.8199C42.5884 56.3092 42.2461 56.997 42.1835 57.7384L41.9803 59.9364L41.7647 57.9142C41.7209 57.4748 41.5784 57.0516 41.3481 56.6775C41.1179 56.3034 40.8062 55.9884 40.4372 55.7571H40.4187C40.2712 55.6691 40.1056 55.6175 39.9351 55.6063L36.7319 55.3489L39.5039 55.0882C40.05 55.0414 40.5599 54.791 40.9361 54.3849C41.0131 54.3001 41.0871 54.2122 41.1548 54.1211C41.396 53.7981 41.5366 53.4087 41.5583 53.0033L41.8078 49.1599Z" fill="white"/>
<path d="M38.3337 133.419L116.292 134.078L116.224 134.147C116.224 103.507 116.224 65.6951 116.208 24.8311V24.4543L116.292 24.536H38.3337L38.4045 24.4606C38.3614 88.9531 38.3337 132.772 38.3337 133.419C38.3337 132.765 38.3029 88.9468 38.2598 24.4606V24.3853H38.3337H116.292H116.372V24.8374C116.372 65.6888 116.372 103.513 116.356 134.153V134.219H116.288L38.3337 133.419Z" fill="#263238"/>
<path d="M97.014 128.476H58.4186C57.5 128.476 56.7554 129.235 56.7554 130.172V136.76C56.7554 137.696 57.5 138.455 58.4186 138.455H97.014C97.9326 138.455 98.6772 137.696 98.6772 136.76V130.172C98.6772 129.235 97.9326 128.476 97.014 128.476Z" fill="#697865"/>
<g opacity="0.3">
<path d="M76.1995 128.476L67.8096 138.455H70.7202L79.1809 128.476H76.1995Z" fill="white"/>
</g>
<g opacity="0.3">
<path d="M97.4052 129.855C97.4058 129.97 97.3728 130.083 97.3105 130.179C97.2481 130.275 97.1591 130.349 97.0549 130.394C96.9507 130.438 96.8358 130.45 96.725 130.428C96.6142 130.405 96.5124 130.35 96.4325 130.269C96.3526 130.187 96.2983 130.083 96.2764 129.97C96.2545 129.857 96.2661 129.74 96.3096 129.634C96.3531 129.528 96.4266 129.437 96.5208 129.373C96.615 129.31 96.7255 129.276 96.8385 129.277C96.9888 129.277 97.133 129.338 97.2392 129.446C97.3455 129.554 97.4052 129.701 97.4052 129.855Z" fill="black"/>
</g>
<g opacity="0.3">
<path d="M97.4052 136.832C97.4058 136.947 97.3728 137.06 97.3105 137.156C97.2481 137.252 97.1591 137.327 97.0549 137.371C96.9507 137.415 96.8358 137.427 96.725 137.405C96.6142 137.382 96.5124 137.327 96.4325 137.246C96.3526 137.164 96.2983 137.06 96.2764 136.947C96.2545 136.834 96.2661 136.717 96.3096 136.611C96.3531 136.505 96.4266 136.414 96.5208 136.351C96.615 136.287 96.7255 136.253 96.8385 136.254C96.9888 136.254 97.133 136.315 97.2392 136.423C97.3455 136.531 97.4052 136.678 97.4052 136.832Z" fill="black"/>
</g>
<g opacity="0.3">
<path d="M58.6647 129.996C58.6647 130.11 58.6315 130.222 58.5692 130.317C58.5069 130.412 58.4184 130.486 58.3148 130.53C58.2113 130.573 58.0973 130.585 57.9874 130.563C57.8775 130.54 57.7765 130.485 57.6972 130.405C57.618 130.324 57.564 130.221 57.5421 130.109C57.5203 129.997 57.5315 129.88 57.5744 129.775C57.6173 129.669 57.6899 129.579 57.7831 129.516C57.8763 129.452 57.9859 129.418 58.098 129.418C58.2483 129.418 58.3924 129.479 58.4987 129.587C58.605 129.696 58.6647 129.843 58.6647 129.996Z" fill="black"/>
</g>
<g opacity="0.3">
<path d="M58.862 136.832C58.862 136.946 58.8287 137.058 58.7664 137.153C58.7042 137.248 58.6157 137.322 58.5121 137.365C58.4086 137.409 58.2946 137.421 58.1847 137.398C58.0747 137.376 57.9738 137.321 57.8945 137.24C57.8152 137.159 57.7613 137.056 57.7394 136.944C57.7175 136.832 57.7288 136.716 57.7717 136.611C57.8145 136.505 57.8872 136.415 57.9804 136.351C58.0736 136.288 58.1831 136.254 58.2952 136.254C58.4455 136.254 58.5897 136.315 58.696 136.423C58.8022 136.531 58.862 136.678 58.862 136.832Z" fill="black"/>
</g>
<g opacity="0.3">
<path d="M73.304 128.476L64.7139 138.455H63.5127L71.9858 128.476H73.304Z" fill="white"/>
</g>
<path d="M92.2338 127.384L92.3601 129.085C92.3753 129.307 92.467 129.516 92.6188 129.676C92.7997 129.873 93.0449 129.997 93.3088 130.024L94.5408 130.131L93.2163 130.266C93.1203 130.275 93.0287 130.311 92.9515 130.37L92.8622 130.442C92.6101 130.666 92.4533 130.981 92.4248 131.321L92.3324 132.329L92.2308 131.387C92.21 131.185 92.1436 130.99 92.0367 130.819C91.9298 130.647 91.7854 130.503 91.6148 130.398C91.5469 130.358 91.4711 130.334 91.393 130.329L89.9238 130.21L91.1928 130.09C91.4425 130.07 91.6767 129.959 91.8519 129.776L91.9505 129.654C92.0614 129.506 92.1258 129.328 92.1353 129.142L92.2338 127.384Z" fill="white"/>
<path d="M109.466 7.3853C109.466 7.3853 107.153 9.00869 108.376 11.1031L106.549 11.2758C106.549 11.2758 105.724 7.31623 108.505 6.71021L109.466 7.3853Z" fill="#697865"/>
<path d="M87.435 148.108C87.435 148.108 84.6322 148.243 84.5829 150.676L82.9443 149.841C82.9443 149.841 84.2934 146.032 86.9699 147.015L87.435 148.108Z" fill="#697865"/>
<path d="M141.957 58.7934C141.957 58.7934 139.151 58.9284 139.105 61.365L137.466 60.5298C137.466 60.5298 138.815 56.721 141.492 57.7038L141.957 58.7934Z" fill="#697865"/>
<path d="M17.0447 18.0487C17.0447 18.0487 19.5733 19.3047 20.7407 17.1726L21.7909 18.7018C21.7909 18.7018 18.8372 21.3959 16.9399 19.2356L17.0447 18.0487Z" fill="#697865"/>
<path d="M18.3628 73.8277C18.3628 73.8277 21.1348 73.4195 20.9592 71.0017L22.6686 71.6705C22.6686 71.6705 21.683 75.5955 18.9295 74.8796L18.3628 73.8277Z" fill="#697865"/>
<path d="M64.7046 11.2758C64.7046 11.4211 64.6624 11.5632 64.5832 11.684C64.504 11.8048 64.3914 11.899 64.2597 11.9546C64.128 12.0102 63.9831 12.0248 63.8433 11.9964C63.7035 11.9681 63.5751 11.8981 63.4743 11.7953C63.3735 11.6926 63.3048 11.5617 63.277 11.4191C63.2492 11.2766 63.2635 11.1289 63.318 10.9946C63.3726 10.8603 63.465 10.7456 63.5835 10.6648C63.702 10.5841 63.8414 10.541 63.9839 10.541C64.1748 10.5418 64.3576 10.6195 64.4926 10.7571C64.6276 10.8948 64.7038 11.0812 64.7046 11.2758Z" fill="#697865"/>
<path d="M37.7266 146.089C37.7266 146.234 37.6843 146.376 37.6051 146.497C37.5259 146.618 37.4134 146.712 37.2817 146.767C37.15 146.823 37.0051 146.838 36.8653 146.809C36.7255 146.781 36.597 146.711 36.4962 146.608C36.3955 146.505 36.3268 146.374 36.299 146.232C36.2712 146.089 36.2855 145.942 36.34 145.807C36.3946 145.673 36.4869 145.558 36.6055 145.478C36.724 145.397 36.8633 145.354 37.0059 145.354C37.1968 145.355 37.3796 145.432 37.5146 145.57C37.6496 145.707 37.7258 145.894 37.7266 146.089Z" fill="#697865"/>
<path d="M14.1924 60.0211C14.1924 60.1665 14.1501 60.3085 14.071 60.4293C13.9918 60.5502 13.8792 60.6444 13.7475 60.7C13.6158 60.7556 13.4709 60.7701 13.3311 60.7418C13.1913 60.7134 13.0629 60.6434 12.9621 60.5407C12.8613 60.4379 12.7926 60.307 12.7648 60.1645C12.737 60.022 12.7513 59.8742 12.8058 59.74C12.8604 59.6057 12.9528 59.4909 13.0713 59.4102C13.1898 59.3295 13.3292 59.2864 13.4717 59.2864C13.6626 59.2872 13.8454 59.3649 13.9804 59.5025C14.1154 59.6401 14.1916 59.8265 14.1924 60.0211Z" fill="#697865"/>
<path d="M130.056 141.429C130.454 141.429 130.776 141.1 130.776 140.694C130.776 140.288 130.454 139.959 130.056 139.959C129.658 139.959 129.335 140.288 129.335 140.694C129.335 141.1 129.658 141.429 130.056 141.429Z" fill="#697865"/>
<path d="M135.061 17.1728C135.061 17.319 135.019 17.4621 134.94 17.5839C134.861 17.7057 134.748 17.8008 134.615 17.857C134.483 17.9133 134.337 17.9281 134.197 17.8998C134.056 17.8714 133.927 17.801 133.825 17.6977C133.724 17.5943 133.655 17.4625 133.627 17.3191C133.599 17.1756 133.614 17.027 133.669 16.8921C133.724 16.7571 133.817 16.6419 133.937 16.561C134.056 16.4802 134.197 16.4374 134.34 16.438C134.531 16.438 134.715 16.5154 134.85 16.6532C134.985 16.791 135.061 16.9779 135.061 17.1728Z" fill="#697865"/>
<path d="M139.311 77.3131C139.31 77.4583 139.268 77.6 139.188 77.7205C139.109 77.8409 138.996 77.9346 138.864 77.9897C138.732 78.0448 138.587 78.0589 138.448 78.0302C138.308 78.0015 138.18 77.9313 138.08 77.8284C137.979 77.7255 137.911 77.5946 137.883 77.4521C137.856 77.3097 137.87 77.1621 137.925 77.0281C137.979 76.894 138.072 76.7794 138.19 76.6988C138.309 76.6182 138.448 76.5752 138.59 76.5752C138.685 76.5752 138.779 76.5943 138.867 76.6314C138.955 76.6685 139.034 76.7229 139.101 76.7915C139.168 76.8601 139.221 76.9414 139.257 77.031C139.293 77.1205 139.311 77.2163 139.311 77.3131Z" fill="#697865"/>
</svg>
