<svg width="21" height="21" viewBox="0 0 21 21" fill="none" xmlns="http://www.w3.org/2000/svg">
<g clip-path="url(#clip0_638_5044)">
<path d="M20.0076 10.2469C19.9803 10.1852 19.3185 8.71719 17.8475 7.24609C15.8873 5.28594 13.4115 4.25 10.6865 4.25C7.96152 4.25 5.48573 5.28594 3.52558 7.24609C2.05448 8.71719 1.38964 10.1875 1.36542 10.2469C1.32989 10.3268 1.31152 10.4133 1.31152 10.5008C1.31152 10.5883 1.32989 10.6748 1.36542 10.7547C1.39277 10.8164 2.05448 12.2836 3.52558 13.7547C5.48573 15.7141 7.96152 16.75 10.6865 16.75C13.4115 16.75 15.8873 15.7141 17.8475 13.7547C19.3185 12.2836 19.9803 10.8164 20.0076 10.7547C20.0431 10.6748 20.0615 10.5883 20.0615 10.5008C20.0615 10.4133 20.0431 10.3268 20.0076 10.2469ZM10.6865 15.5C8.28183 15.5 6.18105 14.6258 4.44198 12.9023C3.72843 12.1927 3.12135 11.3836 2.63964 10.5C3.12122 9.61636 3.72831 8.80717 4.44198 8.09766C6.18105 6.37422 8.28183 5.5 10.6865 5.5C13.0912 5.5 15.192 6.37422 16.931 8.09766C17.646 8.807 18.2544 9.61619 18.7373 10.5C18.174 11.5516 15.7201 15.5 10.6865 15.5ZM10.6865 6.75C9.94484 6.75 9.21981 6.96993 8.60313 7.38199C7.98644 7.79404 7.5058 8.37971 7.22197 9.06494C6.93814 9.75016 6.86388 10.5042 7.00857 11.2316C7.15326 11.959 7.51042 12.6272 8.03486 13.1517C8.55931 13.6761 9.2275 14.0333 9.95493 14.1779C10.6824 14.3226 11.4364 14.2484 12.1216 13.9645C12.8068 13.6807 13.3925 13.2001 13.8045 12.5834C14.2166 11.9667 14.4365 11.2417 14.4365 10.5C14.4355 9.50576 14.0401 8.55253 13.337 7.84949C12.634 7.14645 11.6808 6.75103 10.6865 6.75ZM10.6865 13C10.1921 13 9.70871 12.8534 9.29759 12.5787C8.88647 12.304 8.56604 11.9135 8.37682 11.4567C8.1876 10.9999 8.13809 10.4972 8.23455 10.0123C8.33102 9.52732 8.56912 9.08186 8.91875 8.73223C9.26838 8.3826 9.71384 8.1445 10.1988 8.04804C10.6837 7.95157 11.1864 8.00108 11.6432 8.1903C12.1 8.37952 12.4905 8.69995 12.7652 9.11107C13.0399 9.5222 13.1865 10.0055 13.1865 10.5C13.1865 11.163 12.9231 11.7989 12.4543 12.2678C11.9854 12.7366 11.3496 13 10.6865 13Z" fill="#697865"/>
</g>
<defs>
<clipPath id="clip0_638_5044">
<rect width="20" height="20" fill="white" transform="translate(0.686523 0.5)"/>
</clipPath>
</defs>
</svg>
