<svg width="20" height="21" viewBox="0 0 20 21" fill="none" xmlns="http://www.w3.org/2000/svg">
<path d="M16.6922 6.93281L12.3172 2.55781C12.2591 2.49979 12.1902 2.45378 12.1143 2.42241C12.0384 2.39105 11.9571 2.37494 11.875 2.375H4.375C4.04348 2.375 3.72554 2.5067 3.49112 2.74112C3.2567 2.97554 3.125 3.29348 3.125 3.625V17.375C3.125 17.7065 3.2567 18.0245 3.49112 18.2589C3.72554 18.4933 4.04348 18.625 4.375 18.625H15.625C15.9565 18.625 16.2745 18.4933 16.5089 18.2589C16.7433 18.0245 16.875 17.7065 16.875 17.375V7.375C16.8751 7.2929 16.859 7.21159 16.8276 7.13572C16.7962 7.05985 16.7502 6.9909 16.6922 6.93281ZM12.5 4.50859L14.7414 6.75H12.5V4.50859ZM15.625 17.375H4.375V3.625H11.25V7.375C11.25 7.54076 11.3158 7.69973 11.4331 7.81694C11.5503 7.93415 11.7092 8 11.875 8H15.625V17.375ZM12.3172 11.3078C12.3753 11.3659 12.4213 11.4348 12.4527 11.5107C12.4842 11.5866 12.5003 11.6679 12.5003 11.75C12.5003 11.8321 12.4842 11.9134 12.4527 11.9893C12.4213 12.0652 12.3753 12.1341 12.3172 12.1922C12.2591 12.2503 12.1902 12.2963 12.1143 12.3277C12.0384 12.3592 11.9571 12.3753 11.875 12.3753C11.7929 12.3753 11.7116 12.3592 11.6357 12.3277C11.5598 12.2963 11.4909 12.2503 11.4328 12.1922L10.625 11.3836V14.875C10.625 15.0408 10.5592 15.1997 10.4419 15.3169C10.3247 15.4342 10.1658 15.5 10 15.5C9.83424 15.5 9.67527 15.4342 9.55806 15.3169C9.44085 15.1997 9.375 15.0408 9.375 14.875V11.3836L8.56719 12.1922C8.50912 12.2503 8.44018 12.2963 8.36431 12.3277C8.28844 12.3592 8.20712 12.3753 8.125 12.3753C8.04288 12.3753 7.96156 12.3592 7.88569 12.3277C7.80982 12.2963 7.74088 12.2503 7.68281 12.1922C7.62474 12.1341 7.57868 12.0652 7.54725 11.9893C7.51583 11.9134 7.49965 11.8321 7.49965 11.75C7.49965 11.6679 7.51583 11.5866 7.54725 11.5107C7.57868 11.4348 7.62474 11.3659 7.68281 11.3078L9.55781 9.43281C9.61586 9.3747 9.68479 9.3286 9.76066 9.29715C9.83654 9.2657 9.91787 9.24951 10 9.24951C10.0821 9.24951 10.1635 9.2657 10.2393 9.29715C10.3152 9.3286 10.3841 9.3747 10.4422 9.43281L12.3172 11.3078Z" fill="#697865"/>
</svg>
