<svg width="20" height="21" viewBox="0 0 20 21" fill="none" xmlns="http://www.w3.org/2000/svg">
<path d="M3.125 7.37502H5.70312C5.84081 7.91278 6.15356 8.38942 6.59207 8.72979C7.03057 9.07017 7.56989 9.25492 8.125 9.25492C8.68011 9.25492 9.21943 9.07017 9.65793 8.72979C10.0964 8.38942 10.4092 7.91278 10.5469 7.37502H16.875C17.0408 7.37502 17.1997 7.30917 17.3169 7.19196C17.4342 7.07475 17.5 6.91578 17.5 6.75002C17.5 6.58426 17.4342 6.42529 17.3169 6.30808C17.1997 6.19087 17.0408 6.12502 16.875 6.12502H10.5469C10.4092 5.58726 10.0964 5.11062 9.65793 4.77024C9.21943 4.42987 8.68011 4.24512 8.125 4.24512C7.56989 4.24512 7.03057 4.42987 6.59207 4.77024C6.15356 5.11062 5.84081 5.58726 5.70312 6.12502H3.125C2.95924 6.12502 2.80027 6.19087 2.68306 6.30808C2.56585 6.42529 2.5 6.58426 2.5 6.75002C2.5 6.91578 2.56585 7.07475 2.68306 7.19196C2.80027 7.30917 2.95924 7.37502 3.125 7.37502ZM8.125 5.50002C8.37223 5.50002 8.6139 5.57333 8.81946 5.71068C9.02502 5.84803 9.18524 6.04326 9.27985 6.27167C9.37446 6.50007 9.39921 6.75141 9.35098 6.99388C9.30275 7.23636 9.1837 7.45909 9.00888 7.6339C8.83407 7.80872 8.61134 7.92777 8.36886 7.976C8.12639 8.02423 7.87505 7.99948 7.64665 7.90487C7.41824 7.81026 7.22301 7.65004 7.08566 7.44448C6.94831 7.23892 6.875 6.99725 6.875 6.75002C6.875 6.4185 7.0067 6.10056 7.24112 5.86614C7.47554 5.63172 7.79348 5.50002 8.125 5.50002ZM16.875 13.625H15.5469C15.4092 13.0873 15.0964 12.6106 14.6579 12.2702C14.2194 11.9299 13.6801 11.7451 13.125 11.7451C12.5699 11.7451 12.0306 11.9299 11.5921 12.2702C11.1536 12.6106 10.8408 13.0873 10.7031 13.625H3.125C2.95924 13.625 2.80027 13.6909 2.68306 13.8081C2.56585 13.9253 2.5 14.0843 2.5 14.25C2.5 14.4158 2.56585 14.5748 2.68306 14.692C2.80027 14.8092 2.95924 14.875 3.125 14.875H10.7031C10.8408 15.4128 11.1536 15.8894 11.5921 16.2298C12.0306 16.5702 12.5699 16.7549 13.125 16.7549C13.6801 16.7549 14.2194 16.5702 14.6579 16.2298C15.0964 15.8894 15.4092 15.4128 15.5469 14.875H16.875C17.0408 14.875 17.1997 14.8092 17.3169 14.692C17.4342 14.5748 17.5 14.4158 17.5 14.25C17.5 14.0843 17.4342 13.9253 17.3169 13.8081C17.1997 13.6909 17.0408 13.625 16.875 13.625ZM13.125 15.5C12.8778 15.5 12.6361 15.4267 12.4305 15.2894C12.225 15.152 12.0648 14.9568 11.9701 14.7284C11.8755 14.5 11.8508 14.2486 11.899 14.0062C11.9472 13.7637 12.0663 13.541 12.2411 13.3661C12.4159 13.1913 12.6387 13.0723 12.8811 13.024C13.1236 12.9758 13.3749 13.0006 13.6034 13.0952C13.8318 13.1898 14.027 13.35 14.1643 13.5556C14.3017 13.7611 14.375 14.0028 14.375 14.25C14.375 14.5815 14.2433 14.8995 14.0089 15.1339C13.7745 15.3683 13.4565 15.5 13.125 15.5Z" fill="#697865"/>
</svg>
