<svg width="20" height="20" viewBox="0 0 20 20" fill="none" xmlns="http://www.w3.org/2000/svg">
<path fill-rule="evenodd" clip-rule="evenodd" d="M15 4.79199C13.9645 4.79199 13.125 5.63146 13.125 6.66699C13.125 7.70253 13.9645 8.54199 15 8.54199C16.0355 8.54199 16.875 7.70253 16.875 6.66699C16.875 5.63146 16.0355 4.79199 15 4.79199ZM11.9375 6.04199C12.2271 4.61559 13.4882 3.54199 15 3.54199C16.7259 3.54199 18.125 4.9411 18.125 6.66699C18.125 8.39288 16.7259 9.79199 15 9.79199C13.4882 9.79199 12.2271 8.71839 11.9375 7.29199L2.5 7.29199C2.15482 7.29199 1.875 7.01217 1.875 6.66699C1.875 6.32181 2.15482 6.04199 2.5 6.04199L11.9375 6.04199ZM5 11.4587C3.96447 11.4587 3.125 12.2981 3.125 13.3337C3.125 14.3692 3.96447 15.2087 5 15.2087C6.03553 15.2087 6.875 14.3692 6.875 13.3337C6.875 12.2981 6.03553 11.4587 5 11.4587ZM1.875 13.3337C1.875 11.6078 3.27411 10.2087 5 10.2087C6.51185 10.2087 7.77294 11.2823 8.06249 12.7087L17.5 12.7087C17.8452 12.7087 18.125 12.9885 18.125 13.3337C18.125 13.6788 17.8452 13.9587 17.5 13.9587L8.06249 13.9587C7.77294 15.3851 6.51185 16.4587 5 16.4587C3.27411 16.4587 1.875 15.0595 1.875 13.3337Z" fill="#697865"/>
</svg>
