<svg width="30" height="16" viewBox="0 0 30 16" fill="none" xmlns="http://www.w3.org/2000/svg">
<path d="M22.021 0H7.98C3.59 0 0 3.6 0 8C0 12.4 3.59 16 7.979 16H22.02C26.41 16 30 12.4 30 8C30 3.6 26.41 0 22.021 0Z" fill="white"/>
<path d="M22.021 0.648C23.007 0.648 23.964 0.844 24.866 1.228C26.6278 1.97906 28.0294 3.38432 28.776 5.148C29.158 6.052 29.354 7.012 29.354 8C29.354 8.988 29.158 9.948 28.775 10.852C28.0265 12.6144 26.6255 14.019 24.865 14.772C23.965 15.156 23.007 15.352 22.021 15.352H7.98C7.00218 15.3533 6.03428 15.156 5.135 14.772C3.37323 14.0209 1.97155 12.6157 1.225 10.852C0.842201 9.94997 0.645601 8.97989 0.647 8C0.647 7.012 0.843 6.052 1.226 5.148C1.97449 3.38562 3.37554 1.98099 5.136 1.228C6.03497 0.844167 7.00251 0.646849 7.98 0.648H22.02H22.021ZM22.021 0H7.98C3.59 0 0 3.6 0 8C0 12.4 3.59 16 7.979 16H22.02C26.41 16 30 12.4 30 8C30 3.6 26.41 0 22.021 0Z" fill="#3C4043"/>
<path d="M14.3051 8.56821V10.9882H13.5391V5.01221H15.5691C16.0841 5.01221 16.5231 5.18421 16.8821 5.52821C17.2491 5.87221 17.4321 6.29221 17.4321 6.78821C17.4321 7.29621 17.2491 7.71621 16.8821 8.05621C16.5271 8.39621 16.0881 8.56421 15.5691 8.56421H14.3051V8.56821ZM14.3051 5.74821V7.83221H15.5851C15.8891 7.83221 16.1441 7.72821 16.3431 7.52421C16.5471 7.32021 16.6501 7.07221 16.6501 6.79221C16.6506 6.65703 16.6237 6.52315 16.5709 6.39869C16.5181 6.27424 16.4406 6.1618 16.3431 6.06821C16.2466 5.96447 16.129 5.88259 15.9983 5.82808C15.8675 5.77358 15.7266 5.74771 15.5851 5.75221H14.3051V5.74821ZM19.4351 6.76421C20.0021 6.76421 20.4491 6.91621 20.7751 7.22021C21.1031 7.52421 21.2661 7.94021 21.2661 8.46821V10.9882H20.5361V10.4202H20.5041C20.1891 10.8882 19.7661 11.1202 19.2401 11.1202C18.7891 11.1202 18.4141 10.9882 18.1101 10.7202C17.9649 10.5977 17.8488 10.4444 17.7703 10.2714C17.6917 10.0984 17.6527 9.91014 17.6561 9.72021C17.6561 9.29621 17.8161 8.96021 18.1351 8.71221C18.4541 8.46021 18.8811 8.33621 19.4111 8.33621C19.8661 8.33621 20.2411 8.42021 20.5321 8.58821V8.41221C20.5333 8.28259 20.5057 8.15431 20.4512 8.03669C20.3968 7.91907 20.3168 7.81506 20.2171 7.73221C20.0142 7.54815 19.749 7.44807 19.4751 7.45221C19.0481 7.45221 18.7091 7.63221 18.4621 7.99621L17.7881 7.57221C18.1581 7.03221 18.7091 6.76421 19.4351 6.76421ZM18.4451 9.73221C18.4451 9.93221 18.5301 10.1002 18.7011 10.2322C18.8691 10.3642 19.0681 10.4322 19.2961 10.4322C19.6191 10.4322 19.9061 10.3122 20.1571 10.0722C20.4091 9.83221 20.5371 9.55221 20.5371 9.22821C20.2971 9.04021 19.9661 8.94421 19.5391 8.94421C19.2281 8.94421 18.9691 9.02021 18.7611 9.16821C18.5501 9.32421 18.4461 9.51221 18.4461 9.73221H18.4451ZM25.4311 6.89621L22.8781 12.7842H22.0881L23.0381 10.7242L21.3541 6.89621H22.1881L23.3991 9.83221H23.4151L24.5961 6.89621H25.4301H25.4311Z" fill="#3C4043"/>
<path d="M11.2594 8.07986C11.2594 7.82986 11.2364 7.58986 11.1944 7.35986H7.98438V8.67986H9.83337C9.75837 9.11986 9.51637 9.49386 9.14737 9.74286V10.5999H10.2474C10.8904 10.0029 11.2584 9.12186 11.2584 8.07986H11.2594Z" fill="#4285F4"/>
<path d="M9.14964 9.74323C8.84364 9.95023 8.44864 10.0722 7.98664 10.0722C7.09564 10.0722 6.33864 9.46923 6.06864 8.65723H4.93164V9.54023C5.21538 10.1073 5.65132 10.5842 6.19068 10.9177C6.73004 11.2511 7.35154 11.4279 7.98564 11.4282C8.90964 11.4282 9.68564 11.1232 10.2486 10.5992L9.14864 9.74323H9.14964Z" fill="#34A853"/>
<path d="M5.95941 8.00189C5.95941 7.77389 5.99741 7.55389 6.06641 7.34589V6.46289H4.92941C4.68971 6.94044 4.56538 7.46756 4.56641 8.00189C4.56641 8.55589 4.69741 9.07789 4.92941 9.54089L6.06541 8.65789C5.99466 8.44641 5.95853 8.22489 5.95841 8.00189H5.95941Z" fill="#FABB05"/>
<path d="M7.98564 5.9319C8.48964 5.9319 8.94064 6.1059 9.29764 6.4459L10.2726 5.4689C9.65472 4.8863 8.83485 4.56616 7.98564 4.5759C7.35164 4.57614 6.73021 4.75277 6.19087 5.08602C5.65152 5.41927 5.21552 5.89601 4.93164 6.4629L6.06664 7.3459C6.33764 6.5339 7.09464 5.9319 7.98664 5.9319H7.98564Z" fill="#E94235"/>
</svg>
