<svg width="26" height="27" viewBox="0 0 26 27" fill="none" xmlns="http://www.w3.org/2000/svg">
<path d="M24.3762 13.7527C24.3762 12.8174 24.2988 12.1349 24.1312 11.4271H13.2334V15.6485H19.6302C19.5012 16.6975 18.8048 18.2774 17.2572 19.339L17.2355 19.4803L20.6812 22.0963L20.9199 22.1196C23.1123 20.1353 24.3762 17.2157 24.3762 13.7527Z" fill="#00AA11"/>
<path d="M13.2328 24.875C16.3667 24.875 18.9976 23.8638 20.9193 22.1197L17.2566 19.339C16.2764 20.0089 14.9609 20.4766 13.2328 20.4766C10.1634 20.4766 7.55826 18.4923 6.62961 15.7496L6.49349 15.761L2.91062 18.4784L2.86377 18.606C4.77247 22.3218 8.6931 24.875 13.2328 24.875Z" fill="#34A853"/>
<path d="M6.62989 15.7497C6.38485 15.042 6.24304 14.2836 6.24304 13.5C6.24304 12.7163 6.38485 11.958 6.617 11.2503L6.61051 11.0995L2.98273 8.3385L2.86404 8.39383C2.07737 9.93579 1.62598 11.6674 1.62598 13.5C1.62598 15.3326 2.07737 17.0641 2.86404 18.6061L6.62989 15.7497Z" fill="#FBBC05"/>
<path d="M13.2329 6.5233C15.4124 6.5233 16.8826 7.44594 17.7209 8.21696L20.9967 5.0825C18.9849 3.24987 16.3668 2.125 13.2329 2.125C8.69313 2.125 4.77248 4.67804 2.86377 8.39384L6.61674 11.2503C7.55829 8.50763 10.1634 6.5233 13.2329 6.5233Z" fill="#EB4335"/>
</svg>
