<svg width="22" height="16" viewBox="0 0 22 16" fill="none" xmlns="http://www.w3.org/2000/svg">
<path fill-rule="evenodd" clip-rule="evenodd" d="M21.9375 1.75C21.9375 2.26776 21.5178 2.6875 21 2.6875H1C0.482238 2.6875 0.0625 2.26776 0.0625 1.75C0.0625 1.23224 0.482238 0.8125 1 0.8125H21C21.5178 0.8125 21.9375 1.23224 21.9375 1.75Z" fill="#697865"/>
<path fill-rule="evenodd" clip-rule="evenodd" d="M21.9375 8C21.9375 8.51775 21.5178 8.9375 21 8.9375H1C0.482238 8.9375 0.0625 8.51775 0.0625 8C0.0625 7.48225 0.482238 7.0625 1 7.0625H21C21.5178 7.0625 21.9375 7.48225 21.9375 8Z" fill="#697865"/>
<path fill-rule="evenodd" clip-rule="evenodd" d="M21.9375 14.25C21.9375 14.7678 21.5178 15.1875 21 15.1875H1C0.482238 15.1875 0.0625 14.7678 0.0625 14.25C0.0625 13.7322 0.482238 13.3125 1 13.3125H21C21.5178 13.3125 21.9375 13.7322 21.9375 14.25Z" fill="#697865"/>
</svg>
