<svg width="16" height="16" viewBox="0 0 16 16" fill="none" xmlns="http://www.w3.org/2000/svg">
<path d="M13.9403 3.56202C13.2611 2.88443 12.3411 2.50339 11.3816 2.50222C10.4222 2.50105 9.50128 2.87984 8.82034 3.55577L8.00284 4.31515L7.18472 3.55327C6.50394 2.8744 5.58136 2.49377 4.61995 2.49512C3.65853 2.49647 2.73703 2.87968 2.05816 3.56046C1.37928 4.24124 0.998656 5.16381 1 6.12523C1.00135 7.08665 1.38457 8.00815 2.06534 8.68702L7.64972 14.3533C7.69624 14.4005 7.7517 14.438 7.81286 14.4636C7.87402 14.4892 7.93966 14.5024 8.00597 14.5024C8.07227 14.5024 8.13792 14.4892 8.19908 14.4636C8.26024 14.438 8.31569 14.4005 8.36222 14.3533L13.9403 8.68702C14.6197 8.00727 15.0013 7.08556 15.0013 6.12452C15.0013 5.16349 14.6197 4.24178 13.9403 3.56202ZM13.231 7.98452L8.00284 13.287L2.77159 7.97952C2.27928 7.48721 2.00271 6.8195 2.00271 6.12327C2.00271 5.42704 2.27928 4.75933 2.77159 4.26702C3.2639 3.77471 3.93161 3.49814 4.62784 3.49814C5.32407 3.49814 5.99178 3.77471 6.48409 4.26702L6.49659 4.27952L7.66222 5.3639C7.75474 5.45 7.87645 5.49787 8.00284 5.49787C8.12924 5.49787 8.25094 5.45 8.34347 5.3639L9.50909 4.27952L9.52159 4.26702C10.0142 3.77505 10.6821 3.49892 11.3784 3.49939C12.0746 3.49986 12.7421 3.77688 13.2341 4.26952C13.7261 4.76216 14.0022 5.43006 14.0017 6.12629C14.0013 6.82252 13.7242 7.49005 13.2316 7.98202L13.231 7.98452Z" fill="#697865"/>
</svg>



