<svg width="62" height="62" viewBox="0 0 62 62" fill="none" xmlns="http://www.w3.org/2000/svg">
<rect x="2.0057" y="1.535" width="58.33" height="58.33" rx="29.165" stroke="#ABB7C2" stroke-width="3.07"/>
<mask id="mask0_1464_6898" style="mask-type:alpha" maskUnits="userSpaceOnUse" x="13" y="12" width="37" height="37">
<rect x="13.1699" y="12.45" width="36" height="36" fill="#D9D9D9"/>
</mask>
<g mask="url(#mask0_1464_6898)">
<path d="M19.1699 43.95C18.3449 43.95 17.6387 43.6562 17.0512 43.0687C16.4637 42.4812 16.1699 41.775 16.1699 40.95V24.45C16.1699 23.625 16.4637 22.9187 17.0512 22.3312C17.6387 21.7437 18.3449 21.45 19.1699 21.45H25.1699V18.45C25.1699 17.625 25.4637 16.9187 26.0512 16.3312C26.6387 15.7437 27.3449 15.45 28.1699 15.45H34.1699C34.9949 15.45 35.7012 15.7437 36.2887 16.3312C36.8762 16.9187 37.1699 17.625 37.1699 18.45V21.45H43.1699C43.9949 21.45 44.7012 21.7437 45.2887 22.3312C45.8762 22.9187 46.1699 23.625 46.1699 24.45V40.95C46.1699 41.775 45.8762 42.4812 45.2887 43.0687C44.7012 43.6562 43.9949 43.95 43.1699 43.95H19.1699ZM19.1699 40.95H43.1699V24.45H19.1699V40.95ZM28.1699 21.45H34.1699V18.45H28.1699V21.45Z" fill="#ABB7C2"/>
<mask id="mask1_1464_6898" style="mask-type:alpha" maskUnits="userSpaceOnUse" x="23" y="24" width="17" height="17">
<rect x="23.4492" y="24.6101" width="15.6" height="15.6" fill="#D9D9D9"/>
</mask>
<g mask="url(#mask1_1464_6898)">
<path d="M30.3361 35.3997L34.9186 30.8172L34.0086 29.9072L30.3361 33.5797L28.4836 31.7272L27.5736 32.6372L30.3361 35.3997ZM31.2461 38.9097C30.3469 38.9097 29.5019 38.739 28.7111 38.3978C27.9203 38.0565 27.2323 37.5934 26.6473 37.0084C26.0623 36.4234 25.5992 35.7355 25.258 34.9447C24.9167 34.1538 24.7461 33.3088 24.7461 32.4097C24.7461 31.5105 24.9167 30.6655 25.258 29.8747C25.5992 29.0838 26.0623 28.3959 26.6473 27.8109C27.2323 27.2259 27.9203 26.7628 28.7111 26.4215C29.5019 26.0803 30.3469 25.9097 31.2461 25.9097C32.1453 25.9097 32.9903 26.0803 33.7811 26.4215C34.5719 26.7628 35.2598 27.2259 35.8448 27.8109C36.4298 28.3959 36.893 29.0838 37.2342 29.8747C37.5755 30.6655 37.7461 31.5105 37.7461 32.4097C37.7461 33.3088 37.5755 34.1538 37.2342 34.9447C36.893 35.7355 36.4298 36.4234 35.8448 37.0084C35.2598 37.5934 34.5719 38.0565 33.7811 38.3978C32.9903 38.739 32.1453 38.9097 31.2461 38.9097ZM31.2461 37.6097C32.6978 37.6097 33.9273 37.1059 34.9348 36.0984C35.9423 35.0909 36.4461 33.8613 36.4461 32.4097C36.4461 30.958 35.9423 29.7284 34.9348 28.7209C33.9273 27.7134 32.6978 27.2097 31.2461 27.2097C29.7944 27.2097 28.5648 27.7134 27.5573 28.7209C26.5498 29.7284 26.0461 30.958 26.0461 32.4097C26.0461 33.8613 26.5498 35.0909 27.5573 36.0984C28.5648 37.1059 29.7944 37.6097 31.2461 37.6097Z" fill="#ABB7C2"/>
</g>
</g>
</svg>
