<svg width="24" height="24" viewBox="0 0 24 24" fill="none" xmlns="http://www.w3.org/2000/svg">
<g clip-path="url(#clip0_109_60)">
<path d="M12.3752 0.000233612C12.3752 0.618984 12.3752 1.23773 12.3752 1.87523C12.5299 1.87523 12.6846 1.87523 12.844 1.87523C13.9463 1.94454 15.0192 2.24051 16.0315 2.67211C16.0693 2.68823 16.1072 2.70436 16.1462 2.72097C17.1503 3.15634 18.0361 3.76399 18.839 4.50408C18.9198 4.57762 19.0015 4.64646 19.0871 4.7141C19.2262 4.83466 19.3421 4.96282 19.461 5.10283C19.5172 5.16845 19.5745 5.2331 19.6331 5.29656C20.9795 6.75561 21.7934 8.6719 22.0696 10.6233C22.0754 10.6643 22.0812 10.7054 22.0872 10.7477C22.1256 11.0467 22.1252 11.3185 22.1252 11.6252C22.744 11.6252 23.3627 11.6252 24.0002 11.6252C24.0533 14.5574 23.1854 17.3022 21.3283 19.594C21.3075 19.6198 21.2866 19.6455 21.2651 19.6721C20.7401 20.314 20.1603 20.9183 19.5002 21.4221C19.4451 21.4656 19.39 21.5091 19.3349 21.5527C18.6796 22.0638 17.972 22.5085 17.2033 22.8284C17.1484 22.7289 17.0938 22.6293 17.0393 22.5295C17.0236 22.5013 17.008 22.473 16.9919 22.4438C16.8752 22.2296 16.8752 22.2296 16.8752 22.1252C16.9213 22.1024 16.9674 22.0796 17.0149 22.056C18.6724 21.2168 20.0447 20.0071 21.1408 18.5159C21.1614 18.488 21.182 18.4602 21.2033 18.4316C22.5025 16.6555 23.0714 14.5355 23.2502 12.3752C22.879 12.3752 22.5077 12.3752 22.1252 12.3752C22.1213 12.4767 22.1175 12.5783 22.1135 12.6829C21.9681 15.2888 20.7576 17.8017 18.8557 19.5735C17.3552 20.8787 15.554 21.6753 13.594 21.9846C13.5559 21.9907 13.5178 21.9968 13.4785 22.0031C10.8592 22.3996 8.03755 21.7218 5.90409 20.1558C3.68698 18.4939 2.36823 16.0654 1.97006 13.3409C1.62084 10.733 2.2577 8.11934 3.8176 5.99144C4.66697 4.892 5.6256 4.02474 6.79709 3.28148C6.82535 3.26354 6.8536 3.24559 6.88272 3.2271C8.03777 2.50482 9.39301 2.10272 10.7346 1.92211C10.7701 1.91721 10.8056 1.9123 10.8422 1.90725C11.1087 1.87371 11.3517 1.87523 11.6252 1.87523C11.6252 1.50398 11.6252 1.13273 11.6252 0.750234C8.68783 1.01747 6.24949 2.01991 4.07834 4.03148C3.86618 3.85906 3.68486 3.6841 3.51584 3.46898C3.7934 3.17711 4.0916 2.9227 4.40647 2.67211C4.4557 2.63163 4.50489 2.5911 4.55405 2.55053C6.78239 0.729949 9.54151 -0.0272781 12.3752 0.000233612ZM12.3752 2.62523C12.3752 5.14664 12.3752 7.66805 12.3752 10.2659C12.5454 10.3277 12.7155 10.3896 12.8908 10.4534C13.3733 10.7729 13.5515 11.076 13.7346 11.6252C16.256 11.6252 18.7774 11.6252 21.3752 11.6252C21.3752 9.39195 20.3717 7.18467 18.844 5.57836C18.8195 5.55238 18.7951 5.52641 18.7699 5.49965C17.2252 3.86816 15.0517 2.78339 12.7971 2.62523C12.6579 2.62523 12.5187 2.62523 12.3752 2.62523ZM6.23459 4.54711C6.18619 4.58524 6.13779 4.62336 6.08792 4.66265C5.16767 5.40454 4.41324 6.27745 3.84397 7.31273C3.82007 7.35617 3.82007 7.35617 3.79569 7.40049C2.5781 9.64933 2.35259 12.3233 3.05334 14.7701C3.62622 16.6934 4.78324 18.4187 6.42209 19.594C6.45097 19.6148 6.47986 19.6356 6.50962 19.6571C8.49059 21.0619 11.1199 21.6572 13.5149 21.2831C15.1838 20.9938 16.7652 20.2841 18.0471 19.1721C18.0849 19.1395 18.1226 19.107 18.1615 19.0734C18.2816 18.9676 18.3991 18.8596 18.5158 18.7502C18.5505 18.718 18.5505 18.718 18.5858 18.6851C20.1696 17.1985 21.2123 15.0133 21.3752 12.844C21.3752 12.6893 21.3752 12.5346 21.3752 12.3752C18.8538 12.3752 16.3324 12.3752 13.7346 12.3752C13.6186 12.6537 13.6186 12.6537 13.5002 12.9377C13.2476 13.3489 12.9281 13.5556 12.4631 13.6819C11.9624 13.7889 11.4692 13.7465 11.0246 13.468C10.5939 13.1504 10.3549 12.7631 10.2658 12.2346C10.2176 11.7856 10.3211 11.3187 10.5852 10.9485C10.6334 10.8915 10.6832 10.8357 10.7346 10.7815C10.7581 10.7561 10.7816 10.7307 10.8058 10.7046C11.0571 10.4625 11.2749 10.4118 11.6252 10.2659C11.6252 7.74445 11.6252 5.22305 11.6252 2.62523C9.77191 2.62523 7.67534 3.39191 6.23459 4.54711ZM11.2326 11.3088C11.0264 11.5604 10.9571 11.7665 10.9719 12.0911C11.0124 12.4009 11.1569 12.6284 11.385 12.8381C11.6371 13.0096 11.8856 13.0627 12.1877 13.0315C12.5325 12.9215 12.769 12.7532 12.9524 12.4368C13.0745 12.1699 13.0791 11.9211 12.9934 11.6417C12.8597 11.3327 12.6731 11.167 12.3752 11.0159C11.9395 10.8706 11.5427 10.9809 11.2326 11.3088Z" fill="#697865"/>
<path d="M3.00003 4.03125C3.25338 4.10251 3.4212 4.27846 3.6094 4.45312C3.53588 4.62271 3.4316 4.74494 3.31057 4.88379C2.82194 5.45944 2.4173 6.07991 2.06628 6.74764C2.02117 6.83328 1.97491 6.9183 1.92849 7.00323C0.617711 9.4835 0.479541 12.4961 1.26958 15.1566C1.71186 16.5813 2.38292 17.9205 3.32815 19.0781C3.36634 19.1259 3.40453 19.1736 3.44387 19.2228C5.28597 21.4893 7.98376 22.8806 10.8767 23.1824C11.2213 23.2121 11.5664 23.2146 11.9121 23.2148C11.9471 23.2149 11.982 23.2149 12.0179 23.2149C13.4067 23.213 14.7111 22.9538 16.0176 22.4892C16.1153 22.4564 16.2122 22.4296 16.3125 22.4062C16.3508 22.4882 16.3889 22.5702 16.4268 22.6523C16.448 22.698 16.4692 22.7437 16.4911 22.7908C16.5368 22.8981 16.5702 22.9956 16.5938 23.1094C15.8353 23.4119 15.0649 23.6372 14.2647 23.8008C14.1972 23.8147 14.1972 23.8147 14.1284 23.829C13.3964 23.9721 12.6683 24.018 11.9239 24.0146C11.883 24.0145 11.8421 24.0144 11.8 24.0143C9.5529 24.0055 7.29687 23.3632 5.43753 22.0781C5.40976 22.0593 5.382 22.0405 5.35339 22.0211C4.93652 21.7378 4.5517 21.4245 4.1719 21.0938C4.14 21.0671 4.10809 21.0405 4.07522 21.013C3.55832 20.5774 3.08436 20.0815 2.6719 19.5469C2.6351 19.501 2.5983 19.455 2.56039 19.4077C0.882592 17.2997 -0.0232976 14.6721 -0.017551 11.9854C-0.0175255 11.9403 -0.0175 11.8952 -0.0174737 11.8487C-0.00998149 8.9543 1.09344 6.2051 3.00003 4.03125Z" fill="#697865"/>
<path d="M15.0468 4.78125C15.2943 4.78125 15.5418 4.78125 15.7968 4.78125C15.7968 4.96688 15.7968 5.1525 15.7968 5.34375C16.2299 5.34375 16.6631 5.34375 17.1093 5.34375C17.1093 5.59125 17.1093 5.83875 17.1093 6.09375C16.6762 6.09375 16.2431 6.09375 15.7968 6.09375C15.7968 6.465 15.7968 6.83625 15.7968 7.21875C15.8886 7.21585 15.9805 7.21295 16.0751 7.20996C16.5101 7.21185 16.8018 7.29404 17.1221 7.59521C17.3975 7.90922 17.4552 8.258 17.4502 8.664C17.4196 9.01923 17.2783 9.30077 17.0154 9.54053C16.635 9.8204 16.2538 9.84984 15.7968 9.84375C15.7968 10.0294 15.7968 10.215 15.7968 10.4062C15.5493 10.4062 15.3018 10.4062 15.0468 10.4062C15.0468 10.2206 15.0468 10.035 15.0468 9.84375C14.6291 9.84375 14.2115 9.84375 13.7812 9.84375C13.7812 9.59625 13.7812 9.34875 13.7812 9.09375C14.1988 9.09375 14.6165 9.09375 15.0468 9.09375C15.0468 8.7225 15.0468 8.35125 15.0468 7.96875C14.8921 7.96875 14.7374 7.96875 14.5781 7.96875C14.2098 7.91186 13.8987 7.74893 13.6623 7.45844C13.4359 7.12238 13.3604 6.76311 13.423 6.36053C13.5127 5.97196 13.7442 5.6757 14.0791 5.46021C14.3962 5.3133 14.7026 5.3291 15.0468 5.34375C15.0468 5.15812 15.0468 4.9725 15.0468 4.78125ZM14.3437 6.23438C14.1896 6.38843 14.1598 6.53434 14.1562 6.75C14.2184 6.93949 14.3084 7.0527 14.4697 7.16895C14.6647 7.24023 14.6647 7.24023 15.0468 7.21875C15.0468 6.8475 15.0468 6.47625 15.0468 6.09375C14.6356 6.06378 14.6356 6.06378 14.3437 6.23438ZM15.7968 7.96875C15.7968 8.34 15.7968 8.71125 15.7968 9.09375C16.2414 9.09993 16.2414 9.09993 16.5849 8.88281C16.7142 8.71948 16.7043 8.54233 16.6874 8.34375C16.5792 8.13892 16.5227 8.07391 16.3124 7.96875C16.1423 7.96875 15.9721 7.96875 15.7968 7.96875Z" fill="#697865"/>
<path d="M16.4531 15.9844C16.6498 16.0611 16.7806 16.2062 16.9255 16.3539C16.9523 16.3808 16.9791 16.4077 17.0067 16.4355C17.0919 16.5212 17.1768 16.6073 17.2617 16.6934C17.3196 16.7517 17.3774 16.81 17.4353 16.8682C17.5769 17.0109 17.7182 17.1538 17.8594 17.2969C17.8187 17.3469 17.7776 17.3967 17.7363 17.4463C17.7135 17.474 17.6906 17.5018 17.6671 17.5303C17.554 17.6506 17.4237 17.7537 17.2969 17.8594C16.8638 17.4263 16.4306 16.9931 15.9844 16.5469C16.0703 16.375 16.1367 16.2905 16.2715 16.1602C16.3054 16.127 16.3394 16.0939 16.3744 16.0598C16.4004 16.0349 16.4264 16.01 16.4531 15.9844Z" fill="#697865"/>
<path d="M7.45312 15.9844C7.62505 16.0703 7.70945 16.1367 7.83984 16.2715C7.87296 16.3054 7.90607 16.3394 7.94019 16.3744C7.96508 16.4004 7.98998 16.4264 8.01562 16.4531C7.93885 16.6498 7.79375 16.7806 7.64612 16.9255C7.6192 16.9523 7.59228 16.9791 7.56455 17.0067C7.4788 17.0919 7.39272 17.1768 7.30664 17.2617C7.24833 17.3196 7.19004 17.3774 7.13177 17.4353C6.98914 17.5769 6.84621 17.7182 6.70312 17.8594C6.65305 17.8187 6.60332 17.7776 6.55371 17.7363C6.51211 17.7021 6.51211 17.7021 6.46967 17.6671C6.34937 17.554 6.24632 17.4237 6.14062 17.2969C6.57375 16.8638 7.00687 16.4306 7.45312 15.9844Z" fill="#697865"/>
<path d="M6.65625 6.14062C6.96346 6.39311 7.2409 6.67307 7.52051 6.95508C7.56868 7.00349 7.61687 7.05189 7.66507 7.10028C7.78205 7.21777 7.89888 7.33541 8.01562 7.45312C7.94037 7.613 7.85601 7.71647 7.72852 7.83984C7.69456 7.87296 7.6606 7.90607 7.62561 7.94019C7.59963 7.96508 7.57365 7.98998 7.54688 8.01562C7.35018 7.93885 7.21937 7.79375 7.07446 7.64612C7.04768 7.6192 7.02089 7.59228 6.99329 7.56455C6.90807 7.4788 6.82317 7.39272 6.73828 7.30664C6.68044 7.24833 6.62258 7.19004 6.5647 7.13177C6.42309 6.98914 6.28178 6.84621 6.14062 6.70312C6.18463 6.65125 6.22871 6.59945 6.27283 6.54767C6.30964 6.50438 6.30964 6.50438 6.34719 6.46022C6.44539 6.34817 6.54936 6.24437 6.65625 6.14062Z" fill="#697865"/>
<path d="M11.625 18C11.8725 18 12.12 18 12.375 18C12.375 18.6342 12.375 19.2684 12.375 19.9219C12.1275 19.9219 11.88 19.9219 11.625 19.9219C11.625 19.2877 11.625 18.6534 11.625 18Z" fill="#697865"/>
<path d="M4.07812 11.625C4.71234 11.625 5.34656 11.625 6 11.625C6 11.8725 6 12.12 6 12.375C5.36578 12.375 4.73156 12.375 4.07812 12.375C4.07812 12.1275 4.07812 11.88 4.07812 11.625Z" fill="#697865"/>
<path d="M19.3125 10.1719C19.56 10.1719 19.8075 10.1719 20.0625 10.1719C20.0625 10.4194 20.0625 10.6669 20.0625 10.9219C19.815 10.9219 19.5675 10.9219 19.3125 10.9219C19.3125 10.6744 19.3125 10.4269 19.3125 10.1719Z" fill="#697865"/>
<path d="M17.9062 10.1719C18.1538 10.1719 18.4012 10.1719 18.6562 10.1719C18.6562 10.4194 18.6562 10.6669 18.6562 10.9219C18.4087 10.9219 18.1613 10.9219 17.9062 10.9219C17.9062 10.6744 17.9062 10.4269 17.9062 10.1719Z" fill="#697865"/>
</g>
<defs>
<clipPath id="clip0_109_60">
<rect width="24" height="24" fill="white"/>
</clipPath>
</defs>
</svg>
