<svg width="20" height="21" viewBox="0 0 20 21" fill="none" xmlns="http://www.w3.org/2000/svg">
<path d="M10.0003 19.4584C5.05866 19.4584 1.04199 15.4417 1.04199 10.5001C1.04199 5.55842 5.05866 1.54175 10.0003 1.54175C14.942 1.54175 18.9587 5.55842 18.9587 10.5001C18.9587 15.4417 14.942 19.4584 10.0003 19.4584ZM10.0003 2.79175C5.75033 2.79175 2.29199 6.25008 2.29199 10.5001C2.29199 14.7501 5.75033 18.2084 10.0003 18.2084C14.2503 18.2084 17.7087 14.7501 17.7087 10.5001C17.7087 6.25008 14.2503 2.79175 10.0003 2.79175Z" fill="#BABABA"/>
<path d="M10 9.25008C9.65833 9.25008 9.375 9.53341 9.375 9.87508V14.0417C9.375 14.3834 9.65833 14.6667 10 14.6667C10.3417 14.6667 10.625 14.3834 10.625 14.0417V9.87508C10.625 9.53341 10.3417 9.25008 10 9.25008Z" fill="#BABABA"/>
<path d="M10.0003 6.5416C9.89199 6.5416 9.78366 6.5666 9.68366 6.60827C9.58366 6.64993 9.49199 6.70827 9.40866 6.78327C9.33366 6.8666 9.27533 6.94994 9.23366 7.05827C9.19199 7.15827 9.16699 7.2666 9.16699 7.37493C9.16699 7.48327 9.19199 7.5916 9.23366 7.6916C9.27533 7.7916 9.33366 7.88327 9.40866 7.9666C9.49199 8.0416 9.58366 8.09993 9.68366 8.1416C9.88366 8.22493 10.117 8.22493 10.317 8.1416C10.417 8.09993 10.5087 8.0416 10.592 7.9666C10.667 7.88327 10.7253 7.7916 10.767 7.6916C10.8087 7.5916 10.8337 7.48327 10.8337 7.37493C10.8337 7.2666 10.8087 7.15827 10.767 7.05827C10.7253 6.94994 10.667 6.8666 10.592 6.78327C10.5087 6.70827 10.417 6.64993 10.317 6.60827C10.217 6.5666 10.1087 6.5416 10.0003 6.5416Z" fill="#BABABA"/>
</svg>
