<svg width="26" height="26" viewBox="0 0 26 26" fill="none" xmlns="http://www.w3.org/2000/svg">
<g clip-path="url(#clip0_774_5276)">
<path d="M25.5056 7.47968C25.4464 6.13735 25.2293 5.21452 24.9183 4.41486C24.5976 3.56605 24.104 2.80611 23.4575 2.17437C22.8257 1.5328 22.0608 1.03427 21.2218 0.718495C20.4175 0.40754 19.4995 0.19047 18.1572 0.131286C16.8048 0.0670902 16.3755 0.0522461 12.9456 0.0522461C9.51561 0.0522461 9.08629 0.0670902 7.73895 0.126274C6.39662 0.185457 5.47379 0.402721 4.67433 0.713482C3.82532 1.03427 3.06539 1.52779 2.43365 2.17437C1.79207 2.80611 1.29374 3.57106 0.977771 4.41004C0.666817 5.21452 0.449747 6.13234 0.390563 7.47467C0.326367 8.82702 0.311523 9.25635 0.311523 12.6863C0.311523 16.1162 0.326367 16.5456 0.385551 17.8929C0.444734 19.2352 0.661997 20.1581 0.972951 20.9577C1.29374 21.8065 1.79207 22.5665 2.43365 23.1982C3.06539 23.8398 3.83034 24.3383 4.66931 24.6541C5.47379 24.965 6.39161 25.1821 7.73413 25.2413C9.08128 25.3007 9.51079 25.3153 12.9407 25.3153C16.3707 25.3153 16.8 25.3007 18.1473 25.2413C19.4897 25.1821 20.4125 24.965 21.212 24.6541C22.9098 23.9977 24.2521 22.6553 24.9085 20.9577C25.2193 20.1532 25.4365 19.2352 25.4957 17.8929C25.5549 16.5456 25.5697 16.1162 25.5697 12.6863C25.5697 9.25635 25.5647 8.82702 25.5056 7.47968ZM23.2306 17.7942C23.1762 19.028 22.969 19.6942 22.7962 20.1384C22.3717 21.239 21.4982 22.1125 20.3977 22.537C19.9535 22.7097 19.2824 22.9169 18.0534 22.9711C16.721 23.0305 16.3213 23.0451 12.9506 23.0451C9.57981 23.0451 9.17516 23.0305 7.84749 22.9711C6.61369 22.9169 5.94745 22.7097 5.50328 22.537C4.95559 22.3346 4.45706 22.0138 4.05242 21.5943C3.63293 21.1846 3.31214 20.6911 3.10972 20.1434C2.93699 19.6993 2.72976 19.028 2.67558 17.7992C2.61621 16.4667 2.60156 16.0669 2.60156 12.6961C2.60156 9.32536 2.61621 8.92072 2.67558 7.59323C2.72976 6.35944 2.93699 5.69319 3.10972 5.24902C3.31214 4.70114 3.63293 4.20281 4.05743 3.79797C4.4669 3.37848 4.96041 3.05769 5.50829 2.85546C5.95246 2.68273 6.62372 2.47549 7.8525 2.42113C9.18499 2.36195 9.58482 2.3471 12.9554 2.3471C16.3312 2.3471 16.7308 2.36195 18.0585 2.42113C19.2923 2.47549 19.9585 2.68273 20.4027 2.85546C20.9504 3.05769 21.4489 3.37848 21.8535 3.79797C22.273 4.20762 22.5938 4.70114 22.7962 5.24902C22.969 5.69319 23.1762 6.36426 23.2306 7.59323C23.2897 8.92573 23.3046 9.32536 23.3046 12.6961C23.3046 16.0669 23.2897 16.4617 23.2306 17.7942Z" fill="white"/>
<path d="M12.9458 6.19629C9.36299 6.19629 6.45605 9.10303 6.45605 12.686C6.45605 16.2691 9.36299 19.1758 12.9458 19.1758C16.5288 19.1758 19.4356 16.2691 19.4356 12.686C19.4356 9.10303 16.5288 6.19629 12.9458 6.19629ZM12.9458 16.8958C10.6215 16.8958 8.73607 15.0106 8.73607 12.686C8.73607 10.3615 10.6215 8.4763 12.9458 8.4763C15.2704 8.4763 17.1556 10.3615 17.1556 12.686C17.1556 15.0106 15.2704 16.8958 12.9458 16.8958Z" fill="white"/>
<path d="M21.2071 5.93987C21.2071 6.77654 20.5287 7.45493 19.6918 7.45493C18.8552 7.45493 18.1768 6.77654 18.1768 5.93987C18.1768 5.10301 18.8552 4.4248 19.6918 4.4248C20.5287 4.4248 21.2071 5.10301 21.2071 5.93987Z" fill="white"/>
</g>
<defs>
<clipPath id="clip0_774_5276">
<rect width="25.2632" height="25.2632" fill="white" transform="translate(0.26709 0.0522461)"/>
</clipPath>
</defs>
</svg>
