<svg width="16" height="16" viewBox="0 0 16 16" fill="none" xmlns="http://www.w3.org/2000/svg">
<g clip-path="url(#clip0_1852_11323)">
<path d="M15.7717 4.64215C15.7347 3.80319 15.599 3.22642 15.4047 2.72664C15.2042 2.19613 14.8957 1.72117 14.4916 1.32633C14.0968 0.925345 13.6187 0.613764 13.0943 0.416405C12.5916 0.222059 12.0179 0.0863896 11.1789 0.0493999C10.3337 0.00927754 10.0654 0 7.92166 0C5.77794 0 5.50962 0.00927754 4.66753 0.0462673C3.82858 0.083257 3.2518 0.219047 2.75214 0.413273C2.22152 0.613764 1.74655 0.922212 1.35172 1.32633C0.950734 1.72117 0.639274 2.19926 0.441795 2.72362C0.247449 3.22642 0.11178 3.80006 0.0747905 4.63902C0.0346682 5.48424 0.0253906 5.75256 0.0253906 7.89628C0.0253906 10.04 0.0346682 10.3083 0.0716578 11.1504C0.108647 11.9894 0.244437 12.5661 0.438783 13.0659C0.639274 13.5964 0.950734 14.0714 1.35172 14.4662C1.74655 14.8672 2.22465 15.1788 2.74901 15.3762C3.2518 15.5705 3.82544 15.7062 4.66452 15.7432C5.50649 15.7803 5.77493 15.7894 7.91864 15.7894C10.0624 15.7894 10.3307 15.7803 11.1728 15.7432C12.0117 15.7062 12.5885 15.5705 13.0882 15.3762C14.1493 14.9659 14.9882 14.1269 15.3985 13.0659C15.5927 12.5631 15.7285 11.9894 15.7655 11.1504C15.8025 10.3083 15.8118 10.04 15.8118 7.89628C15.8118 5.75256 15.8086 5.48424 15.7717 4.64215ZM14.3498 11.0887C14.3158 11.8598 14.1863 12.2762 14.0783 12.5538C13.813 13.2417 13.2671 13.7876 12.5792 14.053C12.3016 14.1609 11.8822 14.2904 11.1141 14.3243C10.2813 14.3614 10.0315 14.3706 7.92479 14.3706C5.81807 14.3706 5.56516 14.3614 4.73537 14.3243C3.96425 14.2904 3.54784 14.1609 3.27024 14.053C2.92793 13.9264 2.61635 13.726 2.36345 13.4638C2.10127 13.2077 1.90078 12.8993 1.77427 12.557C1.66631 12.2794 1.53679 11.8598 1.50293 11.0919C1.46582 10.259 1.45666 10.0091 1.45666 7.90242C1.45666 5.7957 1.46582 5.54279 1.50293 4.71312C1.53679 3.94199 1.66631 3.52559 1.77427 3.24799C1.90078 2.90556 2.10127 2.5941 2.36658 2.34107C2.6225 2.07889 2.93095 1.8784 3.27337 1.75201C3.55097 1.64405 3.97051 1.51453 4.7385 1.48055C5.57131 1.44356 5.8212 1.43428 7.9278 1.43428C10.0377 1.43428 10.2874 1.44356 11.1172 1.48055C11.8883 1.51453 12.3048 1.64405 12.5824 1.75201C12.9247 1.8784 13.2362 2.07889 13.4891 2.34107C13.7513 2.59711 13.9518 2.90556 14.0783 3.24799C14.1863 3.52559 14.3158 3.94501 14.3498 4.71312C14.3868 5.54593 14.3961 5.7957 14.3961 7.90242C14.3961 10.0091 14.3868 10.2559 14.3498 11.0887Z" fill="#9B9A78"/>
<path d="M7.92328 3.83984C5.68402 3.83984 3.86719 5.65656 3.86719 7.89594C3.86719 10.1353 5.68402 11.952 7.92328 11.952C10.1627 11.952 11.9794 10.1353 11.9794 7.89594C11.9794 5.65656 10.1627 3.83984 7.92328 3.83984ZM7.92328 10.527C6.47056 10.527 5.29219 9.34878 5.29219 7.89594C5.29219 6.4431 6.47056 5.26485 7.92328 5.26485C9.37612 5.26485 10.5544 6.4431 10.5544 7.89594C10.5544 9.34878 9.37612 10.527 7.92328 10.527V10.527Z" fill="#9B9A78"/>
<path d="M13.0854 3.67934C13.0854 4.20226 12.6614 4.62625 12.1383 4.62625C11.6154 4.62625 11.1914 4.20226 11.1914 3.67934C11.1914 3.1563 11.6154 2.73242 12.1383 2.73242C12.6614 2.73242 13.0854 3.1563 13.0854 3.67934V3.67934Z" fill="#9B9A78"/>
</g>
<defs>
<clipPath id="clip0_1852_11323">
<rect width="15.7895" height="15.7895" fill="white"/>
</clipPath>
</defs>
</svg>
