<svg width="30" height="30" viewBox="0 0 30 30" fill="none" xmlns="http://www.w3.org/2000/svg">
<path d="M29.9687 8.82008C29.8984 7.22607 29.6406 6.1302 29.2714 5.18061C28.8904 4.17264 28.3044 3.27022 27.5366 2.52002C26.7864 1.75816 25.878 1.16615 24.8817 0.79117C23.9266 0.421912 22.8365 0.16414 21.2425 0.0938599C19.6366 0.0176273 19.1267 0 15.0537 0C10.9806 0 10.4708 0.0176273 8.87085 0.0879078C7.27684 0.158188 6.18097 0.416188 5.23161 0.785218C4.22342 1.16615 3.32099 1.7522 2.5708 2.52002C1.80893 3.27022 1.21716 4.1786 0.84195 5.17488C0.472692 6.1302 0.214921 7.22011 0.144641 8.81413C0.0684086 10.42 0.0507812 10.9299 0.0507812 15.0029C0.0507812 19.076 0.0684086 19.5858 0.138689 21.1858C0.208969 22.7798 0.466969 23.8757 0.836227 24.8253C1.21716 25.8332 1.80893 26.7356 2.5708 27.4858C3.32099 28.2477 4.22937 28.8397 5.22566 29.2147C6.18097 29.5839 7.27088 29.8417 8.86513 29.912C10.4649 29.9825 10.9749 29.9999 15.048 29.9999C19.121 29.9999 19.6308 29.9825 21.2308 29.912C22.8248 29.8417 23.9207 29.5839 24.87 29.2147C26.8862 28.4352 28.4802 26.8412 29.2597 24.8253C29.6287 23.8699 29.8867 22.7798 29.957 21.1858C30.0273 19.5858 30.0449 19.076 30.0449 15.0029C30.0449 10.9299 30.039 10.42 29.9687 8.82008ZM27.2671 21.0686C27.2026 22.5337 26.9565 23.3249 26.7514 23.8523C26.2473 25.1593 25.21 26.1965 23.9031 26.7006C23.3756 26.9057 22.5787 27.1518 21.1193 27.2162C19.537 27.2867 19.0624 27.3041 15.0596 27.3041C11.0569 27.3041 10.5763 27.2867 8.99973 27.2162C7.53461 27.1518 6.74344 26.9057 6.21599 26.7006C5.56561 26.4602 4.97361 26.0793 4.49309 25.5812C3.99495 25.0947 3.61402 24.5086 3.37364 23.8583C3.16853 23.3308 2.92243 22.5337 2.8581 21.0745C2.78759 19.4922 2.7702 19.0174 2.7702 15.0146C2.7702 11.0118 2.78759 10.5313 2.8581 8.95492C2.92243 7.48979 3.16853 6.69862 3.37364 6.17117C3.61402 5.52056 3.99495 4.92879 4.49905 4.44804C4.98529 3.9499 5.57134 3.56897 6.22194 3.32882C6.74939 3.1237 7.54651 2.87761 9.00569 2.81305C10.588 2.74277 11.0628 2.72514 15.0654 2.72514C19.0741 2.72514 19.5487 2.74277 21.1253 2.81305C22.5904 2.87761 23.3816 3.1237 23.909 3.32882C24.5594 3.56897 25.1514 3.9499 25.6319 4.44804C26.1301 4.93451 26.511 5.52056 26.7514 6.17117C26.9565 6.69862 27.2026 7.49551 27.2671 8.95492C27.3374 10.5373 27.355 11.0118 27.355 15.0146C27.355 19.0174 27.3374 19.4862 27.2671 21.0686Z" fill="#9B9A78"/>
<path d="M15.0542 7.29639C10.7996 7.29639 7.34766 10.7481 7.34766 15.003C7.34766 19.2578 10.7996 22.7096 15.0542 22.7096C19.3091 22.7096 22.7608 19.2578 22.7608 15.003C22.7608 10.7481 19.3091 7.29639 15.0542 7.29639ZM15.0542 20.002C12.2941 20.002 10.0552 17.7634 10.0552 15.003C10.0552 12.2426 12.2941 10.0039 15.0542 10.0039C17.8146 10.0039 20.0533 12.2426 20.0533 15.003C20.0533 17.7634 17.8146 20.002 15.0542 20.002V20.002Z" fill="#9B9A78"/>
<path d="M24.8641 6.99152C24.8641 7.98507 24.0585 8.79066 23.0648 8.79066C22.0712 8.79066 21.2656 7.98507 21.2656 6.99152C21.2656 5.99775 22.0712 5.19238 23.0648 5.19238C24.0585 5.19238 24.8641 5.99775 24.8641 6.99152V6.99152Z" fill="#9B9A78"/>
</svg>
