<svg width="16" height="16" viewBox="0 0 16 16" fill="none" xmlns="http://www.w3.org/2000/svg">
<g clip-path="url(#clip0_1852_11328)">
<path d="M15.7866 15.79V15.7893H15.7906V9.99853C15.7906 7.16563 15.1807 4.9834 11.8688 4.9834C10.2767 4.9834 9.20831 5.85708 8.77213 6.68537H8.72608V5.24787H5.58594V15.7893H8.85568V10.5696C8.85568 9.19524 9.11621 7.86629 10.8182 7.86629C12.4952 7.86629 12.5202 9.43471 12.5202 10.6577V15.79H15.7866Z" fill="#9B9A78"/>
<path d="M0.259766 5.24805H3.53345V15.7895H0.259766V5.24805Z" fill="#9B9A78"/>
<path d="M1.89605 0C0.849342 0 0 0.849342 0 1.89605C0 2.94276 0.849342 3.80987 1.89605 3.80987C2.94276 3.80987 3.7921 2.94276 3.7921 1.89605C3.79145 0.849342 2.9421 0 1.89605 0V0Z" fill="#9B9A78"/>
</g>
<defs>
<clipPath id="clip0_1852_11328">
<rect width="15.7895" height="15.7895" fill="white"/>
</clipPath>
</defs>
</svg>
