<svg width="26" height="26" viewBox="0 0 26 26" fill="none" xmlns="http://www.w3.org/2000/svg">
<g clip-path="url(#clip0_774_5271)">
<path d="M25.8396 25.3154V25.3144H25.846V16.0491C25.846 11.5165 24.8702 8.0249 19.5712 8.0249C17.0238 8.0249 15.3144 9.4228 14.6165 10.7481H14.5428V8.44806H9.51855V25.3144H14.7501V16.9628C14.7501 14.7639 15.167 12.6375 17.8902 12.6375C20.5733 12.6375 20.6133 15.147 20.6133 17.1038V25.3154H25.8396Z" fill="white"/>
<path d="M1 8.44873H6.2379V25.315H1V8.44873Z" fill="white"/>
<path d="M3.61669 0.0522461C1.94196 0.0522461 0.583008 1.41119 0.583008 3.08593C0.583008 4.76067 1.94196 6.14804 3.61669 6.14804C5.29143 6.14804 6.65038 4.76067 6.65038 3.08593C6.64932 1.41119 5.29038 0.0522461 3.61669 0.0522461V0.0522461Z" fill="white"/>
</g>
<defs>
<clipPath id="clip0_774_5271">
<rect width="25.2632" height="25.2632" fill="white" transform="translate(0.583008 0.0522461)"/>
</clipPath>
</defs>
</svg>
