<svg width="19" height="19" viewBox="0 0 19 19" fill="none" xmlns="http://www.w3.org/2000/svg">
<g clip-path="url(#clip0_1852_11310)">
<path d="M9.32336 1.55371C6.3166 1.55371 3.88477 3.98554 3.88477 6.99231C3.88477 11.0713 9.32336 17.0926 9.32336 17.0926C9.32336 17.0926 14.762 11.0713 14.762 6.99231C14.762 3.98554 12.3301 1.55371 9.32336 1.55371ZM5.43865 6.99231C5.43865 4.84795 7.179 3.1076 9.32336 3.1076C11.4677 3.1076 13.2081 4.84795 13.2081 6.99231C13.2081 9.2299 10.9705 12.5785 9.32336 14.6685C7.70732 12.5941 5.43865 9.20659 5.43865 6.99231Z" fill="#575757"/>
<path d="M9.32322 8.93452C10.3959 8.93452 11.2656 8.06489 11.2656 6.99216C11.2656 5.91943 10.3959 5.0498 9.32322 5.0498C8.25048 5.0498 7.38086 5.91943 7.38086 6.99216C7.38086 8.06489 8.25048 8.93452 9.32322 8.93452Z" fill="#575757"/>
</g>
<defs>
<clipPath id="clip0_1852_11310">
<rect width="18.6466" height="18.6466" fill="white"/>
</clipPath>
</defs>
</svg>
