<svg xmlns="http://www.w3.org/2000/svg" width="512" height="109.344" viewBox="0 0 512 109.344">
  <g id="Group_44" data-name="Group 44" transform="translate(-313.1 -269.144)">
    <path id="Path_51" data-name="Path 51" d="M22.969-42.84H34.323L57.8,18.109H46.359L40.639,1.975H16.311L10.592,18.109H-.42ZM19.213-6.134H37.822L28.689-32.34h-.256ZM103.04,15.8q0,9.987-5.591,14.9T81.357,35.608a33.686,33.686,0,0,1-6.7-.683,19.913,19.913,0,0,1-6.146-2.3,14.816,14.816,0,0,1-4.652-4.268,12.975,12.975,0,0,1-2.219-6.488H71.37a7.791,7.791,0,0,0,1.451,3.329A7.476,7.476,0,0,0,75.254,27.2a9.251,9.251,0,0,0,3.116.939,28.914,28.914,0,0,0,3.585.213q5.89,0,8.622-2.9t2.732-8.366V10.341h-.171a14.8,14.8,0,0,1-5.591,5.719,15,15,0,0,1-7.64,2.049A20.166,20.166,0,0,1,70.9,16.274a17.133,17.133,0,0,1-6.146-5.036,20.927,20.927,0,0,1-3.543-7.384A34.843,34.843,0,0,1,60.1-5.11a26.043,26.043,0,0,1,1.366-8.451A21.545,21.545,0,0,1,65.395-20.6a18.807,18.807,0,0,1,6.274-4.823,19.1,19.1,0,0,1,8.408-1.793,16.936,16.936,0,0,1,7.683,1.75,11.877,11.877,0,0,1,5.378,5.506h.171v-6.061h9.731Zm-21.6-5.378A10.733,10.733,0,0,0,86.949,9.1a10.807,10.807,0,0,0,3.671-3.5A15.407,15.407,0,0,0,92.668.652a24.789,24.789,0,0,0,.64-5.591,21.776,21.776,0,0,0-.683-5.463A14.684,14.684,0,0,0,90.534-15.1a10.107,10.107,0,0,0-3.671-3.244,11.463,11.463,0,0,0-5.421-1.2A10.24,10.24,0,0,0,75.98-18.17a10.94,10.94,0,0,0-3.585,3.543,15.286,15.286,0,0,0-1.963,4.951,26.088,26.088,0,0,0-.6,5.506,20.94,20.94,0,0,0,.683,5.335,14.733,14.733,0,0,0,2.091,4.652,11.159,11.159,0,0,0,3.585,3.329A10.18,10.18,0,0,0,81.443,10.426ZM143.16-7.841a15.693,15.693,0,0,0-.982-4.439,11.828,11.828,0,0,0-2.219-3.713,10.991,10.991,0,0,0-3.415-2.561,10.059,10.059,0,0,0-4.482-.982,11.693,11.693,0,0,0-4.652.9,10.64,10.64,0,0,0-3.585,2.476,12.244,12.244,0,0,0-2.39,3.713,12.954,12.954,0,0,0-.982,4.61Zm-22.706,6.4a16.95,16.95,0,0,0,.726,4.951,12.2,12.2,0,0,0,2.177,4.183,10.491,10.491,0,0,0,3.671,2.86,12.111,12.111,0,0,0,5.292,1.067,11.689,11.689,0,0,0,6.872-1.835,10.849,10.849,0,0,0,3.884-5.506h9.219a18.349,18.349,0,0,1-2.646,6.4,18.412,18.412,0,0,1-4.524,4.738,19.528,19.528,0,0,1-5.933,2.9,23.882,23.882,0,0,1-6.872.982A23.367,23.367,0,0,1,123.1,17.6a19.058,19.058,0,0,1-6.786-4.78,20.285,20.285,0,0,1-4.183-7.341,29.823,29.823,0,0,1-1.408-9.39,26.564,26.564,0,0,1,1.494-8.92,22.835,22.835,0,0,1,4.268-7.427,20.411,20.411,0,0,1,6.7-5.079,20.324,20.324,0,0,1,8.878-1.878,19.778,19.778,0,0,1,9.347,2.177,20.511,20.511,0,0,1,6.872,5.762,23.33,23.33,0,0,1,3.969,8.237,25.251,25.251,0,0,1,.64,9.6Z" transform="translate(672.015 341.884)" fill="#020202"/>
    <path id="Path_50" data-name="Path 50" d="M22.969-42.84H34.323L57.8,18.109H46.359L40.639,1.975H16.311L10.592,18.109H-.42ZM19.213-6.134H37.822L28.689-32.34h-.256Zm72.814-5.122a9.129,9.129,0,0,0-3.286-6.189,10.723,10.723,0,0,0-6.786-2.091,13.992,13.992,0,0,0-4.012.64,9.52,9.52,0,0,0-3.927,2.39,13.4,13.4,0,0,0-2.988,4.866,23.164,23.164,0,0,0-1.2,8.152,23.87,23.87,0,0,0,.64,5.463,14.936,14.936,0,0,0,2.049,4.866A11.1,11.1,0,0,0,76.15,10.3a10.322,10.322,0,0,0,5.378,1.323,9.792,9.792,0,0,0,7.042-2.646,12.3,12.3,0,0,0,3.457-7.427h9.731q-1.366,8.622-6.53,13.189T81.528,19.3a22.562,22.562,0,0,1-9.176-1.75,19.451,19.451,0,0,1-6.7-4.78,20.3,20.3,0,0,1-4.14-7.213A28.183,28.183,0,0,1,60.1-3.488a30.915,30.915,0,0,1,1.366-9.3,21.313,21.313,0,0,1,4.1-7.555,19.173,19.173,0,0,1,6.786-5.036,22.9,22.9,0,0,1,9.518-1.835,26.6,26.6,0,0,1,7.3.982,19.224,19.224,0,0,1,6.146,2.945,15.675,15.675,0,0,1,4.4,4.951,16.953,16.953,0,0,1,2.049,7.085Zm13.231-14.768H112.6V-39.255h9.731v13.231h8.792v7.256h-8.792V4.792a23.5,23.5,0,0,0,.128,2.646,4.567,4.567,0,0,0,.6,1.878,2.856,2.856,0,0,0,1.408,1.152,6.93,6.93,0,0,0,2.561.384q1.024,0,2.049-.043a10.175,10.175,0,0,0,2.049-.3v7.512q-1.622.171-3.158.341a28.589,28.589,0,0,1-3.158.171,21.542,21.542,0,0,1-6.189-.726,8.262,8.262,0,0,1-3.671-2.134,7.364,7.364,0,0,1-1.793-3.543,26.658,26.658,0,0,1-.555-4.866V-18.768h-7.341ZM138.38-42.84h9.731v9.219H138.38Zm0,16.816h9.731V18.109H138.38Zm15.963,0h10.585L176.11,7.865h.171l10.756-33.889h10.073L181.317,18.109H170.391ZM233.3-7.841a15.693,15.693,0,0,0-.982-4.439,11.828,11.828,0,0,0-2.219-3.713,10.99,10.99,0,0,0-3.414-2.561,10.059,10.059,0,0,0-4.482-.982,11.694,11.694,0,0,0-4.652.9,10.64,10.64,0,0,0-3.585,2.476,12.244,12.244,0,0,0-2.39,3.713,12.954,12.954,0,0,0-.982,4.61ZM210.6-1.439a16.95,16.95,0,0,0,.726,4.951A12.2,12.2,0,0,0,213.5,7.695a10.492,10.492,0,0,0,3.671,2.86,12.111,12.111,0,0,0,5.292,1.067,11.689,11.689,0,0,0,6.872-1.835,10.849,10.849,0,0,0,3.884-5.506h9.219a18.349,18.349,0,0,1-2.646,6.4,18.412,18.412,0,0,1-4.524,4.738,19.528,19.528,0,0,1-5.933,2.9,23.882,23.882,0,0,1-6.872.982,23.367,23.367,0,0,1-9.219-1.707,19.058,19.058,0,0,1-6.786-4.78,20.285,20.285,0,0,1-4.183-7.341,29.823,29.823,0,0,1-1.408-9.39,26.564,26.564,0,0,1,1.494-8.92,22.835,22.835,0,0,1,4.268-7.427,20.412,20.412,0,0,1,6.7-5.079,20.324,20.324,0,0,1,8.878-1.878,19.778,19.778,0,0,1,9.347,2.177,20.511,20.511,0,0,1,6.872,5.762,23.33,23.33,0,0,1,3.969,8.237,25.25,25.25,0,0,1,.64,9.6Z" transform="translate(427.308 341.884)" fill="#020202"/>
    <g id="Group_32" data-name="Group 32" transform="translate(313.1 269.144)">
      <g id="Group_4" data-name="Group 4">
        <g id="bulb-svgrepo-com" transform="translate(19.139 22.582)">
          <path id="Path_6" data-name="Path 6" d="M117.865,214.577H103.934a9.091,9.091,0,0,1-9.091-9.091v-12h32.113v12A9.091,9.091,0,0,1,117.865,214.577Z" transform="translate(-79.469 -137.739)" fill="#9b9a79"/>
          <path id="Path_7" data-name="Path 7" d="M138.357,266.612H124.426c-.269,0-.534-.014-.8-.037,0,.012,0,.024,0,.037a7.763,7.763,0,0,0,15.526,0c0-.012,0-.025,0-.037C138.891,266.6,138.626,266.612,138.357,266.612Z" transform="translate(-99.961 -189.774)" fill="#dad9ce"/>
          <path id="Path_8" data-name="Path 8" d="M78.249,7.5A29.271,29.271,0,0,0,62.193,61.245v-.163H94.306v.163A29.271,29.271,0,0,0,78.249,7.5Z" transform="translate(-46.818 -5.339)" fill="#d9d9cc"/>
          <g id="Group_2" data-name="Group 2" transform="translate(0)">
            <g id="Group_1" data-name="Group 1">
              <path id="Path_10" data-name="Path 10" d="M104.341,31.431A31.431,31.431,0,1,0,54.693,57.042V67.747a11.273,11.273,0,0,0,8.462,10.9,9.922,9.922,0,0,0,19.512,0,11.272,11.272,0,0,0,8.462-10.9V57.042A31.358,31.358,0,0,0,104.341,31.431ZM72.91,82.441A5.612,5.612,0,0,1,67.741,79H78.079A5.611,5.611,0,0,1,72.91,82.441Zm13.9-14.694a6.941,6.941,0,0,1-6.93,6.93c-14.921,0-14.03.016-14.542-.029h-.009a6.933,6.933,0,0,1-5.089-2.977h6.738a2.161,2.161,0,0,0,0-4.322h-7.96V65.232h13.9a2.161,2.161,0,1,0,0-4.322h-13.9V57.9H86.806Zm1.734-14.165H57.28a27.11,27.11,0,1,1,31.259,0Z" transform="translate(-41.479)" fill="#020202"/>
            </g>
          </g>
        </g>
        <path id="Path_36" data-name="Path 36" d="M4293.836,693.866v10.911" transform="translate(-4243.267 -691.021)" fill="#020202"/>
        <path id="Path_36_-_Outline" data-name="Path 36 - Outline" d="M4294.681,708.469a2.845,2.845,0,0,1-2.845-2.845V694.712a2.845,2.845,0,0,1,5.691,0v10.911A2.846,2.846,0,0,1,4294.681,708.469Z" transform="translate(-4244.111 -691.866)" fill="#020202"/>
        <path id="Path_37" data-name="Path 37" d="M0,0V10.911" transform="translate(85.859 16.988) rotate(45)" fill="#020202"/>
        <path id="Path_37_-_Outline" data-name="Path 37 - Outline" d="M2.845,16.6A2.845,2.845,0,0,1,0,13.757V2.845a2.845,2.845,0,0,1,5.691,0V13.757A2.845,2.845,0,0,1,2.845,16.6Z" transform="translate(85.859 12.964) rotate(45)" fill="#020202"/>
        <path id="Path_39" data-name="Path 39" d="M0,0V10.911" transform="translate(99.18 48.462) rotate(90)" fill="#020202"/>
        <path id="Path_39_-_Outline" data-name="Path 39 - Outline" d="M2.845,16.6A2.845,2.845,0,0,1,0,13.757V2.845a2.845,2.845,0,0,1,5.691,0V13.757A2.845,2.845,0,0,1,2.845,16.6Z" transform="translate(102.025 45.616) rotate(90)" fill="#020202"/>
        <path id="Path_40" data-name="Path 40" d="M0,0V10.911" transform="translate(2.845 48.461) rotate(-90)" fill="#020202"/>
        <path id="Path_40_-_Outline" data-name="Path 40 - Outline" d="M2.845,16.6A2.845,2.845,0,0,1,0,13.757V2.845a2.845,2.845,0,0,1,5.691,0V13.757A2.845,2.845,0,0,1,2.845,16.6Z" transform="translate(0 51.307) rotate(-90)" fill="#020202"/>
        <path id="Path_38" data-name="Path 38" d="M0,0V10.911" transform="translate(16.412 16.987) rotate(-45)" fill="#020202"/>
        <path id="Path_38_-_Outline" data-name="Path 38 - Outline" d="M2.845,16.6A2.845,2.845,0,0,1,0,13.757V2.845a2.845,2.845,0,0,1,5.691,0V13.757A2.845,2.845,0,0,1,2.845,16.6Z" transform="translate(12.388 16.987) rotate(-45)" fill="#020202"/>
      </g>
    </g>
  </g>
</svg>
