<svg width="20" height="20" viewBox="0 0 20 20" fill="none" xmlns="http://www.w3.org/2000/svg">
<path d="M16.5604 15.6198L12.9457 11.9983C13.7838 10.9192 14.1792 9.56124 14.0512 8.20089C13.9232 6.84055 13.2816 5.58011 12.257 4.67622C11.2323 3.77232 9.9017 3.29292 8.53602 3.33563C7.17033 3.37835 5.87227 3.93995 4.90611 4.90611C3.93995 5.87227 3.37835 7.17033 3.33563 8.53602C3.29292 9.9017 3.77232 11.2323 4.67622 12.257C5.58011 13.2816 6.84055 13.9232 8.20089 14.0512C9.56124 14.1792 10.9192 13.7838 11.9983 12.9457L15.6198 16.5604C15.7506 16.6433 15.9058 16.6792 16.0597 16.6622C16.2137 16.6452 16.3572 16.5762 16.4667 16.4667C16.5762 16.3572 16.6452 16.2137 16.6622 16.0597C16.6792 15.9058 16.6433 15.7506 16.5604 15.6198ZM4.69174 8.7131C4.69174 7.91775 4.92759 7.14026 5.36946 6.47895C5.81134 5.81764 6.43938 5.30222 7.17419 4.99785C7.909 4.69348 8.71756 4.61385 9.49762 4.76901C10.2777 4.92418 10.9942 5.30717 11.5566 5.86957C12.119 6.43197 12.502 7.1485 12.6572 7.92857C12.8123 8.70864 12.7327 9.5172 12.4283 10.252C12.124 10.9868 11.6086 11.6149 10.9472 12.0567C10.2859 12.4986 9.50845 12.7345 8.7131 12.7345C7.64694 12.7332 6.62479 12.3092 5.8709 11.5553C5.11701 10.8014 4.69295 9.77926 4.69174 8.7131Z" fill="white"/>
</svg>
