<svg width="16" height="17" viewBox="0 0 16 17" fill="none" xmlns="http://www.w3.org/2000/svg">
<path d="M3.51045 7.17969C2.79545 7.17969 2.21045 7.76469 2.21045 8.47969C2.21045 9.19469 2.79545 9.77969 3.51045 9.77969C4.22545 9.77969 4.81045 9.19469 4.81045 8.47969C4.81045 7.76469 4.22545 7.17969 3.51045 7.17969Z" fill="#141522" stroke="#141522" stroke-width="0.78"/>
<path d="M12.6105 7.17969C11.8955 7.17969 11.3105 7.76469 11.3105 8.47969C11.3105 9.19469 11.8955 9.77969 12.6105 9.77969C13.3255 9.77969 13.9105 9.19469 13.9105 8.47969C13.9105 7.76469 13.3255 7.17969 12.6105 7.17969Z" fill="#141522" stroke="#141522" stroke-width="0.78"/>
<path d="M8.06025 7.17969C7.34525 7.17969 6.76025 7.76469 6.76025 8.47969C6.76025 9.19469 7.34525 9.77969 8.06025 9.77969C8.77525 9.77969 9.36025 9.19469 9.36025 8.47969C9.36025 7.76469 8.77525 7.17969 8.06025 7.17969Z" fill="#141522" stroke="#141522" stroke-width="0.78"/>
</svg>
