<svg width="24" height="24" viewBox="0 0 24 24" fill="none" xmlns="http://www.w3.org/2000/svg">
<path d="M9.99623 1.95771C10.0322 1.95725 10.0682 1.95679 10.1052 1.95632C11.6019 1.94116 12.9421 2.1517 14.297 2.81263C14.3426 2.83454 14.3426 2.83454 14.389 2.8569C15.1067 3.20612 15.7353 3.6704 16.3126 4.21888C16.3768 4.27388 16.4413 4.32859 16.506 4.38294C17.962 5.65877 18.8426 7.71299 19.0314 9.60951C19.0387 9.73842 19.0412 9.86712 19.0426 9.99623C19.043 10.0322 19.0435 10.0682 19.0439 10.1052C19.061 11.794 18.7897 13.3495 17.8926 14.8068C17.7933 14.9624 17.7933 14.9624 17.7751 15.1399C17.8205 15.2544 17.8762 15.3147 17.9641 15.401C17.9965 15.4332 18.0289 15.4653 18.0622 15.4985C18.098 15.5333 18.1338 15.5681 18.1706 15.604C18.2081 15.6411 18.2456 15.6782 18.2843 15.7164C18.3659 15.7969 18.4476 15.8774 18.5295 15.9577C18.6593 16.085 18.7887 16.2129 18.9179 16.341C19.2853 16.705 19.6535 17.0682 20.0224 17.4307C20.248 17.6525 20.4728 17.875 20.6973 18.0979C20.7827 18.1825 20.8684 18.2668 20.9544 18.3509C22.0384 19.4104 22.0384 19.4104 22.049 20.2238C22.0502 20.7843 21.8897 21.191 21.4976 21.6002C21.0294 21.9942 20.5227 22.0703 19.9334 22.0414C19.163 21.9681 18.592 21.1746 18.0847 20.6607C17.9255 20.4994 17.7658 20.3387 17.6062 20.1779C17.3098 19.8793 17.0136 19.5806 16.7181 19.2811C16.5117 19.072 16.3047 18.8633 16.0974 18.6551C16.0186 18.5757 15.94 18.4961 15.8616 18.4163C15.7525 18.3054 15.6428 18.1952 15.5328 18.0851C15.5005 18.0518 15.4681 18.0186 15.4348 17.9843C15.4049 17.9546 15.3749 17.9249 15.3441 17.8943C15.3182 17.8682 15.2924 17.8421 15.2658 17.8152C15.1892 17.7551 15.1892 17.7551 15.0907 17.7779C14.9806 17.8201 14.8806 17.8718 14.7773 17.9287C13.4291 18.6598 12.0704 19.0528 10.5294 19.049C10.4904 19.0489 10.4514 19.0489 10.4111 19.0489C9.095 19.0449 7.88595 18.7659 6.70326 18.1876C6.67215 18.1725 6.64103 18.1574 6.60898 18.1419C6.15486 17.9185 5.74619 17.6501 5.34388 17.3439C5.28261 17.2977 5.28261 17.2977 5.2201 17.2505C4.75681 16.8903 4.30499 16.4904 3.93763 16.0314C3.90277 15.9889 3.8679 15.9464 3.83198 15.9027C2.73401 14.5399 1.97646 12.7701 1.95771 11.004C1.95725 10.9681 1.95679 10.9321 1.95632 10.895C1.94116 9.39835 2.1517 8.0582 2.81263 6.70326C2.82724 6.67289 2.84185 6.64253 2.8569 6.61125C3.20612 5.89359 3.6704 5.26493 4.21888 4.68763C4.27388 4.62345 4.3286 4.55901 4.38294 4.49427C5.71567 2.97336 7.98853 1.97903 9.99623 1.95771Z" fill="#ECEAE9"/>
<path d="M9.99623 1.95771C10.0322 1.95725 10.0682 1.95679 10.1052 1.95632C11.6019 1.94116 12.9421 2.1517 14.297 2.81263C14.3426 2.83454 14.3426 2.83454 14.389 2.8569C15.1067 3.20612 15.7353 3.6704 16.3126 4.21888C16.3768 4.27388 16.4413 4.32859 16.506 4.38294C17.962 5.65877 18.8426 7.71299 19.0314 9.60951C19.0387 9.73842 19.0412 9.86712 19.0426 9.99623C19.043 10.0322 19.0435 10.0682 19.0439 10.1052C19.061 11.794 18.7897 13.3495 17.8926 14.8068C17.7933 14.9624 17.7933 14.9624 17.7751 15.1399C17.8205 15.2544 17.8762 15.3147 17.9641 15.401C17.9965 15.4332 18.0289 15.4653 18.0622 15.4985C18.098 15.5333 18.1338 15.5681 18.1706 15.604C18.2081 15.6411 18.2456 15.6782 18.2843 15.7164C18.3659 15.7969 18.4476 15.8774 18.5295 15.9577C18.6593 16.085 18.7887 16.2129 18.9179 16.341C19.2853 16.705 19.6535 17.0682 20.0224 17.4307C20.248 17.6525 20.4728 17.875 20.6973 18.0979C20.7827 18.1825 20.8684 18.2668 20.9544 18.3509C22.0384 19.4104 22.0384 19.4104 22.049 20.2238C22.0502 20.7843 21.8897 21.191 21.4976 21.6002C21.0294 21.9942 20.5227 22.0703 19.9334 22.0414C19.163 21.9681 18.592 21.1746 18.0847 20.6607C17.9255 20.4994 17.7658 20.3387 17.6062 20.1779C17.3098 19.8793 17.0136 19.5806 16.7181 19.2811C16.5117 19.072 16.3047 18.8633 16.0974 18.6551C16.0186 18.5757 15.94 18.4961 15.8616 18.4163C15.7525 18.3054 15.6428 18.1952 15.5328 18.0851C15.5005 18.0518 15.4681 18.0186 15.4348 17.9843C15.4049 17.9546 15.3749 17.9249 15.3441 17.8943C15.3182 17.8682 15.2924 17.8421 15.2658 17.8152C15.1892 17.7551 15.1892 17.7551 15.0907 17.7779C14.9806 17.8201 14.8806 17.8718 14.7773 17.9287C13.4291 18.6598 12.0704 19.0528 10.5294 19.049C10.4904 19.0489 10.4514 19.0489 10.4111 19.0489C9.095 19.0449 7.88595 18.7659 6.70326 18.1876C6.67215 18.1725 6.64103 18.1574 6.60898 18.1419C6.15486 17.9185 5.74619 17.6501 5.34388 17.3439C5.28261 17.2977 5.28261 17.2977 5.2201 17.2505C4.75681 16.8903 4.30499 16.4904 3.93763 16.0314C3.90277 15.9889 3.8679 15.9464 3.83198 15.9027C2.73401 14.5399 1.97646 12.7701 1.95771 11.004C1.95725 10.9681 1.95679 10.9321 1.95632 10.895C1.94116 9.39835 2.1517 8.0582 2.81263 6.70326C2.82724 6.67289 2.84185 6.64253 2.8569 6.61125C3.20612 5.89359 3.6704 5.26493 4.21888 4.68763C4.27388 4.62345 4.3286 4.55901 4.38294 4.49427C5.71567 2.97336 7.98853 1.97903 9.99623 1.95771ZM8.71888 2.71888C8.67034 2.72977 8.67034 2.72977 8.62081 2.74088C7.20256 3.06017 5.98346 3.80849 4.92201 4.78138C4.88599 4.81401 4.84998 4.84664 4.81288 4.88026C3.44882 6.17778 2.57058 8.20115 2.51728 10.0707C2.49733 12.4711 3.28285 14.5503 4.96888 16.2658C6.08075 17.3813 7.60346 18.0953 9.14076 18.3751C9.18618 18.3835 9.2316 18.392 9.2784 18.4006C9.66123 18.4661 10.0331 18.4836 10.421 18.4806C10.5106 18.4801 10.5106 18.4801 10.6021 18.4796C12.8467 18.455 14.8074 17.485 16.378 15.9195C17.8644 14.342 18.5251 12.2289 18.4855 10.0944C18.4686 9.62442 18.3909 9.17523 18.2814 8.71888C18.2701 8.66959 18.2701 8.66959 18.2586 8.6193C17.9314 7.19865 17.1959 5.98799 16.2189 4.92201C16.1699 4.86799 16.1699 4.86799 16.12 4.81288C14.7785 3.40261 12.739 2.58639 10.8175 2.51637C10.0966 2.50058 9.4199 2.55138 8.71888 2.71888Z" fill="#697865"/>
<path d="M10.3594 5.71875C10.6758 5.75391 10.6758 5.75391 10.7812 5.85938C10.7919 5.96468 10.7919 5.96468 10.7904 6.09412C10.7901 6.14034 10.7898 6.18657 10.7895 6.23419C10.7883 6.30679 10.7883 6.30679 10.7871 6.38086C10.7867 6.42962 10.7863 6.47839 10.7858 6.52863C10.7847 6.6493 10.7832 6.76996 10.7812 6.89062C10.8116 6.88974 10.842 6.88886 10.8733 6.88795C11.6413 6.87501 12.3258 7.23168 12.8906 7.73438C12.9183 7.75776 12.946 7.78114 12.9745 7.80524C13.0312 7.875 13.0312 7.875 13.0225 8.04492C13.0099 8.09713 12.9973 8.14934 12.9844 8.20312C12.8499 8.27036 12.7588 8.26499 12.6094 8.25C12.477 8.16595 12.477 8.16595 12.3428 8.05371C11.8521 7.66408 11.4109 7.56366 10.7812 7.40625C10.7967 8.47359 10.8122 9.54094 10.8281 10.6406C10.9983 10.687 11.1684 10.7334 11.3438 10.7812C12.0197 11.0107 12.6862 11.35 13.0283 12.0088C13.2223 12.4158 13.2336 12.938 13.1396 13.377C13.0213 13.7039 12.8726 13.9712 12.6094 14.2031C12.587 14.2257 12.5645 14.2482 12.5414 14.2714C12.3024 14.5001 12.0248 14.6037 11.7188 14.7188C11.6771 14.7358 11.6354 14.7528 11.5924 14.7704C11.3911 14.8489 11.1966 14.8616 10.9827 14.8605C10.926 14.8602 10.926 14.8602 10.8682 14.86C10.8395 14.8598 10.8108 14.8596 10.7812 14.8594C10.7827 14.9026 10.7827 14.9026 10.7842 14.9468C10.7881 15.0778 10.7906 15.2088 10.793 15.3398C10.7945 15.3852 10.7961 15.4306 10.7977 15.4774C10.8024 15.8127 10.8024 15.8127 10.6959 15.9692C10.5938 16.0312 10.5938 16.0312 10.4473 16.0283C10.3125 15.9844 10.3125 15.9844 10.2188 15.8438C10.2081 15.7374 10.2081 15.7374 10.2096 15.6147C10.2099 15.5707 10.2102 15.5268 10.2105 15.4815C10.2113 15.4357 10.2121 15.3899 10.2129 15.3428C10.2133 15.2965 10.2137 15.2501 10.2142 15.2024C10.2153 15.0881 10.2168 14.9737 10.2188 14.8594C10.1666 14.8635 10.1666 14.8635 10.1135 14.8676C9.2672 14.9039 8.40687 14.5376 7.75726 14.003C7.6875 13.9219 7.6875 13.9219 7.65234 13.7461C7.6875 13.5938 7.6875 13.5938 7.74023 13.5C7.87402 13.4286 7.96471 13.4652 8.10938 13.5C8.21796 13.5665 8.21796 13.5665 8.32324 13.6494C8.89987 14.0717 9.52186 14.2276 10.2188 14.3438C10.2188 13.2764 10.2188 12.2091 10.2188 11.1094C10.0177 11.063 9.81656 11.0166 9.60938 10.9688C8.94287 10.7256 8.31958 10.364 8.00739 9.70569C7.99464 9.67391 7.98189 9.64212 7.96875 9.60938C7.95207 9.56804 7.9354 9.52671 7.91821 9.48413C7.78808 9.01434 7.8129 8.43445 8.03174 7.9986C8.37115 7.45826 8.86473 7.10526 9.48047 6.94043C9.72491 6.88918 9.96984 6.86132 10.2188 6.84375C10.218 6.81633 10.2173 6.78891 10.2165 6.76067C10.2136 6.63602 10.2118 6.51138 10.21 6.38672C10.2088 6.34358 10.2076 6.30043 10.2064 6.25598C10.2059 6.21429 10.2055 6.1726 10.205 6.12964C10.2043 6.09134 10.2035 6.05305 10.2028 6.0136C10.2223 5.88223 10.2732 5.81773 10.3594 5.71875Z" fill="#697865"/>
<path d="M17.2969 15.6094C17.5406 15.8135 17.7695 16.0275 17.9949 16.2515C18.0303 16.2865 18.0657 16.3215 18.1022 16.3576C18.2184 16.4726 18.3343 16.5878 18.4503 16.7031C18.4901 16.7426 18.5299 16.7822 18.5709 16.8229C18.7813 17.0321 18.9915 17.2414 19.2016 17.4508C19.3751 17.6236 19.5489 17.7962 19.723 17.9684C19.9339 18.177 20.1443 18.3862 20.3542 18.5958C20.434 18.6753 20.5141 18.7546 20.5943 18.8337C20.7066 18.9446 20.8182 19.0561 20.9295 19.1678C20.9625 19.2 20.9955 19.2323 21.0295 19.2655C21.2712 19.5102 21.4317 19.7642 21.4937 20.1063C21.4887 20.5011 21.4038 20.8358 21.1348 21.1348C20.874 21.3694 20.5748 21.4764 20.2266 21.4951C19.7433 21.4683 19.4147 21.1836 19.0896 20.8506C19.0516 20.8126 19.0136 20.7747 18.9744 20.7355C18.8501 20.611 18.7266 20.4857 18.6031 20.3604C18.5166 20.2735 18.4301 20.1866 18.3435 20.0997C18.1396 19.8952 17.9364 19.69 17.7334 19.4847C17.5021 19.2507 17.27 19.0174 17.0379 18.7841C16.561 18.3047 16.0849 17.8245 15.6094 17.3438C15.8643 17.0875 15.8643 17.0875 15.9921 16.9832C16.4876 16.5724 16.9221 16.1361 17.2969 15.6094Z" fill="#697865"/>
<path d="M10.7812 11.25C11.4107 11.3549 12.0119 11.5894 12.4133 12.1068C12.6431 12.4413 12.6608 12.7723 12.6094 13.1719C12.4844 13.5753 12.2713 13.852 11.9062 14.0625C11.5544 14.2404 11.1761 14.3438 10.7812 14.3438C10.7812 13.3228 10.7812 12.3019 10.7812 11.25Z" fill="#EAE8E7"/>
<path d="M10.2188 7.40625C10.2188 8.42719 10.2188 9.44812 10.2188 10.5C9.63505 10.427 9.05775 10.2088 8.67927 9.73572C8.4175 9.35913 8.40401 9.03407 8.43757 8.57812C8.5156 8.1922 8.72728 7.95384 9.04694 7.73438C9.41376 7.52423 9.79538 7.40625 10.2188 7.40625Z" fill="#EBE9E8"/>
<path d="M15.375 5.43752C15.4863 5.5342 15.4863 5.5342 15.6094 5.6719C15.6438 5.70353 15.6438 5.70353 15.679 5.7358C16.8497 6.81459 17.4575 8.5343 17.5433 10.0875C17.5591 10.5568 17.5591 10.5568 17.4456 10.7075C17.3438 10.7813 17.3438 10.7813 17.1973 10.7783C17.0625 10.7344 17.0625 10.7344 16.9688 10.5938C16.959 10.4776 16.9538 10.3644 16.9512 10.2481C16.8854 8.7205 16.2796 7.2435 15.2283 6.12856C15.0063 5.89259 15.0063 5.89259 14.9707 5.70413C15 5.57815 15 5.57815 15.0557 5.49026C15.1756 5.41582 15.2359 5.41104 15.375 5.43752Z" fill="#697865"/>
</svg>
