<svg width="22" height="20" viewBox="0 0 22 20" fill="none" xmlns="http://www.w3.org/2000/svg">
<path d="M21.8602 9.63046C21.6636 9.39827 16.9808 3.94507 10.9999 3.94507C5.01902 3.94507 0.33593 9.39827 0.139606 9.63024C-0.0465352 9.85052 -0.0465352 10.1493 0.139606 10.3696C0.33593 10.6018 5.01902 16.055 10.9999 16.055C16.9808 16.055 21.6636 10.6017 21.8602 10.3698C22.0466 10.1495 22.0466 9.85052 21.8602 9.63046ZM10.9999 14.8022C6.59434 14.8022 2.77867 11.1828 1.64914 9.99959C2.7772 8.81531 6.58489 5.19781 10.9999 5.19781C15.4052 5.19781 19.2206 8.81657 20.3506 10.0004C19.2226 11.1847 15.4149 14.8022 10.9999 14.8022Z" fill="#8E8E8E"/>
<path d="M11.0001 6.2417C8.60064 6.2417 6.64844 7.92769 6.64844 9.99996C6.64844 12.0722 8.60064 13.7582 11.0001 13.7582C13.3996 13.7582 15.3518 12.0722 15.3518 9.99996C15.3518 7.92769 13.3996 6.2417 11.0001 6.2417ZM11.0001 12.5054C9.40038 12.5054 8.09902 11.3815 8.09902 9.99996C8.09902 8.61841 9.40042 7.49448 11.0001 7.49448C12.5998 7.49448 13.9012 8.61841 13.9012 9.99996C13.9012 11.3815 12.5998 12.5054 11.0001 12.5054Z" fill="#8E8E8E"/>
</svg>
