<svg width="19" height="19" viewBox="0 0 19 19" fill="none" xmlns="http://www.w3.org/2000/svg">
<g clip-path="url(#clip0_1852_11317)">
<path d="M6.99231 9.32336C8.49181 9.32336 9.71161 8.10356 9.71161 6.60406C9.71161 5.10457 8.49181 3.88477 6.99231 3.88477C5.49281 3.88477 4.27301 5.10457 4.27301 6.60406C4.27301 8.10356 5.49281 9.32336 6.99231 9.32336ZM6.99231 5.43865C7.63717 5.43865 8.15772 5.9592 8.15772 6.60406C8.15772 7.24893 7.63717 7.76948 6.99231 7.76948C6.34745 7.76948 5.82689 7.24893 5.82689 6.60406C5.82689 5.9592 6.34745 5.43865 6.99231 5.43865ZM6.99231 10.683C5.17426 10.683 1.55371 11.592 1.55371 13.4023V13.985C1.55371 14.4123 1.90333 14.762 2.33065 14.762H11.654C12.0813 14.762 12.4309 14.4123 12.4309 13.985V13.4023C12.4309 11.592 8.81035 10.683 6.99231 10.683ZM3.37176 13.2081C4.02439 12.7574 5.60158 12.2369 6.99231 12.2369C8.38303 12.2369 9.96023 12.7574 10.6129 13.2081H3.37176ZM12.462 10.7296C13.3632 11.3823 13.9848 12.2524 13.9848 13.4023V14.762H16.3156C16.7429 14.762 17.0926 14.4123 17.0926 13.985V13.4023C17.0926 11.8329 14.3733 10.9394 12.462 10.7296ZM11.654 9.32336C13.1535 9.32336 14.3733 8.10356 14.3733 6.60406C14.3733 5.10457 13.1535 3.88477 11.654 3.88477C11.2344 3.88477 10.8459 3.98577 10.4885 4.1567C10.978 4.84817 11.2655 5.69504 11.2655 6.60406C11.2655 7.51309 10.978 8.35995 10.4885 9.05143C10.8459 9.22236 11.2344 9.32336 11.654 9.32336Z" fill="#575757"/>
</g>
<defs>
<clipPath id="clip0_1852_11317">
<rect width="18.6466" height="18.6466" fill="white"/>
</clipPath>
</defs>
</svg>
