<svg width="24" height="24" viewBox="0 0 24 24" fill="none" xmlns="http://www.w3.org/2000/svg">
<g clip-path="url(#clip0_109_79)">
<path d="M11.1232 16.3437C11.1922 16.3434 11.2612 16.343 11.3302 16.3427C11.4743 16.3422 11.6184 16.342 11.7625 16.342C11.945 16.342 12.1274 16.3408 12.3099 16.3391C12.4523 16.3381 12.5948 16.3379 12.7373 16.338C12.8044 16.3379 12.8716 16.3374 12.9387 16.3367C13.5603 16.3305 14.1801 16.4231 14.7336 16.7227C14.7644 16.7388 14.7952 16.7548 14.8269 16.7714C15.7221 17.2509 16.3856 18 16.7015 18.9749C16.8104 19.3478 16.8806 19.6936 16.8835 20.0831C16.8838 20.1168 16.8842 20.1506 16.8845 20.1853C16.8854 20.2961 16.8859 20.4069 16.8864 20.5177C16.8866 20.5558 16.8868 20.5938 16.887 20.6331C16.888 20.8344 16.8886 21.0357 16.8891 21.2371C16.8896 21.4443 16.8912 21.6515 16.8931 21.8587C16.8943 22.0187 16.8947 22.1788 16.8949 22.3388C16.8951 22.4152 16.8956 22.4915 16.8965 22.5679C16.9016 23.0392 16.8949 23.3797 16.5764 23.7569C16.3239 23.9673 16.1093 24.0206 15.7858 24.0138C15.7497 24.0136 15.7137 24.0134 15.6766 24.0132C15.5625 24.0124 15.4484 24.0106 15.3342 24.0088C15.2565 24.0081 15.1787 24.0075 15.101 24.0069C14.9111 24.0054 14.7213 24.0029 14.5315 24C14.5312 23.9416 14.5312 23.9416 14.531 23.8821C14.5292 23.5151 14.5265 23.1482 14.5229 22.7813C14.521 22.5926 14.5195 22.404 14.5188 22.2154C14.5181 22.0333 14.5165 21.8513 14.5142 21.6692C14.5135 21.5998 14.5132 21.5303 14.5131 21.4609C14.513 21.3635 14.5117 21.2663 14.5102 21.169C14.5098 21.1136 14.5094 21.0582 14.5089 21.0012C14.4796 20.8304 14.4366 20.7726 14.2971 20.6719C14.1271 20.6677 14.1271 20.6677 13.969 20.7188C13.857 20.8868 13.8625 20.9639 13.8603 21.1637C13.8598 21.1948 13.8593 21.226 13.8589 21.2581C13.8574 21.3588 13.8566 21.4594 13.8558 21.5601C13.8546 21.6525 13.8546 21.6525 13.8533 21.7468C13.8504 21.9774 13.8482 22.2079 13.8459 22.4385C13.8401 22.9538 13.8343 23.4691 13.8284 24C12.6218 24 11.4152 24 10.1721 24C10.1604 22.4414 10.1604 22.4414 10.1582 21.9497C10.1568 21.8214 10.1553 21.6931 10.1538 21.5647C10.1538 21.5148 10.1538 21.5148 10.1538 21.4638C10.1537 21.3655 10.1524 21.2673 10.1508 21.169C10.1504 21.1136 10.15 21.0582 10.1496 21.0012C10.1203 20.8304 10.0772 20.7726 9.93774 20.6719C9.76775 20.6677 9.76775 20.6677 9.60962 20.7188C9.49763 20.8868 9.50317 20.9639 9.50092 21.1637C9.50022 21.2096 9.50022 21.2096 9.4995 21.2566C9.49805 21.3578 9.49725 21.4589 9.49646 21.5601C9.49558 21.6304 9.49467 21.7006 9.49371 21.7708C9.4913 21.9555 9.48945 22.1402 9.4877 22.3249C9.48583 22.5135 9.48343 22.702 9.48108 22.8905C9.47654 23.2603 9.47259 23.6302 9.46899 24C9.2405 24.0035 9.01201 24.0061 8.78349 24.0078C8.70584 24.0085 8.62819 24.0094 8.55054 24.0106C8.43859 24.0124 8.32668 24.0131 8.21472 24.0138C8.16307 24.0148 8.16307 24.0148 8.11037 24.016C7.84015 24.016 7.65131 23.9544 7.45117 23.7719C7.42483 23.7408 7.39848 23.7098 7.37134 23.6778C7.34451 23.6469 7.31768 23.6161 7.29004 23.5844C7.1346 23.3656 7.11333 23.1765 7.11237 22.9111C7.11201 22.8612 7.11201 22.8612 7.11164 22.8103C7.11099 22.7006 7.11104 22.5909 7.11114 22.4812C7.11096 22.4043 7.11076 22.3273 7.11054 22.2504C7.11019 22.0891 7.1102 21.9277 7.11045 21.7664C7.11072 21.5613 7.10993 21.3563 7.10884 21.1513C7.10814 20.9922 7.10811 20.8332 7.10825 20.6741C7.10823 20.5986 7.10799 20.5232 7.10751 20.4477C7.10102 19.2764 7.45148 18.2665 8.27203 17.4108C9.06856 16.6458 10.0364 16.3448 11.1232 16.3437Z" fill="#697865"/>
<path d="M9.3233 -0.0250115C9.38818 -0.025343 9.45306 -0.0257531 9.51794 -0.0262353C9.69305 -0.0272845 9.86814 -0.0271532 10.0433 -0.0267359C10.1899 -0.0264953 10.3366 -0.0268391 10.4832 -0.0271799C10.8294 -0.0279751 11.1756 -0.0278113 11.5218 -0.0270257C11.8779 -0.0262326 12.234 -0.026975 12.5902 -0.0284893C12.8969 -0.0297437 13.2036 -0.0300809 13.5104 -0.0296839C13.6932 -0.0294537 13.8759 -0.0295517 14.0587 -0.0305177C14.2307 -0.031383 14.4026 -0.031093 14.5745 -0.0299458C14.667 -0.0296022 14.7595 -0.0304036 14.852 -0.03125C15.3154 -0.0263452 15.6519 0.0762557 15.9814 0.41015C16.2494 0.713083 16.2865 1.10576 16.2845 1.49339C16.2848 1.5375 16.2852 1.58162 16.2855 1.62707C16.2863 1.77167 16.2862 1.91624 16.2859 2.06085C16.2861 2.16211 16.2864 2.26338 16.2866 2.36465C16.2871 2.57643 16.287 2.7882 16.2865 2.99998C16.2859 3.2705 16.2869 3.54099 16.2883 3.8115C16.2891 4.0205 16.2891 4.22949 16.2888 4.43849C16.2888 4.53819 16.2891 4.63789 16.2897 4.73758C16.2904 4.87733 16.2899 5.01703 16.2891 5.15678C16.2898 5.21769 16.2898 5.21769 16.2905 5.27983C16.2856 5.68792 16.1542 6.05218 15.8739 6.35302C15.6441 6.55823 15.394 6.66081 15.0872 6.66364C15.0495 6.66412 15.0118 6.6646 14.9729 6.66509C14.9326 6.66544 14.8923 6.66578 14.8507 6.66613C14.7648 6.66745 14.6789 6.66879 14.593 6.67016C14.4579 6.6721 14.3229 6.67383 14.1878 6.67506C14.0572 6.67635 13.9266 6.6785 13.796 6.68078C13.7558 6.68093 13.7156 6.68109 13.6741 6.68124C13.4535 6.68577 13.3029 6.69921 13.125 6.84374C13.0484 6.95361 12.9819 7.05861 12.9169 7.1748C12.8897 7.22173 12.8897 7.22173 12.8619 7.2696C12.8084 7.36173 12.7556 7.45423 12.7031 7.54687C12.6517 7.63691 12.6 7.72679 12.5478 7.8164C12.5277 7.85193 12.5076 7.88746 12.4868 7.92407C12.3856 8.0666 12.2959 8.14513 12.1217 8.17657C12.0825 8.17663 12.0433 8.17669 12.0029 8.17675C11.9638 8.17766 11.9247 8.17857 11.8844 8.1795C11.6834 8.14016 11.564 8.01695 11.4509 7.85072C11.4158 7.78579 11.4158 7.78579 11.38 7.71954C11.3408 7.64843 11.3408 7.64843 11.3009 7.57589C11.2744 7.52668 11.2479 7.47746 11.2207 7.42675C11.1675 7.32892 11.1142 7.2312 11.0606 7.1336C11.0373 7.09036 11.014 7.04712 10.99 7.00258C10.8894 6.83736 10.8256 6.76478 10.6406 6.70312C10.5 6.69754 10.3603 6.69443 10.2196 6.69323C10.1342 6.69192 10.0488 6.69057 9.96336 6.6892C9.82903 6.68727 9.69471 6.68555 9.56038 6.68431C9.4305 6.683 9.30065 6.68085 9.17079 6.67858C9.13113 6.67843 9.09146 6.67828 9.0506 6.67812C8.64917 6.66992 8.34814 6.55506 8.05128 6.27978C7.83693 6.04024 7.72909 5.75082 7.72774 5.43089C7.72748 5.39259 7.72721 5.35429 7.72693 5.31483C7.72688 5.27321 7.72683 5.23159 7.72677 5.18871C7.72654 5.14456 7.72631 5.1004 7.72607 5.05491C7.72538 4.90882 7.72506 4.76273 7.7248 4.61663C7.72453 4.51492 7.72426 4.4132 7.72399 4.31149C7.7235 4.09811 7.72323 3.88474 7.72306 3.67136C7.72281 3.39858 7.72168 3.12581 7.72035 2.85303C7.71947 2.64283 7.71923 2.43263 7.71916 2.22243C7.71902 2.12191 7.71864 2.02138 7.71802 1.92086C7.71722 1.77985 7.71731 1.63887 7.71762 1.49785C7.71719 1.45671 7.71675 1.41557 7.71631 1.37318C7.71878 1.00458 7.79226 0.663942 8.04487 0.383783C8.08783 0.334023 8.08783 0.334023 8.13166 0.283258C8.49709 -0.0125883 8.86693 -0.0273388 9.3233 -0.0250115ZM10.8281 1.26562C10.6092 1.58454 10.4865 1.90631 10.5468 2.29687C10.6338 2.45034 10.6338 2.45034 10.7812 2.53124C10.9549 2.53424 11.0586 2.52635 11.1943 2.41406C11.2621 2.27125 11.2881 2.13167 11.3195 1.97735C11.3666 1.7781 11.4382 1.67327 11.6044 1.55566C11.8741 1.46252 12.1197 1.46604 12.3925 1.54687C12.5624 1.6763 12.6373 1.81411 12.7031 2.01562C12.7333 2.26602 12.6892 2.40985 12.5625 2.62499C12.4458 2.73156 12.4458 2.73156 12.3134 2.83007C11.9651 3.10524 11.7029 3.39503 11.625 3.84374C11.5768 4.33884 11.5768 4.33884 11.7656 4.78124C11.8973 4.84708 11.9947 4.83979 12.1406 4.82812C12.2876 4.74469 12.3206 4.70985 12.375 4.54687C12.3841 4.39028 12.3911 4.234 12.3951 4.0772C12.4045 3.86717 12.4301 3.72767 12.5625 3.56249C12.6688 3.48101 12.6688 3.48101 12.788 3.40722C13.1208 3.18309 13.3715 2.88548 13.4531 2.48437C13.4992 2.04093 13.4503 1.67192 13.1932 1.30224C12.9134 0.95897 12.5736 0.741006 12.1278 0.691217C11.6006 0.665443 11.173 0.871479 10.8281 1.26562ZM11.6718 5.34374C11.6393 5.48526 11.6505 5.56936 11.6718 5.71874C11.7621 5.84912 11.8266 5.89367 11.9736 5.95019C12.1308 5.95402 12.2038 5.90568 12.3281 5.81249C12.4037 5.66134 12.4028 5.50718 12.375 5.34374C12.2679 5.19694 12.2007 5.12441 12.0234 5.08007C11.846 5.12441 11.7789 5.19694 11.6718 5.34374Z" fill="#697865"/>
<path d="M13.5031 10.0517C13.581 10.1062 13.6583 10.1618 13.7345 10.2187C13.7641 10.2392 13.7936 10.2597 13.8241 10.2808C14.3597 10.6871 14.6643 11.3786 14.7833 12.0205C14.8809 12.8094 14.6942 13.5736 14.2033 14.2031C13.6669 14.8472 12.9833 15.1654 12.1613 15.2519C11.3927 15.2799 10.686 15.0329 10.1134 14.5195C9.54775 13.9878 9.23898 13.3408 9.18764 12.5625C9.18077 11.799 9.42071 11.0556 9.94515 10.4866C10.928 9.57053 12.3363 9.33838 13.5031 10.0517Z" fill="#697865"/>
</g>
<defs>
<clipPath id="clip0_109_79">
<rect width="24" height="24" fill="white"/>
</clipPath>
</defs>
</svg>
