<svg width="24" height="24" viewBox="0 0 24 24" fill="none" xmlns="http://www.w3.org/2000/svg">
<g clip-path="url(#clip0_109_48)">
<path d="M12.1807 0.603522C12.5414 0.873236 12.8156 1.20215 12.9376 1.64045C12.946 1.80364 12.946 1.80364 12.9418 1.98395C12.9408 2.05153 12.9397 2.11911 12.9387 2.18669C12.9377 2.23943 12.9377 2.23943 12.9367 2.29323C12.9257 2.902 12.9476 3.49094 13.0277 4.0955C13.1407 4.95333 13.141 5.85269 12.6095 6.58283C12.3038 6.95825 11.9657 7.25226 11.4845 7.3592C11.3465 7.37027 11.2098 7.37027 11.0714 7.36799C11.0357 7.36796 10.9999 7.36793 10.9631 7.3679C10.7009 7.36581 10.7009 7.36581 10.5939 7.31232C10.5877 7.35522 10.5814 7.39813 10.575 7.44233C10.5667 7.49804 10.5585 7.55375 10.5499 7.61115C10.5418 7.66662 10.5336 7.72209 10.5252 7.77924C10.5001 7.9217 10.5001 7.9217 10.4533 8.01545C10.5093 8.01835 10.5654 8.02125 10.6232 8.02424C11.5159 8.12638 12.3697 8.67682 12.942 9.3512C13.5527 10.1533 13.8192 11.0004 13.7814 11.9998C13.864 12.0143 13.864 12.0143 13.9484 12.0291C15.2289 12.3192 16.5616 13.2603 17.2717 14.3637C17.2956 14.4035 17.3194 14.4432 17.3439 14.4842C17.3745 14.5336 17.405 14.5831 17.4365 14.634C18.246 15.9723 18.4764 17.5639 18.1139 19.0851C17.8731 20.0288 17.4319 20.9281 16.7814 21.6561C16.7444 21.6987 16.7074 21.7413 16.6693 21.7852C16.3956 22.0966 16.3956 22.0966 16.2407 22.218C15.9503 22.455 15.7475 22.7829 15.7033 23.1561C15.6961 23.2449 15.6893 23.3338 15.6828 23.4227C15.6631 23.6758 15.6025 23.8194 15.422 23.9998C15.1823 24.0269 15.1823 24.0269 15.047 23.9998C14.8549 23.8127 14.8057 23.6728 14.7989 23.4087C14.793 22.7232 14.9721 22.2094 15.4581 21.7117C15.5531 21.6175 15.6486 21.5239 15.7443 21.4305C16.7434 20.4534 17.3779 19.1021 17.4021 17.6907C17.4071 16.2732 16.8811 15.0826 15.8908 14.0623C15.1789 13.348 14.2913 12.8716 13.3199 12.6169C13.1563 12.5711 13.0557 12.541 12.9371 12.416C12.8734 12.2305 12.8721 12.0599 12.8703 11.8651C12.8404 10.976 12.5455 10.2403 11.9064 9.6092C11.8811 9.58285 11.8558 9.55651 11.8297 9.52936C11.1252 8.85502 9.97064 8.6913 9.04207 8.70685C8.36714 8.75018 7.62525 8.88169 7.12514 9.37482C6.71617 9.88014 6.69409 10.4866 6.69447 11.1092C6.69447 11.1413 6.69447 11.1733 6.69447 11.2064C6.69518 11.7831 6.72775 12.3548 6.76991 12.93C7.04761 16.7459 7.04761 16.7459 6.75014 18.0936C6.74058 18.1375 6.73101 18.1814 6.72116 18.2266C6.61878 18.6871 6.50126 19.1436 6.381 19.5998C6.36636 19.6555 6.35172 19.7112 6.33664 19.7686C6.30858 19.8748 6.28019 19.981 6.2514 20.0871C6.10523 20.6365 6.02948 21.1693 6.03236 21.7381C6.03253 21.7909 6.03269 21.8436 6.03286 21.8979C6.04051 22.4891 6.13298 23.02 6.32826 23.5779C6.34291 23.7156 6.34291 23.7156 6.32826 23.8123C6.23451 23.9061 6.23451 23.9061 6.09682 23.9207C5.95326 23.9061 5.95326 23.9061 5.8813 23.8508C5.26779 23.0884 5.32622 21.7696 5.40257 20.859C5.48117 20.1956 5.66841 19.5479 5.84723 18.9057C6.29732 17.2814 6.20104 15.6773 6.08172 14.0151C6.05955 13.7047 6.03827 13.3943 6.01688 13.0838C6.01173 13.009 6.00656 12.9341 6.00138 12.8593C5.97102 12.42 5.94222 11.9808 5.92177 11.541C5.91992 11.502 5.91807 11.463 5.91616 11.4229C5.87884 10.5366 5.95865 9.58155 6.53169 8.86213C6.86186 8.50529 7.23209 8.28186 7.69227 8.12187C7.79273 8.06748 7.79273 8.06748 7.82419 7.94411C7.83744 7.8712 7.83744 7.8712 7.85097 7.79682C7.86592 7.71797 7.86592 7.71797 7.88118 7.63752C7.89079 7.58241 7.9004 7.5273 7.91029 7.47053C7.92063 7.41506 7.93096 7.35959 7.94161 7.30244C7.96706 7.16522 7.99174 7.02792 8.01576 6.89045C7.97401 6.87794 7.93226 6.86543 7.88924 6.85255C7.46541 6.69957 7.14658 6.36913 6.84389 6.0467C6.67331 6.22352 6.65851 6.42367 6.6183 6.65607C6.48055 7.36454 6.17749 7.9199 5.56947 8.33478C5.03156 8.65186 4.45319 8.77163 3.84389 8.8592C3.80262 8.86542 3.76135 8.87165 3.71883 8.87806C3.45934 8.91066 3.19693 8.91506 2.93568 8.92072C2.89883 8.92212 2.86197 8.92352 2.824 8.92497C2.65574 8.92665 2.5531 8.92142 2.41383 8.82294C2.30985 8.66778 2.3101 8.52142 2.34389 8.34357C2.43988 8.16411 2.55492 8.09324 2.73061 8.00373C3.18535 7.76364 3.44156 7.33586 3.60475 6.86188C3.7171 6.45032 3.73213 6.03014 3.76128 5.60633C3.81081 4.91602 3.90575 4.18976 4.45326 3.70295C4.92166 3.36716 5.33515 3.29609 5.90639 3.32795C5.93733 3.34342 5.96826 3.35889 6.00014 3.37482C6.00449 3.29216 6.00449 3.29216 6.00893 3.20783C6.0924 2.47164 6.45631 1.81475 6.93764 1.26545C6.96543 1.23318 6.99323 1.20091 7.02187 1.16767C8.29874 -0.212879 10.6467 -0.407239 12.1807 0.603522ZM7.50636 1.75104C7.00245 2.37493 6.73761 3.13664 6.79701 3.93732C6.92875 4.80894 7.368 5.49749 8.06868 6.02967C8.09762 6.05076 8.12657 6.07185 8.15639 6.09357C8.29612 5.8577 8.27856 5.60963 8.25014 5.34357C8.21005 5.22382 8.21005 5.22382 8.15639 5.11213C8.01413 4.79446 7.99865 4.46083 8.10732 4.12903C8.24184 3.83998 8.38153 3.67091 8.6808 3.54767C9.04004 3.48289 9.31808 3.52435 9.6194 3.73334C9.64708 3.75425 9.67475 3.77516 9.70326 3.7967C9.7377 3.82244 9.77215 3.84818 9.80763 3.8747C9.84878 3.9057 9.84878 3.9057 9.89076 3.93732C9.92158 3.87687 9.92158 3.87687 9.95302 3.81519C10.1729 3.39973 10.4332 3.06949 10.764 2.73684C10.8193 2.68078 10.8729 2.6231 10.9262 2.56513C11.2831 2.18334 11.7438 1.9102 12.1876 1.64045C11.9695 1.23398 11.5775 1.02846 11.1533 0.882208C10.8211 0.788871 10.512 0.732685 10.1662 0.735175C10.1276 0.735405 10.089 0.735635 10.0492 0.735873C9.1111 0.753563 8.16268 1.05944 7.50636 1.75104ZM11.0463 3.24848C10.7524 3.55603 10.5583 3.89341 10.3595 4.26545C10.3128 4.34951 10.2659 4.43351 10.2189 4.5174C10.1876 4.57402 10.1563 4.63065 10.1251 4.68732C10.0206 4.7027 10.0206 4.7027 9.89076 4.68732C9.78877 4.58112 9.78877 4.58112 9.68861 4.44123C9.51645 4.21931 9.37269 4.05331 9.09389 3.9842C8.90626 3.98052 8.83352 4.01622 8.6808 4.12482C8.54159 4.31574 8.50669 4.45215 8.53139 4.68732C8.58404 4.85068 8.64454 5.00705 8.71285 5.1645C8.87733 5.72114 8.68965 6.31382 8.57826 6.86701C8.55138 7.0025 8.52464 7.13802 8.49802 7.27357C8.4815 7.35744 8.46482 7.44128 8.44794 7.52507C8.44043 7.56282 8.43292 7.60056 8.42519 7.63944C8.41852 7.67255 8.41186 7.70566 8.405 7.73977C8.38703 7.8362 8.38703 7.8362 8.39076 7.96857C8.88576 7.9531 9.38076 7.93764 9.89076 7.9217C9.96205 7.57754 9.96205 7.57754 10.0324 7.23319C10.0415 7.19 10.0507 7.1468 10.0601 7.1023C10.0692 7.05836 10.0783 7.01442 10.0877 6.96915C10.1288 6.83134 10.1839 6.72717 10.2658 6.6092C10.3887 6.54774 10.4949 6.5618 10.6297 6.56541C11.0895 6.57723 11.4777 6.56075 11.8298 6.23072C12.217 5.77416 12.2986 5.26899 12.2931 4.69025C12.2928 4.61944 12.2928 4.61944 12.2925 4.5472C12.2886 4.22521 12.2656 3.91002 12.2245 3.59083C12.1735 3.19211 12.1577 2.79183 12.1408 2.39045C11.7955 2.39045 11.2774 3.02163 11.0463 3.24848ZM4.87514 4.49982C4.67398 4.80157 4.6398 5.09732 4.62227 5.45453C4.57139 6.38575 4.45765 7.13521 4.03139 7.96857C4.57827 7.85323 5.11319 7.73261 5.47353 7.266C5.6447 6.98703 5.71619 6.67569 5.78425 6.35917C5.87716 5.92841 5.99814 5.56133 6.32826 5.24982C6.30893 5.19375 6.28959 5.13767 6.26967 5.0799C6.1839 4.82424 6.11243 4.56491 6.04079 4.305C6.01334 4.17755 6.01334 4.17755 5.95326 4.12482C5.54134 4.06657 5.15505 4.18298 4.87514 4.49982Z" fill="#697865"/>
<path d="M10.6406 11.1092C10.7704 11.2152 10.8229 11.3282 10.8867 11.4813C11.1041 11.9721 11.3843 12.3965 11.7169 12.8147C11.8272 12.9562 11.856 13.0085 11.8828 13.1864C11.8594 13.3592 11.8594 13.3592 11.7853 13.4274C11.7551 13.4471 11.7249 13.4669 11.6938 13.4872C11.6636 13.5074 11.6334 13.5276 11.6022 13.5484C11.5788 13.5633 11.5554 13.5782 11.5313 13.5936C12.1335 14.3346 12.7559 14.8857 13.6699 15.2079C13.7694 15.2442 13.8688 15.2806 13.9682 15.3172C14.0163 15.3349 14.0644 15.3525 14.1139 15.3708C14.9039 15.6666 15.6937 16.0195 16.125 16.7811C16.304 17.1816 16.2969 17.6317 16.1719 18.0467C16.0113 18.4085 15.7441 18.6565 15.3838 18.8143C14.1764 19.2036 12.6992 18.522 11.6367 17.9969C10.6753 17.5031 9.59891 16.7737 9.02326 15.8467C9.00325 15.8148 8.98325 15.7828 8.96265 15.7499C8.92391 15.6867 8.88631 15.6229 8.85004 15.5583C8.74904 15.3881 8.74904 15.3881 8.57909 15.3004C8.48535 15.2902 8.39107 15.2855 8.29688 15.2811C7.80402 14.9953 7.64848 14.2991 7.5 13.7811C7.36979 13.2551 7.36979 13.2551 7.45313 12.9842C7.54688 12.8905 7.54688 12.8905 7.70801 12.8758C7.875 12.8905 7.875 12.8905 7.94916 12.9418C8.04367 13.0688 8.07603 13.1989 8.12109 13.3504C8.23552 13.7191 8.39627 14.0504 8.57813 14.3905C8.7163 14.3905 8.76657 14.3181 8.87109 14.2293C9.48402 13.7329 10.1746 13.3865 10.875 13.0311C10.8478 12.9885 10.8206 12.9459 10.7926 12.902C10.485 12.4108 10.1738 11.8863 10.125 11.2967C10.2465 11.0659 10.3999 11.037 10.6406 11.1092ZM10.6864 13.9584C10.6388 13.9861 10.5911 14.0138 10.542 14.0424C10.4914 14.0722 10.4408 14.102 10.3887 14.1327C10.3377 14.1625 10.2867 14.1924 10.2342 14.2231C9.89301 14.4243 9.55806 14.6307 9.23438 14.8592C9.39535 15.3163 9.80019 15.6821 10.125 16.0311C10.1542 16.0629 10.1835 16.0947 10.2136 16.1274C11.2533 17.2152 12.9775 18.1365 14.4912 18.2538C14.8723 18.2623 15.1256 18.2323 15.416 17.9735C15.5898 17.7741 15.5844 17.6135 15.581 17.3546C15.5383 17.0046 15.3326 16.7635 15.0732 16.5379C14.6723 16.2411 14.2113 16.067 13.7469 15.8962C12.9852 15.6154 12.3624 15.2709 11.7656 14.7186C11.73 14.6863 11.6944 14.654 11.6578 14.6206C11.4372 14.4112 11.2648 14.1786 11.0936 13.9276C11.0679 13.8947 11.0421 13.8618 11.0156 13.828C10.8802 13.828 10.8032 13.8903 10.6864 13.9584Z" fill="#697865"/>
<path d="M19.2773 8.43734C19.5116 8.60769 19.6894 8.79858 19.8018 9.06722C19.8941 9.65175 19.7418 10.1113 19.4063 10.5936C19.035 11.0961 18.3514 12.0159 17.6924 12.12C16.8924 11.7563 16.2878 10.7039 15.9769 9.9117C15.8576 9.56319 15.8322 9.19644 15.9787 8.85097C16.1018 8.65072 16.2789 8.51104 16.5 8.43734C16.85 8.40571 17.1488 8.41 17.4375 8.62484C17.5288 8.70763 17.6144 8.79255 17.6979 8.8832C17.7633 8.95825 17.7633 8.95825 17.8594 8.99984C17.8748 8.95343 17.8903 8.90703 17.9063 8.85921C17.9966 8.78231 18.0859 8.71192 18.1816 8.64242C18.2198 8.61377 18.2198 8.61377 18.2587 8.58455C18.5693 8.35522 18.9084 8.32383 19.2773 8.43734Z" fill="#697865"/>
<path d="M19.8874 4.59909C19.9513 4.6409 20.0141 4.68439 20.0755 4.72983C20.1603 4.79364 20.1603 4.79364 20.297 4.7811C20.3531 4.74407 20.4077 4.70467 20.4611 4.66391C20.6963 4.5123 20.9149 4.49632 21.1877 4.54673C21.3752 4.62706 21.4848 4.7401 21.6066 4.90122C21.7173 5.25942 21.7004 5.616 21.5271 5.94986C21.3536 6.23851 21.1421 6.47567 20.9064 6.7147C20.8831 6.73849 20.8597 6.76229 20.8356 6.7868C20.6455 6.97531 20.4567 7.14353 20.1916 7.20981C19.743 7.11262 19.4711 6.67105 19.2353 6.30559C18.9933 5.91817 18.7726 5.52286 18.8646 5.04972C18.934 4.83603 19.0243 4.71521 19.2189 4.5936C19.443 4.5189 19.67 4.49171 19.8874 4.59909Z" fill="#697865"/>
<path d="M19.2595 18.0353C19.6657 18.0388 20.1542 18.1142 20.4841 18.3751C20.5427 18.5157 20.5427 18.5157 20.531 18.6564C20.4607 18.7706 20.4607 18.7706 20.3435 18.8439C20.0514 18.8255 19.7842 18.7293 19.5085 18.6359C19.4415 18.6139 19.4415 18.6139 19.3731 18.5915C19.3305 18.5772 19.2879 18.5629 19.244 18.5482C19.2053 18.5352 19.1666 18.5222 19.1268 18.5089C19.031 18.4689 19.031 18.4689 18.9373 18.3751C18.9285 18.2316 18.9285 18.2316 18.9373 18.0939C19.0218 18.0093 19.1454 18.0369 19.2595 18.0353Z" fill="#697865"/>
<path d="M19.4879 16.722C19.5687 16.7219 19.5687 16.7219 19.6511 16.7217C19.7076 16.722 19.7641 16.7224 19.8223 16.7228C19.8784 16.7224 19.9345 16.7221 19.9924 16.7217C20.0463 16.7218 20.1003 16.7219 20.1559 16.722C20.2054 16.7222 20.2548 16.7223 20.3058 16.7224C20.4377 16.7345 20.515 16.7561 20.625 16.8282C20.666 16.9161 20.666 16.9161 20.6719 17.0157C20.6255 17.1407 20.6049 17.1898 20.4844 17.2501C20.0423 17.277 19.6058 17.2434 19.1719 17.1564C19.125 17.1095 19.125 17.1095 19.1162 16.9718C19.1322 16.7104 19.2601 16.7225 19.4879 16.722Z" fill="#697865"/>
<path d="M20.2031 15C20.2969 15.0938 20.2969 15.0938 20.2969 15.2282C20.2335 15.4268 20.1477 15.4661 19.9688 15.5684C19.9413 15.5843 19.9138 15.6001 19.8854 15.6165C19.2386 15.9838 19.2386 15.9838 18.9844 15.9375C18.9534 15.9066 18.9225 15.8757 18.8906 15.8438C18.8906 15.7094 18.8906 15.7094 18.9375 15.5625C19.0605 15.4596 19.0605 15.4596 19.2188 15.3692C19.2462 15.3533 19.2737 15.3375 19.3021 15.3211C19.9489 14.9538 19.9489 14.9538 20.2031 15Z" fill="#697865"/>
</g>
<defs>
<clipPath id="clip0_109_48">
<rect width="24" height="24" fill="white"/>
</clipPath>
</defs>
</svg>
