<svg width="24" height="24" viewBox="0 0 24 24" fill="none" xmlns="http://www.w3.org/2000/svg">
<path d="M12.6742 1.17789C12.9213 1.35468 13.1468 1.55616 13.3734 1.75811C13.5275 1.89351 13.6876 2.02128 13.8471 2.15018C13.9689 2.25016 13.9689 2.25016 14.0352 2.32028C14.2319 2.51764 14.3783 2.56397 14.6544 2.56729C14.6999 2.56643 14.7454 2.56556 14.7923 2.56466C14.841 2.56486 14.8898 2.56506 14.94 2.56526C15.1006 2.56562 15.2611 2.56405 15.4217 2.56254C15.5337 2.56259 15.6457 2.56279 15.7577 2.56314C16.0524 2.56376 16.3471 2.56288 16.6417 2.56152C17.113 2.55939 17.5843 2.55866 18.0556 2.55962C18.2198 2.55961 18.384 2.5584 18.5483 2.55711C18.6496 2.55708 18.7508 2.55709 18.8521 2.55716C18.8974 2.55648 18.9427 2.5558 18.9894 2.5551C19.3485 2.55717 19.6301 2.64204 19.9103 2.87125C20.1838 3.2055 20.3049 3.45984 20.2985 3.89511C20.2977 3.97525 20.297 4.05538 20.2963 4.13552C20.2958 4.17803 20.2954 4.22053 20.2949 4.26433C20.2925 4.53698 20.2928 4.80964 20.2925 5.0823C20.2921 5.32177 20.2908 5.56116 20.2875 5.8006C20.2844 6.03239 20.2839 6.26407 20.285 6.49587C20.285 6.58397 20.284 6.67208 20.2821 6.76016C20.2594 7.25677 20.2594 7.25677 20.4568 7.69263C20.5863 7.79939 20.7146 7.8848 20.8595 7.96891C20.9164 8.01441 20.9724 8.06117 21.0267 8.10972C21.2499 8.3003 21.4732 8.48973 21.7033 8.67203C22.9216 9.64151 22.9216 9.64151 22.9821 10.1402C22.9873 10.2687 22.9881 10.3965 22.9874 10.5251C22.9877 10.5742 22.988 10.6233 22.9882 10.674C22.989 10.8384 22.9888 11.0027 22.9886 11.1671C22.9889 11.2851 22.9893 11.403 22.9898 11.521C22.9907 11.808 22.991 12.0951 22.9909 12.3821C22.9908 12.6155 22.991 12.8489 22.9914 13.0823C22.9915 13.1496 22.9916 13.2169 22.9917 13.2842C22.9917 13.3345 22.9917 13.3345 22.9918 13.3858C22.9927 14.019 22.9926 14.6523 22.9923 15.2856C22.9921 15.8644 22.993 16.4432 22.9946 17.0219C22.9962 17.6168 22.9969 18.2117 22.9967 18.8065C22.9966 19.1403 22.9968 19.474 22.998 19.8077C22.9991 20.1216 22.9989 20.4355 22.998 20.7495C22.9978 20.8645 22.9981 20.9796 22.9987 21.0947C22.9996 21.2521 22.999 21.4094 22.998 21.5668C22.9986 21.6121 22.9992 21.6573 22.9998 21.704C22.9952 22.0604 22.8966 22.3698 22.6522 22.637C22.379 22.8931 22.0949 22.9864 21.7244 22.9869C21.6901 22.9871 21.6559 22.9873 21.6206 22.9876C21.506 22.9882 21.3914 22.9878 21.2768 22.9874C21.1937 22.9876 21.1106 22.9879 21.0275 22.9883C20.7993 22.989 20.5712 22.9889 20.343 22.9887C20.0968 22.9885 19.8507 22.9892 19.6046 22.9898C19.1224 22.9908 18.6402 22.991 18.1581 22.9909C17.7662 22.9908 17.3743 22.991 16.9823 22.9914C16.8695 22.9915 16.7566 22.9916 16.6438 22.9917C16.5876 22.9917 16.5314 22.9918 16.4735 22.9918C15.411 22.9927 14.3484 22.9927 13.2859 22.9923C12.3138 22.9921 11.3417 22.9931 10.3697 22.9946C9.3716 22.9962 8.37354 22.9969 7.37548 22.9967C6.81512 22.9966 6.25477 22.9968 5.69441 22.998C5.21734 22.999 4.74028 22.9991 4.26321 22.9983C4.01983 22.9978 3.77646 22.9978 3.53308 22.9987C3.31017 22.9996 3.08729 22.9994 2.86438 22.9983C2.78385 22.9981 2.70332 22.9983 2.62279 22.999C2.15011 23.0025 1.73068 22.9916 1.36446 22.6522C1.0603 22.333 1.01058 22.0092 1.01291 21.5846C1.01248 21.5109 1.01248 21.5109 1.01204 21.4357C1.01126 21.2713 1.01149 21.107 1.01171 20.9426C1.01137 20.8246 1.01097 20.7067 1.01051 20.5887C1.00958 20.3017 1.00931 20.0146 1.00939 19.7276C1.00946 19.4942 1.00928 19.2608 1.00893 19.0274C1.00883 18.9601 1.00873 18.8928 1.00863 18.8255C1.00859 18.792 1.00854 18.7585 1.00849 18.7239C1.0076 18.0906 1.00765 17.4574 1.00797 16.8241C1.00823 16.2453 1.00725 15.6665 1.0057 15.0877C1.00412 14.4929 1.00341 13.898 1.00363 13.3032C1.00373 12.9694 1.00349 12.6357 1.00232 12.302C1.00123 11.9881 1.00136 11.6742 1.00232 11.3602C1.00247 11.2452 1.00224 11.1301 1.00157 11.015C1.00071 10.8576 1.00131 10.7003 1.00227 10.5429C1.00168 10.4976 1.00109 10.4523 1.00049 10.4057C1.00543 10.0245 1.12662 9.72339 1.37673 9.43448C1.41746 9.39944 1.45819 9.36439 1.50015 9.32828C1.53778 9.2947 1.53778 9.2947 1.57618 9.26044C1.66143 9.18451 1.74762 9.1098 1.83413 9.03531C1.86521 9.00846 1.89629 8.98161 1.92832 8.95395C2.14585 8.76667 2.36641 8.58356 2.58944 8.40287C2.79037 8.2386 2.98786 8.07031 3.18563 7.90226C3.2327 7.86238 3.27977 7.8225 3.32827 7.78141C3.35379 7.75914 3.37932 7.73688 3.40561 7.71393C3.59933 7.54703 3.59933 7.54703 3.70327 7.54703C3.70286 7.49747 3.70244 7.4479 3.70201 7.39683C3.6982 6.92858 3.69539 6.46033 3.69356 5.99206C3.69258 5.75135 3.69126 5.51065 3.68913 5.26995C3.68708 5.03744 3.68597 4.80494 3.68548 4.57242C3.68514 4.48393 3.68446 4.39544 3.68345 4.30696C3.67363 3.41641 3.67363 3.41641 3.89077 3.09391C3.91978 3.0504 3.94878 3.0069 3.97866 2.96207C4.22923 2.70413 4.50335 2.57529 4.86154 2.56807C4.94934 2.56825 5.03714 2.56894 5.12494 2.57003C5.17307 2.57024 5.2212 2.57045 5.2708 2.57066C5.37507 2.57112 5.47935 2.57177 5.58362 2.57258C5.8058 2.57411 6.02797 2.57399 6.25016 2.57398C6.66347 2.57398 7.07675 2.57469 7.49004 2.57811C7.7779 2.58043 8.06571 2.58069 8.35358 2.57961C8.46292 2.57958 8.57227 2.58031 8.6816 2.58183C9.37293 2.6115 9.37293 2.6115 9.97507 2.32616C10.0427 2.25582 10.1087 2.18381 10.172 2.10953C10.2257 2.06207 10.2802 2.01551 10.3359 1.97037C10.3814 1.93122 10.4269 1.89206 10.4738 1.85172C11.8359 0.693408 11.8359 0.693408 12.6742 1.17789ZM11.5373 2.27067C11.5095 2.29487 11.4817 2.31907 11.453 2.344C11.384 2.40487 11.3169 2.46796 11.2501 2.53141C11.2501 2.54688 11.2501 2.56235 11.2501 2.57828C11.7451 2.57828 12.2401 2.57828 12.7501 2.57828C12.5428 2.36949 12.5428 2.36949 12.3312 2.1652C12.3018 2.13686 12.2723 2.10852 12.242 2.07932C11.9485 1.89512 11.755 2.07186 11.5373 2.27067ZM4.68765 3.70328C4.66419 3.84856 4.66419 3.84856 4.66474 4.0183C4.66399 4.0505 4.66325 4.0827 4.66248 4.11587C4.66015 4.22403 4.65885 4.33217 4.65755 4.44034C4.65613 4.51781 4.65466 4.59527 4.65315 4.67273C4.64849 4.92751 4.64541 5.1823 4.6426 5.43711C4.64211 5.48051 4.64162 5.52392 4.64111 5.56864C4.63651 5.97836 4.63253 6.38808 4.62995 6.79782C4.62661 7.32109 4.62031 7.84413 4.60992 8.3673C4.60286 8.73558 4.59924 9.1038 4.59813 9.47215C4.59737 9.69193 4.59514 9.91146 4.58918 10.1312C4.51817 11.088 4.51817 11.088 4.88052 11.9208C5.06244 12.0716 5.25457 12.1801 5.46955 12.2767C5.63241 12.354 5.76588 12.4567 5.90933 12.5656C5.96175 12.6031 6.01428 12.6405 6.06698 12.6776C6.26025 12.8151 6.45247 12.954 6.64468 13.0929C6.68021 13.1186 6.71575 13.1443 6.75236 13.1708C6.82483 13.2232 6.89731 13.2756 6.96978 13.328C7.11151 13.4304 7.25329 13.5328 7.39508 13.6352C7.46528 13.6859 7.53548 13.7366 7.60567 13.7873C7.78079 13.9138 7.95598 14.0403 8.13131 14.1665C8.16592 14.1914 8.20054 14.2164 8.2362 14.2421C8.30563 14.2921 8.37515 14.342 8.44473 14.3918C8.63541 14.5288 8.82309 14.6687 9.00857 14.8127C9.04876 14.8434 9.08894 14.8742 9.13035 14.906C9.20813 14.9657 9.28539 15.0261 9.36204 15.0873C9.5495 15.2417 9.5495 15.2417 9.77761 15.2695C9.93476 15.1558 10.0853 15.0374 10.2335 14.9123C10.3003 14.8572 10.3671 14.8023 10.434 14.7475C10.4682 14.7195 10.5023 14.6915 10.5375 14.6626C11.5591 13.8286 11.5591 13.8286 12.2422 13.8885C12.5712 13.9714 12.8273 14.1559 13.0841 14.3703C13.1451 14.42 13.2062 14.4698 13.2672 14.5195C13.2979 14.5447 13.3286 14.5699 13.3603 14.5958C13.5095 14.7181 13.6598 14.839 13.8107 14.9591C13.8373 14.9807 13.8639 15.0024 13.8913 15.0246C14.0976 15.1969 14.0976 15.1969 14.3439 15.2814C14.4742 15.2173 14.5809 15.1274 14.6925 15.0353C14.7599 14.9822 14.8274 14.9292 14.8949 14.8762C14.9285 14.8494 14.9621 14.8227 14.9967 14.7951C15.1333 14.688 15.2741 14.5874 15.4162 14.4875C15.47 14.4493 15.5238 14.4111 15.5777 14.3728C15.6054 14.3532 15.633 14.3335 15.6616 14.3133C15.8284 14.1944 15.9943 14.0743 16.1603 13.9543C16.1958 13.9286 16.2313 13.9029 16.2679 13.8765C16.3404 13.824 16.4129 13.7716 16.4854 13.7192C16.6621 13.5914 16.839 13.4638 17.0158 13.3361C17.0861 13.2853 17.1564 13.2345 17.2267 13.1838C17.6486 12.8791 17.6486 12.8791 17.7542 12.8028C17.824 12.7524 17.8938 12.702 17.9635 12.6516C18.1475 12.5187 18.3314 12.3859 18.5154 12.2532C18.5729 12.2117 18.5729 12.2117 18.6315 12.1694C18.7048 12.1165 18.7782 12.0636 18.8516 12.0107C18.8847 11.9868 18.9178 11.9629 18.9519 11.9383C18.9809 11.9174 19.0099 11.8964 19.0398 11.8749C19.068 11.8544 19.0961 11.8338 19.1251 11.8127C19.1574 11.7947 19.1896 11.7768 19.2228 11.7584C19.3265 11.676 19.3265 11.676 19.3361 11.5307C19.3361 11.4722 19.3361 11.4138 19.3361 11.3535C19.3364 11.321 19.3367 11.2884 19.3369 11.2549C19.3376 11.1455 19.3369 11.0362 19.3362 10.9268C19.3363 10.8485 19.3366 10.7702 19.3369 10.6919C19.3376 10.479 19.3371 10.2662 19.3363 10.0533C19.3356 9.83076 19.3359 9.60824 19.3361 9.38571C19.3362 9.01198 19.3356 8.63826 19.3345 8.26453C19.3333 7.83214 19.3332 7.39975 19.3337 6.96736C19.3342 6.55181 19.334 6.13627 19.3333 5.72073C19.333 5.54369 19.333 5.36667 19.3332 5.18963C19.3335 4.98125 19.333 4.77288 19.332 4.5645C19.3317 4.48792 19.3317 4.41133 19.3319 4.33474C19.3322 4.2304 19.3316 4.12611 19.3308 4.02177C19.3307 3.96332 19.3306 3.90487 19.3305 3.84465C19.3245 3.70661 19.3245 3.70661 19.2563 3.62524C19.1431 3.54116 19.0715 3.54504 18.9311 3.54496C18.8559 3.54441 18.8559 3.54441 18.7791 3.54385C18.7238 3.54416 18.6685 3.54448 18.6115 3.5448C18.5236 3.54447 18.5236 3.54447 18.434 3.54414C18.271 3.54355 18.1081 3.54384 17.9451 3.54428C17.7695 3.54459 17.5939 3.5441 17.4183 3.54372C17.0741 3.54309 16.7299 3.54323 16.3858 3.54363C16.1062 3.54395 15.8265 3.54399 15.5469 3.54384C15.5072 3.54382 15.4674 3.5438 15.4265 3.54378C15.3457 3.54373 15.265 3.54368 15.1842 3.54364C14.4266 3.54324 13.6689 3.5437 12.9112 3.54445C12.2606 3.54508 11.61 3.54497 10.9595 3.54432C10.2046 3.54357 9.44964 3.54328 8.69473 3.54371C8.61427 3.54375 8.53382 3.5438 8.45337 3.54384C8.41379 3.54386 8.3742 3.54388 8.33342 3.54391C8.05403 3.54403 7.77464 3.54382 7.49525 3.54349C7.15491 3.5431 6.81458 3.5432 6.47424 3.54395C6.30049 3.54432 6.12675 3.54447 5.953 3.544C5.76492 3.54351 5.57686 3.5441 5.38878 3.5448C5.33348 3.54449 5.27817 3.54417 5.22119 3.54385C5.17103 3.54422 5.12087 3.54458 5.06919 3.54496C5.02575 3.54498 4.98231 3.54501 4.93755 3.54503C4.80661 3.56615 4.76481 3.5968 4.68765 3.70328ZM3.44839 9.00016C3.24883 9.18178 3.04356 9.35213 2.83169 9.51908C2.66436 9.65327 2.50378 9.79474 2.3439 9.93766C2.51413 10.125 2.71421 10.2603 2.92105 10.4035C2.9902 10.4517 3.05936 10.5 3.1285 10.5483C3.1619 10.5715 3.19529 10.5947 3.22969 10.6186C3.32545 10.6857 3.4202 10.754 3.51486 10.8226C3.63396 10.9265 3.63396 10.9265 3.70327 10.922C3.70327 10.2259 3.70327 9.52985 3.70327 8.81266C3.60627 8.81266 3.51376 8.93978 3.44839 9.00016ZM20.297 8.81266C20.297 9.50875 20.297 10.2048 20.297 10.922C20.6286 10.711 20.9506 10.5003 21.2667 10.2687C21.3047 10.2411 21.3426 10.2135 21.3816 10.1851C21.4733 10.1184 21.5649 10.0515 21.6564 9.98453C21.5303 9.81741 21.4015 9.68652 21.2375 9.5568C21.0005 9.36717 20.7685 9.17261 20.5385 8.97459C20.4314 8.86259 20.4314 8.86259 20.297 8.81266ZM1.9689 10.922C1.9689 14.387 1.9689 17.852 1.9689 21.422C2.14861 21.3322 2.29381 21.2271 2.44937 21.1027C2.47785 21.0801 2.50634 21.0576 2.53569 21.0343C2.78774 20.8341 3.03705 20.6304 3.28639 20.4268C3.52594 20.2317 3.7698 20.0433 4.01547 19.8559C4.19443 19.7183 4.36923 19.5756 4.54409 19.4328C4.9117 19.1325 5.28424 18.839 5.65838 18.547C5.97794 18.2974 6.2953 18.0455 6.60952 17.7892C6.92352 17.5331 7.24069 17.2814 7.56005 17.0321C7.64221 16.9678 7.72419 16.9033 7.80612 16.8387C8.17084 16.5513 8.53772 16.2669 8.9064 15.9845C8.71162 15.7761 8.49543 15.6125 8.2648 15.4455C8.20598 15.4025 8.20598 15.4025 8.14597 15.3587C8.02462 15.2702 7.90305 15.182 7.7814 15.0939C7.74498 15.0675 7.70855 15.0411 7.67103 15.0139C7.46175 14.8622 7.25213 14.711 7.04236 14.5599C6.8667 14.4334 6.69125 14.3066 6.51577 14.1798C6.44546 14.1291 6.37515 14.0783 6.30483 14.0275C5.60171 13.5197 4.89858 13.0119 4.19546 12.5041C4.16064 12.4789 4.12583 12.4538 4.08996 12.4279C4.01976 12.3772 3.94956 12.3265 3.87936 12.2758C3.70189 12.1476 3.52437 12.0194 3.34677 11.8914C3.27517 11.8398 3.20358 11.7881 3.13198 11.7365C3.09739 11.7116 3.0628 11.6866 3.02717 11.6609C2.8546 11.5363 2.68252 11.4111 2.51126 11.2848C2.47858 11.2607 2.4459 11.2366 2.41223 11.2117C2.35039 11.166 2.28863 11.1203 2.22695 11.0744C2.10924 10.9691 2.10924 10.9691 1.9689 10.922ZM21.8148 11.0442C21.7791 11.0706 21.7434 11.0971 21.7066 11.1244C21.6678 11.1533 21.629 11.1823 21.589 11.2121C21.5071 11.2728 21.4252 11.3334 21.3433 11.3941C21.3015 11.425 21.2598 11.4559 21.2168 11.4877C21.0351 11.6216 20.8522 11.7539 20.6691 11.8859C20.6345 11.9108 20.6 11.9357 20.5644 11.9614C20.4945 12.0117 20.4247 12.062 20.3549 12.1122C20.1792 12.2388 20.0037 12.3656 19.8283 12.4923C19.758 12.5431 19.6876 12.5939 19.6173 12.6447C19.5825 12.6698 19.5477 12.695 19.5119 12.7209C16.6642 14.7775 16.6642 14.7775 16.5586 14.8538C16.4888 14.9042 16.4191 14.9546 16.3495 15.005C16.1649 15.1385 15.9798 15.2714 15.7941 15.4034C15.7554 15.431 15.7166 15.4586 15.6767 15.4871C15.6023 15.5402 15.5277 15.5932 15.453 15.6459C15.4028 15.6817 15.4028 15.6817 15.3517 15.7183C15.3222 15.7392 15.2927 15.7601 15.2624 15.7817C15.175 15.8485 15.175 15.8485 15.0939 15.9845C15.1326 16.0147 15.1712 16.0448 15.2111 16.0759C15.5193 16.3168 15.8252 16.5602 16.1281 16.8078C16.3512 16.99 16.5758 17.1692 16.8048 17.3439C17.0667 17.5436 17.3224 17.7501 17.5775 17.9584C17.887 18.2109 18.2009 18.4575 18.5158 18.7033C18.8594 18.9715 19.2009 19.2417 19.5382 19.5177C19.7942 19.7271 20.0538 19.9305 20.3175 20.13C20.6965 20.417 21.0628 20.7179 21.4284 21.0216C21.5506 21.1227 21.6735 21.2228 21.797 21.3224C21.8328 21.3513 21.8686 21.3802 21.9054 21.4099C21.9743 21.4736 21.9743 21.4736 22.0314 21.4689C22.0314 17.9884 22.0314 14.508 22.0314 10.922C21.9454 10.922 21.8813 10.9946 21.8148 11.0442ZM11.7306 14.9591C11.6625 15.0111 11.6625 15.0111 11.5931 15.0641C11.3525 15.2542 11.1148 15.448 10.8775 15.6423C10.7045 15.7838 10.5297 15.9229 10.3537 16.0607C10.3269 16.0817 10.3001 16.1026 10.2726 16.1242C10.1655 16.208 10.0584 16.2916 9.95129 16.3752C9.63173 16.6248 9.31437 16.8767 9.00015 17.133C8.63341 17.4321 8.26183 17.7246 7.88879 18.0158C7.56923 18.2654 7.25187 18.5173 6.93765 18.7736C6.57092 19.0727 6.19933 19.3653 5.82629 19.6564C5.50673 19.906 5.18937 20.1579 4.87515 20.4142C4.56161 20.67 4.24494 20.9213 3.92607 21.1704C3.78136 21.2834 3.63683 21.3966 3.49233 21.5099C3.46592 21.5306 3.43951 21.5512 3.41229 21.5725C3.24098 21.7068 3.07109 21.8422 2.9064 21.9845C2.9064 22 2.9064 22.0155 2.9064 22.0314C8.90827 22.0314 14.9101 22.0314 21.0939 22.0314C20.7223 21.6598 20.3119 21.3375 19.898 21.0149C19.6878 20.8507 19.4809 20.6828 19.2746 20.5138C19.0186 20.3044 18.759 20.1011 18.4953 19.9015C18.1859 19.6673 17.8848 19.4245 17.5863 19.1766C17.2758 18.919 16.9591 18.6699 16.6408 18.422C16.262 18.1266 15.8864 17.8276 15.5142 17.5239C15.2053 17.2724 14.8922 17.0265 14.5783 16.7814C14.2319 16.5111 13.8875 16.2388 13.547 15.9611C13.2065 15.6834 12.8627 15.4104 12.5158 15.1408C12.477 15.1101 12.4382 15.0795 12.3982 15.0479C12.3655 15.0225 12.3327 14.9971 12.299 14.9709C12.2723 14.95 12.2456 14.929 12.218 14.9075C12.0095 14.7781 11.922 14.8123 11.7306 14.9591Z" fill="#697865"/>
<path d="M13.0311 4.2656C13.3623 4.34765 13.6596 4.36477 14.0015 4.34891C14.1795 4.36093 14.2858 4.40774 14.4373 4.49997C14.537 4.62297 14.5739 4.70375 14.5944 4.86051C14.5721 5.071 14.4829 5.19958 14.367 5.37302C14.346 5.40583 14.325 5.43865 14.3034 5.47246C14.204 5.62691 14.1016 5.77783 13.9913 5.92471C13.8049 6.15898 13.8049 6.15898 13.7303 6.43832C13.7526 6.543 13.7526 6.543 13.793 6.64377C13.8342 6.76898 13.8264 6.86772 13.8221 6.99899C13.8437 7.28756 14.0079 7.4239 14.2093 7.60825C14.9878 8.32712 15.3614 9.45889 15.4305 10.4906C15.4507 11.3457 15.2576 12.1798 14.6775 12.8261C13.992 13.4781 13.0368 13.6026 12.1322 13.605C12.0279 13.6054 11.9237 13.6069 11.8194 13.6084C10.8751 13.6154 9.99526 13.4204 9.2752 12.7734C8.72539 12.1984 8.56977 11.3625 8.57794 10.5937C8.61728 9.52568 8.99643 8.49661 9.70294 7.68747C9.77967 7.61961 9.85681 7.55221 9.93438 7.48532C10.2069 7.22701 10.1961 6.91696 10.2186 6.56247C10.23 6.52619 10.2414 6.48992 10.2531 6.45254C10.2709 6.27247 10.1997 6.19679 10.0973 6.05014C10.0797 6.0242 10.0621 5.99826 10.0439 5.97153C9.98753 5.88874 9.93031 5.80662 9.87286 5.72458C9.81579 5.64286 9.75895 5.56102 9.70284 5.47863C9.65173 5.40361 9.59978 5.32916 9.54778 5.25475C9.45867 5.09119 9.43246 4.96643 9.42169 4.78122C9.48132 4.59882 9.52597 4.52231 9.69012 4.42142C9.85866 4.35324 9.9595 4.35042 10.1395 4.36228C10.4828 4.37102 10.7828 4.30453 11.1134 4.21744C11.7624 4.04945 12.3897 4.10327 13.0311 4.2656ZM11.2879 5.19431C11.2525 5.20204 11.217 5.20978 11.1805 5.21774C11.0697 5.24319 11.0697 5.24319 10.9217 5.29685C10.9062 5.34325 10.8908 5.38966 10.8748 5.43747C10.9391 5.54014 10.9391 5.54014 11.0154 5.62497C11.0507 5.61482 11.086 5.60467 11.1224 5.59421C11.7653 5.42567 12.3456 5.44127 12.9842 5.62497C13.0605 5.54014 13.0605 5.54014 13.1248 5.43747C13.1016 5.36786 13.1016 5.36786 13.0779 5.29685C12.9542 5.25428 12.8389 5.22205 12.7117 5.19431C12.6754 5.18627 12.639 5.17823 12.6016 5.16995C12.1407 5.07373 11.7455 5.09312 11.2879 5.19431ZM11.3436 6.56247C11.5032 6.61568 11.5961 6.60366 11.7625 6.58591C12.0662 6.55895 12.3539 6.57395 12.6561 6.60935C12.6153 6.50244 12.6153 6.50244 12.486 6.46378C12.1051 6.3627 11.6896 6.36473 11.3436 6.56247ZM10.3504 8.41696C9.78948 9.15871 9.48085 10.0861 9.57678 11.015C9.64665 11.5017 9.79532 11.9029 10.1717 12.2343C10.7005 12.5985 11.3722 12.6349 11.994 12.6299C12.0555 12.6295 12.1169 12.6291 12.1803 12.6288C12.8034 12.6182 13.4224 12.5543 13.9217 12.1406C14.3454 11.697 14.4326 11.1646 14.4391 10.5659C14.3998 9.73333 14.0854 8.97533 13.5467 8.34372C13.5029 8.28589 13.5029 8.28589 13.4582 8.2269C13.1422 7.85183 12.6859 7.58076 12.1985 7.52762C11.4179 7.48551 10.8523 7.83582 10.3504 8.41696Z" fill="#697865"/>
<path d="M12.1406 7.59357C12.4021 7.7416 12.4021 7.7416 12.4688 7.87482C12.472 7.94702 12.4727 8.01935 12.4717 8.09162C12.4713 8.12993 12.4708 8.16823 12.4704 8.2077C12.4699 8.23707 12.4693 8.26644 12.4688 8.29669C12.5026 8.30733 12.5364 8.31796 12.5713 8.32892C12.8306 8.44993 12.9792 8.66654 13.125 8.90607C13.1885 9.09654 13.203 9.26962 13.1719 9.46857C13.0402 9.64538 12.9124 9.73092 12.7031 9.79669C12.737 9.81796 12.7708 9.83923 12.8057 9.86115C13.0343 10.0745 13.1526 10.3048 13.1931 10.6163C13.2057 11.0364 13.1452 11.3032 12.8672 11.616C12.5893 11.8592 12.5893 11.8592 12.4688 11.8592C12.4728 11.9008 12.4728 11.9008 12.477 11.9432C12.4944 12.2486 12.4944 12.2486 12.3574 12.4217C12.1786 12.5579 12.085 12.584 11.8594 12.5623C11.71 12.5008 11.71 12.5008 11.5781 12.3748C11.5424 12.2574 11.5424 12.2574 11.5137 12.1229C11.4562 11.8639 11.3735 11.7912 11.1566 11.6519C10.9511 11.4904 10.8544 11.2452 10.8058 10.9935C10.7933 10.7957 10.8099 10.7119 10.9307 10.5496C11.0521 10.4606 11.1539 10.4041 11.2969 10.3592C11.263 10.337 11.2292 10.3147 11.1943 10.2918C10.9411 10.061 10.7974 9.777 10.7783 9.43341C10.7887 9.0595 10.9107 8.76802 11.1562 8.48419C11.2056 8.45519 11.2549 8.42619 11.3057 8.3963C11.4634 8.27715 11.4655 8.22633 11.5078 8.03888C11.5511 7.84911 11.5646 7.79404 11.71 7.65509C11.875 7.58715 11.9646 7.56424 12.1406 7.59357ZM11.8125 9.23419C11.7929 9.34543 11.7929 9.34543 11.8125 9.46857C11.9794 9.61089 12.1136 9.62416 12.3281 9.60919C12.2746 9.47792 12.2185 9.35292 12.1406 9.23419C12.0005 9.17749 11.9476 9.16667 11.8125 9.23419ZM11.6719 10.5467C11.7338 10.6859 11.7956 10.8251 11.8594 10.9686C11.9726 10.9764 11.9726 10.9764 12.0938 10.9686C12.1247 10.9376 12.1556 10.9067 12.1875 10.8748C12.1871 10.7554 12.1871 10.7554 12.1406 10.6404C11.9946 10.5268 11.8512 10.5385 11.6719 10.5467Z" fill="#697865"/>
</svg>
