<svg width="20" height="20" viewBox="0 0 20 20" fill="none" xmlns="http://www.w3.org/2000/svg">
<path d="M16.5604 15.6201L12.9457 11.9986C13.7838 10.9195 14.1792 9.56148 14.0512 8.20114C13.9232 6.84079 13.2816 5.58036 12.257 4.67646C11.2323 3.77256 9.9017 3.29317 8.53602 3.33588C7.17033 3.37859 5.87227 3.9402 4.90611 4.90635C3.93995 5.87251 3.37835 7.17057 3.33563 8.53626C3.29292 9.90194 3.77232 11.2326 4.67622 12.2572C5.58011 13.2818 6.84055 13.9235 8.20089 14.0514C9.56124 14.1794 10.9192 13.7841 11.9983 12.946L15.6198 16.5607C15.7506 16.6436 15.9058 16.6795 16.0597 16.6624C16.2137 16.6454 16.3572 16.5765 16.4667 16.467C16.5762 16.3574 16.6452 16.2139 16.6622 16.06C16.6792 15.906 16.6433 15.7509 16.5604 15.6201ZM4.69174 8.71334C4.69174 7.91799 4.92759 7.1405 5.36946 6.4792C5.81134 5.81789 6.43938 5.30246 7.17419 4.99809C7.909 4.69373 8.71756 4.61409 9.49762 4.76926C10.2777 4.92442 10.9942 5.30742 11.5566 5.86981C12.119 6.43221 12.502 7.14875 12.6572 7.92881C12.8123 8.70888 12.7327 9.51744 12.4283 10.2522C12.124 10.9871 11.6086 11.6151 10.9472 12.057C10.2859 12.4988 9.50845 12.7347 8.7131 12.7347C7.64694 12.7335 6.62479 12.3094 5.8709 11.5555C5.11701 10.8017 4.69295 9.7795 4.69174 8.71334Z" fill="black"/>
</svg>
