<svg width="24" height="24" viewBox="0 0 24 24" fill="none" xmlns="http://www.w3.org/2000/svg">
<g clip-path="url(#clip0_109_56)">
<path d="M4.1649 -0.0330864C4.55145 0.0939781 4.88757 0.829497 5.10431 1.15862C5.22755 1.34576 5.35151 1.53244 5.47536 1.71919C5.49996 1.75632 5.52456 1.79346 5.5499 1.83172C5.77554 2.17208 6.00426 2.51028 6.23433 2.84767C6.28477 2.92163 6.28477 2.92163 6.33622 2.99709C6.41156 3.10749 6.48697 3.21784 6.56246 3.32813C6.70317 3.31323 6.7766 3.30241 6.87608 3.19838C6.89954 3.16229 6.92299 3.12619 6.94716 3.089C6.98783 3.02774 6.98783 3.02774 7.02933 2.96524C7.05799 2.92064 7.08664 2.87604 7.11617 2.83009C7.17867 2.73556 7.24123 2.64108 7.30385 2.54664C7.35217 2.47318 7.35217 2.47318 7.40147 2.39823C7.55937 2.1606 7.72302 1.92706 7.88667 1.69337C8.08262 1.41262 8.27815 1.13163 8.47133 0.848967C8.53383 0.757662 8.59673 0.666643 8.65975 0.575693C8.72369 0.48276 8.78673 0.389177 8.84798 0.294443C8.96338 0.122858 9.01348 0.0585855 9.21382 -0.0117089C9.37496 9.86503e-06 9.37496 9.86084e-06 9.51265 0.0615333C9.65951 0.252899 9.62874 0.421446 9.60933 0.65626C9.56993 0.916094 9.51819 1.17296 9.46578 1.43043C9.45102 1.50475 9.4363 1.57907 9.42164 1.6534C9.38317 1.84787 9.34422 2.04224 9.30512 2.23657C9.24245 2.54819 9.1803 2.85991 9.11858 3.17171C9.097 3.28014 9.07509 3.38849 9.05314 3.49685C9.03985 3.56355 9.02658 3.63025 9.01332 3.69696C9.00166 3.75487 8.99001 3.81279 8.97799 3.87246C8.95448 4.02233 8.94832 4.16115 8.95308 4.31251C9.15979 4.37099 9.33373 4.34438 9.54019 4.30372C9.5749 4.29725 9.60961 4.29078 9.64537 4.28412C9.7205 4.27006 9.79559 4.25581 9.87065 4.24137C9.98961 4.21852 10.1087 4.19623 10.2278 4.17408C10.5236 4.11897 10.8192 4.06298 11.1148 4.00686C11.3646 3.95944 11.6146 3.91243 11.8646 3.86601C11.9816 3.84411 12.0985 3.82161 12.2154 3.79908C12.2876 3.78562 12.3598 3.77219 12.432 3.7588C12.4803 3.74923 12.4803 3.74923 12.5296 3.73947C12.7645 3.69689 13.0007 3.68185 13.2158 3.79981C13.2817 3.92007 13.3056 4.02844 13.2981 4.16536C13.1515 4.61776 12.2164 5.03322 11.8388 5.28224C11.6689 5.39463 11.4991 5.50714 11.3292 5.6197C11.2878 5.64714 11.2464 5.67457 11.2037 5.70284C10.7786 5.98492 10.3576 6.27298 9.93746 6.56251C9.95237 6.70322 9.96318 6.77666 10.0672 6.87613C10.1033 6.89959 10.1394 6.92305 10.1766 6.94721C10.2174 6.97431 10.2582 7.00141 10.3003 7.02933C10.3449 7.058 10.3895 7.08668 10.4355 7.11622C10.5305 7.17903 10.6254 7.24189 10.7202 7.30482C10.7693 7.33707 10.8183 7.36932 10.8688 7.40255C11.099 7.5554 11.3254 7.71362 11.5517 7.87208C11.8328 8.06868 12.1144 8.26448 12.398 8.45747C12.4476 8.4914 12.4972 8.52533 12.5483 8.56029C12.6437 8.62553 12.7392 8.69045 12.8351 8.755C12.8779 8.78437 12.9207 8.81374 12.9647 8.844C13.0026 8.86967 13.0404 8.89533 13.0793 8.92178C13.1786 9.00571 13.2219 9.06582 13.2656 9.18751C13.2567 9.33206 13.2482 9.43084 13.1582 9.54657C12.9988 9.67152 12.8016 9.62735 12.6093 9.60938C12.3495 9.56971 12.0926 9.51824 11.8352 9.46583C11.7608 9.45107 11.6865 9.43636 11.6122 9.42169C11.4177 9.38322 11.2234 9.34427 11.029 9.30517C10.7174 9.2425 10.4057 9.18035 10.0939 9.11863C9.98545 9.09706 9.8771 9.07514 9.76874 9.05319C9.70204 9.03991 9.63534 9.02663 9.56864 9.01338C9.51072 9.00172 9.4528 8.99006 9.39313 8.97805C9.24326 8.95454 9.10444 8.94837 8.95308 8.95313C8.8946 9.15984 8.92122 9.33378 8.96187 9.54024C8.96834 9.57495 8.97481 9.60966 8.98147 9.64543C8.99553 9.72055 9.00979 9.79565 9.02422 9.8707C9.04707 9.98967 9.06936 10.1087 9.09151 10.2278C9.14662 10.5236 9.20261 10.8192 9.25873 11.1148C9.30615 11.3647 9.35316 11.6146 9.39958 11.8647C9.42148 11.9817 9.44399 12.0985 9.46651 12.2154C9.47997 12.2876 9.4934 12.3598 9.50679 12.432C9.51636 12.4803 9.51636 12.4803 9.52612 12.5296C9.5687 12.7645 9.58374 13.0007 9.46578 13.2158C9.34567 13.2817 9.23721 13.3055 9.10044 13.2984C8.66799 13.1573 8.27596 12.2818 8.03609 11.918C7.92785 11.7545 7.81946 11.5912 7.71108 11.4278C7.68469 11.388 7.65831 11.3482 7.63112 11.3072C7.32631 10.8475 7.01585 10.3918 6.70308 9.93751C6.56041 9.95225 6.48836 9.96366 6.38797 10.0695C6.35189 10.125 6.35189 10.125 6.31508 10.1816C6.27368 10.2439 6.27368 10.2439 6.23145 10.3075C6.20243 10.3527 6.17341 10.3978 6.14351 10.4443C6.08089 10.5391 6.0182 10.6337 5.95546 10.7283C5.90802 10.8005 5.90802 10.8005 5.85963 10.8741C5.71879 11.0861 5.57252 11.2941 5.42574 11.502C5.226 11.7861 5.02749 12.071 4.83101 12.3574C4.81002 12.3879 4.78904 12.4184 4.76742 12.4498C4.67592 12.5828 4.5851 12.716 4.49556 12.8504C4.46704 12.8926 4.43852 12.9349 4.40914 12.9785C4.3737 13.032 4.3737 13.032 4.33754 13.0866C4.25692 13.1822 4.19509 13.2229 4.07808 13.2656C3.93216 13.2567 3.83305 13.2437 3.71187 13.1602C3.60536 13.0032 3.60648 12.8659 3.63039 12.6804C3.64265 12.617 3.65541 12.5536 3.66855 12.4903C3.67541 12.4555 3.68226 12.4207 3.68932 12.3849C3.71199 12.2702 3.73528 12.1557 3.75856 12.0412C3.77444 11.9613 3.79027 11.8814 3.80606 11.8015C3.84768 11.5912 3.88979 11.381 3.93205 11.1709C3.99963 10.8347 4.06669 10.4985 4.13332 10.1622C4.15665 10.0449 4.18034 9.92772 4.20405 9.81054C4.21844 9.73834 4.23281 9.66613 4.24717 9.59392C4.25382 9.56155 4.26046 9.52918 4.26731 9.49583C4.30343 9.31223 4.31891 9.14014 4.31246 8.95313C4.10575 8.89466 3.93181 8.92127 3.72535 8.96192C3.69064 8.96839 3.65593 8.97486 3.62017 8.98153C3.54504 8.99558 3.46995 9.00984 3.39489 9.02427C3.27593 9.04713 3.15687 9.06942 3.03777 9.09156C2.74198 9.14667 2.44635 9.20266 2.15074 9.25878C1.90089 9.30621 1.65097 9.35321 1.40093 9.39964C1.28393 9.42153 1.16706 9.44404 1.05018 9.46656C0.977979 9.48002 0.905776 9.49345 0.833567 9.50685C0.785263 9.51641 0.785263 9.51641 0.735984 9.52617C0.501051 9.56876 0.264868 9.58379 0.0497609 9.46583C-0.0345303 9.31212 -0.0440967 9.16614 -4.38076e-05 9.00001C0.192289 8.77471 0.473038 8.61392 0.718828 8.45271C0.75582 8.42818 0.792811 8.40365 0.830924 8.37837C0.909703 8.32616 0.988546 8.27405 1.06745 8.22203C1.27287 8.08658 1.47784 7.95044 1.68288 7.8144C1.72344 7.78752 1.76401 7.76063 1.8058 7.73293C2.15769 7.49954 2.50757 7.26333 2.8564 7.0254C2.90516 6.99215 2.95391 6.9589 3.00414 6.92463C3.11217 6.85087 3.22016 6.77705 3.32808 6.70313C3.31317 6.56242 3.30236 6.48899 3.19833 6.38951C3.16223 6.36605 3.12614 6.3426 3.08895 6.31843C3.02773 6.27778 3.02773 6.27778 2.96527 6.23632C2.92064 6.20764 2.87601 6.17897 2.83003 6.14942C2.73508 6.08662 2.64018 6.02375 2.54531 5.96083C2.47176 5.91245 2.47176 5.91245 2.39674 5.86309C2.16654 5.71025 1.94019 5.55201 1.71382 5.39356C1.62485 5.33141 1.53586 5.26928 1.44686 5.20716C1.40225 5.17603 1.35764 5.1449 1.31168 5.11282C1.16399 5.01018 1.0158 4.90829 0.86751 4.80653C0.817928 4.77238 0.768345 4.73824 0.71726 4.70306C0.621795 4.63735 0.526197 4.57182 0.430449 4.50652C0.387664 4.477 0.34488 4.44748 0.300798 4.41706C0.244077 4.3782 0.244077 4.3782 0.186209 4.33855C0.0937062 4.26563 0.0937062 4.26563 -4.38076e-05 4.12501C0.0151064 3.84221 0.0151064 3.84221 0.108355 3.70899C0.307112 3.57649 0.475523 3.61878 0.702177 3.66356C0.734752 3.66988 0.767326 3.6762 0.800888 3.68271C0.908558 3.70368 1.01611 3.72521 1.12367 3.74671C1.19888 3.76142 1.2741 3.77609 1.34932 3.79072C1.54762 3.82936 1.74584 3.86844 1.94403 3.90765C2.26003 3.97015 2.57611 4.03224 2.89228 4.09387C3.00206 4.11537 3.11178 4.1372 3.2215 4.15907C3.58404 4.23048 3.9429 4.29081 4.31246 4.31251C4.37094 4.1058 4.34432 3.93186 4.30367 3.72541C4.2972 3.69069 4.29073 3.65598 4.28406 3.62022C4.27001 3.54509 4.25575 3.47 4.24132 3.39494C4.21847 3.27598 4.19617 3.15692 4.17403 3.03783C4.11892 2.74203 4.06293 2.4464 4.00681 2.1508C3.95939 1.90095 3.91238 1.65102 3.86595 1.40098C3.84406 1.28398 3.82155 1.16711 3.79903 1.05023C3.78557 0.978033 3.77214 0.90583 3.75875 0.83362C3.74918 0.785317 3.74918 0.785317 3.73942 0.736037C3.69683 0.501105 3.6818 0.264922 3.79976 0.0498146C3.91972 -0.0159694 4.02828 -0.0398047 4.1649 -0.0330864ZM4.73433 2.01563C4.76581 2.2024 4.79748 2.38912 4.82932 2.57582C4.8401 2.63918 4.85082 2.70255 4.8615 2.76593C4.91735 3.0974 4.9739 3.42558 5.06246 3.75001C5.3873 3.63399 5.3873 3.63399 5.71871 3.51563C5.66942 3.31849 5.587 3.18679 5.47408 3.02271C5.45449 2.99385 5.4349 2.96498 5.41471 2.93524C5.37339 2.87448 5.33193 2.81381 5.29035 2.75323C5.22644 2.66005 5.16301 2.56657 5.09963 2.47303C5.05943 2.41405 5.01921 2.35509 4.97896 2.29615C4.95987 2.26803 4.94078 2.23991 4.9211 2.21094C4.87569 2.14498 4.82862 2.08017 4.78121 2.01563C4.76574 2.01563 4.75027 2.01563 4.73433 2.01563ZM8.53121 2.06251C8.46082 2.1552 8.39304 2.2486 8.32613 2.34376C8.30565 2.37265 8.28518 2.40154 8.26408 2.43131C8.0215 2.7747 7.78398 3.12161 7.54683 3.46876C7.67341 3.55315 7.78434 3.60628 7.92476 3.66212C7.96591 3.67868 8.00706 3.69523 8.04946 3.71229C8.15207 3.75522 8.15207 3.75522 8.24996 3.75001C8.44018 2.91113 8.44018 2.91113 8.57808 2.06251C8.56261 2.06251 8.54714 2.06251 8.53121 2.06251ZM4.59371 5.06251C4.196 5.60602 4.00128 6.26526 4.07808 6.93751C4.21421 7.70515 4.56066 8.3047 5.19283 8.76728C5.77498 9.13582 6.43749 9.27916 7.11525 9.15492C7.84463 8.99071 8.42617 8.57244 8.83754 7.94715C9.21018 7.30125 9.27525 6.62087 9.08913 5.9033C8.90486 5.26226 8.49734 4.76718 7.93648 4.41212C6.77877 3.78428 5.43164 4.05177 4.59371 5.06251ZM2.06246 4.68751C2.224 4.86393 2.40751 4.99102 2.60445 5.12403C2.6375 5.14656 2.67055 5.16909 2.70461 5.1923C2.97146 5.37336 3.24158 5.54867 3.51558 5.71876C3.55483 5.61923 3.59385 5.5196 3.63277 5.41993C3.65452 5.36446 3.67627 5.30899 3.69869 5.25184C3.75525 5.11992 3.75525 5.11992 3.74996 5.01563C3.56995 4.97623 3.38989 4.93704 3.20979 4.89805C3.11883 4.87831 3.0279 4.85839 2.93697 4.83848C2.64587 4.77556 2.35892 4.71708 2.06246 4.68751ZM10.812 4.78803C10.761 4.79716 10.761 4.79716 10.709 4.80648C10.6371 4.81945 10.5652 4.83258 10.4934 4.84586C10.3833 4.86612 10.2731 4.88566 10.1629 4.90513C10.0931 4.91781 10.0233 4.93054 9.95357 4.94331C9.92051 4.94912 9.88745 4.95494 9.85339 4.96093C9.66492 4.99463 9.66492 4.99463 9.51558 5.10938C9.59292 5.31048 9.67027 5.51157 9.74996 5.71876C9.94892 5.63917 10.1092 5.55002 10.2841 5.43128C10.3118 5.41269 10.3396 5.39409 10.3682 5.37494C10.4562 5.31592 10.544 5.2566 10.6318 5.19728C10.6917 5.15703 10.7516 5.11681 10.8115 5.07661C10.9578 4.97839 11.1039 4.8799 11.25 4.78126C11.1047 4.70863 10.966 4.7596 10.812 4.78803ZM3.08199 7.75196C2.83387 7.93391 2.5827 8.10947 2.32613 8.27931C2.29518 8.29981 2.26422 8.32032 2.23233 8.34145C2.16014 8.38918 2.08787 8.4368 2.01558 8.48438C2.16083 8.55701 2.29949 8.50604 2.45357 8.47761C2.50454 8.46848 2.50454 8.46848 2.55654 8.45917C2.62844 8.44619 2.70031 8.43306 2.77215 8.41978C2.88224 8.39952 2.99244 8.37999 3.10268 8.36051C3.17245 8.34783 3.24221 8.33511 3.31197 8.32234C3.34503 8.31652 3.37808 8.31071 3.41214 8.30471C3.60062 8.27102 3.60062 8.27102 3.74996 8.15626C3.67261 7.95517 3.59527 7.75407 3.51558 7.54688C3.32541 7.54688 3.22815 7.64237 3.08199 7.75196ZM9.74996 7.54688C9.72539 7.61124 9.72539 7.61124 9.70033 7.67689C9.679 7.7326 9.65767 7.78831 9.6357 7.84571C9.61449 7.90118 9.59328 7.95665 9.57143 8.0138C9.51558 8.15626 9.51558 8.15626 9.46871 8.25001C9.70056 8.298 9.93249 8.34558 10.1645 8.39277C10.2435 8.4089 10.3224 8.42513 10.4013 8.44148C10.5146 8.46493 10.6279 8.48797 10.7413 8.51093C10.7767 8.51835 10.8121 8.52577 10.8486 8.53342C11.0298 8.57789 11.0298 8.57789 11.2031 8.53126C10.8488 8.2761 10.493 8.02346 10.1337 7.7754C10.101 7.75266 10.0682 7.72992 10.0344 7.7065C9.90287 7.59691 9.90287 7.59691 9.74996 7.54688ZM5.01558 9.51563C4.97617 9.69564 4.93699 9.8757 4.89799 10.0558C4.87825 10.1468 4.85834 10.2377 4.83843 10.3286C4.77551 10.6197 4.71703 10.9067 4.68746 11.2031C4.86388 11.0416 4.99097 10.8581 5.12398 10.6611C5.14651 10.6281 5.16903 10.595 5.19224 10.561C5.37331 10.2941 5.54862 10.024 5.71871 9.75001C5.61917 9.71076 5.51954 9.67174 5.41988 9.63282C5.36441 9.61107 5.30894 9.58932 5.25179 9.5669C5.11986 9.51034 5.11986 9.51034 5.01558 9.51563ZM8.15621 9.51563C7.95511 9.59298 7.75402 9.67032 7.54683 9.75001C7.59626 9.94774 7.6793 10.0788 7.79311 10.2429C7.81281 10.2718 7.83251 10.3007 7.85281 10.3304C7.9156 10.4223 7.97877 10.5139 8.04195 10.6055C8.08467 10.6678 8.12736 10.7302 8.17003 10.7926C8.27451 10.9453 8.37933 11.0977 8.48433 11.25C8.55696 11.1048 8.50599 10.9661 8.47756 10.812C8.46843 10.7611 8.46843 10.7611 8.45911 10.7091C8.44614 10.6372 8.43301 10.5653 8.41973 10.4934C8.39947 10.3833 8.37993 10.2731 8.36046 10.1629C8.34778 10.0931 8.33505 10.0234 8.32228 9.95362C8.31647 9.92056 8.31065 9.88751 8.30466 9.85345C8.27096 9.66497 8.27096 9.66497 8.15621 9.51563Z" fill="#697865"/>
<path d="M18.1875 10.8281C18.362 11.0027 18.3372 11.2203 18.343 11.4558C18.3439 11.4888 18.3449 11.5219 18.3459 11.5559C18.349 11.6609 18.3517 11.766 18.3545 11.8711C18.3565 11.9425 18.3586 12.0139 18.3606 12.0853C18.3656 12.26 18.3704 12.4347 18.375 12.6094C18.4235 12.5586 18.4235 12.5586 18.4731 12.5068C18.5939 12.3809 18.7156 12.256 18.8376 12.1313C18.8902 12.0773 18.9425 12.0231 18.9946 11.9686C19.0697 11.89 19.1457 11.8125 19.2219 11.735C19.2562 11.6985 19.2562 11.6985 19.2913 11.6612C19.4608 11.4915 19.5901 11.4458 19.8281 11.4375C19.9592 11.4823 20.0005 11.5009 20.0625 11.625C20.0844 11.7723 20.0972 11.8591 20.0625 12C19.9577 12.1246 19.8268 12.2083 19.6934 12.3003C18.7511 13.0123 18.7511 13.0123 18.2951 14.0602C18.2473 14.47 18.2522 14.8814 18.2695 15.293C18.2717 15.3446 18.2717 15.3446 18.2739 15.3974C18.2933 15.8288 18.3275 16.2581 18.375 16.6875C18.4083 16.6682 18.4415 16.649 18.4758 16.6292C18.6307 16.5396 18.7856 16.45 18.9406 16.3605C18.9685 16.3443 18.9964 16.3282 19.0252 16.3116C19.3162 16.1434 19.6073 15.9755 19.9013 15.8127C20.0327 15.7399 20.1632 15.6657 20.2939 15.5918C20.3745 15.5482 20.3745 15.5482 20.4566 15.5037C20.5334 15.4598 20.5334 15.4598 20.6116 15.4149C20.6784 15.3778 20.6784 15.3778 20.7466 15.3399C20.9096 15.1874 20.9451 15.0247 21 14.8125C21.0101 14.7754 21.0202 14.7383 21.0307 14.7C21.0621 14.5821 21.092 14.4639 21.1216 14.3456C21.144 14.2579 21.1664 14.1702 21.1888 14.0824C21.2236 13.9458 21.2582 13.8091 21.2924 13.6723C21.3259 13.5392 21.3599 13.4062 21.394 13.2733C21.4042 13.2323 21.4143 13.1913 21.4247 13.149C21.4345 13.111 21.4444 13.0729 21.4546 13.0337C21.463 13.0003 21.4714 12.967 21.4801 12.9326C21.5222 12.8274 21.5687 12.7744 21.6562 12.7031C21.8276 12.651 21.9054 12.6413 22.0693 12.7178C22.1719 12.7969 22.1719 12.7969 22.2188 12.8906C22.2319 13.1322 22.1986 13.3356 22.1367 13.5687C22.1284 13.6004 22.1201 13.6322 22.1115 13.665C22.0851 13.7654 22.0582 13.8656 22.0312 13.9658C22.0131 14.0343 21.9951 14.1028 21.9771 14.1713C21.933 14.3383 21.8885 14.5051 21.8438 14.6719C21.8783 14.6511 21.9128 14.6302 21.9483 14.6088C22.0769 14.5314 22.2055 14.454 22.3341 14.3766C22.3897 14.3432 22.4453 14.3097 22.5008 14.2762C22.5808 14.228 22.6609 14.1798 22.741 14.1317C22.7891 14.1027 22.8372 14.0738 22.8868 14.0439C23.118 13.909 23.2554 13.8454 23.5312 13.875C23.6455 13.9512 23.6455 13.9512 23.7188 14.0625C23.7476 14.2322 23.7394 14.3116 23.6459 14.4569C23.5038 14.6072 23.3553 14.6905 23.1738 14.7861C23.1067 14.8226 23.0395 14.8591 22.9724 14.8956C22.9398 14.9132 22.9072 14.9309 22.8736 14.949C22.7115 15.0384 22.5547 15.1364 22.3978 15.2345C22.3125 15.2812 22.3125 15.2812 22.2188 15.2812C22.2188 15.3122 22.2188 15.3431 22.2188 15.375C22.2923 15.3818 22.2923 15.3818 22.3674 15.3887C22.656 15.425 22.9342 15.5024 23.2148 15.5771C23.2971 15.5979 23.2971 15.5979 23.3811 15.6192C23.4338 15.6331 23.4865 15.6471 23.5408 15.6615C23.5885 15.674 23.6362 15.6865 23.6853 15.6993C23.8285 15.7564 23.902 15.8196 24 15.9375C24.0362 16.0762 24.0186 16.1656 24 16.3125C23.9268 16.4062 23.9268 16.4062 23.8125 16.4531C23.5206 16.4762 23.2756 16.4043 22.9971 16.3218C22.9021 16.295 22.807 16.2683 22.7119 16.2417C22.5633 16.1997 22.4148 16.1572 22.2667 16.1133C22.1229 16.0709 21.9786 16.0307 21.834 15.9908C21.7903 15.9773 21.7466 15.9637 21.7016 15.9498C21.4569 15.8842 21.3111 15.8776 21.0805 15.9909C21.0061 16.0343 20.9323 16.0789 20.8594 16.125C20.8076 16.154 20.7559 16.1831 20.7026 16.213C20.6571 16.2402 20.6116 16.2674 20.5648 16.2955C20.5132 16.3262 20.4616 16.3569 20.4085 16.3886C20.3821 16.4044 20.3557 16.4202 20.3285 16.4365C20.2455 16.4863 20.1625 16.5358 20.0794 16.5852C19.8725 16.7084 19.6658 16.8319 19.4592 16.9555C19.3469 17.0226 19.2345 17.0894 19.1221 17.1562C19.0898 17.1757 19.0575 17.1951 19.0242 17.2151C18.8075 17.3437 18.8075 17.3437 18.7031 17.3437C18.7031 17.3747 18.7031 17.4056 18.7031 17.4375C18.7362 17.4498 18.7692 17.4622 18.8032 17.4749C19.032 17.5709 19.2421 17.7005 19.4568 17.8243C19.5455 17.8749 19.6348 17.9243 19.7243 17.9735C19.9997 18.1264 20.2535 18.2736 20.4884 18.4861C20.7381 18.6992 20.9478 18.8522 21.2812 18.8906C21.9116 18.8389 22.5399 18.6264 23.1376 18.4294C23.4032 18.3435 23.6558 18.2638 23.9268 18.375C24.0206 18.4951 24.0226 18.5986 24.0249 18.7483C23.9886 18.8873 23.9222 18.9392 23.8125 19.0312C23.6651 19.0869 23.6651 19.0869 23.4932 19.1316C23.4627 19.1396 23.4322 19.1477 23.4007 19.156C23.3365 19.1728 23.2722 19.1894 23.2078 19.2056C23.1095 19.2304 23.0115 19.2562 22.9135 19.2821C22.4363 19.4062 22.4363 19.4062 22.2188 19.4062C22.2188 19.4372 22.2188 19.4681 22.2188 19.5C22.2522 19.5127 22.2857 19.5254 22.3202 19.5385C22.5552 19.6362 22.7733 19.7654 22.9951 19.8896C23.0683 19.9297 23.0683 19.9297 23.143 19.9705C23.19 19.9968 23.2369 20.0231 23.2853 20.0502C23.328 20.0739 23.3707 20.0976 23.4147 20.1221C23.5461 20.2134 23.6285 20.3057 23.7188 20.4375C23.7468 20.6092 23.7414 20.6843 23.6455 20.8301C23.4878 20.9352 23.3908 20.9222 23.2031 20.9062C23.0461 20.8374 23.0461 20.8374 22.8856 20.7422C22.8571 20.7255 22.8285 20.7089 22.7991 20.6917C22.7087 20.6389 22.619 20.5851 22.5293 20.5312C22.4385 20.4776 22.3475 20.4241 22.2565 20.3707C22.1745 20.3225 22.0929 20.2738 22.0112 20.2251C21.907 20.1524 21.907 20.1524 21.8438 20.1562C21.8551 20.1971 21.8665 20.238 21.8782 20.2801C21.9204 20.433 21.9623 20.586 22.004 20.739C22.022 20.805 22.0402 20.871 22.0585 20.9369C22.085 21.0321 22.1109 21.1275 22.1367 21.2228C22.1524 21.28 22.1681 21.3372 22.1843 21.3961C22.2279 21.6066 22.26 21.8035 22.166 22.0019C22.043 22.1086 21.9587 22.1218 21.7969 22.125C21.6265 22.0541 21.5722 22.0056 21.4946 21.836C21.476 21.7753 21.4585 21.7142 21.4418 21.6529C21.4322 21.6199 21.4225 21.5869 21.4125 21.5529C21.3436 21.3104 21.2898 21.0656 21.2393 20.8187C21.115 19.9966 21.115 19.9966 20.6707 19.348C20.5432 19.2808 20.4133 19.2269 20.2783 19.1764C20.0172 19.0664 19.7784 18.9091 19.5352 18.7646C19.4344 18.7066 19.3336 18.6488 19.2327 18.5912C18.9457 18.4273 18.6604 18.2605 18.375 18.0937C18.3236 18.5579 18.2891 19.0218 18.2695 19.4883C18.2681 19.5225 18.2666 19.5568 18.2652 19.592C18.2369 20.3502 18.2283 21.0521 18.7507 21.6555C19.0653 21.9931 19.4253 22.2961 19.8052 22.5581C20.0497 22.7331 20.0497 22.7331 20.0886 22.879C20.0938 23.0518 20.0748 23.141 19.9658 23.2764C19.7833 23.3657 19.6959 23.346 19.5 23.2969C19.3945 23.2154 19.3119 23.1419 19.2219 23.0462C19.1974 23.0213 19.1729 22.9964 19.1476 22.9707C19.07 22.8916 18.9935 22.8116 18.917 22.7314C18.8644 22.6774 18.8117 22.6234 18.7589 22.5695C18.6302 22.4377 18.5023 22.305 18.375 22.1719C18.3741 22.2161 18.3731 22.2603 18.3722 22.3058C18.3685 22.4705 18.3645 22.6352 18.3601 22.7999C18.3583 22.871 18.3567 22.9422 18.3552 23.0133C18.3531 23.1158 18.3504 23.2183 18.3475 23.3209C18.3461 23.3825 18.3446 23.4441 18.3431 23.5076C18.3241 23.7159 18.2894 23.8512 18.1406 24C17.8033 24.0268 17.8033 24.0268 17.6748 23.9355C17.5623 23.7635 17.5679 23.6079 17.5633 23.4078C17.5623 23.3726 17.5613 23.3373 17.5603 23.301C17.5573 23.1883 17.5545 23.0756 17.5518 22.9629C17.5497 22.8865 17.5477 22.8102 17.5456 22.7338C17.5406 22.5465 17.5359 22.3592 17.5312 22.1719C17.4996 22.204 17.4679 22.2362 17.4353 22.2693C17.3174 22.3889 17.1992 22.5082 17.0809 22.6273C17.0298 22.6789 16.9788 22.7306 16.9279 22.7823C16.8546 22.8567 16.781 22.9309 16.7073 23.005C16.6847 23.0281 16.662 23.0512 16.6387 23.075C16.5232 23.1906 16.421 23.2885 16.2656 23.3437C16.0986 23.3408 16.0986 23.3408 15.9375 23.2969C15.8236 23.1723 15.7985 23.0985 15.791 22.9307C15.9017 22.617 16.1436 22.4202 16.4119 22.2377C16.9072 21.8962 17.431 21.4928 17.5691 20.8785C17.6938 19.9628 17.6127 19.0102 17.5312 18.0937C16.7086 18.5559 16.7086 18.5559 15.8936 19.0312C15.8524 19.0556 15.8112 19.0799 15.7688 19.105C15.5503 19.2346 15.3342 19.3667 15.1215 19.5055C15.0469 19.5469 15.0469 19.5469 14.9531 19.5469C14.9477 19.5992 14.9422 19.6516 14.9366 19.7056C14.9076 19.9362 14.8534 20.1577 14.7955 20.3826C14.7845 20.4253 14.7736 20.468 14.7623 20.512C14.7393 20.6017 14.7161 20.6914 14.6927 20.781C14.6572 20.918 14.6226 21.0553 14.5881 21.1926C14.5655 21.28 14.5428 21.3674 14.5201 21.4548C14.5099 21.4957 14.4998 21.5367 14.4893 21.5788C14.4325 21.7924 14.3876 21.9404 14.2031 22.0781C14.0889 22.1221 14.0889 22.1221 13.9688 22.125C13.8617 22.0715 13.7723 22.0223 13.6875 21.9375C13.6524 21.5338 13.7668 21.1702 13.875 20.7861C13.8931 20.7203 13.9112 20.6545 13.9292 20.5886C13.9731 20.4287 14.0176 20.269 14.0625 20.1094C13.8799 20.2158 13.6973 20.3222 13.5146 20.4287C13.463 20.4588 13.4113 20.4889 13.358 20.52C13.283 20.5637 13.283 20.5637 13.2065 20.6083C13.1606 20.6351 13.1147 20.6618 13.0674 20.6894C12.982 20.7395 12.8974 20.7912 12.8139 20.8445C12.6585 20.9311 12.5499 20.9285 12.375 20.9062C12.2607 20.833 12.2607 20.833 12.1875 20.7187C12.1641 20.5547 12.1641 20.5547 12.1875 20.3906C12.3214 20.2293 12.4771 20.1352 12.6583 20.0326C12.6983 20.0098 12.6983 20.0098 12.7391 19.9865C12.8236 19.9383 12.9084 19.8905 12.9932 19.8428C13.0784 19.7944 13.1636 19.746 13.2487 19.6975C13.3256 19.6538 13.4025 19.6103 13.4795 19.5669C13.5877 19.51 13.5877 19.51 13.6406 19.4531C13.595 19.4416 13.5494 19.43 13.5023 19.4181C13.3322 19.3748 13.1624 19.3304 12.9926 19.2857C12.9193 19.2666 12.8458 19.2477 12.7723 19.2292C12.6663 19.2023 12.5607 19.1745 12.455 19.1464C12.4224 19.1384 12.3898 19.1304 12.3561 19.1221C12.1332 19.0614 12.0021 18.9788 11.8594 18.7969C11.8594 18.6319 11.8767 18.5227 11.9561 18.3779C12.1685 18.2614 12.4312 18.324 12.6542 18.3842C12.7403 18.4095 12.8262 18.4351 12.912 18.461C13.0067 18.4881 13.1014 18.515 13.1961 18.5418C13.3439 18.5841 13.4914 18.627 13.6386 18.6715C14.1813 18.8555 14.1813 18.8555 14.7401 18.8563C14.8716 18.7851 14.9783 18.7041 15.0938 18.6094C15.1892 18.5529 15.2856 18.4981 15.3827 18.4446C15.4837 18.3863 15.5846 18.3279 15.6855 18.2695C15.7385 18.239 15.7914 18.2084 15.8459 18.1769C16.0865 18.0379 16.3267 17.8983 16.5656 17.7563C16.6025 17.7343 16.6394 17.7124 16.6775 17.6898C16.745 17.6495 16.8124 17.6091 16.8797 17.5685C17.0992 17.4375 17.0992 17.4375 17.2031 17.4375C17.2031 17.4066 17.2031 17.3756 17.2031 17.3437C17.1629 17.3319 17.1226 17.3201 17.0812 17.3079C16.9121 17.2464 16.7759 17.169 16.623 17.0742C16.5614 17.0365 16.4998 16.9988 16.4381 16.9612C16.4038 16.9403 16.3696 16.9194 16.3342 16.8979C16.1058 16.7599 15.8751 16.6257 15.6445 16.4912C15.598 16.4639 15.5514 16.4367 15.5035 16.4086C15.4116 16.355 15.3192 16.3024 15.2262 16.2508C15.0938 16.1719 15.0938 16.1719 14.9828 16.0801C14.8158 15.9544 14.681 15.8822 14.4667 15.8998C14.1346 15.9572 13.8133 16.0569 13.4912 16.1543C13.3449 16.1968 13.1984 16.2388 13.0518 16.2803C12.9609 16.3062 12.8703 16.3328 12.7799 16.3601C12.5266 16.4345 12.3112 16.4762 12.0469 16.4531C11.9268 16.3564 11.9268 16.3564 11.8594 16.2187C11.8594 16.0488 11.8594 16.0488 11.9062 15.8906C12.0596 15.7389 12.2473 15.6965 12.4504 15.644C12.4845 15.6348 12.5186 15.6256 12.5537 15.6162C12.662 15.5872 12.7704 15.5587 12.8789 15.5303C12.9526 15.5106 13.0263 15.4909 13.0999 15.4712C13.28 15.4231 13.4603 15.3755 13.6406 15.3281C13.5704 15.286 13.5704 15.286 13.4988 15.2431C13.4093 15.1893 13.3198 15.1356 13.2303 15.0817C13.0659 14.9829 12.9012 14.8847 12.7359 14.7876C12.7039 14.7687 12.6719 14.7498 12.6389 14.7303C12.577 14.6937 12.515 14.6574 12.4529 14.6212C12.2396 14.4949 12.2396 14.4949 12.1875 14.3906C12.1709 14.2108 12.1618 14.1025 12.2607 13.9482C12.4179 13.8475 12.5183 13.8602 12.7031 13.875C12.85 13.938 12.85 13.938 12.9968 14.0255C13.0501 14.0568 13.1034 14.0881 13.1583 14.1204C13.2136 14.1538 13.2689 14.1872 13.3242 14.2207C13.3802 14.2538 13.4362 14.2869 13.4923 14.3199C13.6848 14.4339 13.8763 14.5478 14.0625 14.6719C14.0511 14.6315 14.0398 14.5911 14.0281 14.5495C13.9857 14.3978 13.9438 14.2461 13.9023 14.0942C13.8843 14.0288 13.8661 13.9635 13.8477 13.8983C13.6472 13.1856 13.6472 13.1856 13.6875 12.8437C13.7774 12.7318 13.8223 12.7049 13.9629 12.6621C14.1474 12.6547 14.2019 12.6787 14.3438 12.7969C14.4083 12.9322 14.4424 13.0736 14.4785 13.2187C14.4898 13.2612 14.5011 13.3037 14.5128 13.3475C14.5375 13.4408 14.5617 13.5342 14.5856 13.6278C14.6279 13.7926 14.6718 13.9569 14.7158 14.1213C14.7462 14.2354 14.7764 14.3496 14.8066 14.4639C14.8212 14.5188 14.8358 14.5736 14.8507 14.6302C14.8641 14.6817 14.8775 14.7332 14.8912 14.7863C14.9032 14.8321 14.9151 14.8779 14.9275 14.925C14.9531 15.0469 14.9531 15.0469 14.9531 15.2344C14.9866 15.2469 15.02 15.2595 15.0545 15.2724C15.1904 15.3293 15.3132 15.3957 15.4407 15.4697C15.4897 15.498 15.5387 15.5263 15.5892 15.5555C15.6413 15.5858 15.6934 15.6162 15.7471 15.6475C15.8012 15.6788 15.8553 15.7102 15.9095 15.7416C16.3158 15.9773 16.7205 16.2156 17.1244 16.4555C17.1644 16.4792 17.2044 16.503 17.2456 16.5275C17.298 16.5587 17.298 16.5587 17.3515 16.5905C17.4103 16.6248 17.4704 16.657 17.5312 16.6875C17.5812 16.2303 17.6149 15.7729 17.6338 15.3135C17.6352 15.2798 17.6366 15.2461 17.638 15.2114C17.668 14.3866 17.647 13.7017 17.061 13.0613C16.726 12.7257 16.3551 12.4265 15.9642 12.1587C15.8763 12.081 15.8384 12.0156 15.7969 11.9062C15.7998 11.7392 15.7998 11.7392 15.8438 11.5781C15.9683 11.4642 16.0421 11.4391 16.21 11.4316C16.5859 11.5643 16.8812 11.9533 17.1562 12.2314C17.1926 12.268 17.2289 12.3045 17.2663 12.3421C17.3547 12.4311 17.443 12.5202 17.5312 12.6094C17.5322 12.5621 17.5331 12.5148 17.5341 12.466C17.5376 12.2903 17.5418 12.1145 17.5461 11.9387C17.5479 11.8627 17.5496 11.7867 17.551 11.7107C17.5532 11.6013 17.5559 11.4919 17.5587 11.3826C17.5593 11.3487 17.5598 11.3148 17.5604 11.2798C17.5654 11.1083 17.5719 10.9713 17.6719 10.8281C17.8671 10.7088 17.9836 10.7375 18.1875 10.8281Z" fill="#697865"/>
<path d="M23.8595 4.68176e-05C23.9533 0.0469218 23.9533 0.0469218 24.0002 0.140672C24.0319 0.327635 24.0495 0.444338 23.9396 0.603164C23.8998 0.646355 23.8999 0.646355 23.8593 0.690419C23.8294 0.723056 23.7995 0.755692 23.7686 0.789317C23.6052 0.960782 23.4395 1.12962 23.2718 1.29686C23.2325 1.33622 23.1932 1.37557 23.1527 1.41612C23.0441 1.52484 22.9354 1.63345 22.8267 1.74202C22.7083 1.86034 22.59 1.9788 22.4716 2.09725C22.2644 2.30465 22.0571 2.51196 21.8497 2.71921C21.5414 3.0274 21.2331 3.33571 20.9249 3.64405C20.3745 4.19469 19.824 4.7452 19.2734 5.29565C18.7918 5.77718 18.3102 6.25876 17.8286 6.74037C17.7967 6.77231 17.7647 6.80425 17.7318 6.83716C17.6022 6.96681 17.4726 7.09646 17.3429 7.22611C16.127 8.44215 14.911 9.65804 13.6949 10.8739C12.6138 11.9548 11.5328 13.0358 10.452 14.1169C9.23792 15.3312 8.02382 16.5454 6.80959 17.7594C6.68026 17.8888 6.55094 18.0181 6.42161 18.1474C6.38976 18.1792 6.35792 18.2111 6.32511 18.2439C5.84353 18.7254 5.362 19.207 4.88051 19.6886C4.33343 20.2358 3.78627 20.7829 3.23899 21.33C2.93243 21.6364 2.62594 21.9429 2.31954 22.2494C2.11522 22.4539 1.91081 22.6582 1.70633 22.8625C1.58961 22.9791 1.47293 23.0957 1.35635 23.2125C1.23114 23.3379 1.10575 23.4631 0.980338 23.5883C0.943678 23.625 0.907019 23.6618 0.869247 23.6997C0.81947 23.7493 0.81947 23.7493 0.768687 23.7999C0.739996 23.8286 0.711306 23.8573 0.681746 23.8868C0.542042 24.0152 0.416892 24.0136 0.230332 24.0096C0.140794 24 0.140794 24 0.0470438 23.9532C-0.0321639 23.7948 -0.041981 23.6531 0.000168799 23.4844C0.0607345 23.3969 0.0607343 23.3969 0.141044 23.3097C0.170958 23.277 0.200871 23.2444 0.231691 23.2108C0.395117 23.0393 0.560835 22.8705 0.728582 22.7032C0.767871 22.6639 0.80716 22.6245 0.84764 22.584C0.956215 22.4753 1.06489 22.3666 1.17362 22.2581C1.29206 22.1398 1.41037 22.0213 1.5287 21.9028C1.73593 21.6954 1.94324 21.4881 2.15062 21.2809C2.45898 20.9727 2.7672 20.6644 3.0754 20.356C3.62579 19.8054 4.17632 19.2549 4.72691 18.7044C5.20856 18.2229 5.69016 17.7413 6.17172 17.2597C6.20366 17.2278 6.2356 17.1958 6.2685 17.1629C6.39814 17.0333 6.52777 16.9036 6.65741 16.774C7.8733 15.5579 9.08932 14.342 10.3054 13.1262C11.3865 12.0453 12.4675 10.9643 13.5484 9.88322C14.7624 8.66894 15.9765 7.45474 17.1907 6.24065C17.3201 6.11134 17.4494 5.98203 17.5787 5.85272C17.6106 5.82087 17.6424 5.78903 17.6752 5.75623C18.1568 5.2747 18.6383 4.79311 19.1198 4.3115C19.6669 3.76428 20.2141 3.21715 20.7613 2.67013C21.0679 2.36371 21.3744 2.05723 21.6808 1.75065C21.8851 1.54622 22.0895 1.34188 22.294 1.13761C22.4107 1.021 22.5274 0.904354 22.644 0.787604C22.7692 0.662216 22.8946 0.537007 23.02 0.411818C23.0567 0.375048 23.0933 0.338278 23.1311 0.300394C23.1643 0.267326 23.1975 0.234259 23.2316 0.20019C23.2603 0.171502 23.289 0.142815 23.3186 0.113259C23.4772 -0.0324433 23.6548 -0.0217244 23.8595 4.68176e-05Z" fill="#697865"/>
</g>
<defs>
<clipPath id="clip0_109_56">
<rect width="24" height="24" fill="white"/>
</clipPath>
</defs>
</svg>
