<svg width="16" height="16" viewBox="0 0 16 16" fill="none" xmlns="http://www.w3.org/2000/svg">
<mask id="mask0_1416_7659" style="mask-type:alpha" maskUnits="userSpaceOnUse" x="0" y="0" width="16" height="16">
<rect width="16" height="16" fill="#D9D9D9"/>
</mask>
<g mask="url(#mask0_1416_7659)">
<path d="M13.9717 9.46808L9.46784 13.9719C9.34673 14.0924 9.21045 14.1827 9.059 14.2431C8.90756 14.3033 8.75656 14.3334 8.606 14.3334C8.45534 14.3334 8.30467 14.3033 8.154 14.2431C8.00334 14.1827 7.86778 14.0924 7.74734 13.9719L2.01784 8.24875C1.90417 8.13941 1.81717 8.01108 1.75684 7.86375C1.69661 7.71642 1.6665 7.56141 1.6665 7.39875V2.87825C1.6665 2.54514 1.78423 2.25991 2.01967 2.02258C2.25523 1.78536 2.54134 1.66675 2.878 1.66675H7.3985C7.5595 1.66675 7.71545 1.69941 7.86634 1.76475C8.01734 1.82997 8.14817 1.9178 8.25884 2.02825L13.9717 7.75141C14.0938 7.87253 14.1828 8.00875 14.2388 8.16008C14.2948 8.31153 14.3228 8.46336 14.3228 8.61558C14.3228 8.7678 14.2948 8.91747 14.2388 9.06458C14.1828 9.2118 14.0938 9.3463 13.9717 9.46808ZM8.755 13.2692L13.2588 8.76542C13.3015 8.72275 13.3228 8.67253 13.3228 8.61475C13.3228 8.55708 13.3015 8.50692 13.2588 8.46425L7.47167 2.67308H2.878C2.81823 2.67308 2.768 2.69236 2.72734 2.73091C2.68678 2.76936 2.6665 2.81847 2.6665 2.87825V7.38858C2.6665 7.41425 2.67078 7.43986 2.67934 7.46542C2.68789 7.49108 2.70284 7.51458 2.72417 7.53591L8.45367 13.2692C8.49645 13.312 8.54667 13.3334 8.60434 13.3334C8.662 13.3334 8.71223 13.312 8.755 13.2692ZM4.34984 5.18592C4.58228 5.18592 4.77973 5.10492 4.94217 4.94291C5.1045 4.78092 5.18567 4.58414 5.18567 4.35258C5.18567 4.11936 5.10467 3.92114 4.94267 3.75791C4.78067 3.59458 4.58389 3.51292 4.35234 3.51292C4.11912 3.51292 3.92089 3.5943 3.75767 3.75708C3.59434 3.91986 3.51267 4.11753 3.51267 4.35008C3.51267 4.58253 3.59406 4.77997 3.75684 4.94241C3.91962 5.10475 4.11728 5.18592 4.34984 5.18592Z" fill="#313131"/>
</g>
</svg>
