<svg width="202" height="189" viewBox="0 0 202 189" fill="none" xmlns="http://www.w3.org/2000/svg">
<path d="M28.5174 148.113C30.66 148.113 32.397 146.361 32.397 144.2C32.397 142.039 30.66 140.287 28.5174 140.287C26.3747 140.287 24.6377 142.039 24.6377 144.2C24.6377 146.361 26.3747 148.113 28.5174 148.113Z" fill="#63A4E5"/>
<path d="M197.03 85.7892C199.774 85.7892 202 83.5451 202 80.7769C202 78.0087 199.774 75.7646 197.03 75.7646C194.285 75.7646 192.06 78.0087 192.06 80.7769C192.06 83.5451 194.285 85.7892 197.03 85.7892Z" fill="#63A4E5"/>
<path d="M105.797 165.895C149.305 165.895 184.576 130.325 184.576 86.4473C184.576 42.5696 149.305 6.99976 105.797 6.99976C62.2889 6.99976 27.0186 42.5696 27.0186 86.4473C27.0186 130.325 62.2889 165.895 105.797 165.895Z" fill="#ECF3FE"/>
<path opacity="0.1" d="M181.231 158.189C181.231 158.183 181.231 158.176 181.231 158.17C181.23 158.162 181.231 158.15 181.229 158.143C181.229 158.087 181.227 158.027 181.223 157.972C181.218 157.913 181.217 157.853 181.207 157.795C181.206 157.772 181.205 157.748 181.203 157.72C181.199 157.705 181.199 157.689 181.196 157.674C181.192 157.635 181.187 157.596 181.179 157.562C181.175 157.523 181.17 157.484 181.161 157.446C181.147 157.361 181.133 157.28 181.115 157.201L181.07 156.995L180.918 156.312L166.563 91.4691C166.545 91.3891 166.523 91.3061 166.501 91.2269C166.489 91.1697 166.472 91.1101 166.451 91.0545C166.432 90.9871 166.409 90.9204 166.383 90.8538C166.362 90.7982 166.342 90.7425 166.318 90.6884C166.298 90.6328 166.275 90.5826 166.25 90.5278C166.219 90.4588 166.189 90.3937 166.154 90.3255C166.084 90.1892 166.011 90.0544 165.926 89.925C165.926 89.9211 165.921 89.918 165.92 89.9141C165.867 89.8341 165.814 89.7542 165.757 89.6789C165.556 89.3968 165.325 89.1405 165.068 88.9147C165.009 88.8599 164.946 88.8066 164.879 88.7541C164.733 88.6349 164.583 88.5284 164.426 88.4319C164.376 88.3998 164.325 88.3669 164.271 88.3387C164.203 88.2979 164.134 88.2579 164.059 88.2227C164.049 88.2172 164.036 88.2117 164.024 88.207L163.741 88.0745C163.741 88.0745 163.74 88.0706 163.737 88.0753L156.493 84.7278L146.226 38.3533C145.197 33.7039 140.625 30.7765 136.015 31.8142L44.5702 52.4048C39.9599 53.4426 37.0572 58.0535 38.0862 62.7029L48.3527 109.075L43.2046 115.216L43.0041 115.457C42.9948 115.467 42.9847 115.477 42.9793 115.486C42.4586 116.16 42.1182 116.968 42.007 117.828C41.9371 118.371 41.9588 118.934 42.0832 119.499L56.5534 184.858L56.59 185.024L56.635 185.23C56.6622 185.352 56.6918 185.469 56.7299 185.584C56.7376 185.612 56.747 185.638 56.7547 185.665C56.761 185.685 56.7672 185.706 56.7734 185.725C56.7773 185.737 56.7804 185.748 56.7843 185.76C56.7843 185.76 56.7843 185.761 56.7843 185.761C56.7882 185.773 56.7936 185.783 56.7975 185.794C56.8208 185.864 56.8472 185.935 56.8729 186.004C56.8791 186.014 56.883 186.029 56.8884 186.04C56.9001 186.066 56.9125 186.092 56.9234 186.118C56.9358 186.146 56.9482 186.174 56.9607 186.201C56.9669 186.216 56.9731 186.23 56.9801 186.245C56.9856 186.258 56.9926 186.271 56.998 186.283C57.033 186.356 57.0703 186.429 57.1084 186.502C57.1169 186.517 57.1255 186.53 57.134 186.545C57.1511 186.575 57.1682 186.605 57.1861 186.635C57.2047 186.667 57.2226 186.701 57.2428 186.732C57.2902 186.805 57.3392 186.882 57.3866 186.951C57.3881 186.954 57.3905 186.956 57.3928 186.959C57.427 187.008 57.4643 187.052 57.5 187.099C57.5156 187.12 57.5288 187.143 57.5443 187.163C57.5894 187.225 57.643 187.285 57.692 187.345C57.6998 187.354 57.7083 187.363 57.7161 187.371C57.727 187.384 57.7394 187.396 57.7511 187.409C57.7829 187.444 57.8133 187.479 57.8482 187.514C57.8622 187.528 57.8778 187.539 57.8917 187.553C57.9516 187.614 58.0107 187.675 58.0736 187.733C58.0868 187.744 58.0977 187.758 58.1117 187.77C58.1739 187.828 58.2399 187.881 58.306 187.932C58.3378 187.958 58.3705 187.985 58.4031 188.01C58.4505 188.047 58.4987 188.084 58.5454 188.116C58.5648 188.13 58.5865 188.14 58.606 188.153C58.6969 188.216 58.7902 188.275 58.885 188.331C58.9153 188.349 58.9448 188.367 58.9751 188.385C59.014 188.407 59.0513 188.429 59.0902 188.45C59.2448 188.531 59.4034 188.606 59.5666 188.669C59.5938 188.68 59.6217 188.688 59.6489 188.698C59.6894 188.713 59.7298 188.73 59.7702 188.743C59.8347 188.765 59.8984 188.786 59.9629 188.808C60.0064 188.82 60.0507 188.828 60.0943 188.839C60.1432 188.852 60.1922 188.864 60.2419 188.875C60.2901 188.886 60.3375 188.897 60.3865 188.907C60.4642 188.922 60.5427 188.932 60.622 188.944C60.6352 188.945 60.6484 188.948 60.6624 188.95C60.6919 188.954 60.7207 188.962 60.751 188.965C60.7891 188.969 60.8295 188.973 60.8691 188.976C60.8893 188.978 60.9095 188.98 60.929 188.982C60.9328 188.982 60.9367 188.983 60.9406 188.983C61.0416 188.992 61.1411 188.994 61.2406 188.995C61.2686 188.997 61.2935 188.999 61.3207 188.997C61.3331 188.997 61.3471 188.995 61.3595 188.995C61.3782 188.995 61.3968 188.994 61.4155 188.993C61.4769 188.992 61.5383 188.992 61.5997 188.986C61.6035 188.986 61.609 188.985 61.6136 188.985C61.6292 188.984 61.644 188.983 61.6595 188.981C61.6774 188.98 61.6945 188.979 61.7123 188.976C61.7497 188.975 61.7862 188.969 61.8227 188.965C61.839 188.963 61.8553 188.962 61.8717 188.96C61.8841 188.958 61.8973 188.958 61.9097 188.956C61.9673 188.947 62.0287 188.937 62.0862 188.929C62.1701 188.914 62.254 188.899 62.3372 188.88L177.232 163.009L177.488 162.951C177.572 162.932 177.654 162.91 177.736 162.888C177.792 162.871 177.851 162.854 177.907 162.837C177.925 162.833 177.939 162.825 177.955 162.822C177.98 162.812 178.01 162.801 178.036 162.792C178.05 162.789 178.065 162.781 178.08 162.778C178.113 162.766 178.142 162.756 178.172 162.745C178.175 162.74 178.178 162.74 178.186 162.738C178.221 162.722 178.262 162.705 178.297 162.689C178.327 162.678 178.36 162.667 178.388 162.652C178.394 162.649 178.4 162.646 178.406 162.644C178.406 162.644 178.407 162.643 178.408 162.643C178.448 162.624 178.489 162.604 178.528 162.585C178.618 162.541 178.707 162.497 178.795 162.445C178.798 162.443 178.8 162.441 178.804 162.439C178.825 162.428 178.845 162.414 178.866 162.402C178.893 162.386 178.92 162.37 178.946 162.355C178.96 162.348 178.978 162.336 178.992 162.328C179.006 162.321 179.016 162.311 179.03 162.304C179.051 162.29 179.068 162.272 179.089 162.257C179.273 162.134 179.448 162.002 179.612 161.856C179.616 161.852 179.622 161.85 179.626 161.846C179.653 161.824 179.679 161.798 179.705 161.772C179.732 161.75 179.755 161.729 179.777 161.704C179.807 161.677 179.836 161.647 179.864 161.616C179.876 161.605 179.889 161.59 179.902 161.576C179.915 161.562 179.927 161.548 179.94 161.534C179.986 161.486 180.029 161.436 180.073 161.39C180.078 161.38 180.084 161.372 180.091 161.366C180.119 161.333 180.145 161.296 180.173 161.261C180.198 161.23 180.223 161.199 180.247 161.166C180.255 161.155 180.265 161.144 180.273 161.132C180.279 161.123 180.289 161.112 180.295 161.103C180.319 161.07 180.343 161.036 180.364 161.003C180.387 160.978 180.404 160.951 180.421 160.923C180.436 160.899 180.45 160.877 180.464 160.855C180.48 160.829 180.495 160.804 180.51 160.779C180.54 160.731 180.571 160.682 180.599 160.631C180.627 160.582 180.655 160.528 180.683 160.474C180.698 160.445 180.714 160.414 180.728 160.383C180.77 160.302 180.807 160.22 180.846 160.137C180.857 160.101 180.873 160.065 180.888 160.028C180.897 160.005 180.905 159.981 180.913 159.959C180.935 159.902 180.957 159.846 180.975 159.788C180.991 159.753 180.998 159.715 181.011 159.68C181.022 159.641 181.034 159.607 181.046 159.568C181.057 159.529 181.067 159.487 181.076 159.453C181.107 159.342 181.129 159.226 181.151 159.112C181.15 159.104 181.154 159.092 181.156 159.079C181.16 159.042 181.168 159.005 181.174 158.963C181.181 158.922 181.186 158.876 181.192 158.832C181.195 158.827 181.194 158.823 181.193 158.819C181.199 158.782 181.2 158.745 181.203 158.707C181.206 158.672 181.21 158.638 181.213 158.604C181.214 158.586 181.217 158.571 181.218 158.553C181.22 158.545 181.221 158.533 181.22 158.525C181.22 158.477 181.225 158.424 181.225 158.372C181.227 158.343 181.228 158.315 181.226 158.288C181.228 158.272 181.226 158.256 181.224 158.24C181.224 158.222 181.227 158.205 181.226 158.187L181.231 158.189Z" fill="#232323"/>
<path d="M170.588 84.4173L185.141 150.15C185.159 150.229 185.173 150.31 185.187 150.395C185.196 150.433 185.201 150.472 185.205 150.511C185.213 150.545 185.218 150.584 185.222 150.623C185.225 150.638 185.225 150.654 185.229 150.669C185.231 150.697 185.232 150.72 185.233 150.744C185.242 150.802 185.243 150.862 185.249 150.921C185.253 150.976 185.254 151.035 185.255 151.092C185.257 151.119 185.255 151.147 185.253 151.176C185.257 151.195 185.259 151.219 185.256 151.24C185.258 151.267 185.256 151.295 185.255 151.324C185.255 151.375 185.25 151.429 185.25 151.476C185.251 151.484 185.25 151.496 185.248 151.505C185.24 151.595 185.236 151.683 185.223 151.77C185.224 151.774 185.225 151.778 185.222 151.783C185.216 151.828 185.211 151.874 185.204 151.915C185.197 151.956 185.19 151.994 185.186 152.031C185.184 152.043 185.18 152.056 185.181 152.064C185.159 152.176 185.137 152.293 185.106 152.404C185.097 152.438 185.087 152.48 185.075 152.519C185.064 152.557 185.052 152.592 185.04 152.631C185.028 152.665 185.021 152.703 185.005 152.739C184.981 152.812 184.954 152.886 184.926 152.957C184.909 153.005 184.89 153.045 184.876 153.088C184.83 153.186 184.788 153.283 184.738 153.379C184.702 153.451 184.666 153.519 184.629 153.583C184.592 153.651 184.551 153.717 184.51 153.782C184.493 153.814 184.472 153.842 184.451 153.875C184.434 153.903 184.416 153.93 184.394 153.956C184.374 153.988 184.349 154.021 184.325 154.055C184.318 154.065 184.309 154.075 184.303 154.084C184.245 154.165 184.183 154.243 184.12 154.317C184.113 154.322 184.108 154.332 184.102 154.341C184.05 154.397 184 154.456 183.945 154.512C183.926 154.532 183.91 154.552 183.894 154.568C183.865 154.598 183.837 154.629 183.806 154.655C183.784 154.681 183.761 154.702 183.734 154.724C183.708 154.75 183.682 154.775 183.656 154.797C183.471 154.967 183.271 155.119 183.059 155.255C183.045 155.262 183.035 155.272 183.021 155.279C183.007 155.286 182.99 155.298 182.976 155.306C182.927 155.337 182.878 155.368 182.825 155.396C182.737 155.448 182.648 155.492 182.558 155.536C182.512 155.559 182.465 155.581 182.418 155.604C182.39 155.618 182.357 155.63 182.327 155.64C182.292 155.656 182.251 155.673 182.215 155.689C182.208 155.691 182.204 155.692 182.201 155.696C182.172 155.707 182.142 155.717 182.11 155.729C182.095 155.732 182.08 155.74 182.065 155.743C182.04 155.753 182.01 155.764 181.985 155.773C181.97 155.776 181.955 155.784 181.936 155.788C181.88 155.804 181.821 155.822 181.765 155.839C181.683 155.862 181.601 155.884 181.518 155.902L66.3663 181.831C66.2831 181.849 66.1992 181.864 66.1153 181.879C66.0577 181.889 65.9963 181.898 65.9388 181.907C65.8736 181.918 65.8075 181.924 65.7414 181.927C65.7026 181.932 65.6645 181.936 65.6287 181.936C65.5355 181.945 65.4407 181.947 65.3497 181.947C65.3225 181.95 65.2984 181.947 65.2697 181.945C65.1702 181.943 65.0707 181.942 64.9697 181.932C64.9091 181.926 64.8523 181.923 64.7956 181.916C64.5236 181.885 64.2531 181.83 63.9912 181.757C63.9267 181.736 63.863 181.714 63.7985 181.693C63.7262 181.669 63.6524 181.642 63.5824 181.613C63.1519 181.443 62.7524 181.213 62.3879 180.927C62.3024 180.862 62.2193 180.793 62.14 180.719C61.868 180.476 61.6255 180.203 61.4157 179.899C61.3683 179.83 61.3201 179.752 61.2719 179.679C61.2237 179.606 61.1825 179.527 61.1374 179.449C61.0962 179.371 61.0551 179.292 61.0177 179.213C60.9812 179.137 60.9494 179.065 60.9167 178.988C60.9105 178.978 60.9074 178.962 60.9004 178.952C60.8724 178.878 60.8429 178.801 60.8188 178.726C60.8141 178.723 60.8126 178.716 60.811 178.708C60.79 178.648 60.7737 178.593 60.7566 178.532C60.7193 178.417 60.689 178.3 60.6626 178.178L46.1099 112.446C45.9848 111.882 45.9638 111.32 46.0338 110.777C46.1449 109.916 46.4853 109.108 47.006 108.435C47.0122 108.425 47.0216 108.415 47.0309 108.405L47.2314 108.164C47.8695 107.449 48.7282 106.92 49.7324 106.694L164.884 80.7657C164.998 80.7398 165.108 80.7194 165.22 80.7061C165.238 80.6983 165.261 80.6967 165.282 80.6959C165.389 80.6795 165.501 80.6669 165.606 80.6591C165.63 80.6575 165.657 80.656 165.681 80.6544C165.775 80.6489 165.87 80.6481 165.962 80.6512C165.985 80.6497 166.008 80.6489 166.033 80.6512C166.148 80.6528 166.261 80.6599 166.374 80.6701C166.479 80.6787 166.59 80.6936 166.692 80.71C166.84 80.7328 166.987 80.768 167.13 80.8072C167.209 80.8252 167.289 80.8472 167.367 80.8738C167.503 80.9154 167.636 80.9648 167.765 81.0243C167.768 81.0196 167.768 81.0235 167.768 81.0235L168.051 81.156C168.065 81.1615 168.078 81.1662 168.086 81.1717C168.162 81.2069 168.23 81.2477 168.299 81.2877C168.352 81.3159 168.403 81.348 168.454 81.3809C168.61 81.4773 168.76 81.5839 168.906 81.7031C168.972 81.7556 169.036 81.8097 169.096 81.8637C169.352 82.0895 169.583 82.3458 169.785 82.6279C169.84 82.7032 169.894 82.7831 169.948 82.8631C169.948 82.867 169.953 82.8701 169.954 82.8733C170.038 83.0026 170.112 83.1374 170.182 83.2738C170.217 83.342 170.247 83.407 170.278 83.476C170.302 83.5308 170.325 83.581 170.346 83.6367C170.37 83.6915 170.39 83.7464 170.41 83.802C170.437 83.8679 170.459 83.9345 170.479 84.0027C170.499 84.0583 170.516 84.1179 170.528 84.1751C170.55 84.2543 170.572 84.3374 170.59 84.4173H170.588Z" fill="#F9C067"/>
<path d="M169.953 82.8733L46.0332 110.776C46.1443 109.915 46.4847 109.107 47.0055 108.434C47.0117 108.424 47.021 108.414 47.0303 108.404L47.2308 108.163L94.9122 51.2855C96.3135 49.6106 98.6504 49.0847 100.625 49.9993L167.763 81.0236C167.766 81.0189 167.767 81.0228 167.767 81.0228L168.05 81.1552C168.063 81.1607 168.076 81.1654 168.085 81.1709C168.16 81.2062 168.229 81.2469 168.297 81.2869C168.351 81.3151 168.402 81.3473 168.453 81.3802C168.609 81.4766 168.759 81.5832 168.904 81.7023C168.971 81.7548 169.035 81.8089 169.095 81.863C169.351 82.0887 169.582 82.345 169.783 82.6272C169.839 82.7024 169.893 82.7824 169.946 82.8623C169.947 82.8662 169.952 82.8694 169.953 82.8725V82.8733Z" fill="#A36017"/>
<path d="M48.5972 45.3489L140.041 24.7522C144.648 23.7145 149.223 26.6439 150.252 31.2901L172.167 130.243L64.0287 154.6L42.1143 55.6471C41.0853 51.0009 43.9901 46.3866 48.5972 45.3489Z" fill="white"/>
<path d="M61.5373 75.3743L140.997 57.4768C142.114 57.2252 143.224 57.9357 143.473 59.0625L143.666 59.9307C143.915 61.0574 143.21 62.1758 142.094 62.4273L62.6337 80.3249C61.5164 80.5766 60.4074 79.8659 60.1581 78.7399L59.9658 77.8717C59.7163 76.7449 60.421 75.6265 61.5375 75.375L61.5373 75.3743Z" fill="#E4ECF9"/>
<path d="M63.8791 85.9495L143.339 68.052C144.456 67.8004 145.566 68.5109 145.815 69.6377L146.007 70.5051C146.257 71.6318 145.552 72.751 144.435 73.0027L64.9755 90.9001C63.8582 91.1517 62.7492 90.441 62.4999 89.3151L62.3076 88.4469C62.0581 87.3201 62.7628 86.2017 63.8793 85.9502L63.8791 85.9495Z" fill="#E4ECF9"/>
<path d="M145.681 78.6268L66.2209 96.5244C65.1033 96.7762 64.3996 97.8939 64.6492 99.0211L64.8415 99.8893C65.0911 101.016 66.1995 101.726 67.3171 101.474L146.777 83.5767C147.895 83.325 148.599 82.2072 148.349 81.0801L148.157 80.2119C147.907 79.0847 146.799 78.3751 145.681 78.6268Z" fill="#E4ECF9"/>
<path d="M68.5627 107.1L148.022 89.2024C149.139 88.9508 150.249 89.6613 150.499 90.7881L150.691 91.6563C150.94 92.783 150.236 93.9014 149.119 94.1529L69.6591 112.05C68.5418 112.302 67.4328 111.591 67.1835 110.465L66.9912 109.597C66.7417 108.471 67.4462 107.351 68.5635 107.1L68.5627 107.1Z" fill="#E4ECF9"/>
<path d="M70.9065 117.675L150.366 99.7776C151.483 99.526 152.592 100.237 152.841 101.363L153.034 102.231C153.283 103.358 152.579 104.477 151.461 104.728L72.0028 122.626C70.8856 122.877 69.7766 122.167 69.5272 121.041L69.3349 120.172C69.0854 119.046 69.7901 117.927 70.9066 117.676L70.9065 117.675Z" fill="#E4ECF9"/>
<path d="M91.9683 48.4984L57.3137 56.304C56.1961 56.5557 55.4924 57.6735 55.742 58.8006L55.9343 59.6688C56.1839 60.7959 57.2923 61.5056 58.4099 61.2538L93.0645 53.4482C94.1822 53.1965 94.8858 52.0787 94.6362 50.9516L94.444 50.0834C94.1943 48.9563 93.086 48.2466 91.9683 48.4984Z" fill="#52D1BD"/>
<path d="M116.018 133.06V133.064C115.881 133.303 115.707 133.534 115.495 133.742L66.6235 181.773L66.3671 181.831C65.8953 181.937 65.4267 181.97 64.9705 181.933C64.906 181.928 64.8415 181.922 64.7801 181.916C63.9788 181.824 63.2195 181.528 62.5744 181.066C62.5138 181.023 62.4516 180.977 62.3895 180.928C62.2084 180.789 62.0382 180.631 61.8781 180.463C61.8221 180.407 61.7739 180.351 61.7219 180.295C61.6729 180.233 61.6201 180.174 61.5742 180.112C61.1429 179.562 60.8242 178.91 60.6626 178.178L46.1099 112.446C45.9848 111.883 45.9638 111.32 46.0338 110.777C46.1449 109.916 46.4853 109.108 47.006 108.435C47.0122 108.425 47.0216 108.415 47.0309 108.405L47.2314 108.164C47.8695 107.449 48.7282 106.92 49.7324 106.694L50.7971 106.454L56.4588 108.429L108.656 126.647L110.619 127.332L114.365 128.64C114.644 128.737 114.899 128.871 115.125 129.028V129.032C116.399 129.933 116.791 131.703 116.018 133.061V133.06Z" fill="#F4B545"/>
<path d="M170.588 84.4172L185.141 150.149C185.158 150.229 185.172 150.31 185.187 150.395C185.196 150.433 185.2 150.472 185.205 150.511C185.213 150.545 185.218 150.584 185.222 150.623C185.225 150.638 185.225 150.654 185.228 150.669C185.231 150.696 185.231 150.72 185.233 150.744C185.242 150.802 185.243 150.862 185.249 150.921C185.253 150.976 185.254 151.035 185.255 151.091C185.256 151.099 185.255 151.111 185.257 151.119C185.257 151.135 185.257 151.155 185.254 151.175C185.258 151.194 185.259 151.218 185.256 151.239C185.259 151.266 185.256 151.294 185.256 151.323C185.256 151.374 185.254 151.423 185.25 151.476C185.252 151.483 185.25 151.495 185.249 151.504C185.245 151.592 185.237 151.682 185.224 151.769C185.225 151.773 185.225 151.777 185.223 151.782C185.217 151.827 185.214 151.868 185.204 151.914C185.2 151.951 185.193 151.988 185.186 152.03C185.184 152.038 185.183 152.05 185.182 152.063C185.159 152.175 185.137 152.292 185.106 152.404C185.098 152.437 185.088 152.48 185.076 152.518C185.064 152.556 185.053 152.591 185.041 152.63C185.029 152.665 185.022 152.702 185.005 152.738C184.982 152.811 184.955 152.886 184.927 152.956C184.91 153.004 184.891 153.044 184.876 153.087C184.831 153.189 184.785 153.284 184.739 153.378C184.703 153.45 184.666 153.518 184.629 153.582C184.593 153.651 184.551 153.716 184.51 153.781C184.494 153.813 184.472 153.841 184.452 153.874C184.434 153.902 184.417 153.93 184.394 153.955C184.374 153.988 184.349 154.02 184.325 154.054C184.319 154.064 184.31 154.074 184.304 154.083C184.246 154.164 184.184 154.242 184.121 154.316C184.114 154.321 184.108 154.331 184.102 154.34C184.051 154.396 184 154.455 183.946 154.511C183.927 154.532 183.911 154.551 183.895 154.567C183.866 154.597 183.837 154.628 183.807 154.655C183.784 154.68 183.762 154.701 183.735 154.723C183.709 154.749 183.683 154.774 183.656 154.796C183.472 154.966 183.271 155.119 183.06 155.254C183.046 155.261 183.032 155.272 183.022 155.278C183.008 155.285 182.991 155.297 182.976 155.305C182.927 155.336 182.879 155.367 182.825 155.395C182.738 155.447 182.648 155.491 182.559 155.536C182.512 155.558 182.466 155.58 182.419 155.603C182.39 155.617 182.357 155.629 182.328 155.639C182.292 155.655 182.252 155.672 182.216 155.688L182.204 155.691C182.171 155.702 182.139 155.717 182.11 155.728C182.095 155.731 182.08 155.739 182.065 155.742C182.04 155.752 182.014 155.762 181.984 155.772C181.97 155.775 181.955 155.783 181.936 155.787C181.88 155.804 181.82 155.821 181.765 155.838C181.683 155.861 181.601 155.883 181.518 155.902L181.262 155.96L116.775 133.453C116.496 133.356 116.24 133.222 116.018 133.064V133.06C114.74 132.16 114.35 130.397 115.125 129.031V129.027C115.258 128.79 115.433 128.558 115.645 128.351L118.48 125.562L119.967 124.099L159.527 85.2205L163.818 81.0038L164.883 80.764C164.996 80.7381 165.107 80.7177 165.218 80.7044C165.236 80.6966 165.26 80.695 165.28 80.6942C165.387 80.6778 165.499 80.6652 165.605 80.6574C165.628 80.6558 165.655 80.6542 165.679 80.6527C165.773 80.6472 165.868 80.6464 165.96 80.6495C165.983 80.648 166.006 80.6472 166.031 80.6495C166.146 80.6511 166.259 80.6582 166.373 80.6683C166.477 80.677 166.588 80.6919 166.69 80.7083C166.838 80.7311 166.985 80.7663 167.128 80.8055C167.207 80.8235 167.287 80.8455 167.365 80.8721C167.501 80.9137 167.635 80.963 167.763 81.0226C167.766 81.0179 167.767 81.0218 167.767 81.0218L168.05 81.1543C168.063 81.1598 168.076 81.1645 168.085 81.17C168.16 81.2052 168.228 81.246 168.297 81.286C168.35 81.3142 168.402 81.3463 168.452 81.3792C168.608 81.4756 168.758 81.5822 168.904 81.7014C168.971 81.7539 169.034 81.808 169.094 81.862C169.351 82.0878 169.581 82.3441 169.783 82.6262C169.839 82.7015 169.892 82.7814 169.946 82.8614C169.947 82.8653 169.951 82.8684 169.952 82.8715C170.036 83.0009 170.11 83.1357 170.18 83.2721C170.215 83.3402 170.245 83.4053 170.276 83.4743C170.3 83.5291 170.324 83.5793 170.344 83.6349C170.368 83.6898 170.388 83.7447 170.408 83.8003C170.435 83.8662 170.457 83.9328 170.477 84.001C170.497 84.0566 170.514 84.1162 170.527 84.1734C170.548 84.2526 170.57 84.3356 170.588 84.4156V84.4172Z" fill="#F4B545"/>
<path opacity="0.29" d="M184.944 149.259L185.095 149.943C185.695 152.654 184.095 155.322 181.519 155.902L66.3669 181.83C63.7921 182.41 61.2174 180.681 60.6174 177.971L60.4658 177.288L110.993 124.653C112.562 123.019 114.903 122.492 117.012 123.298L184.944 149.26V149.259Z" fill="#474747"/>
<path d="M184.995 149.494L185.14 150.15C185.715 152.746 184.093 155.323 181.518 155.903L66.3664 181.831C63.7916 182.411 61.237 180.775 60.6619 178.178L60.5166 177.523L111.409 126.538C112.989 124.955 115.33 124.428 117.428 125.183L184.995 149.495V149.494Z" fill="#F9C067"/>
<path opacity="0.1" d="M185.802 62.3445C196.147 51.9116 196.147 34.9966 185.802 24.5637C175.457 14.1308 158.685 14.1308 148.34 24.5637C137.995 34.9966 137.995 51.9116 148.34 62.3445C158.685 72.7774 175.457 72.7774 185.802 62.3445Z" fill="#232323"/>
<path d="M170.54 66.0942C185.17 66.0942 197.03 54.1334 197.03 39.3791C197.03 24.6248 185.17 12.6641 170.54 12.6641C155.91 12.6641 144.05 24.6248 144.05 39.3791C144.05 54.1334 155.91 66.0942 170.54 66.0942Z" fill="#0146B1"/>
<path d="M175.954 32.7938L176.782 30.995L181.243 31.9677L176.055 43.6232C175.731 44.3615 175.543 44.8553 175.489 45.1053C175.433 45.3663 175.454 45.585 175.552 45.7606C175.649 45.9361 175.788 46.0443 175.969 46.0835C176.577 46.2159 177.448 45.9871 178.583 45.3961C179.718 44.8059 180.791 43.8983 181.802 42.674C182.813 41.4498 183.494 40.0202 183.845 38.3844C184.138 37.0215 184.157 35.682 183.903 34.366C183.649 33.0501 183.133 31.8438 182.353 30.7465C181.575 29.6492 180.527 28.6954 179.21 27.885C177.891 27.0745 176.332 26.4726 174.53 26.0791C172.694 25.6786 170.958 25.5524 169.323 25.7014C167.688 25.8503 166.193 26.2492 164.84 26.8998C163.486 27.5495 162.278 28.454 161.216 29.614C160.28 30.6227 159.481 31.7921 158.819 33.1214C158.156 34.4514 157.668 35.8489 157.354 37.3138C156.935 39.2678 156.937 41.1378 157.362 42.9249C157.786 44.7119 158.615 46.3139 159.85 47.7302C161.084 49.1473 162.695 50.312 164.679 51.2274C166.664 52.1421 168.998 52.7487 171.681 53.0489C173.818 53.2535 175.686 53.1618 177.285 52.773C178.882 52.3843 180.319 51.6632 181.595 50.6098L185.193 51.3951C184.347 52.483 183.351 53.4008 182.206 54.1501C181.061 54.8994 179.788 55.4622 178.387 55.8407C176.985 56.2185 175.464 56.4074 173.826 56.4066C172.188 56.4058 170.445 56.2036 168.597 55.8008C165.827 55.1965 163.41 54.2857 161.349 53.0693C159.287 51.8521 157.647 50.3888 156.428 48.6786C155.21 46.9684 154.417 45.0708 154.05 42.9876C153.683 40.9043 153.748 38.7042 154.245 36.3866C154.764 33.9671 155.649 31.7944 156.899 29.8671C158.15 27.9406 159.693 26.366 161.529 25.1433C163.364 23.9206 165.461 23.1094 167.816 22.7073C170.172 22.306 172.656 22.3899 175.269 22.9605C177.41 23.4276 179.304 24.1706 180.954 25.1903C182.604 26.21 183.939 27.45 184.958 28.9086C185.978 30.368 186.649 31.9794 186.972 33.7445C187.295 35.5088 187.247 37.3687 186.828 39.3218C186.502 40.8439 185.911 42.2759 185.058 43.6169C184.204 44.958 183.148 46.1015 181.891 47.046C180.633 47.9904 179.25 48.6519 177.742 49.0305C176.235 49.4098 174.692 49.4263 173.116 49.0822C172.203 48.8831 171.527 48.5728 171.087 48.1495C170.647 47.7271 170.417 47.1557 170.393 46.4377C169.203 47.2011 167.945 47.5719 166.618 47.5491C165.29 47.5272 164.083 47.1384 162.995 46.3845C161.907 45.6297 161.119 44.5873 160.633 43.2564C160.145 41.9255 160.086 40.4027 160.454 38.6878C160.836 36.9047 161.593 35.2321 162.723 33.6716C163.854 32.1111 165.239 30.9331 166.877 30.1368C168.516 29.3412 170.219 29.1359 171.987 29.5215C174.014 29.9635 175.337 31.0553 175.954 32.7945V32.7938ZM164.819 39.604C164.527 40.967 164.585 42.0729 164.992 42.9233C165.399 43.7729 166.059 44.298 166.971 44.4963C168.03 44.7275 169.053 44.5042 170.041 43.8286C171.029 43.1522 171.871 42.2093 172.567 40.9999C173.263 39.7905 173.741 38.578 174.002 37.3624C174.131 36.7605 174.177 36.2024 174.139 35.689C174.102 35.1757 173.985 34.707 173.786 34.2829C173.588 33.8597 173.315 33.5117 172.967 33.2397C172.619 32.9678 172.197 32.7773 171.701 32.6691C170.71 32.4528 169.734 32.6472 168.773 33.2523C167.812 33.8566 166.984 34.7344 166.289 35.885C165.594 37.0356 165.104 38.2747 164.819 39.604H164.819Z" fill="#F9F9F9"/>
<path d="M38.4361 88.2318C38.4198 88.2318 38.4027 88.2318 38.3864 88.2303C36.8569 88.1362 35.374 87.9246 33.9782 87.5993C33.5422 87.4974 33.2694 87.0585 33.3705 86.6188C33.4715 86.1791 33.9106 85.9072 34.3427 86.0059C35.6515 86.3108 37.045 86.5099 38.4851 86.5984C38.932 86.6259 39.2724 87.0131 39.2452 87.4637C39.2187 87.8979 38.862 88.2318 38.4369 88.2318H38.4361ZM42.7541 88.1895C42.3344 88.1895 41.9785 87.8635 41.9466 87.434C41.9124 86.9841 42.2466 86.5906 42.6927 86.5561C44.0621 86.4503 45.4704 86.2544 46.8786 85.9738C47.3255 85.8876 47.7444 86.1752 47.8314 86.618C47.9177 87.0609 47.6325 87.4904 47.1934 87.5782C45.7222 87.8705 44.2502 88.0751 42.8178 88.1864C42.7969 88.1879 42.7759 88.1887 42.7549 88.1887L42.7541 88.1895ZM51.2246 86.524C50.8787 86.524 50.5578 86.2983 50.4497 85.9479C50.3176 85.5168 50.557 85.0591 50.9852 84.9259C52.3126 84.5112 53.6556 84.0198 54.9737 83.4633C55.3895 83.2886 55.8612 83.4861 56.0345 83.9022C56.2071 84.3184 56.0128 84.7973 55.5993 84.9721C54.2323 85.5482 52.8411 86.0584 51.4639 86.4879C51.3847 86.513 51.3031 86.5248 51.2246 86.5248V86.524ZM30.0706 86.2269C29.9571 86.2269 29.8413 86.2026 29.731 86.1517C28.3165 85.4917 27.0256 84.6813 25.8956 83.7408C25.5497 83.4539 25.5008 82.9382 25.786 82.5902C26.0697 82.2422 26.5803 82.1913 26.9269 82.4797C27.9497 83.3301 29.1224 84.0661 30.411 84.6672C30.8175 84.8569 30.9939 85.3428 30.8066 85.7527C30.669 86.0514 30.376 86.2277 30.0698 86.2277L30.0706 86.2269ZM23.5151 80.7107C23.2578 80.7107 23.0045 80.5869 22.8475 80.3572C22.2848 79.5343 21.7688 78.6447 21.3235 77.7324C21.1237 77.788 20.903 77.7661 20.7087 77.654C19.4862 76.9525 18.2552 76.0872 17.0498 75.0832C16.7039 74.7955 16.6557 74.2798 16.941 73.9326C17.2254 73.5838 17.7368 73.5352 18.0818 73.8229C18.9531 74.5487 19.8359 75.1961 20.7157 75.7541C20.795 75.5566 20.9512 75.3904 21.1626 75.3042C21.5776 75.1357 22.0501 75.3371 22.218 75.7557C22.7278 77.0262 23.4071 78.2975 24.1819 79.43C24.436 79.8015 24.3428 80.311 23.9744 80.5673C23.8337 80.6652 23.6736 80.7123 23.5151 80.7123V80.7107ZM27.7546 79.8054C26.8375 79.8054 25.8707 79.6746 24.8821 79.4151C24.4493 79.3015 24.1889 78.8555 24.3016 78.4182C24.4143 77.9808 24.8549 77.7182 25.2902 77.8319C26.6961 78.2003 28.0235 78.2669 29.2087 78.0302C29.6494 77.9401 30.0745 78.2301 30.1615 78.6737C30.2478 79.1165 29.9633 79.5468 29.5235 79.6346C28.9561 79.7482 28.3608 79.8054 27.7546 79.8054ZM33.208 77.7433C32.9718 77.7433 32.7371 77.6391 32.577 77.4392C32.2956 77.0881 32.35 76.5732 32.6982 76.2894C33.7451 75.4367 34.6365 74.3747 35.2753 73.217C35.4937 72.822 35.9872 72.6809 36.3782 72.9004C36.7691 73.1206 36.909 73.6183 36.6914 74.0126C35.9515 75.3512 34.9233 76.5779 33.7171 77.5607C33.5663 77.683 33.3868 77.7425 33.208 77.7425V77.7433ZM20.3636 72.6754C19.9587 72.6754 19.6082 72.3698 19.56 71.9544C19.4955 71.4041 19.4621 70.8547 19.4621 70.321C19.4621 69.2864 19.5857 68.2784 19.8282 67.3261C19.9401 66.8888 20.3831 66.6262 20.8152 66.7383C21.2488 66.8504 21.5108 67.2964 21.3988 67.7337C21.1898 68.5535 21.0841 69.4235 21.0841 70.321C21.0841 70.7904 21.1128 71.2748 21.1704 71.7615C21.2232 72.2099 20.9053 72.6166 20.4608 72.6692C20.4281 72.6731 20.3963 72.6754 20.3644 72.6754H20.3636ZM14.4338 72.2694C14.2154 72.2694 13.9978 72.1809 13.8377 72.0061C12.8421 70.9166 11.9025 69.7519 11.0468 68.5434C10.7865 68.1758 10.8704 67.6655 11.2357 67.403C11.601 67.1404 12.1061 67.225 12.3665 67.5934C13.1833 68.7463 14.0794 69.8577 15.0307 70.8978C15.3337 71.2294 15.3135 71.7467 14.984 72.0531C14.8278 72.1981 14.6312 72.2694 14.4346 72.2694H14.4338ZM37.181 70.2857C37.1701 70.2857 37.1592 70.2857 37.1476 70.2849C36.6999 70.2669 36.3525 69.8867 36.3696 69.4353C36.3735 69.342 36.375 69.248 36.375 69.1547C36.375 68.9893 36.3696 68.8224 36.3587 68.6547C36.2911 67.6506 36.0098 66.5925 35.5442 65.594C35.3538 65.1849 35.5279 64.6981 35.9328 64.5061C36.3385 64.3157 36.8204 64.4897 37.0116 64.898C37.5618 66.0784 37.8952 67.3387 37.9768 68.5441C37.9908 68.7495 37.997 68.9525 37.997 69.1547C37.997 69.2707 37.9947 69.3859 37.9908 69.5011C37.9729 69.9408 37.6139 70.2857 37.181 70.2857ZM9.42565 65.1833C9.13498 65.1833 8.8552 65.0258 8.70909 64.7491C8.08813 63.5695 7.55887 62.3805 7.13531 61.2158C7.06458 61.0222 6.99697 60.8271 6.93091 60.6319C6.78869 60.204 7.01718 59.7408 7.44152 59.5965C7.86974 59.4531 8.32517 59.6835 8.46894 60.1115C8.52879 60.2925 8.59251 60.4736 8.6578 60.6531C9.05571 61.7488 9.55466 62.8688 10.1414 63.9826C10.3513 64.3815 10.2013 64.8761 9.80569 65.0877C9.68445 65.1527 9.55466 65.1833 9.42643 65.1833H9.42565ZM22.4931 64.4489C22.326 64.4489 22.1574 64.3972 22.0128 64.289C21.6522 64.021 21.5753 63.5092 21.8411 63.1455C22.8327 61.788 24.0218 60.7017 25.2793 60.0049C25.6718 59.7878 26.1637 59.9312 26.3805 60.327C26.5958 60.7228 26.4528 61.2197 26.0604 61.4376C25.0073 62.0215 23.9993 62.9472 23.1459 64.1158C22.9874 64.3329 22.7418 64.4481 22.4931 64.4481V64.4489ZM33.6876 62.6094C33.501 62.6094 33.3137 62.5443 33.1606 62.4127C32.1076 61.5027 30.9177 60.9258 29.7193 60.744C29.2763 60.6766 28.9717 60.2604 29.0393 59.8137C29.1053 59.3677 29.5227 59.0589 29.9618 59.1271C31.461 59.3551 32.9322 60.0613 34.216 61.1712C34.5557 61.4643 34.5953 61.9808 34.3046 62.3241C34.1438 62.513 33.9168 62.6102 33.6883 62.6102L33.6876 62.6094ZM6.67833 56.9576C6.28508 56.9576 5.94001 56.6684 5.87783 56.2639C5.668 54.8853 5.56152 53.4596 5.56152 52.0245L5.56308 51.7893C5.56696 51.3402 5.92913 50.9781 6.37367 50.9781H6.37989C6.82755 50.9813 7.18738 51.3504 7.18427 51.8019L7.18272 52.0245C7.18272 53.3765 7.28297 54.7191 7.48037 56.0155C7.54877 56.4614 7.24411 56.8792 6.80268 56.9474C6.76071 56.9536 6.71874 56.9568 6.67833 56.9568V56.9576ZM6.72574 48.271C6.68454 48.271 6.64335 48.2678 6.60216 48.2616C6.15917 48.1934 5.85607 47.7756 5.92369 47.3296C6.14208 45.8946 6.46149 44.4289 6.87495 42.9734C6.99852 42.5392 7.44773 42.2884 7.87751 42.4122C8.30807 42.5369 8.55676 42.9891 8.43319 43.4233C8.03839 44.8122 7.73296 46.2096 7.52545 47.5773C7.46405 47.9818 7.11899 48.271 6.72496 48.271H6.72574ZM9.08214 39.9041C8.97877 39.9041 8.87385 39.8838 8.77282 39.8422C8.35936 39.6698 8.16196 39.1909 8.33371 38.7739C8.88396 37.4337 9.52124 36.084 10.2261 34.7634C10.4383 34.366 10.9287 34.2171 11.3243 34.4318C11.7183 34.6458 11.8652 35.1419 11.653 35.5393C10.9738 36.8106 10.3606 38.1101 9.83134 39.3994C9.70232 39.7145 9.4 39.9041 9.08136 39.9041H9.08214ZM13.1654 32.2325C13.0115 32.2325 12.8553 32.1886 12.717 32.0954C12.3439 31.8454 12.2429 31.3382 12.4908 30.962C13.2898 29.7495 14.1602 28.5449 15.0781 27.3825C15.3563 27.029 15.8661 26.971 16.2174 27.2524C16.5679 27.5338 16.6254 28.0479 16.3464 28.4014C15.4581 29.5277 14.6149 30.694 13.8408 31.8673C13.6846 32.104 13.4273 32.2325 13.1654 32.2325ZM18.5365 25.4105C18.3383 25.4105 18.1394 25.3376 17.9831 25.1903C17.656 24.8815 17.6389 24.3642 17.9443 24.0342C18.6741 23.2473 19.4435 22.4628 20.2331 21.7025C20.5564 21.3913 21.0693 21.4015 21.3794 21.7291C21.6887 22.0552 21.6771 22.5733 21.353 22.8852C20.5851 23.6243 19.8375 24.3869 19.1287 25.1519C18.9694 25.3243 18.7526 25.4113 18.5365 25.4113V25.4105Z" fill="#F4B545"/>
<path opacity="0.1" d="M61.6589 5.91665L0 3.46265L12.6835 17.1991L9.36732 37.8078L23.8158 29.2301L29.9633 35.8499L61.6589 5.91665Z" fill="#232323"/>
<path d="M10.1328 35.3545L14.9762 5.25044L62.4236 3.46265L10.1328 35.3545Z" fill="#08225D"/>
<path d="M13.5344 14.8383C13.7863 14.7615 62.4236 3.46255 62.4236 3.46255L0.764648 1.00854L13.5344 14.8375V14.8383Z" fill="#0146B1"/>
<path d="M17.8688 19.5488L10.1328 35.3545L34.0808 21.1368L17.8688 19.5488Z" fill="#08225D"/>
<path d="M17.8691 19.5486L30.7283 33.3956L62.4239 3.4624L17.8691 19.5486Z" fill="#0146B1"/>
<path d="M106.29 1.94362L109.72 0.124477C110.497 -0.28779 111.406 0.377637 111.257 1.25076L110.602 5.10303C110.543 5.44946 110.657 5.80294 110.907 6.04905L113.682 8.77738C114.311 9.39578 113.964 10.4727 113.095 10.5997L109.26 11.1616C108.915 11.2126 108.616 11.4305 108.463 11.7463L106.747 15.2514C106.359 16.0453 105.236 16.0453 104.847 15.2514L103.132 11.7463C102.977 11.4312 102.68 11.2126 102.334 11.1616L98.4991 10.5997C97.6302 10.4727 97.2828 9.39499 97.9123 8.77738L100.688 6.04905C100.937 5.80373 101.051 5.45024 100.992 5.10303L100.337 1.25076C100.189 0.377637 101.097 -0.28779 101.874 0.124477L105.305 1.94362C105.613 2.10743 105.983 2.10743 106.291 1.94362H106.29Z" fill="#63A4E5"/>
</svg>
