<svg width="62" height="62" viewBox="0 0 62 62" fill="none" xmlns="http://www.w3.org/2000/svg">
<rect x="1.55551" y="1.535" width="58.33" height="58.33" rx="29.165" stroke="#ABB7C2" stroke-width="3.07"/>
<mask id="mask0_1464_6886" style="mask-type:alpha" maskUnits="userSpaceOnUse" x="12" y="12" width="37" height="37">
<rect x="12.7207" y="12.95" width="36" height="36" fill="#D9D9D9"/>
</mask>
<g mask="url(#mask0_1464_6886)">
<path d="M18.7207 44.45C17.8957 44.45 17.1895 44.1562 16.602 43.5687C16.0145 42.9812 15.7207 42.275 15.7207 41.45V24.95C15.7207 24.125 16.0145 23.4187 16.602 22.8312C17.1895 22.2437 17.8957 21.95 18.7207 21.95H24.7207V18.95C24.7207 18.125 25.0145 17.4187 25.602 16.8312C26.1895 16.2437 26.8957 15.95 27.7207 15.95H33.7207C34.5457 15.95 35.252 16.2437 35.8395 16.8312C36.427 17.4187 36.7207 18.125 36.7207 18.95V21.95H42.7207C43.5457 21.95 44.252 22.2437 44.8395 22.8312C45.427 23.4187 45.7207 24.125 45.7207 24.95V41.45C45.7207 42.275 45.427 42.9812 44.8395 43.5687C44.252 44.1562 43.5457 44.45 42.7207 44.45H18.7207ZM18.7207 41.45H42.7207V24.95H18.7207V41.45ZM27.7207 21.95H33.7207V18.95H27.7207V21.95Z" fill="#ABB7C2"/>
<path d="M32.514 40.0502C30.5449 40.0502 28.8769 39.3668 27.5102 38.0001C26.1436 36.6335 25.4603 34.9655 25.4603 32.9962C25.4603 31.0418 26.1436 29.3788 27.5102 28.0074C28.8769 26.6359 30.5449 25.9502 32.514 25.9502C34.4686 25.9502 36.1315 26.6359 37.5028 28.0074C38.8743 29.3788 39.56 31.0418 39.56 32.9962C39.56 34.9655 38.8743 36.6335 37.5028 38.0001C36.1315 39.3668 34.4686 40.0502 32.514 40.0502ZM32.51 38.6402C34.0767 38.6402 35.4084 38.0919 36.505 36.9952C37.6017 35.8985 38.15 34.5669 38.15 33.0002C38.15 31.4335 37.6017 30.1019 36.505 29.0052C35.4084 27.9085 34.0767 27.3602 32.51 27.3602C30.9434 27.3602 29.6117 27.9085 28.515 29.0052C27.4184 30.1019 26.87 31.4335 26.87 33.0002C26.87 34.5669 27.4184 35.8985 28.515 36.9952C29.6117 38.0919 30.9434 38.6402 32.51 38.6402ZM34.739 36.2575L35.7441 35.2527L33.215 32.7236V29.3847H31.805V33.3003L34.739 36.2575ZM20.941 29.9452V28.5352H24.5203V29.9452H20.941ZM20.001 33.7052V32.2952H24.5203V33.7052H20.001ZM20.941 37.4652V36.0552H24.5203V37.4652H20.941Z" fill="#ABB7C2"/>
</g>
</svg>
