<svg width="24" height="24" viewBox="0 0 24 24" fill="none" xmlns="http://www.w3.org/2000/svg">
<g clip-path="url(#clip0_109_77)">
<path d="M1.95253 2.84148C1.98789 2.84126 2.02326 2.84104 2.0597 2.84082C2.17832 2.84026 2.29692 2.8407 2.41554 2.84114C2.50139 2.84094 2.58725 2.84068 2.67311 2.84037C2.90913 2.83969 3.14516 2.83989 3.38119 2.84024C3.6357 2.84046 3.8902 2.83987 4.14471 2.83939C4.64335 2.83859 5.14198 2.83855 5.64062 2.83879C6.04583 2.83898 6.45104 2.83892 6.85625 2.83866C6.94269 2.83861 6.94269 2.83861 7.03088 2.83856C7.14795 2.83849 7.26501 2.83841 7.38208 2.83834C8.44904 2.83772 9.516 2.83792 10.583 2.83845C11.557 2.83892 12.5309 2.83853 13.5049 2.83744C14.5992 2.83622 15.6934 2.83562 16.7876 2.83595C17.367 2.83611 17.9464 2.836 18.5258 2.83519C19.019 2.8345 19.5122 2.83446 20.0055 2.83528C20.2572 2.83568 20.5089 2.83578 20.7606 2.83506C20.991 2.83442 21.2213 2.83463 21.4517 2.83554C21.5351 2.83572 21.6185 2.83558 21.7019 2.83509C21.8152 2.83448 21.9284 2.83502 22.0417 2.83584C22.0741 2.83539 22.1066 2.83494 22.14 2.83447C22.3909 2.83823 22.532 2.90883 22.7344 3.04681C22.8733 3.23941 22.8999 3.4158 22.8917 3.64776C22.8582 3.85315 22.7428 3.98265 22.5909 4.11614C22.3984 4.23412 22.2149 4.2248 21.9971 4.22326C21.9619 4.22319 21.9267 4.22313 21.8905 4.22306C21.7782 4.2228 21.666 4.22221 21.5538 4.22161C21.4776 4.22138 21.4015 4.22116 21.3253 4.22097C21.1388 4.22046 20.9522 4.21965 20.7657 4.21868C21.4209 5.80223 22.0794 7.38435 22.7469 8.96274C22.8221 9.14062 22.8971 9.31862 22.9718 9.49672C23.1304 9.87462 23.2897 10.252 23.4573 10.626C23.5248 10.7768 23.5911 10.9281 23.6572 11.0794C23.6877 11.1484 23.7188 11.2171 23.7506 11.2855C24.1062 12.0525 24.0853 12.8443 23.8126 13.6406C23.3857 14.7677 22.5996 15.6436 21.5157 16.1718C20.4649 16.6317 19.2811 16.6947 18.1993 16.3007C17.6933 16.0891 17.2373 15.8356 16.8282 15.4687C16.7857 15.4306 16.7432 15.3925 16.6995 15.3533C16.0185 14.7092 15.5817 13.8603 15.4219 12.9374C15.4158 12.9035 15.4097 12.8695 15.4034 12.8345C15.3897 12.7444 15.3824 12.6533 15.3751 12.5624C15.3714 12.5275 15.3677 12.4926 15.3639 12.4566C15.3397 12.0436 15.4882 11.7133 15.6504 11.3437C15.6801 11.2742 15.7096 11.2047 15.7391 11.1352C15.8025 10.9859 15.8664 10.8368 15.9306 10.6878C16.0331 10.4496 16.1333 10.2106 16.2331 9.97131C16.2585 9.91026 16.2585 9.91026 16.2845 9.84798C16.3192 9.7647 16.3539 9.68142 16.3887 9.59814C16.478 9.38403 16.5678 9.17011 16.6575 8.95617C16.8534 8.48909 17.0491 8.0219 17.2446 7.55467C17.2966 7.43037 17.3487 7.30608 17.4007 7.18179C17.566 6.78692 17.7313 6.39201 17.8962 5.99698C17.9745 5.80968 18.0527 5.6224 18.131 5.43512C18.1684 5.34554 18.2058 5.25595 18.2432 5.16635C18.2949 5.04239 18.3467 4.91847 18.3985 4.79455C18.4138 4.75783 18.4291 4.72112 18.4448 4.68329C18.459 4.64937 18.4732 4.61545 18.4878 4.58051C18.5001 4.5512 18.5123 4.52189 18.5249 4.49169C18.5656 4.39925 18.6111 4.30901 18.6563 4.21868C16.6918 4.21868 14.7272 4.21868 12.7032 4.21868C12.7032 9.35431 12.7032 14.4899 12.7032 19.7812C14.0799 19.7812 15.4566 19.7812 16.8751 19.7812C17.3234 20.0053 17.3234 20.0053 17.3907 20.2031C17.421 20.454 17.4224 20.6528 17.3116 20.8827C17.1455 21.0623 17.0331 21.1343 16.7856 21.1584C16.7121 21.1592 16.6387 21.1593 16.5652 21.1587C16.5044 21.1591 16.5044 21.1591 16.4423 21.1595C16.3063 21.1602 16.1704 21.1598 16.0344 21.1595C15.9369 21.1598 15.8395 21.1601 15.742 21.1605C15.4772 21.1613 15.2124 21.1613 14.9476 21.161C14.7266 21.1608 14.5057 21.1611 14.2847 21.1614C13.7634 21.1621 13.2421 21.162 12.7208 21.1615C12.1829 21.1609 11.6449 21.1616 11.107 21.1628C10.6452 21.1639 10.1835 21.1642 9.72175 21.1639C9.44591 21.1638 9.17009 21.1639 8.89426 21.1647C8.6349 21.1654 8.37555 21.1652 8.11619 21.1643C8.02099 21.1642 7.92579 21.1643 7.83059 21.1648C7.70065 21.1654 7.57075 21.1649 7.44081 21.1641C7.40312 21.1645 7.36544 21.165 7.32661 21.1654C7.08195 21.1622 6.94551 21.1125 6.75005 20.9531C6.57987 20.7659 6.58817 20.5662 6.59661 20.3245C6.61343 20.1651 6.63748 20.0848 6.75005 19.9687C8.10682 19.2903 9.78001 19.7812 11.2969 19.7812C11.2969 14.6456 11.2969 9.50993 11.2969 4.21868C9.33239 4.21868 7.36786 4.21868 5.3438 4.21868C5.49849 4.57446 5.65318 4.93025 5.81255 5.29681C6.06049 5.8871 6.06049 5.8871 6.14417 6.08905C6.24351 6.32862 6.34303 6.56811 6.44263 6.80758C6.48432 6.90782 6.526 7.00807 6.56767 7.10832C6.76941 7.59362 6.97195 8.07859 7.17486 8.56341C7.20019 8.624 7.20019 8.624 7.22605 8.68581C7.42934 9.17182 7.63379 9.65734 7.83953 10.1423C7.8806 10.2392 7.92167 10.3362 7.96275 10.4331C8.04109 10.6179 8.11965 10.8026 8.19833 10.9873C8.23407 11.0715 8.26981 11.1558 8.30553 11.24C8.32161 11.2776 8.33768 11.3152 8.35424 11.3539C8.69768 12.1659 8.68259 12.8899 8.37896 13.7197C8.16851 14.2272 7.91458 14.6838 7.54693 15.0937C7.50886 15.1362 7.47079 15.1786 7.43157 15.2224C6.66525 16.0325 5.61865 16.4884 4.50957 16.558C3.27596 16.5811 2.18807 16.1892 1.27959 15.344C0.499675 14.5888 0.0035764 13.5274 -0.0257672 12.439C-0.0310171 11.9098 0.149519 11.4954 0.366262 11.0214C0.404658 10.9342 0.442881 10.8469 0.480943 10.7595C0.560553 10.5771 0.640936 10.3951 0.721898 10.2134C0.901005 9.80988 1.07116 9.40261 1.24192 8.99552C1.31659 8.81773 1.39169 8.64013 1.46678 8.46252C1.79344 7.68981 2.11602 6.91541 2.43755 6.14056C2.45488 6.0988 2.47221 6.05705 2.49006 6.01403C2.73837 5.41566 2.98648 4.8172 3.23443 4.21868C3.18762 4.21942 3.14081 4.22016 3.09259 4.22091C2.91805 4.22347 2.74351 4.22508 2.56895 4.22641C2.49357 4.22711 2.41819 4.22807 2.34282 4.22929C2.23413 4.23101 2.12547 4.2318 2.01677 4.23242C1.98336 4.23314 1.94995 4.23387 1.91553 4.23462C1.69477 4.23469 1.54675 4.19442 1.35943 4.07806C1.16359 3.86105 1.10789 3.72676 1.11205 3.43994C1.13401 3.25093 1.19688 3.15213 1.31255 2.99993C1.52553 2.8666 1.70661 2.83909 1.95253 2.84148ZM4.26568 5.34368C3.76714 6.52092 3.27144 7.69927 2.7806 8.87974C2.59195 9.33329 2.40276 9.78661 2.21178 10.2392C2.19401 10.2813 2.17623 10.3235 2.15792 10.3669C2.07425 10.5651 1.99046 10.7632 1.90651 10.9613C1.87722 11.0306 1.84794 11.0999 1.81865 11.1692C1.80523 11.2008 1.7918 11.2323 1.77797 11.2649C1.71454 11.3937 1.71454 11.3937 1.68755 11.5312C3.40458 11.5312 5.12161 11.5312 6.89068 11.5312C6.79587 11.2468 6.69793 10.973 6.58141 10.6981C6.56518 10.6594 6.54895 10.6208 6.53223 10.5809C6.479 10.4543 6.42556 10.3277 6.37212 10.2011C6.3344 10.1114 6.29669 10.0217 6.259 9.93202C6.18064 9.74557 6.1022 9.55915 6.02372 9.37276C5.858 8.97906 5.69309 8.58501 5.52821 8.19096C5.47582 8.0658 5.42336 7.94068 5.37089 7.81556C5.19817 7.40355 5.02648 6.99116 4.85656 6.578C4.80792 6.46005 4.75925 6.34211 4.71058 6.22417C4.66506 6.11357 4.61989 6.00284 4.57472 5.8921C4.54741 5.82586 4.52008 5.75963 4.49273 5.69341C4.4744 5.64802 4.4744 5.64802 4.45571 5.60171C4.39636 5.44224 4.39636 5.44224 4.26568 5.34368ZM19.6876 5.34368C19.4487 5.84688 19.2335 6.35881 19.0196 6.87298C18.9826 6.96165 18.9456 7.05032 18.9086 7.13899C18.8317 7.32317 18.7549 7.50738 18.6781 7.6916C18.5122 8.08945 18.3457 8.48702 18.1792 8.8846C18.1264 9.01086 18.0735 9.13715 18.0207 9.26343C17.8579 9.65273 17.6947 10.0419 17.5304 10.4305C17.4875 10.5321 17.4447 10.6337 17.4018 10.7353C17.3624 10.8286 17.3228 10.9219 17.2831 11.0151C17.26 11.07 17.2369 11.1248 17.2131 11.1813C17.1929 11.2288 17.1727 11.2764 17.152 11.3254C17.1039 11.4321 17.1039 11.4321 17.1094 11.5312C18.8265 11.5312 20.5435 11.5312 22.3126 11.5312C22.094 10.9848 21.8756 10.4393 21.6474 9.89696C21.6308 9.85728 21.6141 9.8176 21.5969 9.77672C21.5798 9.73598 21.5626 9.69523 21.545 9.65325C21.5085 9.56626 21.472 9.47925 21.4355 9.39225C21.3598 9.21178 21.284 9.03133 21.2083 8.85089C21.0951 8.58132 20.9823 8.31164 20.8695 8.04193C20.4931 7.1417 20.116 6.24176 19.7344 5.34368C19.719 5.34368 19.7035 5.34368 19.6876 5.34368ZM1.45318 12.8906C1.62861 13.68 2.06033 14.3014 2.74041 14.744C3.44375 15.1486 4.21894 15.2989 5.01568 15.0937C5.48712 14.9477 5.85175 14.7462 6.23443 14.4374C6.28277 14.4017 6.33111 14.3659 6.38091 14.329C6.79772 13.9394 7.0357 13.4355 7.17193 12.8906C5.28474 12.8906 3.39755 12.8906 1.45318 12.8906ZM16.8282 12.8906C17.0733 13.7076 17.4697 14.3335 18.2139 14.7773C18.9828 15.1687 19.7508 15.3018 20.5928 15.0466C21.3561 14.7739 21.9266 14.3091 22.3126 13.5937C22.4832 13.2558 22.4832 13.2558 22.5469 12.8906C20.6597 12.8906 18.7726 12.8906 16.8282 12.8906Z" fill="#697865"/>
</g>
<defs>
<clipPath id="clip0_109_77">
<rect width="24" height="24" fill="white"/>
</clipPath>
</defs>
</svg>
