<svg width="21" height="21" viewBox="0 0 21 21" fill="none" xmlns="http://www.w3.org/2000/svg">
<path d="M18.9678 6.75938C18.7918 6.55994 18.5754 6.40023 18.3329 6.29086C18.0905 6.18148 17.8275 6.12495 17.5615 6.125H13.1865V4.875C13.1865 4.0462 12.8573 3.25134 12.2712 2.66529C11.6852 2.07924 10.8903 1.75 10.0615 1.75C9.94541 1.74992 9.83157 1.78218 9.73277 1.84317C9.63397 1.90417 9.55411 1.99148 9.50215 2.09531L6.55059 8H3.18652C2.855 8 2.53706 8.1317 2.30264 8.36612C2.06822 8.60054 1.93652 8.91848 1.93652 9.25V16.125C1.93652 16.4565 2.06822 16.7745 2.30264 17.0089C2.53706 17.2433 2.855 17.375 3.18652 17.375H16.624C17.0808 17.3752 17.522 17.2085 17.8646 16.9065C18.2073 16.6044 18.4279 16.1876 18.485 15.7344L19.4225 8.23438C19.4557 7.97033 19.4323 7.70224 19.3539 7.44792C19.2755 7.1936 19.1439 6.95888 18.9678 6.75938ZM3.18652 9.25H6.31152V16.125H3.18652V9.25ZM18.1818 8.07812L17.2443 15.5781C17.2253 15.7292 17.1518 15.8681 17.0376 15.9688C16.9233 16.0695 16.7763 16.1251 16.624 16.125H7.56152V8.77266L10.4295 3.03594C10.8546 3.12101 11.237 3.35075 11.5118 3.68605C11.7866 4.02135 11.9366 4.4415 11.9365 4.875V6.75C11.9365 6.91576 12.0024 7.07473 12.1196 7.19194C12.2368 7.30915 12.3958 7.375 12.5615 7.375H17.5615C17.6502 7.37497 17.7379 7.39382 17.8187 7.43028C17.8996 7.46675 17.9717 7.52001 18.0304 7.58652C18.0891 7.65303 18.1329 7.73126 18.159 7.81602C18.1852 7.90078 18.1929 7.99013 18.1818 8.07812Z" fill="#697865"/>
</svg>
