<svg width="24" height="24" viewBox="0 0 24 24" fill="none" xmlns="http://www.w3.org/2000/svg">
<path d="M16.0781 4.54692C16.1068 4.56203 16.1354 4.57714 16.165 4.5927C16.7414 4.89906 17.2331 5.27904 17.7122 5.721C17.7935 5.79516 17.8757 5.86455 17.9619 5.93266C18.134 6.08176 18.276 6.24763 18.4219 6.42192C18.4543 6.45957 18.4867 6.49721 18.52 6.536C20.0212 8.31467 20.6452 10.577 20.4649 12.8815C20.354 14.0147 19.9857 15.08 19.4531 16.0782C19.438 16.1068 19.4229 16.1355 19.4074 16.165C19.101 16.7414 18.721 17.2332 18.2791 17.7122C18.2049 17.7935 18.1355 17.8757 18.0674 17.962C17.9179 18.1345 17.7535 18.2762 17.5781 18.4219C17.5548 18.4419 17.5315 18.4618 17.5075 18.4824C15.7694 19.9667 13.522 20.6409 11.2513 20.4742C10.0327 20.355 8.90182 19.9886 7.82814 19.4063C7.79886 19.3905 7.76958 19.3747 7.73941 19.3584C7.23996 19.0846 6.80551 18.7465 6.37502 18.375C6.34936 18.3529 6.3237 18.3308 6.29727 18.3081C4.65722 16.8837 3.67338 14.7644 3.51565 12.6094C3.45608 11.2514 3.63953 9.92755 4.1719 8.67192C4.18535 8.63999 4.19881 8.60805 4.21268 8.57515C4.73945 7.34621 5.59542 6.20727 6.65627 5.39067C6.70129 5.35375 6.7463 5.31683 6.79268 5.2788C9.41785 3.16472 13.1528 2.98632 16.0781 4.54692ZM7.13234 7.51415C6.82219 7.95429 6.71114 8.41897 6.75002 8.95317C6.84686 9.49648 7.15359 9.95337 7.58773 10.286C8.03575 10.5898 8.51423 10.6441 9.04689 10.5938C9.58562 10.4732 10.0442 10.1544 10.3594 9.70317C10.6424 9.1575 10.7086 8.65608 10.5487 8.06383C10.3529 7.49329 9.95248 7.11311 9.42611 6.84508C8.58659 6.4973 7.67681 6.83472 7.13234 7.51415ZM13.8399 7.39165C13.4364 7.87858 13.3537 8.43659 13.4063 9.04692C13.5022 9.53329 13.7992 9.96808 14.1944 10.2627C14.7127 10.5899 15.2462 10.6865 15.8476 10.5645C16.4365 10.3758 16.8432 9.98347 17.124 9.44444C17.3149 9.00248 17.326 8.47455 17.1738 8.0186C16.9294 7.44857 16.5773 7.08662 16.0086 6.84123C15.24 6.55242 14.394 6.80764 13.8399 7.39165ZM5.49502 11.7713C5.35149 11.9912 5.32703 12.1931 5.32912 12.4512C5.32939 12.486 5.32965 12.5207 5.32992 12.5565C5.36784 14.3518 6.20562 16.0056 7.48024 17.2418C8.81001 18.4365 10.5627 19.0758 12.3512 18.9923C13.8127 18.8942 15.2096 18.3616 16.3125 17.3907C16.3519 17.357 16.3913 17.3232 16.4319 17.2885C17.6112 16.2593 18.3511 14.8522 18.6094 13.3125C18.6185 13.2603 18.6185 13.2603 18.6279 13.2069C18.6429 13.1011 18.6508 12.9975 18.6563 12.8907C18.6578 12.8612 18.6593 12.8318 18.6609 12.8014C18.7026 12.2247 18.7026 12.2247 18.4688 11.7188C18.2338 11.4721 18.0053 11.3319 17.6572 11.3233C17.3491 11.3295 17.1612 11.4363 16.9439 11.6481C16.6957 11.9265 16.6734 12.1895 16.6494 12.545C16.5828 13.3377 16.3802 14.0286 15.9844 14.7188C15.9567 14.7671 15.929 14.8154 15.9005 14.8651C15.2594 15.9204 14.1944 16.5552 13.0196 16.8633C11.7422 17.1343 10.4591 16.8752 9.36715 16.1697C9.24143 16.0803 9.12024 15.9874 9.00002 15.8907C8.96812 15.8664 8.93621 15.8422 8.90334 15.8172C7.94773 15.0485 7.49197 13.8383 7.35939 12.6563C7.3518 12.5519 7.34483 12.4474 7.33889 12.3428C7.31419 12.0087 7.21151 11.7843 6.96096 11.5606C6.71983 11.3644 6.53483 11.3223 6.22579 11.3293C5.90103 11.3649 5.69899 11.5258 5.49502 11.7713Z" fill="#697865"/>
<path d="M18.2502 4.73456C18.3721 4.84184 18.4911 4.95154 18.6095 5.06269C18.6341 5.08575 18.6588 5.10882 18.6842 5.13259C19.3511 5.76156 19.8828 6.47521 20.3438 7.26581C20.3684 7.30722 20.3684 7.30722 20.3934 7.34947C20.9046 8.22169 21.221 9.185 21.422 10.1721C21.4303 10.213 21.4386 10.254 21.4472 10.2961C21.7481 11.8613 21.5975 13.5434 21.0938 15.0471C21.0826 15.0807 21.0714 15.1143 21.0598 15.1489C20.619 16.4396 19.9067 17.6065 18.9576 18.5871C18.8881 18.6592 18.8196 18.7321 18.751 18.8051C18.1603 19.4242 17.4718 19.9142 16.7345 20.3439C16.7064 20.3605 16.6782 20.3771 16.6493 20.3942C15.6135 20.9995 14.4059 21.3665 13.2188 21.5158C13.1847 21.5202 13.1506 21.5246 13.1154 21.5292C12.7571 21.5706 12.3985 21.5741 12.0382 21.5744C12.0053 21.5744 11.9723 21.5745 11.9384 21.5745C9.50873 21.5708 7.16397 20.6523 5.41314 18.9577C5.34109 18.8882 5.26813 18.8197 5.19515 18.7511C4.57606 18.1604 4.08602 17.4719 3.65633 16.7346C3.63974 16.7065 3.62315 16.6784 3.60605 16.6494C2.40054 14.5863 2.11543 11.9704 2.69027 9.66706C2.75428 9.42642 2.82726 9.1894 2.90633 8.95331C2.91757 8.91971 2.92881 8.8861 2.94039 8.85148C3.7504 6.47989 5.51897 4.50861 7.75222 3.38416C11.1987 1.71605 15.3465 2.24842 18.2502 4.73456ZM6.46883 4.78144C6.44219 4.80212 6.41555 4.82281 6.38811 4.84413C5.4732 5.56505 4.69875 6.43873 4.12508 7.45331C4.10011 7.49673 4.10011 7.49673 4.07464 7.54102C3.46633 8.60582 3.12097 9.75851 2.95321 10.9689C2.94387 11.0338 2.94387 11.0338 2.93435 11.1C2.67158 13.3606 3.39638 15.7621 4.78995 17.5477C4.98806 17.7952 5.19928 18.0299 5.41827 18.259C5.46216 18.305 5.50581 18.3512 5.54919 18.3977C6.10218 18.9893 6.74804 19.4778 7.45321 19.8752C7.48494 19.8934 7.51667 19.9115 7.54936 19.9302C8.6051 20.5301 9.76165 20.9058 10.9688 21.0471C11.0108 21.0523 11.0528 21.0575 11.0961 21.0628C13.4045 21.3024 15.8094 20.6017 17.6212 19.1514C17.8419 18.9704 18.0526 18.7792 18.2589 18.582C18.3048 18.5381 18.3511 18.4945 18.3976 18.4511C20.0463 16.9099 21.0036 14.6363 21.099 12.3953C21.1703 9.99873 20.358 7.64198 18.7141 5.88047C18.6702 5.83401 18.6261 5.78765 18.5819 5.74141C18.538 5.69542 18.4944 5.64919 18.451 5.60271C17.898 5.01111 17.2521 4.52259 16.547 4.12519C16.5152 4.10702 16.4835 4.08886 16.4508 4.07014C13.3256 2.29448 9.30936 2.56996 6.46883 4.78144Z" fill="#697865"/>
<path d="M6.3281 11.9299C6.35904 11.9294 6.38998 11.9289 6.42185 11.9284C6.55809 11.9646 6.61319 12.0337 6.7031 12.1408C6.73432 12.2585 6.73432 12.2585 6.74558 12.3907C6.75035 12.4394 6.75511 12.4881 6.76002 12.5383C6.76444 12.5898 6.76886 12.6414 6.77341 12.6945C6.92147 14.1298 7.5275 15.4071 8.62498 16.3596C9.22976 16.8373 9.89889 17.184 10.6406 17.3908C10.6915 17.4058 10.7425 17.4208 10.795 17.4362C11.5992 17.6361 12.5643 17.6243 13.3594 17.3908C13.4155 17.3754 13.4716 17.36 13.5295 17.3441C14.7832 16.9663 15.9252 16.0974 16.5581 14.9409C17.012 14.0662 17.1956 13.2035 17.2816 12.2279C17.2969 12.1408 17.2969 12.1408 17.3701 12.0207C17.5085 11.9391 17.6075 11.9291 17.7656 11.9238C17.9167 11.9713 17.9657 12.0546 18.0469 12.1877C18.2338 13.4523 17.6399 14.8812 16.9219 15.8908C15.9237 17.2255 14.4917 18.1037 12.8361 18.343C11.3655 18.5244 9.79534 18.2124 8.5781 17.3439C8.50605 17.2927 8.50605 17.2927 8.43253 17.2405C7.11763 16.2803 6.29251 14.9086 5.99998 13.3127C5.96107 13.0502 5.94199 12.7928 5.93845 12.5275C5.93709 12.4928 5.93573 12.458 5.93433 12.4222C5.93241 12.2575 5.93925 12.1603 6.03605 12.0244C6.14588 11.9497 6.19707 11.9278 6.3281 11.9299Z" fill="#697865"/>
<path d="M16.2655 7.68764C16.5946 8.04927 16.6715 8.37872 16.6579 8.85841C16.6348 9.21115 16.48 9.46025 16.2274 9.70033C15.8454 10.0008 15.4797 10.0244 14.9999 9.98451C14.6614 9.92332 14.3859 9.70359 14.1863 9.42806C13.9754 9.07396 13.9804 8.69748 14.0155 8.29701C14.1228 7.9171 14.3725 7.64659 14.7104 7.45052C15.2365 7.20344 15.8383 7.30271 16.2655 7.68764Z" fill="#697865"/>
<path d="M9.30185 7.45022C9.64121 7.65101 9.9095 7.94372 10.0127 8.32894C10.0722 8.67521 10.0587 9.01405 9.89072 9.32815C9.67088 9.63629 9.42749 9.90402 9.04697 9.9844C8.60586 10.0344 8.24354 10.0099 7.87509 9.75002C7.58612 9.50502 7.38391 9.20861 7.34738 8.8268C7.33206 8.42729 7.42133 8.13451 7.62314 7.79299C8.06971 7.36993 8.72261 7.18766 9.30185 7.45022Z" fill="#697865"/>
</svg>
