<svg width="124" height="89" viewBox="0 0 124 89" fill="none" xmlns="http://www.w3.org/2000/svg">
  <path opacity="0.3" d="M57.3209 88.186H29.3953C21.2705 88.186 14.34 85.3631 8.60402 79.7172C2.86801 74.0724 0 67.1875 0 59.0626C0 51.8715 2.30264 45.4761 6.90791 39.8763C11.5132 34.2755 17.3883 30.9626 24.5334 29.9377C26.4176 21.1495 30.8367 13.9628 37.7907 8.37767C44.7436 2.79256 52.7235 0 61.7302 0C72.3655 0 81.3933 3.71018 88.8136 11.1305C96.234 18.5509 99.9442 27.5787 99.9442 38.2139V41.1535H101.753C107.949 41.6356 113.116 44.1268 117.254 48.6273C121.392 53.1267 123.46 58.4742 123.46 64.6698C123.46 71.2269 121.18 76.7855 116.62 81.3457C112.06 85.9059 106.501 88.186 99.9442 88.186H66.1395V45.3585L77.0158 56.054L83.2109 49.9162L61.7302 28.4341L40.2496 49.9162L46.4446 56.054L57.3209 45.3585V88.186Z" fill="#006400"/>
</svg>
