<svg width="20" height="21" viewBox="0 0 20 21" fill="none" xmlns="http://www.w3.org/2000/svg">
<path d="M19.1252 12.2503C19.0596 12.2995 18.9849 12.3354 18.9053 12.3557C18.8258 12.3761 18.7431 12.3806 18.6618 12.369C18.5806 12.3574 18.5024 12.3299 18.4318 12.2881C18.3612 12.2463 18.2995 12.191 18.2502 12.1253C17.8735 11.6189 17.3832 11.2081 16.8187 10.9259C16.2542 10.6436 15.6313 10.4979 15.0002 10.5003C14.8773 10.5003 14.7572 10.464 14.6547 10.3961C14.5523 10.3281 14.4722 10.2315 14.4245 10.1183C14.392 10.0414 14.3753 9.95876 14.3753 9.8753C14.3753 9.79184 14.392 9.70923 14.4245 9.63233C14.4722 9.5191 14.5523 9.42246 14.6547 9.35451C14.7572 9.28656 14.8773 9.25031 15.0002 9.2503C15.3509 9.25027 15.6946 9.1519 15.9921 8.96635C16.2897 8.7808 16.5293 8.51553 16.6836 8.20065C16.838 7.88577 16.901 7.53391 16.8654 7.18504C16.8298 6.83617 16.6971 6.50427 16.4823 6.22704C16.2676 5.94981 15.9794 5.73837 15.6505 5.61672C15.3216 5.49508 14.9651 5.46811 14.6217 5.53888C14.2782 5.60966 13.9615 5.77533 13.7074 6.01709C13.4534 6.25885 13.2723 6.56701 13.1846 6.90655C13.1641 6.98606 13.1281 7.06075 13.0787 7.12636C13.0293 7.19197 12.9675 7.24721 12.8968 7.28892C12.8261 7.33063 12.7478 7.35801 12.6665 7.36948C12.5852 7.38095 12.5024 7.37629 12.4229 7.35577C12.3434 7.33525 12.2687 7.29927 12.2031 7.24989C12.1375 7.2005 12.0822 7.13868 12.0405 7.06795C11.9988 6.99722 11.9714 6.91896 11.96 6.83765C11.9485 6.75634 11.9532 6.67356 11.9737 6.59405C12.0954 6.1232 12.3253 5.68725 12.6451 5.32089C12.9649 4.95452 13.3658 4.66786 13.8159 4.4837C14.266 4.29954 14.7529 4.22298 15.2378 4.26009C15.7227 4.29721 16.1922 4.44698 16.609 4.6975C17.0259 4.94802 17.3785 5.29236 17.6388 5.70313C17.8991 6.1139 18.06 6.57976 18.1086 7.06364C18.1572 7.54753 18.0922 8.03608 17.9188 8.49042C17.7454 8.94476 17.4683 9.35236 17.1096 9.68077C17.9595 10.0487 18.6982 10.6327 19.2526 11.3745C19.3018 11.4403 19.3376 11.5152 19.3578 11.5949C19.3781 11.6746 19.3824 11.7575 19.3706 11.8388C19.3588 11.9202 19.331 11.9984 19.2889 12.069C19.2468 12.1396 19.1912 12.2012 19.1252 12.2503ZM14.9159 17.0628C14.9611 17.1339 14.9914 17.2135 15.0051 17.2967C15.0188 17.3798 15.0155 17.4649 14.9955 17.5468C14.9754 17.6287 14.939 17.7056 14.8884 17.7731C14.8379 17.8405 14.7742 17.897 14.7012 17.9392C14.6282 17.9814 14.5475 18.0084 14.4638 18.0185C14.3801 18.0287 14.2952 18.0218 14.2143 17.9983C14.1333 17.9749 14.058 17.9352 13.9927 17.8819C13.9275 17.8285 13.8737 17.7625 13.8346 17.6878C13.4409 17.0211 12.8802 16.4686 12.2078 16.0848C11.5353 15.701 10.7745 15.4992 10.0002 15.4992C9.22599 15.4992 8.46513 15.701 7.79272 16.0848C7.1203 16.4686 6.55958 17.0211 6.16586 17.6878C6.12679 17.7625 6.07301 17.8285 6.00777 17.8819C5.94252 17.9352 5.86715 17.9749 5.7862 17.9983C5.70524 18.0218 5.62037 18.0287 5.53669 18.0185C5.45302 18.0084 5.37226 17.9814 5.29928 17.9392C5.2263 17.897 5.16261 17.8405 5.11204 17.7731C5.06147 17.7056 5.02506 17.6287 5.005 17.5468C4.98495 17.4649 4.98166 17.3798 4.99535 17.2967C5.00903 17.2135 5.03939 17.1339 5.08461 17.0628C5.69055 16.0217 6.61445 15.2024 7.72055 14.7253C7.09815 14.2488 6.64073 13.5892 6.41258 12.8392C6.18443 12.0893 6.19703 11.2867 6.44861 10.5443C6.70018 9.80188 7.17808 9.15697 7.81513 8.70021C8.45219 8.24344 9.21636 7.9978 10.0002 7.9978C10.7841 7.9978 11.5483 8.24344 12.1853 8.70021C12.8224 9.15697 13.3003 9.80188 13.5519 10.5443C13.8034 11.2867 13.816 12.0893 13.5879 12.8392C13.3597 13.5892 12.9023 14.2488 12.2799 14.7253C13.386 15.2024 14.3099 16.0217 14.9159 17.0628ZM10.0002 14.2503C10.4947 14.2503 10.978 14.1037 11.3892 13.829C11.8003 13.5543 12.1207 13.1638 12.3099 12.707C12.4992 12.2502 12.5487 11.7475 12.4522 11.2626C12.3557 10.7776 12.1176 10.3322 11.768 9.98254C11.4184 9.6329 10.9729 9.3948 10.488 9.29834C10.003 9.20188 9.50034 9.25138 9.04353 9.4406C8.58671 9.62982 8.19627 9.95025 7.92156 10.3614C7.64686 10.7725 7.50024 11.2558 7.50024 11.7503C7.50024 12.4133 7.76363 13.0492 8.23247 13.5181C8.70131 13.9869 9.3372 14.2503 10.0002 14.2503ZM5.62524 9.8753C5.62524 9.70954 5.55939 9.55057 5.44218 9.43336C5.32497 9.31615 5.166 9.2503 5.00024 9.2503C4.64956 9.25027 4.30591 9.1519 4.00834 8.96635C3.71076 8.7808 3.47119 8.51553 3.31682 8.20065C3.16246 7.88577 3.09949 7.53391 3.13508 7.18504C3.17066 6.83617 3.30337 6.50427 3.51813 6.22704C3.73289 5.94981 4.02109 5.73837 4.35 5.61672C4.67891 5.49508 5.03534 5.46811 5.3788 5.53888C5.72227 5.60966 6.039 5.77533 6.29303 6.01709C6.54706 6.25885 6.72819 6.56701 6.81586 6.90655C6.8573 7.06713 6.96083 7.20467 7.10368 7.28892C7.24653 7.37316 7.417 7.39721 7.57758 7.35577C7.73816 7.31433 7.8757 7.2108 7.95995 7.06795C8.04419 6.9251 8.06824 6.75463 8.0268 6.59405C7.90511 6.1232 7.67522 5.68725 7.3554 5.32089C7.03558 4.95452 6.63468 4.66786 6.18458 4.4837C5.73447 4.29954 5.2476 4.22298 4.7627 4.26009C4.2778 4.29721 3.80826 4.44698 3.39143 4.6975C2.9746 4.94802 2.62199 5.29236 2.36166 5.70313C2.10133 6.1139 1.94046 6.57976 1.89185 7.06364C1.84325 7.54753 1.90825 8.03608 2.08168 8.49042C2.25511 8.94476 2.53219 9.35236 2.89086 9.68077C2.04186 10.0491 1.30392 10.633 0.750237 11.3745C0.650677 11.5071 0.607874 11.6739 0.631242 11.838C0.654611 12.0022 0.742238 12.1504 0.874846 12.2499C1.00745 12.3495 1.17418 12.3923 1.33835 12.3689C1.50252 12.3455 1.65068 12.2579 1.75024 12.1253C2.12695 11.6189 2.61728 11.2081 3.18177 10.9259C3.74625 10.6436 4.36912 10.4979 5.00024 10.5003C5.166 10.5003 5.32497 10.4345 5.44218 10.3172C5.55939 10.2 5.62524 10.0411 5.62524 9.8753Z" fill="#697865"/>
</svg>
