<svg width="24" height="24" viewBox="0 0 24 24" fill="none" xmlns="http://www.w3.org/2000/svg">
<path d="M12.9702 1.4276C12.2901 0.597049 11.02 0.597052 10.3401 1.4276L9.37682 2.60413C9.3108 2.68477 9.20067 2.71428 9.10317 2.67746L7.6807 2.14017C6.67655 1.7609 5.5766 2.39594 5.40299 3.45521L5.15705 4.95575C5.14019 5.0586 5.05958 5.13922 4.95672 5.15608L3.45619 5.40201C2.39693 5.57563 1.76186 6.67556 2.14115 7.67972L2.67843 9.1022C2.71526 9.19969 2.68575 9.30982 2.60511 9.37585L1.42858 10.3391C0.598026 11.0191 0.598028 12.2892 1.42858 12.9692L2.60511 13.9324C2.68575 13.9985 2.71526 14.1086 2.67843 14.2061L2.14115 15.6286C1.76187 16.6327 2.39692 17.7327 3.45619 17.9063L4.95672 18.1522C5.05958 18.1691 5.14019 18.2497 5.15705 18.3526L5.40299 19.853C5.5766 20.9123 6.67654 21.5473 7.6807 21.1681L9.10317 20.6308C9.20067 20.594 9.3108 20.6235 9.37682 20.7042L10.3401 21.8807C11.02 22.7112 12.2901 22.7112 12.9702 21.8807L13.9334 20.7042C13.9994 20.6235 14.1095 20.594 14.207 20.6308L15.6295 21.1681C16.6337 21.5473 17.7337 20.9123 17.9072 19.853L18.1532 18.3526C18.17 18.2497 18.2506 18.1691 18.3535 18.1522L19.8541 17.9063C20.9133 17.7327 21.5484 16.6327 21.1691 15.6286L20.6318 14.2061C20.595 14.1086 20.6245 13.9985 20.7051 13.9324L21.8817 12.9692C22.7122 12.2892 22.7122 11.0191 21.8817 10.3391L20.7051 9.37585C20.6245 9.30982 20.595 9.19969 20.6318 9.1022L21.1691 7.67972C21.5484 6.67556 20.9133 5.57563 19.8541 5.40201L18.3535 5.15608C18.2506 5.13922 18.17 5.0586 18.1532 4.95575L17.9072 3.45521C17.7337 2.39595 16.6337 1.76089 15.6295 2.14017L14.207 2.67746C14.1095 2.71428 13.9994 2.68477 13.9334 2.60413L12.9702 1.4276Z" fill="#3D88E0"/>
<path fill-rule="evenodd" clip-rule="evenodd" d="M17.5113 7.7397C17.7958 8.02415 17.7958 8.48534 17.5113 8.76979L10.7131 15.568C10.5765 15.7047 10.3912 15.7814 10.1981 15.7814C10.0049 15.7814 9.81959 15.7047 9.68301 15.568L5.7983 11.6833C5.51385 11.3988 5.51385 10.9377 5.7983 10.6533C6.08275 10.3688 6.54394 10.3688 6.82839 10.6533L10.1981 14.0229L16.4813 7.7397C16.7657 7.45526 17.2269 7.45526 17.5113 7.7397Z" fill="white"/>
</svg>
