<svg width="24" height="24" viewBox="0 0 24 24" fill="none" xmlns="http://www.w3.org/2000/svg">
<g clip-path="url(#clip0_85_14)">
<path d="M11.9824 -0.0144682C12.0302 -0.0143672 12.0779 -0.0142662 12.1271 -0.0141621C12.8126 -0.0118323 13.4826 0.00289522 14.1563 0.140805C14.203 0.149869 14.2497 0.158933 14.2978 0.168271C16.5667 0.616569 18.6383 1.6674 20.2969 3.28143C20.344 3.32667 20.344 3.32667 20.392 3.37282C20.8109 3.77662 21.2047 4.18486 21.5497 4.65401C21.6105 4.73598 21.6728 4.81651 21.7356 4.89697C22.1042 5.37578 22.4035 5.88943 22.6875 6.42206C22.7186 6.48021 22.7186 6.48021 22.7504 6.53954C23.2902 7.56625 23.6498 8.7049 23.8594 9.84393C23.8669 9.88146 23.8745 9.91899 23.8822 9.95766C24.1397 11.2738 24.1282 12.8435 23.8594 14.1564C23.8503 14.2031 23.8413 14.2499 23.8319 14.298C23.4514 16.224 22.6372 17.9628 21.4219 19.5002C21.3838 19.5488 21.3458 19.5975 21.3065 19.6476C20.7127 20.3772 20.0306 21.0606 19.2656 21.6096C19.2037 21.6554 19.1417 21.7012 19.0798 21.7471C17.6621 22.7842 16.051 23.4723 14.3321 23.8244C14.2807 23.835 14.2807 23.835 14.2283 23.8459C13.5005 23.9865 12.7805 24.0176 12.041 24.0148C11.9945 24.0147 11.9479 24.0147 11.8999 24.0146C11.2205 24.0125 10.559 23.9909 9.89065 23.8596C9.84867 23.852 9.80669 23.8445 9.76344 23.8367C8.58849 23.6241 7.31378 23.2531 6.29781 22.609C6.09588 22.5294 5.96135 22.566 5.76098 22.6241C5.72388 22.634 5.68678 22.6439 5.64855 22.6541C5.52568 22.6871 5.40326 22.7215 5.28079 22.756C5.1942 22.7795 5.10759 22.803 5.02095 22.8264C4.79191 22.8885 4.56321 22.9518 4.33457 23.0153C4.10732 23.0783 3.87978 23.1402 3.65225 23.2021C3.30042 23.2981 2.94866 23.3943 2.59701 23.4909C2.5554 23.5023 2.51379 23.5138 2.47091 23.5255C2.24168 23.5886 2.0126 23.6521 1.78366 23.7162C1.65397 23.7524 1.52417 23.7881 1.39432 23.8238C1.30882 23.8474 1.22349 23.8716 1.13817 23.8959C0.83873 23.9777 0.545958 24.0455 0.2344 24.0002C0.0879157 23.9123 0.0879157 23.9123 2.50791e-05 23.7658C-0.0797847 23.3302 0.0969197 22.8726 0.210779 22.4562C0.232941 22.3735 0.25505 22.2908 0.27711 22.208C0.335388 21.9899 0.394357 21.7721 0.453483 21.5542C0.500371 21.3811 0.546858 21.2079 0.593288 21.0347C0.616169 20.9493 0.639078 20.864 0.662016 20.7786C0.718934 20.5669 0.775571 20.355 0.831649 20.143C0.927942 19.7804 1.02544 19.419 1.13773 19.061C1.18264 18.9172 1.22568 18.7729 1.26857 18.6286C1.28879 18.5626 1.30996 18.4968 1.33218 18.4314C1.42769 18.15 1.50411 17.904 1.38329 17.6221C1.32144 17.4989 1.25238 17.3822 1.17805 17.2661C1.03365 17.0398 0.938671 16.7991 0.840845 16.55C0.82123 16.5003 0.801615 16.4506 0.781405 16.3994C0.459704 15.5668 0.227398 14.711 0.0937751 13.8283C0.0854629 13.7759 0.0771507 13.7234 0.0685866 13.6694C-0.0102295 13.1199 -0.0167252 12.5751 -0.0146234 12.0207C-0.0145223 11.9728 -0.0144213 11.925 -0.0143172 11.8757C-0.011989 11.1893 0.00256584 10.5185 0.14065 9.84393C0.154246 9.77386 0.154246 9.77386 0.168116 9.70237C0.525709 7.8926 1.26225 6.19791 2.39065 4.73456C2.43588 4.67582 2.43588 4.67582 2.48202 4.6159C3.14309 3.7743 3.90968 2.96861 4.78128 2.34393C4.80667 2.32556 4.83206 2.30719 4.85823 2.28827C6.30735 1.24373 7.91866 0.535826 9.66799 0.175961C9.70224 0.168873 9.73649 0.161784 9.77177 0.154481C10.5074 0.0124322 11.235 -0.017314 11.9824 -0.0144682ZM4.08694 4.29217C3.8151 4.56622 3.56171 4.84865 3.32815 5.15643C3.29773 5.19629 3.29773 5.19629 3.2667 5.23695C2.24493 6.58144 1.5252 8.09619 1.1719 9.75018C1.16204 9.79592 1.15219 9.84166 1.14203 9.88879C0.614434 12.4654 1.11904 15.197 2.3934 17.4797C2.53376 17.7934 2.4084 18.1678 2.32134 18.4812C2.309 18.5273 2.29666 18.5734 2.28394 18.6208C2.24334 18.7719 2.20201 18.9228 2.16067 19.0737C2.13224 19.179 2.10387 19.2844 2.07554 19.3897C2.0011 19.666 1.92604 19.9422 1.85083 20.2184C1.74466 20.6086 1.6393 20.9991 1.53388 21.3896C1.47777 21.5974 1.42141 21.8052 1.36486 22.0129C1.33927 22.1073 1.31367 22.2016 1.28808 22.296C1.27033 22.3609 1.27033 22.3609 1.25222 22.4271C1.24157 22.4665 1.23092 22.5058 1.21995 22.5464C1.21061 22.5807 1.20128 22.6149 1.19167 22.6503C1.16833 22.7353 1.16833 22.7353 1.1719 22.8283C1.71336 22.7052 2.24977 22.568 2.78527 22.4213C2.96071 22.3733 3.13629 22.3258 3.31185 22.2782C3.6367 22.1902 3.9615 22.102 4.2861 22.013C4.51392 21.9506 4.74189 21.8887 4.96997 21.8273C5.05612 21.8039 5.14222 21.7804 5.22825 21.7566C6.32627 21.4535 6.32627 21.4535 6.78129 21.7103C6.81641 21.7312 6.85153 21.7521 6.88772 21.7736C6.96587 21.8172 7.04419 21.8604 7.12264 21.9034C7.18177 21.9359 7.18177 21.9359 7.2421 21.9691C8.17602 22.4653 9.22688 22.7511 10.2656 22.9221C10.3131 22.9299 10.3131 22.9299 10.3616 22.9379C11.7117 23.1527 13.1068 23.0841 14.4375 22.7814C14.4789 22.772 14.5203 22.7626 14.5629 22.7529C16.5334 22.2896 18.283 21.2711 19.7344 19.8752C19.7689 19.8422 19.7689 19.8422 19.8042 19.8085C20.1194 19.506 20.405 19.1896 20.6719 18.8439C20.6915 18.8188 20.711 18.7937 20.7312 18.7679C22.5563 16.4112 23.3326 13.4352 22.9625 10.4822C22.9259 10.2363 22.8805 9.99321 22.8281 9.75018C22.8184 9.70432 22.8086 9.65846 22.7985 9.6112C22.2587 7.17569 20.8429 4.84538 18.8438 3.32831C18.8172 3.30803 18.7906 3.28775 18.7633 3.26685C15.0624 0.454351 9.85808 0.130478 4.08694 4.29217Z" fill="#A0A0A0"/>
<path d="M6.25368 7.58144C6.29271 7.58123 6.33173 7.58102 6.37194 7.5808C6.50234 7.5802 6.63274 7.58028 6.76314 7.58036C6.85679 7.58008 6.95043 7.57976 7.04407 7.5794C7.29821 7.57858 7.55234 7.57836 7.80647 7.5783C7.96529 7.57823 8.12411 7.57803 8.28293 7.57778C8.83713 7.57691 9.39132 7.57653 9.94552 7.5766C10.4619 7.57666 10.9783 7.57567 11.4947 7.57419C11.9383 7.57296 12.3818 7.57246 12.8254 7.57252C13.0902 7.57255 13.355 7.57228 13.6199 7.57129C13.869 7.57038 14.118 7.57037 14.3671 7.57105C14.4584 7.57115 14.5497 7.57093 14.641 7.57036C14.7659 7.56964 14.8907 7.57008 15.0156 7.5708C15.0515 7.57031 15.0875 7.56983 15.1245 7.56934C15.4232 7.57314 15.6663 7.66651 15.8917 7.86497C15.9126 7.89156 15.9335 7.91815 15.9551 7.94554C15.9875 7.98542 15.9875 7.98542 16.0206 8.0261C16.1648 8.23554 16.1847 8.4017 16.181 8.65379C16.1809 8.68786 16.1807 8.72193 16.1806 8.75703C16.1801 8.86545 16.1789 8.97385 16.1777 9.08226C16.1772 9.15593 16.1768 9.2296 16.1764 9.30327C16.1754 9.48351 16.1738 9.66374 16.1719 9.84398C16.2085 9.82563 16.2085 9.82563 16.2459 9.80692C16.501 9.67927 16.7566 9.5524 17.0124 9.42598C17.1077 9.37876 17.2029 9.33133 17.298 9.28371C17.4351 9.21511 17.5725 9.14725 17.7099 9.07951C17.7732 9.04758 17.7732 9.04758 17.8377 9.01499C18.084 8.89463 18.2872 8.82304 18.5625 8.81273C18.7392 8.88734 18.8361 8.97991 18.9375 9.14085C18.9554 9.25245 18.9554 9.25245 18.956 9.37861C18.9565 9.42658 18.957 9.47455 18.9576 9.52397C18.9574 9.57633 18.9573 9.62869 18.9572 9.68264C18.9576 9.73799 18.958 9.79334 18.9584 9.85038C18.9593 10.002 18.9595 10.1537 18.9595 10.3054C18.9595 10.4321 18.9599 10.5589 18.9602 10.6856C18.9611 10.9847 18.9613 11.2838 18.961 11.5829C18.9607 11.8911 18.9617 12.1993 18.9635 12.5075C18.9649 12.7724 18.9654 13.0373 18.9653 13.3022C18.9652 13.4603 18.9654 13.6184 18.9666 13.7765C18.9676 13.9529 18.9671 14.1293 18.9663 14.3057C18.9669 14.3579 18.9676 14.41 18.9682 14.4638C18.9639 14.8588 18.9639 14.8588 18.8292 15.0314C18.699 15.1444 18.6077 15.1919 18.434 15.2008C18.214 15.1736 18.0273 15.0663 17.833 14.9651C17.7382 14.9176 17.6433 14.8702 17.5484 14.8228C17.4997 14.7981 17.451 14.7734 17.4008 14.7479C17.1503 14.622 16.8968 14.5023 16.6435 14.3821C16.5523 14.3384 16.461 14.2948 16.3698 14.2511C16.3315 14.2328 16.2932 14.2145 16.2537 14.1956C16.2267 14.1827 16.1997 14.1698 16.1719 14.1565C16.1737 14.2238 16.1737 14.2238 16.1756 14.2925C16.1798 14.4606 16.1825 14.6287 16.1847 14.7968C16.1859 14.8692 16.1875 14.9417 16.1895 15.0142C16.2095 15.7407 16.2095 15.7407 16.002 16.0112C15.777 16.2455 15.5782 16.396 15.2446 16.4184C15.174 16.419 15.1034 16.419 15.0329 16.4187C14.9938 16.4189 14.9548 16.4191 14.9146 16.4192C14.784 16.4197 14.6533 16.4195 14.5226 16.4193C14.4289 16.4196 14.3352 16.4198 14.2415 16.4201C13.987 16.4207 13.7325 16.4207 13.478 16.4206C13.2655 16.4206 13.053 16.4208 12.8405 16.421C12.3392 16.4215 11.8379 16.4216 11.3367 16.4213C10.8195 16.421 10.3024 16.4216 9.78531 16.4226C9.34132 16.4234 8.89732 16.4237 8.45333 16.4235C8.18816 16.4234 7.92299 16.4236 7.65782 16.4242C7.40843 16.4248 7.15904 16.4247 6.90965 16.4241C6.81817 16.424 6.72669 16.4241 6.63522 16.4245C6.51022 16.425 6.38526 16.4246 6.26027 16.424C6.22418 16.4244 6.18809 16.4247 6.1509 16.4251C5.77936 16.4214 5.51707 16.2864 5.24998 16.0315C5.08182 15.7937 5.05666 15.6029 5.0559 15.3155C5.05563 15.2551 5.05536 15.1946 5.05509 15.1323C5.05503 15.0654 5.05498 14.9985 5.05493 14.9316C5.05471 14.8611 5.05448 14.7905 5.05422 14.72C5.05361 14.5284 5.05331 14.3368 5.0531 14.1453C5.05296 14.0255 5.05277 13.9057 5.05256 13.786C5.05192 13.4111 5.05147 13.0361 5.05128 12.6612C5.05107 12.2288 5.05025 11.7964 5.04889 11.364C5.04788 11.0296 5.04741 10.6951 5.04734 10.3606C5.0473 10.1609 5.04702 9.9613 5.04618 9.76165C5.04541 9.57374 5.04531 9.38584 5.04572 9.19792C5.04576 9.12914 5.04555 9.06036 5.04509 8.99158C5.04015 8.21529 5.04015 8.21529 5.28898 7.91075C5.31962 7.88549 5.35025 7.86023 5.38182 7.83421C5.41209 7.80823 5.44236 7.78224 5.47355 7.75547C5.7199 7.59585 5.96742 7.58029 6.25368 7.58144ZM6.04686 8.57835C6.04686 10.8368 6.04686 13.0952 6.04686 15.4221C9.06326 15.4221 12.0797 15.4221 15.1875 15.4221C15.1875 13.1637 15.1875 10.9052 15.1875 8.57835C12.1711 8.57835 9.15467 8.57835 6.04686 8.57835ZM17.5763 10.2622C17.5341 10.2834 17.5341 10.2834 17.4911 10.305C17.4009 10.3504 17.3108 10.396 17.2207 10.4416C17.1611 10.4717 17.1014 10.5017 17.0418 10.5317C16.9306 10.5877 16.8195 10.6438 16.7084 10.6999C16.5298 10.7901 16.3508 10.8795 16.1719 10.969C16.1719 11.6496 16.1719 12.3302 16.1719 13.0315C16.5431 13.2171 16.5431 13.2171 16.9219 13.4065C17.0126 13.4524 17.1034 13.4983 17.1969 13.5456C17.2363 13.5656 17.2758 13.5855 17.3164 13.6061C17.3959 13.6462 17.4752 13.6865 17.5545 13.7269C17.5931 13.7464 17.6317 13.7658 17.6715 13.7859C17.7055 13.8031 17.7395 13.8204 17.7746 13.8381C17.8582 13.8815 17.8582 13.8815 17.9531 13.8752C17.9531 12.6377 17.9531 11.4002 17.9531 10.1252C17.8079 10.1252 17.7052 10.1971 17.5763 10.2622Z" fill="#A0A0A0"/>
<path d="M12.8758 9.68664C12.9577 9.68586 13.0396 9.68458 13.1214 9.68279C13.2396 9.68022 13.3578 9.6792 13.476 9.67851C13.5306 9.67692 13.5306 9.67692 13.5864 9.67529C13.7783 9.67604 13.8632 9.69347 14.0142 9.81591C14.1377 9.97357 14.1654 10.0401 14.1504 10.2363C14.1299 10.4038 14.1191 10.4428 13.998 10.5702C13.7155 10.7317 13.414 10.6979 13.0983 10.6987C12.994 10.6991 12.8897 10.7006 12.7854 10.7021C12.7186 10.7024 12.6518 10.7026 12.585 10.7028C12.5245 10.7032 12.4641 10.7037 12.4017 10.7041C12.2193 10.6859 12.1078 10.6438 11.9531 10.5468C11.8275 10.3584 11.8267 10.2057 11.8594 9.9843C12.0974 9.60348 12.4734 9.68943 12.8758 9.68664Z" fill="#A0A0A0"/>
</g>
<defs>
<clipPath id="clip0_85_14">
<rect width="24" height="24" fill="white"/>
</clipPath>
</defs>
</svg>
