<svg width="24" height="24" viewBox="0 0 24 24" fill="none" xmlns="http://www.w3.org/2000/svg">
<path d="M11.4772 3.0175C11.8752 3.3937 12.2703 3.87136 12.4218 4.40617C12.4528 4.40617 12.4837 4.40617 12.5156 4.40617C12.5276 4.36532 12.5396 4.32447 12.552 4.28239C12.7188 3.82417 13.0688 3.43722 13.4062 3.09367C13.4326 3.06672 13.4589 3.03977 13.4861 3.012C14.0353 2.49746 14.7478 2.38819 15.4687 2.39054C16.2293 2.43593 16.9679 2.75977 17.4919 3.31797C18.0751 4.02013 18.238 4.78468 18.1875 5.67179C18.0876 6.68816 17.5547 7.571 16.9218 8.34367C16.9023 8.36801 16.8828 8.39236 16.8627 8.41744C16.5438 8.81401 16.1914 9.17646 15.832 9.53605C15.7988 9.56929 15.7988 9.56929 15.765 9.60319C15.5302 9.83795 15.2928 10.0668 15.0409 10.2831C14.8905 10.4136 14.7464 10.5509 14.6015 10.6874C14.3946 10.8815 14.1868 11.0733 13.9718 11.2585C13.7599 11.4448 13.5545 11.6384 13.3476 11.8302C13.2638 11.9078 13.1799 11.9852 13.0959 12.0625C13.0683 12.0879 13.0408 12.1132 13.0125 12.1393C12.9598 12.1879 12.9071 12.2364 12.8543 12.2849C12.7392 12.3909 12.625 12.4973 12.5156 12.6093C12.3522 12.5397 12.2511 12.447 12.1289 12.3193C11.9701 12.1538 11.8035 12.0027 11.6303 11.8526C11.4362 11.682 11.2501 11.5029 11.0625 11.3252C10.8761 11.1493 10.6866 10.9781 10.4931 10.8101C10.2979 10.6398 10.1087 10.4627 9.91825 10.2871C9.84583 10.2206 9.77305 10.1545 9.70017 10.0885C9.10137 9.54426 8.50909 8.98682 8.0156 8.34367C7.95895 8.27415 7.95895 8.27415 7.90116 8.20323C7.10802 7.22206 6.62928 6.05865 6.74997 4.78117C6.88137 4.03362 7.26854 3.41553 7.86087 2.94664C8.94304 2.21834 10.4516 2.16213 11.4772 3.0175Z" fill="#697865"/>
<path d="M2.33477 7.67048C3.42523 8.35202 3.86181 10.3076 4.33582 11.4401C4.42074 11.6429 4.50671 11.8451 4.59356 12.0471C4.63888 12.0443 4.68419 12.0416 4.73089 12.0388C5.42173 12.0149 5.78383 12.2841 6.31347 12.6903C6.51852 12.8472 6.72694 12.9989 6.93731 13.1486C6.96924 13.1717 7.00118 13.1947 7.03409 13.2185C7.33274 13.4301 7.63858 13.5818 7.9832 13.7053C8.64072 13.9561 9.12183 14.2829 9.46856 14.9064C9.52463 15.0352 9.5686 15.1661 9.61058 15.3C9.62235 15.3365 9.63412 15.373 9.64625 15.4106C9.76817 15.7955 9.86688 16.1855 9.96184 16.5778C9.98033 16.6531 9.99885 16.7284 10.0174 16.8037C10.0556 16.9593 10.0937 17.115 10.1315 17.2707C10.1801 17.4704 10.229 17.67 10.2781 17.8696C10.3252 18.0611 10.372 18.2525 10.4189 18.444C10.4278 18.4804 10.4367 18.5168 10.4459 18.5542C10.4709 18.6564 10.4958 18.7585 10.5206 18.8607C10.5347 18.9187 10.5488 18.9768 10.5634 19.0366C10.5936 19.1721 10.5936 19.1721 10.5936 19.2658C10.6207 19.2642 10.6479 19.2626 10.676 19.2609C10.9177 19.2525 11.0948 19.2574 11.2967 19.4064C11.478 19.7015 11.4572 20.0088 11.4531 20.3473C11.452 20.4436 11.4521 20.54 11.4524 20.6364C11.4491 21.2486 11.4491 21.2486 11.2557 21.4807C11.097 21.6113 10.9473 21.6154 10.7465 21.6158C10.702 21.616 10.6575 21.6162 10.6117 21.6164C10.5632 21.6164 10.5147 21.6164 10.4648 21.6164C10.3878 21.6166 10.3878 21.6166 10.3093 21.6169C10.1394 21.6173 9.96962 21.6174 9.79979 21.6174C9.68187 21.6176 9.56394 21.6178 9.44601 21.6179C9.19875 21.6182 8.95148 21.6183 8.70422 21.6183C8.41862 21.6182 8.13302 21.6187 7.84742 21.6195C7.57241 21.6201 7.29741 21.6203 7.02239 21.6203C6.90549 21.6203 6.78859 21.6206 6.67169 21.6209C6.50831 21.6214 6.34493 21.6212 6.18155 21.621C6.13316 21.6212 6.08476 21.6215 6.03491 21.6218C5.96798 21.6215 5.96798 21.6215 5.89969 21.6212C5.86109 21.6212 5.82249 21.6212 5.78272 21.6212C5.54905 21.5967 5.40038 21.5058 5.24981 21.3283C5.16701 21.0799 5.19236 20.8118 5.19167 20.5517C5.19122 20.4473 5.18976 20.3431 5.18828 20.2387C5.18798 20.1719 5.18773 20.1051 5.18755 20.0383C5.18711 19.9779 5.18667 19.9174 5.18622 19.8551C5.2044 19.673 5.24741 19.5612 5.34356 19.4064C5.56472 19.2518 5.75824 19.2479 6.01738 19.257C6.05189 19.2577 6.08639 19.2583 6.12194 19.259C6.20624 19.2606 6.29053 19.2631 6.37481 19.2658C6.33391 19.0937 6.2915 18.9219 6.24883 18.7502C6.23738 18.7019 6.22593 18.6536 6.21413 18.6039C6.04207 17.92 5.67922 17.622 5.11211 17.2414C5.03307 17.1878 4.95403 17.1342 4.87499 17.0806C4.816 17.0408 4.816 17.0408 4.75581 17.0001C4.49359 16.8227 4.2326 16.6436 3.97246 16.4631C3.89607 16.4103 3.81929 16.3581 3.74248 16.3059C2.95276 15.7559 2.64027 14.9671 2.34942 14.0832C2.32319 14.0045 2.29694 13.9259 2.27066 13.8472C2.22536 13.7113 2.18019 13.5755 2.13528 13.4395C2.01841 13.0859 1.89934 12.7332 1.77935 12.3806C1.66714 12.0508 1.55585 11.7207 1.44508 11.3904C1.37501 11.1815 1.30458 10.9728 1.23325 10.7643C1.16493 10.5645 1.09775 10.3644 1.03132 10.164C1.00646 10.0896 0.981206 10.0153 0.955532 9.94114C0.753647 9.35702 0.605597 8.76617 0.869924 8.17402C1.02607 7.90297 1.20228 7.73165 1.47051 7.57637C1.7809 7.50246 2.04872 7.52646 2.33477 7.67048Z" fill="#697865"/>
<path d="M22.6027 7.62032C22.8883 7.7827 23.0969 8.04535 23.2138 8.35156C23.3943 9.01208 23.1496 9.6402 22.9369 10.2596C22.9042 10.3575 22.8716 10.4555 22.839 10.5534C22.7535 10.8102 22.6666 11.0666 22.5794 11.3228C22.4923 11.5798 22.4064 11.8373 22.3205 12.0947C22.1456 12.6176 21.9687 13.1399 21.7909 13.6618C21.7531 13.7727 21.7155 13.8837 21.6778 13.9946C21.6192 14.1674 21.5601 14.3401 21.501 14.5128C21.4852 14.5591 21.4694 14.6055 21.4532 14.6533C21.1063 15.6571 20.499 16.1587 19.6408 16.7346C19.5029 16.8279 19.3652 16.9215 19.2276 17.0151C19.1404 17.0744 19.0532 17.1334 18.9658 17.1922C18.1026 17.7757 17.8597 18.2714 17.6252 19.2658C17.6761 19.2642 17.7269 19.2626 17.7794 19.2609C17.8471 19.2596 17.9149 19.2583 17.9826 19.257C18.016 19.2559 18.0494 19.2547 18.0839 19.2535C18.3085 19.2504 18.4665 19.2736 18.6564 19.4064C18.789 19.6207 18.8151 19.7852 18.8157 20.035C18.8159 20.0836 18.8159 20.0836 18.8161 20.133C18.8162 20.201 18.816 20.269 18.8154 20.3369C18.8146 20.4405 18.8154 20.544 18.8163 20.6476C18.8162 20.7139 18.816 20.7803 18.8157 20.8466C18.8156 20.9064 18.8154 20.9662 18.8153 21.0279C18.7897 21.2522 18.6926 21.4213 18.5158 21.5627C18.3772 21.6065 18.2511 21.6155 18.1062 21.6158C18.0618 21.616 18.0173 21.6162 17.9714 21.6164C17.9229 21.6164 17.8745 21.6164 17.8245 21.6164C17.7475 21.6166 17.7475 21.6166 17.669 21.6169C17.4992 21.6173 17.3294 21.6174 17.1595 21.6174C17.0416 21.6176 16.9237 21.6178 16.8058 21.6179C16.5585 21.6182 16.3112 21.6183 16.064 21.6183C15.7784 21.6182 15.4928 21.6187 15.2072 21.6195C14.9322 21.6202 14.6572 21.6203 14.3821 21.6203C14.2652 21.6203 14.1483 21.6206 14.0314 21.6209C13.8681 21.6214 13.7047 21.6212 13.5413 21.621C13.4929 21.6212 13.4445 21.6215 13.3947 21.6218C13.3277 21.6215 13.3277 21.6215 13.2594 21.6212C13.2208 21.6212 13.1822 21.6212 13.1425 21.6212C12.9104 21.5969 12.7569 21.5073 12.6096 21.3283C12.5233 21.0807 12.5522 20.8024 12.5514 20.5439C12.551 20.4473 12.5495 20.3507 12.548 20.2541C12.5457 19.6619 12.5457 19.6619 12.7033 19.4064C12.872 19.2819 13.0016 19.2596 13.2054 19.2627C13.2431 19.2632 13.2808 19.2636 13.3197 19.2641C13.3626 19.2649 13.3626 19.2649 13.4064 19.2658C13.4156 19.2225 13.4249 19.1792 13.4344 19.1345C13.5809 18.4564 13.748 17.7833 13.9156 17.1102C13.9578 16.9408 13.9995 16.7713 14.041 16.6019C14.0737 16.469 14.1067 16.3363 14.1399 16.2036C14.1628 16.1114 14.1853 16.0191 14.2078 15.9269C14.35 15.3608 14.5003 14.8242 14.9064 14.3908C14.9362 14.3586 14.9659 14.3264 14.9965 14.2932C15.3674 13.9286 15.8487 13.7489 16.3332 13.5852C16.7018 13.4474 16.9849 13.2086 17.2909 12.9679C17.4612 12.8365 17.6368 12.7128 17.8127 12.5891C17.8446 12.5664 17.8766 12.5437 17.9095 12.5204C18.594 12.0384 18.594 12.0384 19.0637 12.0441C19.0966 12.0444 19.1295 12.0446 19.1634 12.0448C19.2444 12.0453 19.3254 12.0462 19.4064 12.0471C19.4941 11.8428 19.5818 11.6385 19.6694 11.4342C19.7011 11.3604 19.7328 11.2865 19.7645 11.2127C19.9415 10.8006 20.1177 10.3882 20.2908 9.9745C20.3198 9.90553 20.3487 9.83655 20.3777 9.76758C20.4189 9.66951 20.4599 9.5714 20.5007 9.47314C21.1465 7.91475 21.1465 7.91475 21.8439 7.59395C22.1006 7.5084 22.3538 7.5083 22.6027 7.62032Z" fill="#697865"/>
<path d="M13.5069 19.2477C13.559 19.2474 13.6112 19.2472 13.6649 19.2469C13.8371 19.2463 14.0092 19.2467 14.1813 19.2472C14.3011 19.2471 14.4209 19.247 14.5407 19.2468C14.7916 19.2466 15.0425 19.2469 15.2934 19.2475C15.5831 19.2483 15.8727 19.248 16.1624 19.2473C16.4416 19.2466 16.7208 19.2466 17 19.247C17.1186 19.2471 17.2372 19.247 17.3557 19.2467C17.5214 19.2463 17.6871 19.2469 17.8529 19.2477C17.9018 19.2474 17.9508 19.2471 18.0012 19.2468C18.2536 19.249 18.4407 19.2597 18.6564 19.4065C18.7977 19.6146 18.8151 19.787 18.8157 20.0351C18.8159 20.0836 18.8159 20.0836 18.8161 20.1331C18.8162 20.201 18.816 20.269 18.8154 20.3369C18.8146 20.4405 18.8154 20.5441 18.8163 20.6477C18.8162 20.714 18.816 20.7803 18.8157 20.8466C18.8156 20.9064 18.8154 20.9663 18.8153 21.0279C18.7897 21.2522 18.6926 21.4213 18.5158 21.5627C18.3772 21.6066 18.2511 21.6156 18.1062 21.6159C18.0618 21.6161 18.0173 21.6163 17.9714 21.6165C17.9229 21.6165 17.8745 21.6164 17.8245 21.6164C17.7475 21.6167 17.7475 21.6167 17.669 21.6169C17.4992 21.6173 17.3294 21.6174 17.1595 21.6175C17.0416 21.6176 16.9237 21.6178 16.8058 21.618C16.5585 21.6182 16.3112 21.6183 16.064 21.6183C15.7784 21.6183 15.4928 21.6188 15.2072 21.6195C14.9322 21.6202 14.6572 21.6204 14.3821 21.6203C14.2652 21.6204 14.1483 21.6206 14.0314 21.621C13.8681 21.6214 13.7047 21.6213 13.5413 21.621C13.4929 21.6213 13.4445 21.6215 13.3947 21.6218C13.3277 21.6215 13.3277 21.6215 13.2594 21.6212C13.2208 21.6212 13.1822 21.6213 13.1425 21.6213C12.9104 21.5969 12.7569 21.5073 12.6096 21.3284C12.5233 21.0807 12.5522 20.8025 12.5514 20.5439C12.551 20.4473 12.5495 20.3508 12.548 20.2542C12.5456 19.6387 12.5456 19.6387 12.7033 19.4065C12.9599 19.2318 13.2081 19.2459 13.5069 19.2477Z" fill="#A8B0BA"/>
<path d="M6.14742 19.2477C6.19958 19.2474 6.25175 19.2472 6.3055 19.2469C6.47763 19.2463 6.64975 19.2467 6.82188 19.2472C6.94167 19.2471 7.06145 19.247 7.18123 19.2468C7.43216 19.2466 7.68308 19.2469 7.934 19.2475C8.22365 19.2483 8.51329 19.248 8.80294 19.2473C9.08215 19.2466 9.36136 19.2466 9.64058 19.247C9.75914 19.2471 9.87771 19.247 9.99627 19.2467C10.162 19.2463 10.3277 19.2469 10.4934 19.2477C10.5424 19.2474 10.5913 19.2471 10.6418 19.2468C10.8942 19.249 11.0813 19.2597 11.297 19.4065C11.489 19.6902 11.4575 20.0149 11.4534 20.3473C11.4523 20.4437 11.4524 20.54 11.4527 20.6364C11.4494 21.2486 11.4494 21.2486 11.256 21.4807C11.0973 21.6114 10.9476 21.6155 10.7468 21.6159C10.7023 21.6161 10.6578 21.6163 10.612 21.6165C10.5635 21.6165 10.515 21.6164 10.4651 21.6164C10.3881 21.6167 10.3881 21.6167 10.3096 21.6169C10.1397 21.6173 9.96992 21.6174 9.80009 21.6175C9.68217 21.6176 9.56424 21.6178 9.44631 21.618C9.19905 21.6182 8.95178 21.6183 8.70452 21.6183C8.41892 21.6183 8.13332 21.6188 7.84772 21.6195C7.57271 21.6202 7.29771 21.6204 7.02269 21.6203C6.90579 21.6204 6.78889 21.6206 6.67199 21.621C6.50861 21.6214 6.34523 21.6213 6.18185 21.621C6.13346 21.6213 6.08507 21.6215 6.03521 21.6218C5.96828 21.6215 5.96828 21.6215 5.89999 21.6212C5.86139 21.6212 5.82279 21.6213 5.78302 21.6213C5.54935 21.5967 5.40068 21.5058 5.25011 21.3284C5.16731 21.08 5.19266 20.8118 5.19197 20.5517C5.19152 20.4474 5.19006 20.3431 5.18858 20.2388C5.18828 20.172 5.18803 20.1052 5.18785 20.0384C5.18741 19.9779 5.18697 19.9174 5.18652 19.8551C5.20513 19.6687 5.23838 19.5612 5.34386 19.4065C5.60053 19.2319 5.84865 19.2459 6.14742 19.2477Z" fill="#A8B0BA"/>
<path d="M3.98456 12.7969C4.21044 12.8702 4.37387 12.999 4.55878 13.1426C4.82283 13.3442 5.08933 13.5409 5.36151 13.7314C5.67714 13.9527 5.99047 14.1768 6.30249 14.4031C6.46837 14.5233 6.63454 14.643 6.802 14.761C6.83193 14.7822 6.86186 14.8033 6.89269 14.8251C6.948 14.8641 7.0034 14.9029 7.05893 14.9416C7.20395 15.044 7.33796 15.1457 7.45331 15.2812C7.47967 15.4453 7.47967 15.4453 7.45331 15.6094C7.35663 15.7266 7.35663 15.7266 7.21893 15.7969C6.89696 15.7965 6.71267 15.6412 6.466 15.4482C6.38644 15.3878 6.30685 15.3274 6.22723 15.267C6.18844 15.2373 6.14965 15.2075 6.10968 15.1769C5.96496 15.067 5.81757 14.9613 5.66913 14.8564C5.61718 14.8195 5.56523 14.7825 5.5133 14.7455C5.42222 14.6807 5.33112 14.6159 5.24 14.5512C5.12801 14.4715 5.01623 14.3915 4.90448 14.3115C4.86991 14.287 4.83534 14.2625 4.79973 14.2373C4.07718 13.7188 4.07718 13.7188 3.98456 13.4062C3.97408 13.2025 3.97639 13.0006 3.98456 12.7969Z" fill="#D5A889"/>
<path d="M20.0156 12.7969C20.0579 13.4127 20.0579 13.4127 19.8646 13.6932C19.6253 13.9461 19.343 14.1482 19.0605 14.3496C19.0239 14.3759 18.9872 14.4022 18.9494 14.4293C18.6706 14.629 18.3912 14.8279 18.1102 15.0245C17.937 15.1458 17.7653 15.2687 17.5953 15.3946C17.5596 15.4207 17.5239 15.4469 17.487 15.4738C17.4187 15.5238 17.3507 15.5744 17.2831 15.6255C17.1344 15.7336 17.0445 15.7932 16.8591 15.8168C16.7344 15.7969 16.7344 15.7969 16.623 15.7236C16.5469 15.6094 16.5469 15.6094 16.5117 15.4541C16.5973 15.0331 17.1666 14.7759 17.5018 14.5424C17.7154 14.3935 17.9268 14.2416 18.1377 14.0889C18.1724 14.0637 18.2071 14.0386 18.2429 14.0127C18.3135 13.9616 18.3842 13.9104 18.4548 13.8592C18.5649 13.7795 18.675 13.7 18.7852 13.6205C18.8217 13.5941 18.8582 13.5677 18.8959 13.5406C18.9676 13.4888 19.0394 13.437 19.1113 13.3853C19.2649 13.2744 19.4184 13.1633 19.5705 13.0503C19.64 12.9988 19.64 12.9988 19.7109 12.9463C19.7501 12.917 19.7892 12.8877 19.8296 12.8575C19.9219 12.7969 19.9219 12.7969 20.0156 12.7969Z" fill="#D5A889"/>
</svg>
