<svg width="31" height="31" viewBox="0 0 31 31" fill="none" xmlns="http://www.w3.org/2000/svg">
<mask id="mask0_760_10132" style="mask-type:alpha" maskUnits="userSpaceOnUse" x="0" y="0" width="31" height="31">
<rect x="0.46875" y="0.770752" width="30" height="30" fill="#D9D9D9"/>
</mask>
<g mask="url(#mask0_760_10132)">
<path d="M15.4688 28.2708C13.7604 28.2708 12.1458 27.9426 10.625 27.2864C9.10417 26.6301 7.77604 25.7343 6.64062 24.5989C5.50521 23.4635 4.60938 22.1353 3.95312 20.6145C3.29688 19.0937 2.96875 17.4791 2.96875 15.7708C2.96875 14.0416 3.29688 12.4218 3.95312 10.9114C4.60938 9.40096 5.50521 8.07804 6.64062 6.94263C7.77604 5.80721 9.10417 4.91138 10.625 4.25513C12.1458 3.59888 13.7604 3.27075 15.4688 3.27075C17.1979 3.27075 18.8177 3.59888 20.3281 4.25513C21.8385 4.91138 23.1615 5.80721 24.2969 6.94263C25.4323 8.07804 26.3281 9.40096 26.9844 10.9114C27.6406 12.4218 27.9688 14.0416 27.9688 15.7708C27.9688 17.4791 27.6406 19.0937 26.9844 20.6145C26.3281 22.1353 25.4323 23.4635 24.2969 24.5989C23.1615 25.7343 21.8385 26.6301 20.3281 27.2864C18.8177 27.9426 17.1979 28.2708 15.4688 28.2708ZM15.4688 25.7083C16.0104 24.9583 16.4792 24.177 16.875 23.3645C17.2708 22.552 17.5938 21.6874 17.8438 20.7708H13.0938C13.3438 21.6874 13.6667 22.552 14.0625 23.3645C14.4583 24.177 14.9271 24.9583 15.4688 25.7083ZM12.2188 25.2083C11.8438 24.5208 11.5156 23.8072 11.2344 23.0676C10.9531 22.328 10.7188 21.5624 10.5312 20.7708H6.84375C7.44792 21.8124 8.20312 22.7187 9.10938 23.4895C10.0156 24.2603 11.0521 24.8333 12.2188 25.2083ZM18.7188 25.2083C19.8854 24.8333 20.9219 24.2603 21.8281 23.4895C22.7344 22.7187 23.4896 21.8124 24.0938 20.7708H20.4062C20.2188 21.5624 19.9844 22.328 19.7031 23.0676C19.4219 23.8072 19.0938 24.5208 18.7188 25.2083ZM5.78125 18.2708H10.0312C9.96875 17.8541 9.92188 17.4426 9.89062 17.0364C9.85938 16.6301 9.84375 16.2083 9.84375 15.7708C9.84375 15.3333 9.85938 14.9114 9.89062 14.5051C9.92188 14.0989 9.96875 13.6874 10.0312 13.2708H5.78125C5.67708 13.6874 5.59896 14.0989 5.54688 14.5051C5.49479 14.9114 5.46875 15.3333 5.46875 15.7708C5.46875 16.2083 5.49479 16.6301 5.54688 17.0364C5.59896 17.4426 5.67708 17.8541 5.78125 18.2708ZM12.5312 18.2708H18.4062C18.4688 17.8541 18.5156 17.4426 18.5469 17.0364C18.5781 16.6301 18.5938 16.2083 18.5938 15.7708C18.5938 15.3333 18.5781 14.9114 18.5469 14.5051C18.5156 14.0989 18.4688 13.6874 18.4062 13.2708H12.5312C12.4688 13.6874 12.4219 14.0989 12.3906 14.5051C12.3594 14.9114 12.3438 15.3333 12.3438 15.7708C12.3438 16.2083 12.3594 16.6301 12.3906 17.0364C12.4219 17.4426 12.4688 17.8541 12.5312 18.2708ZM20.9062 18.2708H25.1562C25.2604 17.8541 25.3385 17.4426 25.3906 17.0364C25.4427 16.6301 25.4688 16.2083 25.4688 15.7708C25.4688 15.3333 25.4427 14.9114 25.3906 14.5051C25.3385 14.0989 25.2604 13.6874 25.1562 13.2708H20.9062C20.9688 13.6874 21.0156 14.0989 21.0469 14.5051C21.0781 14.9114 21.0938 15.3333 21.0938 15.7708C21.0938 16.2083 21.0781 16.6301 21.0469 17.0364C21.0156 17.4426 20.9688 17.8541 20.9062 18.2708ZM20.4062 10.7708H24.0938C23.4896 9.72909 22.7344 8.82284 21.8281 8.052C20.9219 7.28117 19.8854 6.70825 18.7188 6.33325C19.0938 7.02075 19.4219 7.73429 19.7031 8.47388C19.9844 9.21346 20.2188 9.97909 20.4062 10.7708ZM13.0938 10.7708H17.8438C17.5938 9.85409 17.2708 8.9895 16.875 8.177C16.4792 7.3645 16.0104 6.58325 15.4688 5.83325C14.9271 6.58325 14.4583 7.3645 14.0625 8.177C13.6667 8.9895 13.3438 9.85409 13.0938 10.7708ZM6.84375 10.7708H10.5312C10.7188 9.97909 10.9531 9.21346 11.2344 8.47388C11.5156 7.73429 11.8438 7.02075 12.2188 6.33325C11.0521 6.70825 10.0156 7.28117 9.10938 8.052C8.20312 8.82284 7.44792 9.72909 6.84375 10.7708Z" fill="#9B9A78"/>
</g>
</svg>
